<?xml version="1.0" encoding="UTF-8"?>
<!DOCTYPE svg PUBLIC "-//W3C//DTD SVG 1.1//EN" "http://www.w3.org/Graphics/SVG/1.1/DTD/svg11.dtd">
<!-- Creator: CorelDRAW 2017 -->
<svg xmlns="http://www.w3.org/2000/svg" xml:space="preserve" width="12.9661mm" height="4.8125mm" version="1.1" style="shape-rendering:geometricPrecision; text-rendering:geometricPrecision; image-rendering:optimizeQuality; fill-rule:evenodd; clip-rule:evenodd"
viewBox="0 0 290012 107641"
 xmlns:xlink="http://www.w3.org/1999/xlink">
 <defs>
  <style type="text/css">
   <![CDATA[
    .fil1 {fill:#D6BB74}
    .fil0 {fill:#D6BB74;fill-rule:nonzero}
   ]]>
  </style>
 </defs>
 <g id="Слой_x0020_1">
  <metadata id="CorelCorpID_0Corel-Layer"/>
  <g id="_2150419126160">
   <path class="fil0" d="M110718 35445l12474 0 0 -5657c0,-1210 -65,-2102 -204,-2677 -132,-575 -382,-1056 -743,-1427 -329,-342 -700,-586 -1121,-743 -414,-150 -957,-246 -1642,-282l0 -396 11206 0 0 396c-667,36 -1206,132 -1624,282 -414,150 -785,396 -1116,738 -358,376 -611,850 -743,1431 -136,582 -204,1467 -204,2666l0 12953c0,1199 67,2080 204,2655 132,575 385,1056 743,1445 331,329 702,568 1116,731 418,154 957,251 1624,286l0 396 -11206 0 0 -396c684,-36 1228,-132 1642,-286 420,-163 792,-403 1121,-731 360,-371 611,-845 743,-1420 139,-575 204,-1463 204,-2666l0 -6471 -12474 0 0 6471c0,1192 65,2078 204,2659 132,575 385,1056 743,1427 318,329 684,568 1103,731 414,154 960,251 1642,286l0 396 -11186 0 0 -396c675,-36 1221,-132 1642,-286 414,-163 778,-403 1096,-731 371,-378 624,-852 756,-1427 125,-575 190,-1461 190,-2673l0 -12953c0,-1210 -65,-2098 -190,-2673 -132,-575 -385,-1049 -756,-1425 -318,-342 -682,-588 -1109,-738 -418,-150 -964,-246 -1628,-282l0 -396 11186 0 0 396c-671,36 -1210,132 -1624,282 -418,157 -790,400 -1121,743 -358,371 -611,852 -743,1431 -139,582 -204,1474 -204,2673l0 5657z"/>
   <path id="1" class="fil0" d="M156902 48243l-11546 0 0 -396c1042,-96 1774,-268 2181,-528 725,-454 1092,-1089 1092,-1899 0,-479 -163,-1121 -492,-1928l-300 -738 -1684 -4147 -7741 0 -917 2427 -443 1085c-528,1288 -792,2302 -792,3037 0,438 96,839 295,1217 190,371 450,678 778,910 461,318 1049,503 1767,564l0 396 -7873 0 0 -396c624,-36 1163,-186 1637,-454 467,-271 922,-707 1364,-1302 378,-479 745,-1103 1103,-1856 353,-756 828,-1888 1409,-3398l6424 -16574 1007 0 7656 18466c575,1398 1031,2391 1373,2990 336,599 707,1049 1100,1355 282,208 606,371 966,485 365,107 910,204 1635,286l0 396zm-11025 -10354l-3684 -9108 -3500 9108 7184 0z"/>
   <path id="2" class="fil0" d="M164889 36523l0 6214c0,1199 65,2085 204,2662 139,579 385,1060 749,1431 318,329 689,568 1109,731 418,154 964,251 1653,286l0 396 -11210 0 0 -396c675,-36 1221,-132 1642,-286 414,-163 778,-403 1096,-731 371,-378 624,-852 756,-1427 125,-575 190,-1461 190,-2673l0 -12953c0,-1210 -65,-2098 -190,-2673 -132,-575 -385,-1049 -756,-1425 -318,-342 -682,-588 -1109,-738 -418,-150 -964,-246 -1628,-282l0 -396 8466 0c1414,0 2342,7 2791,18 1816,85 3236,331 4268,738 1161,467 2060,1168 2695,2102 642,928 960,2013 960,3241 0,1827 -689,3290 -2073,4393 -420,329 -888,599 -1396,810 -510,208 -1192,412 -2044,597 689,295 1206,599 1534,913 271,244 510,557 731,922 215,371 546,1024 982,1959 1042,2145 1827,3715 2362,4704 532,989 982,1709 1342,2152 293,365 575,617 850,754 275,145 653,235 1132,282l0 396 -5793 0c-293,-642 -479,-1053 -564,-1228l-1228 -2791c-743,-1673 -1485,-3154 -2234,-4435 -749,-1275 -1438,-2152 -2062,-2617 -318,-235 -658,-403 -1018,-499 -367,-101 -816,-150 -1342,-150l-863 0zm0 -396l671 0c1463,0 2510,-83 3140,-244 629,-168 1221,-503 1774,-1020 1239,-1174 1856,-2630 1856,-4362 0,-928 -179,-1798 -539,-2612 -360,-814 -857,-1485 -1492,-2013 -497,-403 -1085,-678 -1767,-832 -684,-163 -1660,-242 -2919,-242l-725 0 0 11324z"/>
   <path id="3" class="fil0" d="M188166 36523l0 6214c0,1199 65,2085 204,2662 139,579 385,1060 749,1431 318,329 689,568 1109,731 418,154 964,251 1653,286l0 396 -11210 0 0 -396c675,-36 1221,-132 1642,-286 414,-163 778,-403 1096,-731 371,-378 624,-852 756,-1427 125,-575 190,-1461 190,-2673l0 -12953c0,-1210 -65,-2098 -190,-2673 -132,-575 -385,-1049 -756,-1425 -318,-342 -682,-588 -1109,-738 -418,-150 -964,-246 -1628,-282l0 -396 8466 0c1414,0 2342,7 2791,18 1816,85 3236,331 4268,738 1161,467 2060,1168 2695,2102 642,928 960,2013 960,3241 0,1827 -689,3290 -2073,4393 -420,329 -888,599 -1396,810 -510,208 -1192,412 -2044,597 689,295 1206,599 1534,913 271,244 510,557 731,922 215,371 546,1024 982,1959 1042,2145 1827,3715 2362,4704 532,989 982,1709 1342,2152 293,365 575,617 850,754 275,145 653,235 1132,282l0 396 -5793 0c-293,-642 -479,-1053 -564,-1228l-1228 -2791c-743,-1673 -1485,-3154 -2234,-4435 -749,-1275 -1438,-2152 -2062,-2617 -318,-235 -658,-403 -1018,-499 -367,-101 -816,-150 -1342,-150l-863 0zm0 -396l671 0c1463,0 2510,-83 3140,-244 629,-168 1221,-503 1774,-1020 1239,-1174 1856,-2630 1856,-4362 0,-928 -179,-1798 -539,-2612 -360,-814 -857,-1485 -1492,-2013 -497,-403 -1085,-678 -1767,-832 -684,-163 -1660,-242 -2919,-242l-725 0 0 11324z"/>
   <path id="4" class="fil0" d="M215127 24264l0 396c-664,36 -1203,132 -1622,282 -414,150 -785,396 -1116,738 -454,465 -736,1118 -839,1953 -72,622 -107,1335 -107,2145l0 12953c0,977 47,1745 139,2308 94,557 244,1013 461,1349 300,472 696,821 1174,1047 479,228 1114,367 1910,414l0 396 -11179 0 0 -396c675,-36 1221,-132 1642,-286 414,-163 778,-403 1096,-731 371,-378 624,-852 756,-1427 125,-575 190,-1461 190,-2673l0 -12953c0,-1210 -65,-2098 -190,-2673 -132,-575 -385,-1049 -756,-1425 -318,-342 -682,-588 -1109,-738 -418,-150 -964,-246 -1628,-282l0 -396 11179 0z"/>
   <path id="5" class="fil0" d="M217693 48136l56 -7263 412 72c492,1845 1080,3297 1763,4357 1277,1959 2888,2941 4822,2941 1355,0 2469,-450 3351,-1353 881,-899 1317,-2044 1317,-3422 0,-599 -96,-1210 -293,-1827 -192,-624 -450,-1156 -778,-1599 -342,-456 -821,-892 -1438,-1320 -617,-418 -1559,-953 -2829,-1599 -1121,-557 -1971,-1036 -2563,-1420 -593,-389 -1074,-778 -1438,-1174 -1013,-1103 -1516,-2445 -1516,-4026 0,-971 199,-1906 593,-2809 391,-899 942,-1673 1648,-2319 1246,-1145 2727,-1720 4429,-1720 557,0 1067,54 1539,161 467,114 1096,331 1888,660 588,235 989,385 1199,443 215,67 400,96 568,96 407,0 684,-293 828,-892l396 0 107 6974 -396 0c-318,-1114 -586,-1971 -821,-2563 -228,-595 -497,-1138 -814,-1642 -575,-917 -1210,-1595 -1899,-2038 -696,-438 -1492,-660 -2398,-660 -1313,0 -2349,443 -3116,1338 -318,365 -564,796 -743,1286 -186,492 -275,984 -275,1481 0,1959 1257,3536 3780,4733l2474 1199c1912,906 3290,1906 4129,2997 964,1221 1445,2642 1445,4259 0,1074 -217,2098 -653,3075 -611,1360 -1528,2413 -2744,3151 -1223,736 -2662,1107 -4321,1107 -1514,0 -2970,-300 -4366,-904 -731,-324 -1163,-503 -1306,-552 -139,-47 -300,-72 -474,-72 -564,0 -953,282 -1163,845l-396 0z"/>
   <path id="6" class="fil0" d="M236284 36404c0,-1966 420,-3793 1266,-5471 843,-1684 2073,-3147 3684,-4397 1210,-930 2512,-1637 3901,-2134 1396,-497 2798,-749 4212,-749 1805,0 3547,396 5238,1185 1682,792 3156,1906 4422,3344 2060,2344 3091,5003 3091,7994 0,1499 -271,2941 -810,4337 -539,1391 -1324,2662 -2355,3811 -1264,1427 -2756,2534 -4480,3319 -1727,785 -3536,1174 -5417,1174 -1863,0 -3644,-382 -5339,-1143 -1702,-763 -3163,-1834 -4391,-3230 -971,-1092 -1720,-2326 -2241,-3715 -521,-1385 -781,-2829 -781,-4326zm4243 251c0,3404 924,6267 2773,8598 834,1042 1713,1805 2648,2277 930,474 2009,714 3225,714 1228,0 2313,-233 3241,-700 935,-474 1821,-1235 2666,-2290 1852,-2342 2773,-5229 2773,-8663 0,-1888 -257,-3673 -767,-5357 -508,-1684 -1221,-3111 -2149,-4279 -749,-964 -1584,-1666 -2505,-2102 -917,-438 -2009,-660 -3259,-660 -1241,0 -2319,217 -3225,653 -910,432 -1749,1132 -2521,2109 -924,1156 -1642,2583 -2145,4272 -503,1684 -756,3500 -756,5428z"/>
   <path id="7" class="fil0" d="M269000 27440l0 15290c0,1212 65,2098 204,2673 132,575 382,1049 743,1427 329,340 700,586 1114,736 420,150 960,246 1624,282l0 396 -8088 0 0 -396c664,-36 1203,-132 1624,-282 414,-150 785,-396 1114,-736 360,-378 611,-857 743,-1431 139,-582 204,-1470 204,-2668l0 -12971c0,-1188 -65,-2067 -204,-2648 -132,-582 -382,-1056 -743,-1431 -318,-342 -682,-588 -1096,-738 -420,-150 -966,-246 -1642,-282l0 -396 6757 0 14254 18204 0 -12691c0,-1210 -65,-2098 -204,-2673 -132,-575 -382,-1049 -743,-1425 -329,-342 -700,-588 -1114,-738 -420,-150 -960,-246 -1624,-282l0 -396 8088 0 0 396c-1168,0 -2078,342 -2738,1020 -360,376 -611,850 -743,1431 -139,582 -204,1461 -204,2648l0 18484 -792 0 -16536 -20803z"/>
   <path id="8" class="fil0" d="M101731 65271l11036 0 0 396c-1036,0 -1742,78 -2120,228 -318,143 -575,371 -778,682 -199,318 -300,678 -300,1074 0,497 186,1174 561,2042l463 1085 5482 13355 3793 -11510c490,-1474 736,-2577 736,-3301 0,-539 -96,-1060 -286,-1570 -192,-514 -450,-922 -767,-1239 -300,-306 -649,-521 -1045,-653 -389,-125 -892,-192 -1496,-192l0 -396 11289 0 0 396c-696,0 -1192,25 -1505,72 -311,49 -604,145 -875,300 -353,210 -635,510 -857,906 -215,389 -324,814 -324,1270 0,425 163,1156 492,2199l4326 13937 4842 -11863c749,-1816 1125,-3225 1125,-4218 0,-1042 -347,-1780 -1036,-2217 -420,-259 -1056,-385 -1912,-385l0 -396 8126 0 0 396c-778,85 -1373,235 -1774,450 -403,215 -803,611 -1199,1185 -582,821 -1311,2302 -2192,4447l-7238 17502 -720 0 -6254 -18719 -6328 18719 -792 0 -7849 -18909 -528 -1284c-360,-868 -664,-1492 -910,-1881 -246,-382 -546,-689 -892,-910 -282,-192 -588,-324 -910,-407 -331,-78 -792,-143 -1385,-192l0 -396z"/>
   <path id="9" class="fil0" d="M141808 77412c0,-1966 420,-3793 1266,-5471 843,-1684 2073,-3147 3684,-4397 1210,-930 2512,-1637 3901,-2134 1396,-497 2798,-749 4212,-749 1805,0 3547,396 5238,1185 1682,792 3156,1906 4422,3344 2060,2344 3091,5003 3091,7994 0,1499 -271,2941 -810,4337 -539,1391 -1324,2662 -2355,3811 -1264,1427 -2756,2534 -4480,3319 -1727,785 -3536,1174 -5417,1174 -1863,0 -3644,-382 -5339,-1143 -1702,-763 -3163,-1834 -4391,-3230 -971,-1092 -1720,-2326 -2241,-3715 -521,-1385 -781,-2829 -781,-4326zm4243 251c0,3404 924,6267 2773,8598 834,1042 1713,1805 2648,2277 930,474 2009,714 3225,714 1228,0 2313,-233 3241,-700 935,-474 1821,-1235 2666,-2290 1852,-2342 2773,-5229 2773,-8663 0,-1888 -257,-3673 -767,-5357 -508,-1684 -1221,-3111 -2149,-4279 -749,-964 -1584,-1666 -2505,-2102 -917,-438 -2009,-660 -3259,-660 -1241,0 -2319,217 -3225,653 -910,432 -1749,1132 -2521,2109 -924,1156 -1642,2583 -2145,4272 -503,1684 -756,3500 -756,5428z"/>
   <path id="10" class="fil0" d="M177651 77530l0 6214c0,1199 65,2085 204,2662 139,579 385,1060 749,1431 318,329 689,568 1109,731 418,154 964,251 1653,286l0 396 -11210 0 0 -396c675,-36 1221,-132 1642,-286 414,-163 778,-403 1096,-731 371,-378 624,-852 756,-1427 125,-575 190,-1461 190,-2673l0 -12953c0,-1210 -65,-2098 -190,-2673 -132,-575 -385,-1049 -756,-1425 -318,-342 -682,-588 -1109,-738 -418,-150 -964,-246 -1628,-282l0 -396 8466 0c1414,0 2342,7 2791,18 1816,85 3236,331 4268,738 1161,467 2060,1168 2695,2102 642,928 960,2013 960,3241 0,1827 -689,3290 -2073,4393 -420,329 -888,599 -1396,810 -510,208 -1192,412 -2044,597 689,295 1206,599 1534,913 271,244 510,557 731,922 215,371 546,1024 982,1959 1042,2145 1827,3715 2362,4704 532,989 982,1709 1342,2152 293,365 575,617 850,754 275,145 653,235 1132,282l0 396 -5793 0c-293,-642 -479,-1053 -564,-1228l-1228 -2791c-743,-1673 -1485,-3154 -2234,-4435 -749,-1275 -1438,-2152 -2062,-2617 -318,-235 -658,-403 -1018,-499 -367,-101 -816,-150 -1342,-150l-863 0zm0 -396l671 0c1463,0 2510,-83 3140,-244 629,-168 1221,-503 1774,-1020 1239,-1174 1856,-2630 1856,-4362 0,-928 -179,-1798 -539,-2612 -360,-814 -857,-1485 -1492,-2013 -497,-403 -1085,-678 -1767,-832 -684,-163 -1660,-242 -2919,-242l-725 0 0 11324z"/>
   <path id="11" class="fil0" d="M200929 77023l7441 -7383c738,-725 1199,-1221 1378,-1485 186,-264 275,-552 275,-870 0,-575 -280,-1007 -843,-1300 -295,-143 -792,-246 -1481,-318l0 -396 7573 0 0 396c-514,49 -946,132 -1293,257 -342,121 -720,331 -1134,624 -454,324 -1239,1024 -2355,2091l-5697 5464 8101 10342 1000 1282c738,910 1503,1628 2295,2145 479,311 906,539 1264,678 367,132 821,233 1373,304l0 396 -11606 0 0 -396c881,-72 1516,-215 1899,-436 389,-228 582,-552 582,-989 0,-467 -239,-1067 -720,-1792 -233,-353 -675,-960 -1317,-1827 -646,-870 -1192,-1570 -1635,-2109l-3954 -4907 -1145 1125 0 5818c0,1199 65,2087 204,2668 132,575 385,1053 743,1431 318,329 684,568 1103,731 414,154 964,251 1642,286l0 396 -11186 0 0 -396c675,-36 1221,-132 1642,-286 414,-163 778,-403 1096,-731 371,-378 624,-852 756,-1427 125,-575 190,-1461 190,-2673l0 -12953c0,-1210 -65,-2098 -190,-2673 -132,-575 -385,-1049 -756,-1425 -318,-342 -682,-588 -1109,-738 -418,-150 -964,-246 -1628,-282l0 -396 11186 0 0 396c-664,36 -1210,132 -1624,282 -418,150 -790,396 -1121,738 -358,376 -611,850 -743,1431 -139,582 -204,1467 -204,2666l0 6238z"/>
   <g>
    <path class="fil1" d="M26160 32653l-4603 0 0 45573 4603 0 0 -45573zm3507 46948c-1563,-418 -2970,-680 -3507,-1376 -1534,0 -3069,0 -4603,0 -691,977 -2183,1246 -3339,1376l0 1738 11450 0 0 -1738zm0 -48321c-1563,416 -2970,678 -3507,1373 -1534,0 -3069,0 -4603,0 -691,-977 -2183,-1244 -3339,-1373l0 -1740 11450 0 0 1740zm10307 15111l-13814 4 0 2217 13814 -4 0 -2217zm13829 -13740l4603 0 0 45570 -4603 0 0 -45570zm-3507 46946c1561,-416 2970,-678 3507,-1376 1534,0 3069,0 4603,0 691,977 2181,1248 3339,1376l0 1740 -11450 0 0 -1740zm0 -48319c1561,416 2970,675 3507,1373 1534,0 3069,0 4603,0 691,-977 2181,-1246 3339,-1373l0 -1740 -11450 0 0 1740zm-10322 15113l13829 0 0 2217 -13829 0 0 -2217z"/>
    <path class="fil1" d="M16936 37943l-14254 0c0,655 0,1311 0,1966 2201,154 3545,687 4961,1179 1481,0 2959,0 4440,0 1586,-834 3207,-1179 4854,-1179l0 -1966zm23038 -9l-7218 2c0,655 0,1311 0,1964 2201,157 3545,689 4961,1181l2257 -2c0,0 0,-3145 0,-3145zm-8327 26203l-14254 0c0,-655 0,-1308 0,-1964 2201,-154 3545,-689 4961,-1181 1481,0 2959,2 4440,2 1586,832 3207,1179 4854,1179l0 1964zm8327 -23058l-2257 2 -13693 17218 2769 2695 13181 -16818 0 -3098zm-27892 9c-1481,0 -2959,0 -4440,0 1199,7140 2568,15234 14711,19904l4440 2 -2769 -2695c-9255,-3885 -12452,-11532 -11942,-17211zm50945 -3147l14254 0c0,653 0,1308 0,1964 -2201,154 -3547,689 -4961,1181 -1481,-2 -2959,-2 -4440,-2 -1586,-832 -3207,-1179 -4854,-1179l0 -1964zm-23054 -7l7233 0c0,653 0,1308 0,1964 -2201,154 -3547,689 -4963,1181l-2270 0c0,0 0,-3145 0,-3145zm8343 26198l14254 0c0,-653 0,-1308 0,-1964 -2201,-154 -3547,-689 -4963,-1179 -1478,0 -2959,0 -4438,0 -1588,832 -3207,1179 -4854,1179l0 1964zm-8343 -23054l2270 0 13695 17216 -2769 2695 -13196 -16813 0 -3098zm27907 4c1481,0 2959,0 4440,2 -1201,7140 -2568,15232 -14713,19904l-4438 0 2769 -2695c9255,-3885 12452,-11530 11942,-17211z"/>
    <circle class="fil1" cx="47849" cy="88015" r="1697"/>
    <path class="fil1" d="M41101 84276c937,0 1695,760 1695,1698 0,937 -758,1695 -1695,1695 -420,0 -807,-152 -1103,-405 0,0 2,-2583 2,-2583 295,-253 680,-405 1100,-405z"/>
    <circle class="fil1" cx="51736" cy="91508" r="1697"/>
    <path class="fil1" d="M39992 78154c-150,3330 -2910,4977 -450,6287 -65,926 -130,1852 -197,2778 -157,1566 -2586,5140 -5983,1881l-897 550c1505,3223 -1816,4847 -3693,3020 -494,-707 -989,-1416 -1481,-2125 492,-2205 -2100,-1912 -3151,-2870l4198 8001 11653 -11 0 -17511zm0 0c150,3330 2908,4977 450,6287 65,926 130,1852 195,2778 157,1566 2586,5140 5983,1881l897 550c-1503,3223 1818,4847 3695,3020 494,-707 986,-1416 1481,-2125 -494,-2205 2100,-1912 3151,-2870l-4198 8001 -11653 -11 0 -17511z"/>
    <circle class="fil1" cx="32114" cy="88018" r="1697"/>
    <path class="fil1" d="M38863 84281c-937,0 -1698,758 -1698,1695 0,937 760,1698 1698,1698 420,0 805,-152 1103,-407 0,0 -2,-2581 -2,-2581 -295,-253 -680,-405 -1100,-405z"/>
    <circle class="fil1" cx="28227" cy="91512" r="1697"/>
    <path class="fil1" d="M39997 97352c-2861,0 -5724,0 -8587,0 -237,635 -286,1329 0,2076l8587 0 0 -2076zm0 0c2863,0 5726,0 8589,0 237,635 286,1329 0,2076l-8589 0 0 -2076z"/>
    <path class="fil1" d="M22776 102948c-327,-1485 -1076,-2422 -2078,-3360 4525,803 8289,3348 13317,8052 -4659,-3585 -7940,-4154 -11239,-4693z"/>
    <path class="fil1" d="M57610 102944c329,-1485 1078,-2422 2078,-3360 -3923,514 -9363,2787 -13870,8052 4661,-3583 8493,-4151 11792,-4693z"/>
    <path class="fil1" d="M67877 91109c-9148,1525 -17006,7931 -22058,16527 5844,-4990 8815,-7374 16312,-8490l631 -81c1872,-4646 2709,-5556 5115,-7956z"/>
    <path class="fil1" d="M73319 49952c351,4925 1785,5891 523,11828 2152,-338 3013,-1724 4885,-1472 -819,416 -1076,803 -602,1669 -3084,349 -7878,3252 -6191,10336 387,-1516 1825,-1561 2111,-3849 1170,5639 2069,5844 1080,9336 -555,2505 2964,134 1915,4576 485,327 966,577 1481,398 -365,5961 -886,6086 -7430,13914 -257,-7289 -2601,-10926 -5200,-13136l0 -201c2313,1004 4525,338 6549,624 -15659,-16012 -653,-17558 727,-34022l152 0z"/>
    <path class="fil1" d="M59702 12563c6305,6343 12722,2751 20262,7072 -5972,186 -2541,8455 -9495,2579 -4010,-1076 -6252,4809 -244,5782 -291,3668 2226,5258 4183,6623 -18728,-1179 -5688,-11000 -15098,-20204 130,-617 262,-1235 391,-1852z"/>
    <path class="fil1" d="M11960 91112c9148,1525 17006,7934 22056,16529 -5842,-4990 -8813,-7374 -16312,-8493l-629 -81c-1874,-4643 -2709,-5556 -5115,-7956z"/>
    <path class="fil1" d="M6518 49912c-351,4925 -1787,5894 -523,11828 -2152,-336 -3013,-1724 -4885,-1472 819,416 1074,805 602,1669 3082,349 7878,3252 6189,10336 -385,-1516 -1823,-1559 -2111,-3849 -1168,5641 -2067,5847 -1078,9336 555,2507 -2964,136 -1915,4579 -488,327 -966,577 -1481,398 365,5959 886,6086 7428,13912 259,-7287 2604,-10924 5203,-13134l0 -201c-2313,1002 -4525,338 -6551,624 15661,-16015 653,-17558 -727,-34025l-150 0z"/>
    <path class="fil1" d="M20260 12610c-6303,6341 -12720,2749 -20260,7070 5970,188 2541,8455 9495,2581 4008,-1076 6252,4809 244,5782 289,3666 -2228,5256 -4183,6623 18726,-1179 5688,-11000 15098,-20204 -132,-617 -262,-1235 -394,-1852z"/>
    <g>
     <path class="fil1" d="M30473 7981c179,-584 139,-427 127,-1241l1221 537c-465,289 -832,526 -1349,705zm3026 -5836c-1282,409 148,617 -1973,2011 -488,322 -821,485 -1273,781 -1496,980 -130,1047 -1852,2286 -725,521 -470,398 -1013,1051 -982,1183 -1291,709 -1266,2539 11,9 215,130 329,228l338 351c1232,593 1691,-971 1979,-1244l2335 -1675c18,-9 69,-29 89,-36 2,0 1456,18 667,-731 72,9 170,-25 208,58l512 125c644,47 669,-671 939,-1002 29,-38 67,-85 101,-119l2056 -1438c291,-98 293,-9 834,-251 -4,-365 -174,-409 27,-714 501,-758 436,-456 1389,-204 -420,-311 -1168,-499 -476,-955 476,-315 1206,-123 1510,-159 684,-81 821,-830 1508,-709 382,67 157,662 199,172 651,-454 465,-790 1642,-1065 -376,-617 -1338,-1805 -2360,-1342l-6448 2040zm-6710 9246c-555,523 152,917 369,1691 588,251 783,738 1062,1206l604 -714c-450,-297 -116,380 -219,-257 -58,-378 -186,-81 139,-376 -25,-16 -83,-34 -89,-4 0,0 -172,51 -300,-215 -20,-42 476,-807 -340,-492 669,-226 877,248 1215,488 22,-49 74,-172 87,-139l443 -615c776,-857 2328,-637 2908,-1130l2601 -2773c664,81 266,362 803,242 472,-105 230,-293 857,-266l-174 -897c1499,-640 1085,-1731 492,-2668 1472,637 731,785 1351,1693l239 13c1071,27 1673,-297 2572,-837l251 -141c34,-22 85,-51 116,-76 302,-235 -63,132 380,-412 29,-36 65,-89 94,-125l917 -1163c752,-642 -13,353 749,-626 -505,-658 -877,-1138 -1608,-1351 -1176,275 -991,611 -1642,1065 -42,490 183,-105 -199,-172 -687,-121 -823,629 -1508,709 -304,36 -1033,-157 -1510,159 -691,456 56,644 476,955 -953,-253 -888,-555 -1389,204 -201,304 -31,349 -27,714 -541,242 -544,152 -834,251l-2056 1438c-34,34 -72,81 -101,119 -271,331 -295,1049 -939,1002l-512 -125c-38,-83 -136,-49 -208,-58 790,749 -664,731 -667,731 -20,7 -72,27 -89,36l-2335 1675c-289,273 -747,1836 -1979,1244zm12217 -141c-309,1595 -297,2883 -1107,4232l492 -3594 -280 374c-356,593 -365,886 -387,1539 67,-286 365,-157 -212,-181 -1474,-60 -1029,2221 -3129,1134l-293 -168c1011,2183 295,1521 -447,3720 1067,892 3590,-680 4004,1897 163,-237 329,-81 85,-1145 369,-152 -170,-132 226,4l212 98c18,9 76,49 119,63 154,-664 367,-608 678,-942l445 -698c423,-434 973,-1418 1393,-2047 447,-673 924,-1373 1400,-2132 1027,-1633 1863,-3049 1510,-5406l-329 403c-36,-56 -74,-130 -94,-177l-215 -521c-56,-181 -51,-311 -76,-492 208,306 96,369 36,1009l-584 -336 148 1165c-868,-22 -714,105 -1270,718 -1092,1201 -374,476 -816,327 -266,-92 206,-599 -329,119 -459,620 -74,474 -631,754 -25,13 -87,20 -112,31 -488,208 -127,-362 -436,253zm-6594 2409c-242,765 -626,837 -1653,1116 -1546,423 -655,-38 -1642,-215 125,760 264,2382 550,2984 382,807 1568,1534 1586,2082l602 425 1555 -4406c130,-998 -31,-1210 680,-1060l293 168c2100,1087 1655,-1194 3129,-1134 577,25 280,-105 212,181 22,-653 31,-946 387,-1539l280 -374 -626 -2109 -682 651c-186,199 -228,280 -465,505l-217 192c-31,29 -81,65 -112,96l-546 711c92,-157 266,273 11,-479 -179,-530 -7,-145 -322,-485l-1015 1680c-1024,-465 342,-922 -2004,1009zm12326 -6833c-63,1541 -89,3849 -794,5015 -588,968 -1827,2565 -2138,3491l837 -257c13,-2 67,-7 81,-9l387 -18c966,-9 119,-119 1465,-924 1414,-848 409,-539 1089,-1324 349,-403 -125,-78 304,-172 29,-7 101,0 130,-2 45,-4 221,34 289,38 503,-1163 1778,-4936 1619,-6050l-338 -1053c-403,259 -548,854 -698,1067 -266,380 -991,443 -1588,1241 -510,680 116,-633 -199,362 -257,810 -190,7 22,380 -4,-251 13,-729 -47,-953 -233,-854 -65,-396 -420,-832zm-16518 7462c1288,-378 1458,-982 2223,-1380 1027,-532 1510,376 1968,752 2346,-1930 980,-1474 2004,-1009l1015 -1680c315,340 143,-45 322,485 255,752 81,322 -11,479l546 -711c31,-31 81,-67 112,-96l217 -192c237,-226 280,-306 465,-505l682 -651 -837 -1742c-626,-27 -385,161 -857,266 -537,121 -139,-161 -803,-242l-2601 2773c-579,492 -2132,273 -2908,1130l-443 615c-13,-34 -65,89 -87,139 -338,-239 -546,-714 -1215,-488 816,-315 320,450 340,492 127,266 300,215 300,215 7,-29 65,-11 89,4 -324,295 -197,-2 -139,376 103,637 -230,-40 219,257l-604 714zm10376 -8124c-306,660 -620,1253 -1047,1675 181,727 548,1841 1071,2281l-329 -544c1852,-398 772,-890 1711,-1633 872,-689 962,698 4006,-2595l-94 -2552c-763,980 2,-16 -749,626l-917 1163c-29,36 -65,89 -94,125 -443,544 -78,177 -380,412 -31,25 -83,54 -116,76l-251 141c-899,539 -1501,863 -2572,837l-239 -13zm-951 14037c38,2190 -828,2854 -2662,2973l336 2006c693,98 776,13 1118,181 -204,-848 -237,-1038 362,-1590l235 -181c783,-532 1478,-394 2022,-1253 25,65 101,76 127,159 333,989 -474,-333 391,186l87 -479c83,-474 40,-18 474,18 -54,-593 286,-948 530,-1326 333,-519 412,-796 763,-1266l-1449 271c-573,532 -577,-1834 -570,-2317l-445 698c-311,333 -523,277 -678,942 -42,-13 -101,-54 -119,-63l-212 -98c-396,-136 143,-157 -226,-4 244,1065 78,908 -85,1145zm6645 -3445c-387,134 -45,-103 -382,318 -141,174 -114,181 -233,380 -224,367 -318,510 -575,892 237,1483 783,338 1172,2174 159,747 -98,465 268,803l204 -89c682,-539 483,-206 608,-948l-11 -1787 1051 11 136 -295c532,-662 -105,-275 671,-875 1416,-1094 4804,-3252 1302,-2559 -479,96 -1371,839 -1955,1291l-1002 586c-951,389 -776,271 -1255,98zm-5670 -6636c7,320 -45,291 49,577 344,1051 -27,107 336,552 309,-615 -51,-45 436,-253 25,-11 87,-18 112,-31 557,-280 172,-134 631,-754 535,-718 63,-210 329,-119 443,150 -275,875 816,-327 557,-613 403,-740 1270,-718l-148 -1165 584 336c60,-640 172,-702 -36,-1009 25,181 20,311 76,492l215 521c20,47 58,121 94,177l329 -403 295 -2648c-3044,3292 -3134,1906 -4006,2595 -939,743 141,1235 -1711,1633l329 544zm8097 4100c1007,192 660,-105 1930,-1103l760 -653c27,-29 63,-83 92,-112l675 -467 123 -1346c18,67 67,315 85,360 192,479 -94,-163 119,262l163 264c512,-1074 -349,315 174,-1067 38,217 58,541 121,747 219,709 1648,727 2123,1232 309,-1261 -1997,-2170 -2610,-2988 -756,-1007 -599,-1293 -1718,-1765 320,1928 327,1756 -497,3489 -541,1143 -980,2071 -1541,3147zm-4912 1112c-608,490 -1581,1933 -1678,2858 340,684 -197,284 814,360 154,13 886,-38 1109,-34 362,-1662 1235,-2252 2217,-2970 752,-548 588,-658 1235,-1228 904,-796 391,-514 883,-1655 -67,-4 -244,-42 -289,-38 -29,2 -101,-4 -130,2 -429,94 45,-230 -304,172 -680,785 324,476 -1089,1324 -1346,805 -499,915 -1465,924l-387 18c-13,2 -67,7 -81,9l-837 257zm4912 -1112c-195,268 -658,850 -1141,1217 -653,499 -709,510 -1286,1320 479,172 304,291 1255,-98l1002 -586c584,-452 1476,-1194 1955,-1291 2102,-416 3368,593 4581,-2445 -474,-505 -1903,-523 -2123,-1232 -63,-206 -83,-530 -121,-747 -523,1382 338,-7 -174,1067l-163 -264c-212,-425 74,217 -119,-262 -18,-45 -67,-293 -85,-360l-123 1346 -675 467c-29,29 -65,83 -92,112l-760 653c-1270,998 -924,1295 -1930,1103zm-13601 5364c608,13 1859,-18 2400,69 1029,170 899,544 816,1570l-1651 850 302 1100c1834,-119 2700,-783 2662,-2973 -414,-2577 -2937,-1004 -4004,-1897l-526 1279zm1566 2489l1651 -850c83,-1027 212,-1400 -816,-1570 -541,-87 -1792,-56 -2400,-69 -832,2272 31,2633 1210,4934 157,-1036 -242,-2315 161,-3896l195 1452zm10186 -18607c-25,1033 25,2243 -130,3360 356,436 188,-22 420,832 60,224 42,702 47,953 -212,-374 -280,429 -22,-380 315,-995 -311,318 199,-362 597,-798 1322,-861 1588,-1241 150,-212 295,-807 698,-1067 -239,-206 -2006,-2657 -2174,-2955 -286,501 -284,-34 -626,861zm-2807 16364c394,132 689,-11 778,702 29,228 -119,646 -264,821 -465,548 -1143,358 -1877,248 -541,1053 -42,349 -561,620l-110 841c505,-306 595,-349 1349,-309 125,7 445,47 557,94 611,255 163,-237 488,456 752,-720 275,-722 1369,-1083 9,-394 -152,-69 161,-472 268,-347 226,-246 590,-425 -367,-338 -110,-56 -268,-803 -389,-1836 -935,-691 -1172,-2174 -394,514 -604,1042 -1040,1483zm-5623 5531c204,412 935,1286 991,1601l293 -327c22,-40 76,-114 98,-161l107 -438c322,479 494,488 206,1237l678 -774c-389,-1944 174,-568 257,-1704 132,-1255 148,-1123 508,-2114 -866,-519 -58,803 -391,-186 -27,-83 -103,-94 -127,-159 -544,859 -1239,720 -2022,1253l-235 181c-599,552 -566,743 -362,1590zm991 1601l83 2288c1033,336 264,-119 1029,-107l242 36c112,-342 116,-302 219,-559 25,-58 96,-244 121,-302l143 -311c16,-36 45,-107 76,-157 121,557 239,696 497,1118l689 -2530 2 112 -1718 -51 -678 774c289,-749 116,-758 -206,-1237l-107 438c-22,47 -76,121 -98,161l-293 327zm83 2288l441 1742c494,423 859,1613 1557,1908l329 -3932c-257,-423 -376,-561 -497,-1118 -31,49 -60,121 -76,157l-143 311c-25,58 -96,244 -121,302 -103,257 -107,217 -219,559l-242 -36c-765,-11 4,443 -1029,107zm2134 -3988l998 -89c825,-725 376,-1494 1778,-1870 -324,-693 123,-201 -488,-456 -112,-47 -432,-87 -557,-94 -754,-40 -843,2 -1349,309l-382 2201zm5223 -21797c342,-895 340,-360 626,-861 -1188,-1716 -1584,-1505 -2767,-1626 396,635 705,626 1132,1130 432,503 452,904 1009,1358zm-6057 23033l1718 51 114 -1378 -998 89c-56,-45 -127,-94 -174,-130 -40,-31 -116,-89 -157,-121 -42,-34 -197,-168 -246,-217 -83,1136 -646,-239 -257,1704zm1888 -4898c734,110 1411,300 1877,-248 145,-174 293,-593 264,-821 -89,-714 -385,-570 -778,-702 -177,327 -400,646 -649,939 -405,481 -374,333 -714,832zm-5379 3579c150,1559 145,1794 1136,2919l-18 -2738c-342,-168 -425,-83 -1118,-181zm4661 -5281l1449 -271 622 -1112c-224,-4 -955,47 -1109,34 -1011,-76 -474,324 -814,-360 -228,499 -143,1165 -148,1709zm-405 2782c-360,991 -376,859 -508,2114 49,49 204,183 246,217 40,31 116,89 157,121 47,36 119,85 174,130l382 -2201 110 -841c-434,-36 -391,-492 -474,-18l-87 479zm5777 -2395c336,-445 814,-973 1040,-1776l-1051 -11 11 1787z"/>
     <path class="fil1" d="M53083 12338c-2729,850 -15621,7209 -13574,20564 2261,-5234 6106,-7654 8475,-9372 476,-347 -2232,-604 -1785,-910 3069,-2096 7305,-3717 6885,-10282z"/>
    </g>
   </g>
  </g>
 </g>
</svg>
