<?xml version="1.0" encoding="UTF-8"?>
<!DOCTYPE svg PUBLIC "-//W3C//DTD SVG 1.1//EN" "http://www.w3.org/Graphics/SVG/1.1/DTD/svg11.dtd">
<!-- Creator: CorelDRAW 2017 -->
<svg xmlns="http://www.w3.org/2000/svg" xml:space="preserve" width="98.3395mm" height="38.8219mm" version="1.1" style="shape-rendering:geometricPrecision; text-rendering:geometricPrecision; image-rendering:optimizeQuality; fill-rule:evenodd; clip-rule:evenodd"
viewBox="0 0 9833960 3882194"
 xmlns:xlink="http://www.w3.org/1999/xlink">
 <defs>
  <style type="text/css">
   <![CDATA[
    .fil0 {fill:white}
    .fil1 {fill:white;fill-rule:nonzero}
   ]]>
  </style>
 </defs>
 <g id="Слой_x0020_1">
  <metadata id="CorelCorpID_0Corel-Layer"/>
  <path class="fil0" d="M3235353 894091c217170,-183990 321110,-305410 672311,-462120 681781,-304200 1675382,-243310 2306192,158840 241100,153700 164570,183650 337590,257290 -103130,-259890 -390720,-492091 -660411,-628671 -900921,-456270 -2266182,-186490 -2655683,674661z"/>
  <path class="fil0" d="M4927375 896991c136600,601721 118720,362430 405170,624421 -216430,46050 -266570,61550 -484380,14440l79210 -638861zm-26810 -502911c-157720,1175341 -172190,768081 -602111,1179141 296240,145450 905851,72400 1219301,15680 -87530,-184550 -375720,-152260 -473580,-461320 -64270,-202960 -99120,-523221 -143610,-733501z"/>
  <path class="fil0" d="M3271143 1575712c-83130,-85000 -214690,-161210 -211710,-343860 160380,-123620 415610,-92150 662841,-91380 -155950,197040 -288680,298360 -451130,435240zm-609951 -535771c48300,134240 510591,533011 608451,627181 147010,-111580 557421,-460140 620281,-619561 -421590,18360 -818601,45710 -1228731,-7620z"/>
  <path class="fil0" d="M6559487 1574512c-50210,-53930 -326840,-257580 -174090,-377120 112320,-87910 471900,-65960 623451,-49420 -144420,140420 -292040,308300 -449360,426540zm-616061 -526241c92700,181860 458320,467860 617991,617811 104900,-78240 566221,-518861 611331,-629851 -341290,65380 -860981,15410 -1229321,12040z"/>
  <path class="fil0" d="M201530 3882194l-31160 0 0 -55900 -169060 0 0 -246300 32860 0 0 217170 111120 0 0 -217170 32860 0 0 217170 23380 0 0 85030zm176890 -55900l0 -246300 154140 0 0 29140 -121280 0 0 67420 113150 0 0 29130 -113150 0 0 91480 121280 0 0 29130 -154140 0zm513621 0l-32860 0 0 -120610 -112810 0 0 120610 -32860 0 0 -246300 32860 0 0 96560 112810 0 0 -96560 32860 0 0 246300zm252890 0l0 -217160 -82670 0 0 -29140 198190 0 0 29140 -82660 0 0 217160 -32860 0zm440450 -172050c0,10730 -1920,20840 -5700,30380 -3790,9550 -9030,17670 -15700,24390 -8470,8360 -18410,14740 -29870,19040 -11400,4280 -25860,6430 -43360,6430l-27670 0 0 91810 -32860 0 0 -246300 61710 0c14570,0 26930,1190 37160,3620 10220,2430 19250,6380 27090,11740 9100,6330 16270,14290 21470,23950 5130,9650 7730,21280 7730,34940zm-34210 790c0,-8400 -1470,-15750 -4360,-21960 -2930,-6270 -7330,-11350 -13210,-15240 -5190,-3450 -11180,-5820 -18010,-7230 -6830,-1410 -15350,-2150 -25580,-2150l-26930 0 0 97570 22190 0c13160,0 23770,-1070 31900,-3210 8070,-2090 14790,-5930 20220,-11360 4790,-4960 8300,-10270 10500,-16090 2200,-5810 3280,-12590 3280,-20330zm797191 175660c-16100,0 -30950,-2710 -44440,-8070 -13490,-5420 -25190,-13500 -35010,-24170 -9820,-10670 -17450,-24050 -22820,-40030 -5410,-15980 -8120,-34330 -8120,-55050 0,-20610 2590,-38570 7850,-53870 5250,-15300 12870,-28680 22920,-40030 9830,-11010 21450,-19420 34950,-25190 13440,-5810 28520,-8690 45170,-8690 8250,0 16040,620 23270,1810 7220,1240 13880,2760 20100,4630 5250,1640 10720,3720 16250,6210 5600,2480 11080,5200 16490,8190l0 39460 -2650 0c-2880,-2590 -6550,-5750 -11060,-9430 -4520,-3670 -10060,-7280 -16550,-10890 -6270,-3340 -13100,-6100 -20490,-8250 -7400,-2200 -15930,-3270 -25640,-3270 -10440,0 -20380,2140 -29750,6430 -9380,4290 -17630,10620 -24630,18920 -6940,8360 -12360,18860 -16200,31510 -3890,12590 -5810,26810 -5810,42630 0,16820 2030,31280 6090,43420 4130,12140 9660,22350 16720,30720 6830,8120 14900,14280 24160,18400 9260,4120 19090,6160 29420,6160 9490,0 18240,-1140 26310,-3450 8020,-2320 15190,-5250 21460,-8750 6100,-3440 11290,-6950 15760,-10510 4390,-3550 7840,-6600 10380,-9140l2480 0 0 39080c-5410,2540 -10490,4960 -15300,7330 -4800,2320 -10610,4580 -17440,6780 -7170,2310 -13830,4060 -20000,5300 -6090,1190 -14050,1810 -23870,1810zm426670 -222350c9380,10780 16660,24170 21850,40140 5200,15990 7790,34220 7790,54710 0,20000 -2540,38010 -7620,54100 -5080,16090 -12420,29590 -22020,40540 -10050,11460 -21790,19880 -35230,25350 -13380,5480 -28180,8190 -44270,8190 -16710,0 -31730,-2820 -45050,-8420 -13390,-5640 -24910,-14000 -34510,-25120 -9480,-10950 -16760,-24390 -21850,-40370 -5080,-15980 -7620,-34050 -7620,-54270 0,-20710 2540,-38890 7680,-54540 5140,-15640 12480,-29070 21970,-40310 9480,-10960 20940,-19260 34380,-24910 13440,-5690 28400,-8520 45000,-8520 16780,0 31910,2940 45340,8760 13500,5860 24910,14050 34160,24670zm-4570 94850c0,-16250 -1750,-30650 -5310,-43180 -3500,-12600 -8470,-22990 -14850,-31230 -6550,-8470 -14390,-14790 -23600,-19030 -9200,-4230 -19540,-6380 -31000,-6380 -11910,0 -22360,2090 -31220,6210 -8870,4120 -16720,10500 -23600,19200 -6500,8360 -11460,18860 -14970,31510 -3440,12700 -5190,26980 -5190,42900 0,32240 6770,56920 20320,74030 13620,17110 31790,25690 54660,25690 22810,0 41000,-8580 54490,-25690 13490,-17110 20270,-41790 20270,-74030zm393530 123100l-32860 0 0 -217160 -112810 0 0 217160 -32860 0 0 -246300 178530 0 0 246300zm350460 -172050c0,10730 -1920,20840 -5710,30380 -3780,9550 -9030,17670 -15690,24390 -8470,8360 -18410,14740 -29870,19040 -11400,4280 -25860,6430 -43360,6430l-27670 0 0 91810 -32870 0 0 -246300 61720 0c14570,0 26930,1190 37160,3620 10210,2430 19240,6380 27090,11740 9090,6330 16270,14290 21460,23950 5140,9650 7740,21280 7740,34940zm-34220 790c0,-8400 -1470,-15750 -4350,-21960 -2940,-6270 -7330,-11350 -13210,-15240 -5200,-3450 -11180,-5820 -18010,-7230 -6830,-1410 -15360,-2150 -25580,-2150l-26930 0 0 97570 22190 0c13150,0 23770,-1070 31900,-3210 8070,-2090 14790,-5930 20220,-11360 4790,-4960 8290,-10270 10490,-16090 2210,-5810 3280,-12590 3280,-20330zm385170 -46690c9380,10780 16660,24170 21850,40140 5200,15990 7800,34220 7800,54710 0,20000 -2540,38010 -7620,54100 -5090,16090 -12420,29590 -22030,40540 -10040,11460 -21780,19880 -35230,25350 -13380,5480 -28170,8190 -44270,8190 -16700,0 -31720,-2820 -45050,-8420 -13380,-5640 -24910,-14000 -34500,-25120 -9490,-10950 -16770,-24390 -21850,-40370 -5080,-15980 -7630,-34050 -7630,-54270 0,-20710 2550,-38890 7680,-54540 5150,-15640 12480,-29070 21970,-40310 9490,-10960 20950,-19260 34380,-24910 13450,-5690 28410,-8520 45000,-8520 16780,0 31910,2940 45340,8760 13500,5860 24910,14050 34160,24670zm-4570 94850c0,-16250 -1740,-30650 -5300,-43180 -3510,-12600 -8470,-22990 -14850,-31230 -6550,-8470 -14400,-14790 -23610,-19030 -9200,-4230 -19530,-6380 -31000,-6380 -11910,0 -22350,2090 -31220,6210 -8860,4120 -16710,10500 -23600,19200 -6490,8360 -11460,18860 -14960,31510 -3450,12700 -5190,26980 -5190,42900 0,32240 6760,56920 20320,74030 13610,17110 31790,25690 54650,25690 22820,0 41000,-8580 54490,-25690 13500,-17110 20270,-41790 20270,-74030zm382020 47440c0,12250 -2310,23090 -6950,32460 -4630,9370 -10840,17110 -18680,23150 -9270,7290 -19200,12480 -29760,15470 -10610,3060 -24280,4580 -40990,4580l-70640 0 0 -246300 65330 0c17560,0 30720,570 39470,1760 8750,1130 17170,3840 25240,8130 8810,4740 15250,10950 19370,18630 4060,7620 6100,16650 6100,26990 0,11580 -3060,21900 -9150,31060 -6150,9140 -14620,16310 -25410,21510l0 1350c14620,3950 25970,11230 34040,21740 8020,10560 12030,23720 12030,39470zm-45740 -110220c0,-5870 -1010,-11010 -2990,-15300 -1970,-4350 -5130,-7730 -9540,-10270 -5250,-2940 -11180,-4750 -17670,-5430 -6500,-620 -15420,-960 -26880,-960l-31340 0 0 71490 37100 0c10280,0 17790,-520 22640,-1590 4810,-1020 9820,-3160 14970,-6430 4960,-3160 8520,-7340 10610,-12480 2090,-5140 3100,-11460 3100,-19030zm11530 111340c0,-9200 -1300,-16770 -3960,-22750 -2650,-5980 -7960,-11060 -15970,-15190 -5200,-2770 -10840,-4520 -16940,-5310 -6100,-730 -14740,-1120 -25980,-1120l-37100 0 0 90450 26540 0c14290,0 25580,-670 33820,-1980 8250,-1300 15530,-4120 21800,-8350 6160,-4290 10620,-9150 13490,-14570 2880,-5420 4300,-12480 4300,-21180zm386190 -143410c9380,10780 16660,24170 21850,40140 5200,15990 7790,34220 7790,54710 0,20000 -2540,38010 -7620,54100 -5080,16090 -12420,29590 -22020,40540 -10050,11460 -21790,19880 -35230,25350 -13390,5480 -28180,8190 -44270,8190 -16710,0 -31730,-2820 -45060,-8420 -13380,-5640 -24900,-14000 -34500,-25120 -9490,-10950 -16770,-24390 -21850,-40370 -5080,-15980 -7620,-34050 -7620,-54270 0,-20710 2540,-38890 7680,-54540 5140,-15640 12470,-29070 21960,-40310 9490,-10960 20950,-19260 34390,-24910 13440,-5690 28400,-8520 45000,-8520 16770,0 31900,2940 45340,8760 13500,5860 24900,14050 34160,24670zm-4570 94850c0,-16250 -1750,-30650 -5310,-43180 -3500,-12600 -8470,-22990 -14850,-31230 -6550,-8470 -14400,-14790 -23610,-19030 -9200,-4230 -19530,-6380 -30990,-6380 -11910,0 -22360,2090 -31220,6210 -8870,4120 -16720,10500 -23600,19200 -6500,8360 -11470,18860 -14970,31510 -3440,12700 -5190,26980 -5190,42900 0,32240 6770,56920 20320,74030 13610,17110 31790,25690 54660,25690 22810,0 41000,-8580 54480,-25690 13500,-17110 20280,-41790 20280,-74030zm494831 123100l-40140 0 -82270 -113490 -15810 0 0 113490 -32520 0 0 -113490 -16150 0 -82040 113490 -38340 0 92880 -127160c-7170,-4570 -13440,-10390 -18740,-17440 -5370,-7010 -10560,-18640 -15650,-34900 -4400,-14230 -9090,-24050 -14120,-29480 -4960,-5470 -14570,-8180 -28620,-8180l-6610 0 0 -29140 8420 0c18460,0 32690,3510 42800,10560 10050,7060 18460,20050 25170,39020 1640,4860 3280,9600 4920,14230 1640,4630 3050,8410 4290,11230 4800,11810 10620,20560 17390,26260 6780,5650 14910,8920 24400,9820l0 -111120 32520 0 0 111120c10160,-950 18630,-4120 25520,-9480 6890,-5370 12870,-14230 17900,-26600 1970,-4960 3780,-9650 5360,-14110 1580,-4460 2880,-8240 3840,-11350 6610,-18860 15020,-31850 25300,-38960 10270,-7060 24500,-10620 42680,-10620l8470 0 0 29140 -6600 0c-14120,0 -23720,2770 -28800,8250 -5140,5530 -9880,15300 -14280,29410 -4690,14680 -9940,25630 -15920,32920 -5930,7230 -12380,13100 -19320,17500l94070 129080zm367960 55900l-31170 0 0 -56580 -159570 0 0 56580 -31170 0 0 -85030 13560 0c14340,-23490 25860,-54270 34610,-92380 8750,-38110 13160,-79670 13160,-124790l137200 0 0 217170 23380 0 0 85030zm-56240 -85030l0 -188710 -73860 0c-1520,39810 -6490,75890 -14780,108300 -8370,32460 -19030,59230 -31960,80410l120600 0zm233010 29130l0 -246300 154150 0 0 29140 -121290 0 0 67420 113160 0 0 29130 -113160 0 0 91480 121290 0 0 29130 -154150 0zm513631 0l-32860 0 0 -120610 -112820 0 0 120610 -32860 0 0 -246300 32860 0 0 96560 112820 0 0 -96560 32860 0 0 246300zm372130 0l-32860 0 0 -195530 -110610 195530 -33370 0 0 -246300 32860 0 0 192380 109140 -192380 34840 0 0 246300zm352040 0l-32860 0 0 -97910 -37100 0 -73400 97910 -39240 0 78820 -102880c-16540,-5650 -29310,-14290 -38400,-26030 -9080,-11740 -13660,-27500 -13660,-47260 0,-12530 2590,-23370 7850,-32460 5250,-9150 12140,-16720 20720,-22760 7850,-5540 17000,-9370 27440,-11570 10510,-2200 22020,-3340 34730,-3340l65100 0 0 246300zm-32860 -125350l0 -92490 -34050 0c-9480,0 -17110,620 -22810,1810 -5700,1190 -10960,3390 -15700,6600 -5080,3390 -9030,8140 -11910,14290 -2880,6160 -4300,12870 -4300,20270 0,8750 1020,16040 3060,21850 2020,5820 5300,11010 9820,15470 4970,4860 11060,8080 18180,9710 7170,1640 15530,2490 24960,2490l32750 0zm885671 49060c0,11920 -2320,22760 -6950,32420 -4630,9710 -10840,17610 -18630,23710 -9260,7230 -19140,12430 -29700,15530 -10560,3110 -24220,4630 -40940,4630l-71140 0 0 -246300 149740 0 0 29140 -116880 0 0 67420 39410 0c16720,0 30320,960 40880,2870 10510,1920 20500,6560 29820,13840 8350,6490 14510,14570 18460,24170 3950,9600 5930,20440 5930,32570zm-34220 520c0,-8190 -1350,-15420 -4010,-21690 -2710,-6260 -6940,-11290 -12760,-15130 -6040,-4060 -13040,-6500 -20950,-7400 -7900,-840 -19020,-1290 -33420,-1290l-29140 0 0 92820 28350 0c14570,0 25800,-740 33650,-2140 7850,-1420 14730,-4180 20660,-8190 6160,-4290 10620,-9320 13450,-15080 2760,-5700 4170,-13040 4170,-21900zm388390 75770l-32860 0 0 -195530 -110600 195530 -33380 0 0 -246300 32860 0 0 192380 109150 -192380 34830 0 0 246300zm322460 -118740c5530,4680 10100,10610 13720,17730 3550,7110 5360,16310 5360,27550 0,11010 -2200,21230 -6610,30660 -4400,9430 -10500,17670 -18240,24730 -7900,7280 -17720,12820 -29410,16720 -11750,3830 -24730,5750 -39080,5750 -15350,0 -29410,-1520 -42230,-4570 -12760,-2990 -23040,-6160 -30770,-9490l0 -36760 2320 0c8800,5880 19530,11130 32120,15590 12600,4520 25240,6780 37890,6780 8070,0 16040,-1080 24060,-3230 7950,-2140 14670,-5640 20040,-10490 5420,-4860 9370,-10170 11910,-15870 2540,-5650 3780,-12820 3780,-21400 0,-8420 -1520,-15470 -4510,-21230 -3050,-5700 -7340,-10340 -12820,-13900 -5420,-3550 -11860,-6030 -19420,-7500 -7570,-1520 -15590,-2260 -24220,-2260l-25750 0 0 -27440 22360 0c17330,0 31280,-3510 41780,-10440 10550,-6950 15810,-17110 15810,-30500 0,-6040 -1300,-11290 -3900,-15640 -2540,-4350 -6200,-7900 -10900,-10670 -5190,-2990 -10610,-5020 -16250,-6040 -5650,-1070 -11810,-1580 -18530,-1580 -7000,0 -13880,780 -20720,2420 -6770,1590 -13210,3560 -19250,5930 -5700,2320 -10730,4750 -14970,7350 -4290,2540 -7790,4630 -10560,6320l-2140 0 0 -36250c7510,-3560 17680,-6770 30610,-9770 12860,-2990 25630,-4460 38170,-4460 12700,0 23590,1080 32740,3220 9150,2150 17510,5640 25130,10500 8250,5420 14450,11750 18570,19080 4130,7350 6220,16100 6220,26210 0,13320 -4460,24960 -13330,34890 -8860,9930 -20440,16430 -34780,19540l0 2420c5530,1020 11520,2770 18010,5310 6440,2540 12370,6160 17790,10790zm376760 118740l-32870 0 0 -120610 -112810 0 0 120610 -32860 0 0 -246300 32860 0 0 96560 112810 0 0 -96560 32870 0 0 246300zm195290 0l0 -246300 154140 0 0 29140 -121280 0 0 67420 113150 0 0 29130 -113150 0 0 91480 121280 0 0 29130 -154140 0zm431250 4400c-16100,0 -30950,-2710 -44440,-8070 -13490,-5420 -25190,-13500 -35010,-24170 -9820,-10670 -17440,-24050 -22810,-40030 -5420,-15980 -8130,-34330 -8130,-55050 0,-20610 2590,-38570 7850,-53870 5250,-15300 12870,-28680 22920,-40030 9830,-11010 21450,-19420 34950,-25190 13450,-5810 28520,-8690 45170,-8690 8250,0 16040,620 23270,1810 7220,1240 13880,2760 20100,4630 5250,1640 10720,3720 16260,6210 5590,2480 11070,5200 16490,8190l0 39460 -2650 0c-2890,-2590 -6560,-5750 -11070,-9430 -4520,-3670 -10060,-7280 -16550,-10890 -6260,-3340 -13090,-6100 -20490,-8250 -7400,-2200 -15920,-3270 -25640,-3270 -10440,0 -20380,2140 -29750,6430 -9380,4290 -17620,10620 -24630,18920 -6930,8360 -12360,18860 -16200,31510 -3890,12590 -5810,26810 -5810,42630 0,16820 2030,31280 6090,43420 4130,12140 9660,22350 16720,30720 6830,8120 14900,14280 24160,18400 9270,4120 19090,6160 29420,6160 9490,0 18240,-1140 26310,-3450 8020,-2320 15200,-5250 21460,-8750 6100,-3440 11290,-6950 15760,-10510 4400,-3550 7850,-6600 10390,-9140l2480 0 0 39080c-5420,2540 -10500,4960 -15310,7330 -4800,2320 -10610,4580 -17440,6780 -7170,2310 -13830,4060 -19990,5300 -6100,1190 -14060,1810 -23880,1810zm225610 -4400l83110 -246300 40430 0 83120 246300 -34680 0 -22240 -68440 -94290 0 -22190 68440 -33260 0zm140480 -96890l-37940 -115640 -37840 115640 75780 0z"/>
  <path class="fil1" d="M590081 2725453c60570,12880 105790,33440 135940,61940 41660,39470 62490,87980 62490,145260 0,43850 -13700,85790 -41380,125800 -27410,39740 -65230,68790 -113200,86880 -47960,18370 -121140,27410 -219530,27410l-414400 0 0 -24120 32890 0c37000,0 63590,-11510 79480,-34530 9590,-15080 14530,-47140 14530,-96200l0 -566241c0,-54540 -6030,-88800 -18370,-102770 -17260,-19190 -42480,-28780 -75640,-28780l-32890 0 0 -24120 379050 0c70710,0 127440,5210 170190,15900 64690,15620 114290,43030 148280,82490 33980,39190 50980,84690 50980,135940 0,43850 -13430,83320 -40290,118130 -26860,34810 -66050,60570 -118130,77010zm-338750 -35350c15620,3290 33710,5750 54260,7400 20560,1370 43310,2190 67700,2190 62760,0 109900,-6580 141700,-20280 32060,-13710 56450,-34540 73170,-62760 17000,-27960 25220,-58660 25220,-91820 0,-50980 -20830,-94550 -63040,-131010 -41930,-36450 -102780,-54540 -182530,-54540 -43310,0 -82220,4940 -116480,14530l0 336290zm0 419330c49880,11780 98940,17540 147720,17540 78110,0 137860,-17540 178700,-52620 40840,-35080 61390,-78660 61390,-130460 0,-34260 -9320,-67150 -27950,-98390 -18920,-31250 -49060,-55910 -90720,-74280 -41940,-18090 -93460,-27400 -155130,-27400 -26860,0 -49610,540 -68520,1640 -19180,1100 -34260,2740 -45490,4930l0 359040zm1079571 -21930c-60570,46600 -98400,73730 -114020,81130 -23570,10690 -48510,16170 -74550,16170 -40830,0 -74270,-13980 -100850,-41660 -26590,-27960 -39750,-64960 -39750,-111000 0,-28780 6310,-53720 19190,-74550 17810,-29600 48240,-57000 92090,-82770 43580,-25760 116210,-57280 217890,-94830l0 -23290c0,-58660 -9320,-99220 -28230,-121140 -18640,-21930 -45770,-32890 -81680,-32890 -26860,0 -48230,7120 -64400,21650 -16450,15070 -24940,31790 -24940,50700l1640 37550c0,20010 -4930,35080 -15070,45770 -10140,10690 -23300,16170 -39470,16170 -15900,0 -29050,-5750 -39190,-16990 -10420,-11240 -15350,-26310 -15350,-45770 0,-36730 18910,-70710 57010,-101960 38090,-30970 91260,-46590 159780,-46590 52350,0 95650,9050 129360,26590 24940,13430 43860,34260 56190,62760 7400,18640 11240,56730 11240,114010l0 200620c0,56190 1090,90720 3010,103600 2190,12890 5760,21380 10960,25770 4940,4110 10690,6300 17270,6300 6850,0 12880,-1640 17540,-4660 9320,-5480 26860,-21100 53170,-46590l0 35900c-48780,64410 -95100,96480 -138950,96480 -20830,0 -37550,-7130 -50160,-21650 -12610,-14530 -19190,-39470 -19730,-74830zm0 -42480l0 -225560c-64680,26310 -106890,44670 -126080,55360 -33710,18640 -57830,38650 -72630,59480 -14800,20830 -22200,43300 -22200,67420 0,30970 9320,56730 27690,77560 18630,20560 39740,30700 63850,30700 32620,0 75920,-21650 129370,-64960zm548961 -791521l0 785221c0,37270 2470,62210 7950,74270 5210,12060 13700,21110 24940,27140 11240,6300 32070,9310 62490,9310l0 23300 -289700 0 0 -23300c27140,0 45770,-2740 55640,-8490 9870,-5480 17540,-14800 23020,-27680 5210,-12890 7950,-37830 7950,-74550l0 -537191c0,-66870 -1370,-107980 -4380,-123330 -3020,-15350 -7680,-25760 -14530,-31240 -6580,-5760 -15070,-8500 -25220,-8500 -11230,0 -25480,3560 -42480,10420l-11230 -23300 176500 -72080 29050 0zm592001 834001c-60570,46600 -98400,73730 -114020,81130 -23570,10690 -48510,16170 -74550,16170 -40830,0 -74270,-13980 -100850,-41660 -26590,-27960 -39750,-64960 -39750,-111000 0,-28780 6310,-53720 19190,-74550 17810,-29600 48240,-57000 92090,-82770 43580,-25760 116210,-57280 217890,-94830l0 -23290c0,-58660 -9320,-99220 -28230,-121140 -18640,-21930 -45770,-32890 -81680,-32890 -26860,0 -48230,7120 -64400,21650 -16450,15070 -24940,31790 -24940,50700l1640 37550c0,20010 -4930,35080 -15070,45770 -10140,10690 -23300,16170 -39470,16170 -15900,0 -29050,-5750 -39190,-16990 -10420,-11240 -15350,-26310 -15350,-45770 0,-36730 18910,-70710 57010,-101960 38090,-30970 91260,-46590 159780,-46590 52350,0 95650,9050 129360,26590 24940,13430 43860,34260 56190,62760 7400,18640 11240,56730 11240,114010l0 200620c0,56190 1090,90720 3010,103600 2190,12890 5760,21380 10960,25770 4940,4110 10690,6300 17270,6300 6850,0 12880,-1640 17540,-4660 9320,-5480 26860,-21100 53170,-46590l0 35900c-48780,64410 -95100,96480 -138950,96480 -20830,0 -37550,-7130 -50160,-21650 -12610,-14530 -19190,-39470 -19730,-74830zm0 -42480l0 -225560c-64680,26310 -106890,44670 -126080,55360 -33710,18640 -57830,38650 -72630,59480 -14800,20830 -22200,43300 -22200,67420 0,30970 9320,56730 27690,77560 18630,20560 39740,30700 63850,30700 32620,0 75920,-21650 129370,-64960zm517441 -356570c69620,-83320 135940,-125250 199250,-125250 32070,0 59750,8220 83050,24120 23290,16170 41930,42480 55910,79480 9040,26310 13700,66330 13700,119770l0 252150c0,37270 3020,62760 9600,76190 4660,10690 12330,19190 22740,25220 10420,6300 29880,9310 58380,9310l0 23300 -293260 0 0 -23300 12880 0c27410,0 46600,-4110 57560,-12330 10960,-8500 18360,-20830 22750,-37550 2190,-6300 3290,-26580 3290,-60840l0 -242560c0,-53440 -7130,-92360 -21380,-116750 -14250,-24390 -37820,-36730 -70990,-36730 -51520,0 -102500,28230 -153480,84420l0 311620c0,40010 2470,64950 7400,74550 6310,12330 14800,21370 25220,27400 10410,5760 31790,8770 63860,8770l0 23300 -292170 0 0 -23300 12610 0c30150,0 50430,-7670 61120,-22740 10690,-15350 16170,-44680 16170,-87980l0 -219260c0,-71260 -1640,-114560 -4930,-130190 -3290,-15340 -8220,-26030 -14800,-31510 -6850,-5760 -15620,-8500 -26860,-8500 -12330,0 -26860,3290 -43310,9590l-9860 -23290 178420 -72360 27130 0 0 125250zm964731 -125250l0 201720 -20830 0c-16720,-63310 -37820,-106340 -63580,-129360 -25490,-23030 -58380,-34540 -97850,-34540 -30150,0 -54260,7950 -73170,24120 -18640,16170 -27960,33710 -27960,52900 0,24120 6850,44670 20830,61940 13430,17540 40560,36450 81950,56180l93730 46600c87980,42200 131830,98390 131830,168550 0,53450 -20560,97020 -61390,130190 -41110,33160 -86610,49600 -137040,49600 -35900,0 -77010,-6570 -123610,-20000 -14520,-4390 -26310,-6310 -35350,-6310 -9590,0 -17270,5480 -23300,16720l-20830 0 0 -211040 20830 0c12330,60300 35630,105800 69620,136490 33980,30420 72080,45770 114280,45770 29600,0 53720,-8770 72360,-26030 18640,-17550 27960,-38650 27960,-63040 0,-30150 -10420,-55090 -31250,-75100 -20830,-20280 -62490,-45770 -124700,-76740 -62490,-30970 -103330,-59200 -122510,-84410 -19460,-24670 -29050,-55640 -29050,-93190 0,-48510 16710,-89350 49880,-121960 33160,-32610 76190,-49060 129360,-49060 23570,0 51800,4930 84960,14530 21930,6570 36450,9590 43310,9590 7120,0 12600,-1370 16440,-4390 4110,-3010 8770,-9590 14250,-19730l20830 0zm981451 -287230l20010 298470 -20010 0c-26590,-89350 -64960,-153760 -114290,-192950 -49610,-39470 -109080,-59200 -178700,-59200 -58370,0 -110990,15070 -157860,44670 -46870,29600 -83590,76740 -110730,141430 -27130,64400 -40560,144710 -40560,241180 0,79210 12610,148000 38100,205830 25490,58100 63860,102780 114830,133750 51250,31240 109360,46590 174590,46590 57280,0 107710,-12060 151010,-36450 43310,-24390 91270,-72630 143620,-144990l19460 12880c-43860,78120 -95110,135400 -153760,171300 -58650,36180 -128270,54270 -208570,54270 -144980,0 -257350,-53720 -337110,-161430 -59470,-80310 -89070,-174590 -89070,-283390 0,-87160 19460,-167460 58650,-240910 38920,-73180 92910,-130190 161700,-170480 68790,-40560 143890,-60570 225290,-60570 63040,0 125530,15350 186920,46320 18360,9870 31520,14530 39460,14530 11790,0 21930,-3840 30430,-12060 11230,-11790 19180,-27960 23290,-48790l23300 0zm509501 287230c89890,0 161970,33990 215970,101960 46040,58370 69060,125250 69060,200890 0,52900 -12600,106620 -38090,160610 -25490,53990 -60300,94830 -104700,122780 -44400,27960 -94280,41660 -149370,41660 -89070,0 -159780,-35630 -212950,-106610 -43860,-60020 -65780,-127170 -65780,-201720 0,-54540 13430,-108530 40290,-161980 26580,-53720 61940,-93180 105790,-118940 43850,-25770 90440,-38650 139780,-38650zm-20010 41930c-22470,0 -45500,6860 -68790,20290 -23300,13700 -41940,37540 -56190,71530 -14250,33980 -21100,77840 -21100,131280 0,86330 16990,160610 51250,222820 34260,62490 79480,93460 135670,93460 41930,0 76190,-16990 103320,-51250 26860,-34260 40560,-93460 40560,-177600 0,-105240 -22470,-188290 -67420,-248860 -30690,-41110 -69610,-61670 -117300,-61670zm660231 84140c43310,-43300 68790,-68240 76190,-74540 20010,-16170 40840,-28780 63040,-37830 22200,-9040 44400,-13700 66330,-13700 37550,0 69610,10690 96470,32340 26590,21380 44400,52620 52900,93730 44400,-51800 81940,-85780 112920,-101950 30690,-15900 62210,-24120 94280,-24120 31510,0 59470,8220 83860,24120 24400,16170 43580,42480 57280,79480 9870,24670 14530,63860 14530,117300l0 254620c0,37270 2740,62760 8220,76190 4660,9590 12880,17820 24390,24390 11520,6850 30430,10140 56460,10140l0 23300 -292160 0 0 -23300 12880 0c25220,0 44950,-4930 59480,-14520 9590,-6850 16440,-18090 20830,-33710 1640,-6850 2460,-27680 2460,-62490l0 -254620c0,-48230 -5750,-82220 -16990,-101950 -16990,-27960 -44130,-41660 -81120,-41660 -23030,0 -46050,5760 -69070,17270 -23020,11510 -50700,32610 -83320,63580l-1640 7400 1640 27960 0 282020c0,40560 2190,65780 6580,75920 4660,9860 13150,18090 25760,24660 12610,6850 33990,10140 63860,10140l0 23300 -299560 0 0 -23300c32610,0 55360,-3830 67420,-11510 12330,-7950 21100,-19460 25760,-35080 2200,-7400 3290,-28780 3290,-64130l0 -254620c0,-48230 -7120,-82770 -20830,-103600 -19460,-27680 -45770,-41650 -79480,-41650 -23570,0 -46590,6020 -69070,18360 -35900,19180 -63850,40830 -83590,64130l0 317380c0,38920 2740,64410 8500,75920 5480,11510 13700,20000 24120,26030 10410,5760 31520,8770 63860,8770l0 23300 -292440 0 0 -23300c26860,0 45770,-3010 56730,-8770 10970,-6030 19190,-15070 24940,-27680 5480,-12610 8230,-37550 8230,-74270l0 -225840c0,-65230 -1920,-107160 -6310,-125800 -2740,-14520 -7400,-24390 -13700,-29870 -6310,-5210 -15350,-7950 -26590,-7950 -12330,0 -26580,3290 -43300,9590l-9590 -23290 178140 -72360 27410 0 0 126070zm903621 -49600l182250 -74000 24950 0 0 138130c30420,-51800 61110,-88250 91810,-109080 30970,-21100 63310,-31520 97570,-31520 59470,0 109080,23300 148550,69890 48780,56730 73180,131010 73180,222550 0,102230 -29330,186370 -88260,252970 -48230,55090 -109080,82490 -182260,82490 -31790,0 -59200,-4380 -82770,-13430 -17260,-6570 -36450,-19730 -57820,-39460l0 180610c0,40840 2460,66600 7670,77560 4930,10970 13700,19740 25760,26040 12060,6580 34260,9590 66880,9590l0 24120 -310800 0 0 -24120 16170 0c24120,550 44400,-3830 61120,-13700 7940,-4660 14250,-12330 18910,-22750 4380,-10410 6570,-37270 6570,-80580l0 -559651c0,-38650 -1640,-63040 -5200,-73180 -3290,-10140 -8770,-18090 -16450,-23300 -7400,-5480 -17540,-7950 -30420,-7950 -10140,0 -23300,3020 -39470,9600l-7940 -20830zm207200 102770l0 220630c0,48240 1910,79760 5750,94830 6300,24670 21100,46320 44400,65510 23300,18910 52900,28500 88800,28500 43300,0 78110,-16990 104420,-50700 35360,-43850 52900,-105800 52900,-185550 0,-90440 -19740,-159790 -59480,-208570 -27680,-33160 -60570,-49880 -98660,-49880 -20280,0 -40560,5210 -61120,15350 -15350,7400 -41110,30690 -77010,69880zm925261 345060c-60570,46600 -98400,73730 -114020,81130 -23570,10690 -48510,16170 -74550,16170 -40830,0 -74270,-13980 -100850,-41660 -26590,-27960 -39750,-64960 -39750,-111000 0,-28780 6310,-53720 19190,-74550 17810,-29600 48240,-57000 92090,-82770 43580,-25760 116210,-57280 217890,-94830l0 -23290c0,-58660 -9320,-99220 -28230,-121140 -18640,-21930 -45770,-32890 -81680,-32890 -26860,0 -48230,7120 -64400,21650 -16450,15070 -24940,31790 -24940,50700l1640 37550c0,20010 -4930,35080 -15070,45770 -10140,10690 -23300,16170 -39470,16170 -15900,0 -29050,-5750 -39190,-16990 -10420,-11240 -15350,-26310 -15350,-45770 0,-36730 18910,-70710 57010,-101960 38090,-30970 91260,-46590 159780,-46590 52350,0 95650,9050 129360,26590 24940,13430 43860,34260 56190,62760 7400,18640 11240,56730 11240,114010l0 200620c0,56190 1090,90720 3010,103600 2190,12890 5760,21380 10960,25770 4940,4110 10690,6300 17270,6300 6850,0 12880,-1640 17540,-4660 9320,-5480 26860,-21100 53170,-46590l0 35900c-48780,64410 -95100,96480 -138950,96480 -20830,0 -37550,-7130 -50160,-21650 -12610,-14530 -19190,-39470 -19730,-74830zm0 -42480l0 -225560c-64680,26310 -106890,44670 -126080,55360 -33710,18640 -57830,38650 -72630,59480 -14800,20830 -22200,43300 -22200,67420 0,30970 9320,56730 27690,77560 18630,20560 39740,30700 63850,30700 32620,0 75920,-21650 129370,-64960zm517441 -356570c69620,-83320 135940,-125250 199250,-125250 32070,0 59750,8220 83050,24120 23290,16170 41930,42480 55910,79480 9040,26310 13700,66330 13700,119770l0 252150c0,37270 3020,62760 9600,76190 4660,10690 12330,19190 22740,25220 10420,6300 29880,9310 58380,9310l0 23300 -293260 0 0 -23300 12880 0c27410,0 46600,-4110 57560,-12330 10960,-8500 18360,-20830 22750,-37550 2190,-6300 3290,-26580 3290,-60840l0 -242560c0,-53440 -7130,-92360 -21380,-116750 -14250,-24390 -37820,-36730 -70990,-36730 -51520,0 -102500,28230 -153480,84420l0 311620c0,40010 2470,64950 7400,74550 6310,12330 14800,21370 25220,27400 10410,5760 31790,8770 63860,8770l0 23300 -292170 0 0 -23300 12610 0c30150,0 50430,-7670 61120,-22740 10690,-15350 16170,-44680 16170,-87980l0 -219260c0,-71260 -1640,-114560 -4930,-130190 -3290,-15340 -8220,-26030 -14800,-31510 -6850,-5760 -15620,-8500 -26860,-8500 -12330,0 -26860,3290 -43310,9590l-9860 -23290 178420 -72360 27130 0 0 125250zm548691 -107430l275440 0 0 23290 -13700 0c-19190,0 -33710,4110 -43310,12880 -9590,8500 -14520,18910 -14520,31250 0,16990 7400,40290 21920,69890l143620 298740 132380 -326970c7670,-17540 11230,-35360 11230,-52900 0,-7400 -1370,-13150 -4660,-16990 -3280,-4660 -8490,-8500 -16170,-11510 -7400,-3020 -20280,-4390 -38370,-4390l0 -23290 192680 0 0 23290c-16170,2190 -28510,5760 -37000,10690 -8500,5210 -18090,15070 -29050,29330 -3570,6030 -10970,22200 -21660,49060l-240630 590901c-23570,57280 -54270,100580 -92090,130180 -37820,29330 -74000,44130 -108810,44130 -25210,0 -46040,-7400 -62490,-22200 -16720,-14530 -24940,-31250 -24940,-50160 0,-18090 6030,-32610 18090,-43570 12060,-10970 28230,-16450 48510,-16450 14530,0 33990,4390 58650,13430 17000,7130 27690,10420 32070,10420 12880,0 26860,-6580 42210,-20010 15070,-13430 30690,-39190 46040,-77840l42760 -102780 -212960 -446460c-6300,-13430 -16720,-29880 -31240,-49880 -10690,-14800 -19460,-24940 -26590,-30430 -9590,-6850 -25490,-13150 -47410,-18360l0 -23290z"/>
 </g>
</svg>
