<?xml version="1.0" encoding="UTF-8"?>
<svg width="18px" height="14px" viewBox="0 0 18 14" version="1.1" xmlns="http://www.w3.org/2000/svg" xmlns:xlink="http://www.w3.org/1999/xlink">
    <!-- Generator: sketchtool 48.1 (47250) - http://www.bohemiancoding.com/sketch -->
    <title>307CAF80-DFDA-43B8-B325-8EAF50016998</title>
    <desc>Created with sketchtool.</desc>
    <defs></defs>
    <g id="HarrisonWork" stroke="none" stroke-width="1" fill="none" fill-rule="evenodd" transform="translate(-971.000000, -1973.000000)">
        <g id="bt" transform="translate(755.000000, 1950.000000)" fill="#160C00" fill-rule="nonzero">
            <g id="back-copy" transform="translate(225.000000, 30.000000) scale(-1, 1) translate(-225.000000, -30.000000) translate(216.500000, 23.000000)">
                <path d="M16.6625926,7.16437037 L0.259259259,7.16437037 C0.116148148,7.16437037 0,7.04822222 0,6.90511111 C0,6.762 0.116148148,6.64585185 0.259259259,6.64585185 L16.6625926,6.64585185 C16.8057037,6.64585185 16.9218519,6.762 16.9218519,6.90511111 C16.9218519,7.04822222 16.8057037,7.16437037 16.6625926,7.16437037 Z" id="Shape"></path>
                <path d="M6.75992593,13.6645185 C6.69355556,13.6645185 6.62718519,13.6391111 6.57637037,13.5888148 L0.0757037037,7.08762963 C0.0274814815,7.03888889 0,6.97303704 0,6.90407407 C0,6.83511111 0.0274814815,6.76925926 0.0757037037,6.72051852 L6.57688889,0.222444444 C6.678,0.121333333 6.84237037,0.121333333 6.94348148,0.222444444 C7.04459259,0.323555556 7.04459259,0.487925926 6.94348148,0.589037037 L0.625851852,6.90407407 L6.94348148,13.2217037 C7.04459259,13.3228148 7.04459259,13.4871852 6.94348148,13.5882963 C6.89266667,13.6391111 6.8262963,13.6645185 6.75992593,13.6645185 Z" id="Shape"></path>
            </g>
        </g>
    </g>
</svg>