<?xml version="1.0" encoding="UTF-8"?>
<svg width="50px" height="40px" viewBox="0 0 50 40" version="1.1" xmlns="http://www.w3.org/2000/svg" xmlns:xlink="http://www.w3.org/1999/xlink">
    <!-- Generator: sketchtool 48.1 (47250) - http://www.bohemiancoding.com/sketch -->
    <title>12517F1E-60D0-45A8-BE3C-A0DB4B85758D</title>
    <desc>Created with sketchtool.</desc>
    <defs></defs>
    <g id="HarrisonWork" stroke="none" stroke-width="1" fill="none" fill-rule="evenodd" transform="translate(-617.000000, -3315.000000)">
        <g id="Group-19" transform="translate(617.000000, 3315.000000)" fill-rule="nonzero">
            <g id="crown-2">
                <path d="M23.2572125,13.384308 C22.8667641,13.2806043 22.4657895,13.5126706 22.3617934,13.9034113 L21.110039,18.6080897 L17.2873294,11.0897661 C18.4218324,10.6000975 19.2179337,9.47076023 19.2179337,8.158577 C19.2179337,6.39892788 17.7863548,4.96744639 16.0268031,4.96744639 C14.2672515,4.96744639 12.83577,6.39892788 12.83577,8.158577 C12.83577,9.74269006 13.9961988,11.0602339 15.511501,11.3074074 L13.847271,20.2718324 L9.84639376,15.8533138 C10.3507797,15.3436647 10.662768,14.6434698 10.662768,13.8714425 C10.662768,12.3168616 9.39795322,11.0521442 7.84337232,11.0521442 C6.28879142,11.0521442 5.02397661,12.3168616 5.02397661,13.8714425 C5.02397661,15.4260234 6.28879142,16.6908382 7.84337232,16.6908382 C7.89054581,16.6908382 7.93723197,16.6895712 7.98382066,16.687232 L7.39522417,23.0677388 L4.61354776,21.0379142 C4.78996101,20.7000975 4.89035088,20.3165692 4.89035088,19.9097466 C4.89035088,18.5614035 3.79346979,17.464425 2.44502924,17.464425 C1.09688109,17.4645224 0,18.5614035 0,19.9097466 C0,21.2580897 1.09688109,22.3550682 2.44522417,22.3550682 C2.66481481,22.3550682 2.87768031,22.3255361 3.08031189,22.2709552 L3.88762183,27.6563353 C3.94210526,28.0192982 4.25419103,28.2797271 4.61033138,28.2797271 C4.64639376,28.2797271 4.68304094,28.2770955 4.71978558,28.27154 C5.11939571,28.2115984 5.39493177,27.8389864 5.33499025,27.4393762 L4.65097466,22.8769981 L7.57417154,25.010039 C7.78684211,25.1652047 8.06676413,25.194152 8.30672515,25.0858674 C8.54678363,24.9774854 8.71003899,24.7484405 8.73430799,24.4861598 L9.37738791,17.515692 L13.7547758,22.3499025 C13.9415205,22.5560429 14.2289474,22.6385965 14.4966862,22.562768 C14.7643275,22.4869396 14.9658869,22.2658869 15.0166667,21.9923002 L16.6674464,13.0997076 L20.6727096,20.977193 C20.8101365,21.2475634 21.0997076,21.4050682 21.4018519,21.3732943 C21.7035088,21.3415205 21.954191,21.1268031 22.0322612,20.8337232 L23.7761209,14.2795322 C23.8800195,13.8890838 23.6477583,13.4882066 23.2572125,13.384308 Z M2.44522417,20.8915205 C1.90389864,20.8915205 1.46354776,20.4510721 1.46354776,19.9097466 C1.46354776,19.3684211 1.90389864,18.9279727 2.44522417,18.9279727 C2.98654971,18.9279727 3.42699805,19.3684211 3.42699805,19.9097466 C3.42699805,20.4510721 2.98645224,20.8915205 2.44522417,20.8915205 Z M7.84356725,15.2272904 C7.0960039,15.2272904 6.4877193,14.6191033 6.4877193,13.8714425 C6.4877193,13.1238791 7.09590643,12.515692 7.84356725,12.515692 C8.59122807,12.515692 9.1994152,13.1238791 9.1994152,13.8714425 C9.19931774,14.6191033 8.59122807,15.2272904 7.84356725,15.2272904 Z M16.0269981,9.88615984 C15.0743665,9.88615984 14.2995127,9.11120858 14.2995127,8.15867446 C14.2995127,7.20604288 15.0744639,6.43118908 16.0269981,6.43118908 C16.9796296,6.43118908 17.7544834,7.20614035 17.7544834,8.15867446 C17.7544834,9.11120858 16.9796296,9.88615984 16.0269981,9.88615984 Z" id="Shape" fill="#D6BB74"></path>
                <path d="M44.87846,13.8714425 C44.87846,12.3168616 43.6136452,11.0521442 42.0590643,11.0521442 C40.5044834,11.0521442 39.2396686,12.3168616 39.2396686,13.8714425 C39.2396686,14.8240741 39.7150097,15.6672515 40.4404483,16.1778752 L36.0489279,20.3917154 L34.3632554,11.3124756 C35.8921053,11.0769006 37.0665692,9.75243665 37.0665692,8.15867446 C37.0665692,6.39902534 35.6349903,4.96764133 33.8755361,4.96764133 C32.1159844,4.96764133 30.6844055,6.39912281 30.6844055,8.15867446 C30.6844055,9.46179337 31.469883,10.5842105 32.5918129,11.0793372 L28.7640351,18.6079922 L25.7712476,7.358577 C27.4022417,6.97953216 28.6216374,5.51520468 28.6216374,3.7705653 C28.6216374,1.1079922 25.8682261,-0.676705653 23.4409357,0.403021442 C23.0717349,0.567348928 22.9055556,0.999805068 23.0697856,1.36910331 C23.2341131,1.73840156 23.6664717,1.90448343 24.0358674,1.74025341 C25.5006823,1.08869396 27.1579922,2.16812865 27.1579922,3.77066277 C27.1579922,4.99522417 26.1617934,5.991423 24.937232,5.991423 C23.5707602,5.991423 22.5262183,4.76442495 22.7452242,3.4119883 C22.8098441,3.01306043 22.5387914,2.63723197 22.1397661,2.57261209 C21.741423,2.50808967 21.3650097,2.7791423 21.3004873,3.17807018 C21.2690058,3.37280702 21.252924,3.57222222 21.252924,3.77066277 C21.2531189,5.51530214 22.4723197,6.9794347 24.1031189,7.358577 L23.1143275,11.0748538 C23.0105263,11.4653996 23.2426901,11.8662768 23.6333333,11.9701754 C24.0239766,12.0740741 24.4247563,11.8418129 24.5287524,11.4510721 L24.9373294,9.91588694 L27.8419103,20.8339181 C27.9199805,21.1269981 28.1706628,21.3417154 28.4723197,21.3734893 C28.7735867,21.4053606 29.0639376,21.2479532 29.201462,20.9773879 L33.2067251,13.0998051 L34.8576998,21.9923977 C34.9068226,22.2568226 35.097076,22.4730019 35.3531189,22.5554581 C35.6092593,22.6379142 35.8897661,22.5730019 36.0838207,22.3868421 L41.0223197,17.6481481 L41.1377193,24.4316764 C41.1420078,24.6858674 41.2780702,24.9194932 41.4967836,25.0490253 C42.0222222,25.3599415 42.4291423,24.8903509 42.9225146,24.6913255 C43.5963938,24.3361598 43.3413255,23.3138402 42.5824561,23.3120858 L42.4693957,16.6608187 C43.8302144,16.4614035 44.87846,15.2867446 44.87846,13.8714425 Z M32.1480507,8.15867446 C32.1480507,7.20604288 32.9230019,6.43118908 33.8755361,6.43118908 C34.8281676,6.43118908 35.6030214,7.20614035 35.6030214,8.15867446 C35.6030214,9.11130604 34.8280702,9.88615984 33.8755361,9.88615984 C32.9229045,9.88615984 32.1480507,9.11120858 32.1480507,8.15867446 Z M42.0590643,15.2272904 C41.3114035,15.2272904 40.7032164,14.6191033 40.7032164,13.8714425 C40.7032164,13.1238791 41.311501,12.515692 42.0590643,12.515692 C42.8066277,12.515692 43.4149123,13.1238791 43.4149123,13.8714425 C43.4149123,14.6191033 42.8067251,15.2272904 42.0590643,15.2272904 Z" id="Shape" fill="#D6BB74"></path>
                <path d="M47.4574074,17.4645224 C45.3225146,17.4645224 44.21423,20.0298246 45.6777778,21.584308 L44.8294347,22.0314815 C44.4718324,22.2199805 44.3347953,22.6625731 44.5232943,23.020078 C44.6911306,23.3383041 45.0604288,23.4819688 45.3916179,23.3766082 L44.0868421,32.7669591 C34.1965887,27.1913255 17.7150097,26.7309942 6.18460039,32.7866472 C6.16988304,32.794347 6.15477583,32.8018519 6.14015595,32.8095517 L5.76900585,30.3340156 C5.70906433,29.934308 5.33635478,29.6590643 4.93684211,29.7188109 C4.53723197,29.7787524 4.26169591,30.1513645 4.32163743,30.5509747 L4.84074074,34.0135478 L4.84074074,38.3224172 C4.84074074,38.9419103 5.34434698,39.445809 5.96335283,39.445809 C6.08421053,39.445809 6.2042885,39.4262183 6.31968811,39.3876218 C6.3665692,39.3719298 6.41169591,39.3516569 6.45467836,39.3267057 C7.32339181,38.8234893 8.27368421,38.3515595 9.27923977,37.9240741 C9.65116959,37.7658869 9.82446394,37.3362573 9.66637427,36.9643275 C9.5082846,36.5923977 9.0791423,36.4190058 8.70653021,36.577193 C7.86598441,36.9346004 7.06062378,37.3221248 6.3042885,37.7330409 L6.3042885,34.3861598 C6.32368421,34.3753411 6.34249513,34.3643275 6.36208577,34.3536062 C17.3787524,28.2557505 34.1461014,28.4779727 43.9282651,34.3694932 L43.9282651,37.8281676 C38.9866472,35.0937622 32.1350877,33.5322612 25.0296296,33.5322612 C20.2564327,33.5322612 15.5821637,34.2250487 11.5120858,35.535575 C11.1274854,35.6594542 10.9159844,36.0717349 11.0398635,36.4564327 C11.1637427,36.8411306 11.5761209,37.0526316 11.9607212,36.928655 C15.8877193,35.6641326 20.4068226,34.9957115 25.0296296,34.9957115 C32.0919103,34.9957115 38.8682261,36.5777778 43.621345,39.3361598 C43.6303119,39.3413255 43.6394737,39.3463938 43.648538,39.3511696 C43.8191033,39.4406433 44.0101365,39.4880117 44.2009747,39.4880117 C44.8575049,39.4880117 45.3918129,38.9537037 45.3918129,38.2968811 L45.3918129,34.0097466 L47.0168616,22.314425 C48.5305068,22.5911306 49.9026316,21.42154 49.9026316,19.9096491 C49.9025341,18.5614035 48.805653,17.4645224 47.4574074,17.4645224 Z M47.4574074,20.8915205 C46.9160819,20.8915205 46.4756335,20.4510721 46.4756335,19.9097466 C46.4756335,19.3684211 46.9160819,18.9279727 47.4574074,18.9279727 C47.9987329,18.9279727 48.4390838,19.3684211 48.4390838,19.9097466 C48.4390838,20.4510721 47.9987329,20.8915205 47.4574074,20.8915205 Z" id="Shape" fill="#D6BB74"></path>
                <path d="M27.630117,22.4609162 L25.9704678,20.0471735 C25.7163743,19.6777778 25.2957115,19.4630604 24.8491228,19.4707602 C24.4009747,19.4791423 23.9901559,19.7101365 23.7501949,20.0885965 L22.2268031,22.4909357 C21.9532164,22.9223197 21.9524366,23.4804094 22.2246589,23.9125731 L23.7498051,26.3349903 C23.9890838,26.7150097 24.4,26.947271 24.8489279,26.9564327 C24.8580897,26.9566277 24.8672515,26.9567251 24.8762183,26.9567251 C25.3149123,26.9567251 25.7230019,26.7425926 25.9723197,26.3800195 L27.630117,23.9690058 C27.9403509,23.5178363 27.9403509,22.9118908 27.630117,22.4609162 Z M24.8807018,25.3842105 L23.5077973,23.2036062 L24.87846,21.0422027 L26.3726121,23.2148148 L24.8807018,25.3842105 Z" id="Shape" fill="#FFEEC0"></path>
            </g>
        </g>
    </g>
</svg>