<?xml version="1.0" encoding="UTF-8"?>
<svg width="10px" height="20px" viewBox="0 0 10 20" version="1.1" xmlns="http://www.w3.org/2000/svg" xmlns:xlink="http://www.w3.org/1999/xlink">
    <!-- Generator: sketchtool 48.1 (47250) - http://www.bohemiancoding.com/sketch -->
    <title>6A102E11-8BBC-4D8A-BF60-9664D863DA62</title>
    <desc>Created with sketchtool.</desc>
    <defs></defs>
    <g id="HarrisonWork" stroke="none" stroke-width="1" fill="none" fill-rule="evenodd" transform="translate(-1258.000000, -9606.000000)">
        <g id="footer" transform="translate(0.000000, 8691.000000)" fill="#D6BB74" fill-rule="nonzero">
            <g id="Group-11" transform="translate(1021.000000, 879.000000)">
                <g id="facebook-letter-logo" transform="translate(237.000000, 36.000000)">
                    <path d="M2.09493861,3.86542923 C2.09493861,4.36839907 2.09493861,6.61336427 2.09493861,6.61336427 L0.0330772277,6.61336427 L0.0330772277,9.97354988 L2.09493861,9.97354988 L2.09493861,19.9588399 L6.3304396,19.9588399 L6.3304396,9.97382831 L9.17265743,9.97382831 C9.17265743,9.97382831 9.43884356,8.36264501 9.56787327,6.60097448 C9.19794059,6.60097448 6.34645545,6.60097448 6.34645545,6.60097448 C6.34645545,6.60097448 6.34645545,4.64612529 6.34645545,4.30348028 C6.34645545,3.96009281 6.80825347,3.49819026 7.26468119,3.49819026 C7.72025347,3.49819026 8.68177426,3.49819026 9.57234059,3.49819026 C9.57234059,3.04069606 9.57234059,1.4599536 9.57234059,4.64037123e-05 C8.38346139,4.64037123e-05 7.03090693,4.64037123e-05 6.43470891,4.64037123e-05 C1.99024158,-0.000185614849 2.09493861,3.36334107 2.09493861,3.86542923 Z" id="Facebook"></path>
                </g>
            </g>
        </g>
    </g>
</svg>