<?xml version="1.0" encoding="UTF-8"?>
<svg width="42px" height="55px" viewBox="0 0 42 55" version="1.1" xmlns="http://www.w3.org/2000/svg" xmlns:xlink="http://www.w3.org/1999/xlink">
    <!-- Generator: sketchtool 48.1 (47250) - http://www.bohemiancoding.com/sketch -->
    <title>8F9A703A-F69F-4EB1-A676-98CB11D233E7</title>
    <desc>Created with sketchtool.</desc>
    <defs></defs>
    <g id="HarrisonWork" stroke="none" stroke-width="1" fill="none" fill-rule="evenodd" transform="translate(-131.000000, -3301.000000)">
        <g id="footprints-outline-variant" transform="translate(131.000000, 3301.000000)" fill="#D6BB74" fill-rule="nonzero">
            <path d="M29.8729091,23.22925 L29.8663636,23.247675 C29.0127273,22.909425 27.1925455,22.795575 27.1611818,22.795575 C25.2231818,22.795575 23.6547273,24.235475 23.1580909,26.4693 C22.7719091,28.214175 23.0683636,29.908725 24.0589091,31.64865 L24.5571818,32.499225 C24.9823636,33.2145 25.3775455,33.8877 25.7029091,34.5994 C26.5663636,36.5068 26.4169091,38.350125 25.2646364,40.066675 C24.9507273,40.5306 24.4840909,40.927425 23.9890909,41.345975 L23.8363636,41.4733 C23.5030909,41.756 23.1545455,42.017525 22.8024545,42.285375 C22.3041818,42.6602 21.8061818,43.035575 21.3501818,43.464025 C19.932,44.79035 19.1803636,46.62735 19.0475455,49.0688 C18.9223636,51.36615 20.034,53.24 22.0999091,54.209375 C22.8913636,54.581175 23.823,54.974425 24.861,54.974425 C25.095,54.974425 25.3292727,54.954625 25.5714545,54.9142 C27.45,54.5776 28.8962727,53.3401 29.8579091,51.2336 C30.1219091,50.657475 30.3013636,50.054675 30.4472727,49.52915 C30.9488182,47.7323 31.8490909,46.016025 33.2007273,44.28105 L33.9880909,43.276475 C34.8231818,42.21965 35.6852727,41.128175 36.4625455,39.977575 C37.6647273,38.202725 38.3822727,36.17845 38.598,33.971025 C38.8388182,31.494375 38.0266364,29.220675 36.1832727,27.217575 C34.5608182,25.463075 32.4968182,24.15875 29.8729091,23.22925 Z M35.0558182,39.011775 C34.3104545,40.110125 33.4682727,41.17685 32.6544545,42.208375 L31.8572727,43.22285 C30.3692727,45.1385 29.3697273,47.0492 28.8081818,49.063575 C28.6786364,49.5242 28.5259091,50.05165 28.3134545,50.51365 C27.5727273,52.12295 26.6097273,52.983425 25.2711818,53.22295 C24.411,53.375575 23.5952727,53.01725 22.815,52.65205 C21.3709091,51.9739 20.6536364,50.76665 20.7400909,49.159275 C20.8486364,47.1548 21.4134545,45.744875 22.5038182,44.7216 C22.9189091,44.33495 23.3708182,43.996425 23.8180909,43.656525 C24.1985455,43.3719 24.5751818,43.087275 24.9340909,42.78065 L25.0786364,42.65855 C25.6150909,42.2048 26.2243636,41.69385 26.6710909,41.0256 C28.1574545,38.807175 28.3584545,36.342075 27.2506364,33.8855 C26.8887273,33.0869 26.442,32.3433 26.0151818,31.6217 L25.5321818,30.79615 C24.7516364,29.424725 24.5241818,28.16715 24.8162727,26.84275 C25.137,25.38085 26.0138182,24.513225 27.1712727,24.513225 C27.7456364,24.513225 28.8850909,24.734325 29.2189091,24.82315 L29.3037273,24.853125 C31.6652727,25.68885 33.5086364,26.847425 34.935,28.391275 C36.4543636,30.0443 37.0955455,31.812275 36.8978182,33.806575 C36.7148182,35.7247 36.0935455,37.477825 35.0558182,39.011775 Z" id="Shape"></path>
            <path d="M29.622,20.361 C31.1001818,19.008 31.7942727,15.9016 31.0401818,14.026375 C30.288,12.145925 28.5725455,11.859375 27.2539091,13.40515 C27.048,13.644675 26.8570909,13.89905 26.6923636,14.173775 C26.4981818,14.4969 26.3402727,14.850275 26.2339091,15.0546 C25.719,16.536575 25.5649091,17.884625 25.9581818,19.2511 C26.5183636,21.1981 28.1656364,21.69365 29.622,20.361 Z" id="Shape"></path>
            <path d="M34.3549091,22.38885 C34.8714545,22.01375 35.2682727,21.44945 35.5407273,20.7042 C35.8712727,19.8451 35.976,18.959325 35.7384545,18.07025 C35.3830909,16.703775 34.2422727,16.295125 33.1843636,17.13415 C31.9969091,18.0818 31.4421818,20.233675 32.0135455,21.67055 C32.4501818,22.7722 33.42,23.066725 34.3549091,22.38885 Z" id="Shape"></path>
            <path d="M37.791,24.9238 C38.8870909,24.277275 39.5743636,22.43065 39.1810909,21.17115 C38.9102727,20.296925 38.1812727,19.983975 37.419,20.420675 C36.7862727,20.780925 36.4159091,21.38345 36.1219091,22.0649 C35.8996364,22.746625 35.7799091,23.4432 35.9792727,24.15325 C36.243,25.0745 36.9970909,25.397625 37.791,24.9238 Z" id="Shape"></path>
            <path d="M41.1139091,25.948725 C41.1537273,25.5838 41.2448182,25.2153 41.2232727,24.85505 C41.1801818,24.068275 40.6039091,23.68135 39.903,23.9074 C38.9713636,24.210725 38.1676364,25.531825 38.2870909,26.56995 C38.382,27.335275 38.9149091,27.7288 39.5991818,27.4978 C40.317,27.256625 40.7601818,26.675275 41.1139091,25.948725 Z" id="Shape"></path>
            <path d="M41.8429091,28.011775 C41.6536364,27.38395 41.0972727,27.144425 40.6006364,27.53465 C40.2984545,27.774175 40.0723636,28.128925 39.7870909,28.457275 C39.7701818,28.9278 39.6957273,29.38155 39.7636364,29.802025 C39.8866364,30.506575 40.4713636,30.726025 41.0391818,30.34625 C41.6901818,29.907075 42.0771818,28.78535 41.8429091,28.011775 Z" id="Shape"></path>
            <path d="M22.9303636,36.658875 C22.7975455,34.217425 22.0445455,32.385375 20.6263636,31.054375 C20.1654545,30.625375 19.6671818,30.24395 19.1689091,29.870225 C18.8203636,29.610625 18.4715455,29.348 18.1385455,29.06145 L17.9942727,28.94265 C17.4951818,28.52245 17.0244545,28.1237 16.7080909,27.658125 C15.5555455,25.936625 15.4093636,24.09825 16.2698182,22.1925 C16.5927273,21.47915 16.9939091,20.80265 17.4158182,20.08765 L17.9140909,19.237075 C18.9070909,17.49385 19.2019091,15.7993 18.8173636,14.057725 C18.3218182,11.829125 16.7484545,10.384 14.8055455,10.384 C14.7848182,10.384 12.9670909,10.49455 12.1153636,10.8394 L12.1044545,10.819325 C9.48054545,11.750475 7.41463636,13.05645 5.79381818,14.812875 C3.95045455,16.81405 3.13772727,19.084725 3.37909091,21.563025 C3.59509091,23.77485 4.31236364,25.7961 5.51481818,27.569575 C6.29209091,28.72155 7.15472727,29.8133 7.98927273,30.870125 L8.77663636,31.8747 C10.1290909,33.60775 11.0285455,35.32595 11.5300909,37.125825 C11.6762727,37.648325 11.8513636,38.2514 12.1189091,38.83055 C13.0810909,40.932375 14.5268182,42.1663 16.4091818,42.50785 C16.6491818,42.5513 16.8815455,42.57 17.1166364,42.57 C18.1538182,42.57 19.0854545,42.17455 19.8766364,41.803025 C21.9422727,40.831725 23.0541818,38.95485 22.9303636,36.658875 Z M16.701,40.81495 C15.3624545,40.573775 14.3967273,39.713025 13.6587273,38.105375 C13.4462727,37.6431 13.29,37.119225 13.164,36.6553 C12.5994545,34.637625 11.5996364,32.726925 10.1116364,30.81485 L9.31445455,29.8001 C8.49981818,28.768575 7.65627273,27.70185 6.91636364,26.60185 C5.87945455,25.06955 5.25490909,23.316425 5.06972727,21.397475 C4.87718182,19.404825 5.51809091,17.633275 7.03363636,15.985475 C8.46436364,14.43475 10.3077273,13.274525 12.6657273,12.44045 L12.7420909,12.4135 C13.0742727,12.327975 14.2268182,12.100275 14.8088182,12.100275 C15.9548182,12.100275 16.8308182,12.9745 17.1537273,14.429525 C17.4458182,15.75585 17.2183636,17.0115 16.4378182,18.384575 L15.9545455,19.2104 C15.5277273,19.932275 15.0834545,20.6789 14.718,21.479425 C13.6129091,23.929125 13.8111818,26.399175 15.2959091,28.619525 C15.7467273,29.284475 16.3554545,29.79845 16.8968182,30.2555 L17.0304545,30.3677 C17.3915455,30.67405 17.7668182,30.9573 18.1415455,31.240275 C18.5972727,31.5799 19.0472727,31.920075 19.4593636,32.307 C20.5562727,33.3366 21.1175455,34.743225 21.2263636,36.7477 C21.3125455,38.357 20.5952727,39.5659 19.1514545,40.240475 C18.3774545,40.608975 17.5513636,40.972525 16.701,40.81495 Z" id="Shape"></path>
            <path d="M16.0112727,6.842275 C16.4023636,5.4758 16.2504545,4.128025 15.7355455,2.6444 C15.63,2.440075 15.4748182,2.08835 15.2795455,1.766875 C15.1126364,1.48885 14.9209091,1.231175 14.715,0.9933 C13.4007273,-0.5489 11.6860909,-0.260975 10.9295455,1.617825 C10.1746364,3.494975 10.8698182,6.5978 12.3477273,7.9508 C13.8081818,9.283725 15.4546364,8.78845 16.0112727,6.842275 Z" id="Shape"></path>
            <path d="M7.61890909,9.983875 C8.55545455,10.662025 9.52281818,10.363925 9.96027273,9.265575 C10.5316364,7.8254 9.97690909,5.67215 8.78863636,4.727525 C7.73072727,3.892075 6.58990909,4.2955 6.23454545,5.661975 C5.99781818,6.556 6.10172727,7.438475 6.43309091,8.297575 C6.70554545,9.044475 7.10154545,9.610425 7.61890909,9.983875 Z" id="Shape"></path>
            <path d="M4.182,12.5158 C4.97754545,12.989625 5.73054545,12.6665 5.99290909,11.742225 C6.18981818,11.033825 6.07254545,10.3422 5.84672727,9.6558 C5.55354545,8.976 5.18318182,8.3699 4.55045455,8.00965 C3.79063636,7.574325 3.05918182,7.89085 2.78863636,8.765075 C2.39918182,10.020725 3.09190909,11.86955 4.182,12.5158 Z" id="Shape"></path>
            <path d="M2.06972727,11.5027 C1.36881818,11.27665 0.792545455,11.663575 0.750272727,12.45035 C0.727909091,12.8106 0.820090909,13.182125 0.859090909,13.547325 C1.21281818,14.272225 1.65627273,14.85 2.37463636,15.091175 C3.05781818,15.3274 3.59672727,14.930575 3.68563636,14.1636 C3.80427273,13.130425 3.00136364,11.802175 2.06972727,11.5027 Z" id="Shape"></path>
            <path d="M1.37536364,15.128025 C0.875454545,14.7345 0.321818182,14.977325 0.132272727,15.6035 C-0.103636364,16.377075 0.285818182,17.497425 0.938727273,17.9377 C1.50681818,18.318025 2.09372727,18.096925 2.214,17.395125 C2.28218182,16.974925 2.20745455,16.517875 2.19409091,16.0523 C1.90118182,15.71735 1.67863636,15.362325 1.37536364,15.128025 Z" id="Shape"></path>
        </g>
    </g>
</svg>