<?xml version="1.0" encoding="UTF-8"?>
<svg width="40px" height="40px" viewBox="0 0 40 40" version="1.1" xmlns="http://www.w3.org/2000/svg" xmlns:xlink="http://www.w3.org/1999/xlink">
    <!-- Generator: sketchtool 48.1 (47250) - http://www.bohemiancoding.com/sketch -->
    <title>13C3BAE6-6B86-4FE5-8524-F4868A5DE656</title>
    <desc>Created with sketchtool.</desc>
    <defs></defs>
    <g id="HarrisonWork" stroke="none" stroke-width="1" fill="none" fill-rule="evenodd" transform="translate(-680.000000, -690.000000)">
        <g id="Group-17" transform="translate(680.000000, 690.000000)">
            <g id="back" transform="translate(19.934783, 20.167702) scale(-1, 1) rotate(-90.000000) translate(-19.934783, -20.167702) translate(6.934783, 9.667702)" fill="#D6BB74" fill-rule="nonzero">
                <path d="M24.8386473,10.6798068 L0.38647343,10.6798068 C0.173140097,10.6798068 0,10.5066667 0,10.2933333 C0,10.08 0.173140097,9.9068599 0.38647343,9.9068599 L24.8386473,9.9068599 C25.0519807,9.9068599 25.2251208,10.08 25.2251208,10.2933333 C25.2251208,10.5066667 25.0519807,10.6798068 24.8386473,10.6798068 Z" id="Shape"></path>
                <path d="M10.0769082,20.3694686 C9.97797101,20.3694686 9.87903382,20.3315942 9.80328502,20.2566184 L0.112850242,10.5654106 C0.0409661836,10.4927536 0,10.3945894 0,10.2917874 C0,10.1889855 0.0409661836,10.0908213 0.112850242,10.0181643 L9.80405797,0.331594203 C9.95478261,0.180869565 10.1998068,0.180869565 10.3505314,0.331594203 C10.501256,0.482318841 10.501256,0.727342995 10.3505314,0.878067633 L0.93294686,10.2917874 L10.3505314,19.709372 C10.501256,19.8600966 10.501256,20.1051208 10.3505314,20.2558454 C10.2747826,20.3315942 10.1758454,20.3694686 10.0769082,20.3694686 Z" id="Shape"></path>
            </g>
            <rect id="Rectangle-8" stroke="#D6BB74" stroke-width="0.5" opacity="0.5" x="0.25" y="0.25" width="39.5" height="39.5"></rect>
        </g>
    </g>
</svg>