<?xml version="1.0" encoding="UTF-8"?>
<svg width="42px" height="50px" viewBox="0 0 42 50" version="1.1" xmlns="http://www.w3.org/2000/svg" xmlns:xlink="http://www.w3.org/1999/xlink">
    <!-- Generator: sketchtool 48.1 (47250) - http://www.bohemiancoding.com/sketch -->
    <title>52161808-67BF-4AAA-A96C-DF80E7839C71</title>
    <desc>Created with sketchtool.</desc>
    <defs></defs>
    <g id="HarrisonWork" stroke="none" stroke-width="1" fill="none" fill-rule="evenodd" transform="translate(-617.000000, -3584.000000)">
        <g id="hourglass-3" transform="translate(617.000000, 3584.000000)" fill-rule="nonzero">
            <circle id="Oval" fill="#FFEEC0" cx="20.8333333" cy="21.6666667" r="1"></circle>
            <circle id="Oval" fill="#FFEEC0" cx="23.3333333" cy="20" r="1"></circle>
            <circle id="Oval" fill="#FFEEC0" cx="18.3333333" cy="20" r="1"></circle>
            <circle id="Oval" fill="#FFEEC0" cx="15.8333333" cy="18.3333333" r="1"></circle>
            <circle id="Oval" fill="#FFEEC0" cx="25.8333333" cy="18.3333333" r="1"></circle>
            <circle id="Oval" fill="#FFEEC0" cx="28.3333333" cy="16.6666667" r="1"></circle>
            <circle id="Oval" fill="#FFEEC0" cx="13.3333333" cy="16.6666667" r="1"></circle>
            <circle id="Oval" fill="#FFEEC0" cx="20.8333333" cy="18.3333333" r="1"></circle>
            <circle id="Oval" fill="#FFEEC0" cx="20.8333333" cy="28.3333333" r="1"></circle>
            <circle id="Oval" fill="#FFEEC0" cx="20.8333333" cy="30.8333333" r="1"></circle>
            <circle id="Oval" fill="#FFEEC0" cx="20.8333333" cy="33.3333333" r="1"></circle>
            <circle id="Oval" fill="#FFEEC0" cx="20.8333333" cy="35.8333333" r="1"></circle>
            <circle id="Oval" fill="#FFEEC0" cx="20.8333333" cy="38.3333333" r="1"></circle>
            <circle id="Oval" fill="#FFEEC0" cx="20.8333333" cy="40.8333333" r="1"></circle>
            <path d="M40.8333333,48.3333333 L38.3333333,48.3333333 L38.3333333,45 L34.1666667,45 L34.1666667,36.4816667 C34.1666667,34.2316667 33.0483333,32.1416667 31.1758333,30.8933333 L22.3358333,25 L31.1758333,19.1066667 C33.0483333,17.8583333 34.1666667,15.7683333 34.1666667,13.5183333 L34.1666667,5 L38.3333333,5 L38.3333333,1.66666667 L40.8333333,1.66666667 C41.2933333,1.66666667 41.6666667,1.29416667 41.6666667,0.833333333 C41.6666667,0.3725 41.2933333,0 40.8333333,0 L38.3333333,0 L37.5,0 L4.16666667,0 L3.33333333,0 L0.833333333,0 C0.373333333,0 0,0.3725 0,0.833333333 C0,1.29416667 0.373333333,1.66666667 0.833333333,1.66666667 L3.33333333,1.66666667 L3.33333333,5 L7.5,5 L7.5,13.5183333 C7.5,15.7683333 8.61833333,17.8583333 10.4908333,19.1066667 L19.3308333,25 L10.4908333,30.8933333 C8.61833333,32.1416667 7.5,34.2316667 7.5,36.4816667 L7.5,45 L3.33333333,45 L3.33333333,48.3333333 L0.833333333,48.3333333 C0.373333333,48.3333333 0,48.7058333 0,49.1666667 C0,49.6275 0.373333333,50 0.833333333,50 L3.33333333,50 L4.16666667,50 L37.5,50 L38.3333333,50 L40.8333333,50 C41.2933333,50 41.6666667,49.6275 41.6666667,49.1666667 C41.6666667,48.7058333 41.2933333,48.3333333 40.8333333,48.3333333 Z M5,3.33333333 L5,1.66666667 L36.6666667,1.66666667 L36.6666667,3.33333333 L34.1666667,3.33333333 L7.5,3.33333333 L5,3.33333333 Z M11.415,17.72 C10.0075,16.7808333 9.16666667,15.21 9.16666667,13.5183333 L9.16666667,5 L32.5,5 L32.5,13.5183333 C32.5,15.21 31.6591667,16.7808333 30.2516667,17.72 L20.8333333,23.9983333 L11.415,17.72 Z M9.16666667,36.4816667 C9.16666667,34.79 10.0075,33.2191667 11.415,32.28 L20.8333333,26.0016667 L30.2516667,32.28 C31.6591667,33.2191667 32.5,34.79 32.5,36.4816667 L32.5,45 L9.16666667,45 L9.16666667,36.4816667 Z M5,46.6666667 L7.5,46.6666667 L34.1666667,46.6666667 L36.6666667,46.6666667 L36.6666667,48.3333333 L5,48.3333333 L5,46.6666667 Z" id="Shape" fill="#D6BB74"></path>
        </g>
    </g>
</svg>