<?xml version="1.0" encoding="UTF-8"?>
<svg width="212px" height="383px" viewBox="0 0 212 383" version="1.1" xmlns="http://www.w3.org/2000/svg" xmlns:xlink="http://www.w3.org/1999/xlink">
    <!-- Generator: sketchtool 48.1 (47250) - http://www.bohemiancoding.com/sketch -->
    <title>413C7B40-10F0-4610-B8A2-FF9EEA4976A7</title>
    <desc>Created with sketchtool.</desc>
    <defs></defs>
    <g id="HarrisonWork" stroke="none" stroke-width="1" fill="none" fill-rule="evenodd" transform="translate(0.000000, -4645.000000)" opacity="0.200000003">
        <g id="icon" transform="translate(-38.000000, 4645.000000)" fill="#030104" fill-rule="nonzero">
            <path d="M241.32,28.04 L239.86,27.82 C236.72,27.4 230.26,26.94 221.94,28.24 C218.32,11.34 211.74,0 204.18,0 C194.2,0 185.9,19.76 183.98,46.02 C166.46,60.66 148.9,86.48 137.64,131.74 C130.62,159.94 117.44,178.6 98.48,187.16 C86.78,192.48 72.66,194.08 56.58,191.94 C34.36,189 16.18,179.82 15.9,179.66 C10.96,177.2 4.62,179.24 2.06,184.14 C-0.54,189.18 1.44,195.4 6.5,198.02 C8.7,199.16 28.74,209.14 53.72,212.46 C73.64,215.1 91.54,212.92 106.92,206 C131.94,194.72 149,171.4 157.66,136.72 C164.7,108.48 173.96,89.16 183.7,75.9 L185.84,116.42 L198.5,356.92 C198.5,362.62 198.5,382.68 204.2,382.68 C209.88,382.68 209.88,362.62 209.88,356.92 L222.54,116.5 L224.8,73.52 C224.8,72.82 224.8,62.3 224.8,57.44 C224.8,54.32 224.7,51.26 224.5,48.26 C229.64,47.48 233.64,47.72 235.68,47.98 C236.38,48.08 236.88,48.18 238,48.4 C243.34,49.1 248.28,45.74 249.5,40.54 C250.8,34.98 247.34,29.42 241.32,28.04 Z M204.4,22.38 C207.7,22.38 210.68,25.4 212.88,30.28 C206.76,32.06 200.08,34.9 193.22,39.26 C195.1,29.32 199.4,22.38 204.4,22.38 Z M216.64,50.5 C216.64,66.04 211.18,78.64 204.4,78.64 C199.84,78.64 195.94,72.84 193.84,64.36 C201.88,56.68 209.8,52.4 216.64,50.16 C216.64,50.28 216.64,50.4 216.64,50.5 Z" id="Shape"></path>
        </g>
    </g>
</svg>