<?xml version="1.0" encoding="iso-8859-1"?>
<!-- Generator: Adobe Illustrator 19.0.0, SVG Export Plug-In . SVG Version: 6.00 Build 0)  -->
<svg version="1.1" id="Capa_1" xmlns="http://www.w3.org/2000/svg" xmlns:xlink="http://www.w3.org/1999/xlink" x="0px" y="0px"
	 viewBox="0 0 508 508" style="enable-background:new 0 0 508 508;" xml:space="preserve">
<g>
	<g>
		<path d="M289.1,115.5c-4.5,0-8.2,3.7-8.2,8.2s3.7,8.1,8.2,8.1c7.1,0,12.9,5.7,12.9,12.7c0,4.5,3.7,8.2,8.2,8.2s8.2-3.7,8.2-8.2
			C318.4,128.5,305.3,115.5,289.1,115.5z"/>
	</g>
</g>
<g>
	<g>
		<path d="M303.2,178c-4.5,0-8.2,3.7-8.2,8.2c0,7-5.8,12.7-12.9,12.7c-4.5,0-8.2,3.7-8.2,8.2c0,4.5,3.7,8.2,8.2,8.2
			c16.1,0,29.3-13,29.3-29.1C311.4,181.7,307.7,178,303.2,178z"/>
	</g>
</g>
<g>
	<g>
		<path d="M218.9,115.4c-16.1,0-29.3,13-29.3,29c0,4.5,3.7,8.2,8.2,8.2c4.5,0.1,8.2-3.6,8.2-8.1c0-7,5.8-12.7,12.9-12.7
			c4.5,0,8.2-3.7,8.2-8.2S223.4,115.4,218.9,115.4z"/>
	</g>
</g>
<g>
	<g>
		<path d="M225.9,198.9c-7.1,0-12.9-5.7-12.9-12.7c0-4.5-3.7-8.2-8.2-8.2s-8.2,3.7-8.2,8.2c0,16,13.1,29.1,29.3,29.1
			c4.5,0,8.2-3.7,8.2-8.2S230.4,198.9,225.9,198.9z"/>
	</g>
</g>
<g>
	<g>
		<path d="M378,227.1l-2-5.8h-25c1.6-4.6,2.5-9.4,2.5-14.2c0-5-0.9-9.9-2.7-14.7c6.3-7.6,9.8-17,9.8-27c0-12.1-5.2-23.6-14.2-31.7
			c0.1-1,0.1-2.1,0.1-3.1c0-23.7-19.4-43-43.3-43h-17.4c-8.2-8.9-19.6-13.9-31.7-13.9c-12.2,0-23.5,5-31.7,13.9H205
			c-23.9,0-43.3,19.3-43.3,43c0,1,0,2,0.1,3.1c-9,8.1-14.2,19.6-14.2,31.7c0,10,3.4,19.4,9.8,27c-1.8,4.8-2.7,9.7-2.7,14.7
			c0,4.9,0.9,9.7,2.5,14.2h-24.9l-1.8,5.8c-3.2,10.7-5,21.4-5.3,32C123.9,301,143.3,341,177.1,366c19.8,14.7,28.7,30.1,28.7,50v1.8
			v8.2v24.6h-17.1V467h17.7c3.6,23.2,23.7,41,47.9,41s44.2-17.8,47.9-41h17.6v-16.4h-17V426h-0.1v-10c0-20,8.7-35,29.1-50.3
			c32.7-24.5,51.5-61.9,51.5-102.5C383.3,251.2,381.5,239,378,227.1z M262.3,91.6c5,1.6,9.7,4.7,13.1,9.2l2.5,3.2h25.3
			c14.8,0,26.9,11.9,26.9,26.6c0,1.6-0.2,3.2-0.5,5l-1,5.2l4.3,3.1c7.2,5.1,11.3,12.9,11.3,21.5c0,7.4-3.1,14.3-8.6,19.4l-4.7,4.3
			l3,5.6c2.2,4,3.3,8.2,3.3,12.4c0,5.1-1.5,10-4.2,14.2h-70.7V91.6z M175.1,143.9l4.3-3l-1-5.2c-0.4-1.8-0.5-3.5-0.5-5
			c0-14.6,12.1-26.6,26.9-26.6h25.3l2.5-3.2c3.4-4.5,8.1-7.6,13.2-9.2v129.7h-70.7c-2.7-4.4-4.2-9.2-4.2-14.3
			c0-4.2,1.1-8.4,3.3-12.4l3-5.6l-4.7-4.3c-5.6-5.1-8.7-12-8.7-19.4C163.8,156.8,167.9,149,175.1,143.9z M254,491.6
			c-15.1,0-27.7-10.5-31.1-24.6h62.3C281.8,481.1,269.1,491.6,254,491.6z M286.2,450.6h-64.3V426h64.3V450.6z M321.7,352.7
			c-22.2,16.6-33.6,34.9-35.4,57h-24.1v-90.1h32.2v-16.4h-32.2h-16.4H213v16.4h32.8v90.1h-24.1c-1.8-22.2-13-40.4-35-56.7
			c-29.5-21.9-46.4-56.7-45.2-93.3c0.2-7.2,1.3-14.6,3.1-22h22.9h173.4h22.9c2,8.5,3.1,17.1,3.1,25.6
			C366.6,298.7,350.3,331.3,321.7,352.7z"/>
	</g>
</g>
<g>
	<g>
		<rect x="245.8" width="16.4" height="32.8"/>
	</g>
</g>
<g>
	<g>
		<rect x="125.115" y="26.784" transform="matrix(0.7072 -0.7071 0.7071 0.7072 8.5061 106.9078)" width="16.401" height="32.802"/>
	</g>
</g>
<g>
	<g>
		<rect x="65.5" y="155.7" width="32.8" height="16.4"/>
	</g>
</g>
<g>
	<g>
		<rect x="409.7" y="155.7" width="32.8" height="16.4"/>
	</g>
</g>
<g>
	<g>
		<rect x="358.257" y="34.985" transform="matrix(0.7071 -0.7071 0.7071 0.7071 79.1982 277.5705)" width="32.8" height="16.4"/>
	</g>
</g>
<g>
</g>
<g>
</g>
<g>
</g>
<g>
</g>
<g>
</g>
<g>
</g>
<g>
</g>
<g>
</g>
<g>
</g>
<g>
</g>
<g>
</g>
<g>
</g>
<g>
</g>
<g>
</g>
<g>
</g>
</svg>
