<?xml version="1.0" encoding="UTF-8"?>
<!DOCTYPE svg PUBLIC "-//W3C//DTD SVG 1.1//EN" "http://www.w3.org/Graphics/SVG/1.1/DTD/svg11.dtd">
<!-- Creator: CorelDRAW 2017 -->
<svg xmlns="http://www.w3.org/2000/svg" xml:space="preserve" width="4.2371mm" height="4.2371mm" version="1.1" style="shape-rendering:geometricPrecision; text-rendering:geometricPrecision; image-rendering:optimizeQuality; fill-rule:evenodd; clip-rule:evenodd"
viewBox="0 0 553 553"
 xmlns:xlink="http://www.w3.org/1999/xlink">
 <defs>
  <style type="text/css">
   <![CDATA[
    .fil0 {fill:#EBECEC}
   ]]>
  </style>
 </defs>
 <g id="Слой_x0020_1">
  <metadata id="CorelCorpID_0Corel-Layer"/>
  <path class="fil0" d="M277 339c-60,0 -77,-81 -21,-103 48,-19 92,28 72,72 -7,16 -27,31 -51,31zm83 -75l24 0 0 118c0,5 -4,10 -10,10l-196 0c-7,0 -10,-6 -10,-13l0 -114 25 0c-1,6 -3,11 -3,24 0,15 3,24 8,34 5,12 17,26 29,34 25,17 55,20 83,9 19,-8 34,-21 44,-39 10,-18 10,-26 10,-45 0,-5 -2,-14 -3,-17zm-32 -49c0,-42 -3,-38 44,-38 16,0 12,23 12,41 0,7 -4,13 -11,13 -31,0 -45,5 -45,-16zm-190 -31l0 204c0,12 6,22 13,28 8,7 17,9 32,9l188 0c26,0 45,-11 45,-39l0 -202c0,-21 -16,-38 -35,-38l-210 0c-19,0 -35,16 -35,38z"/>
  <path class="fil0" d="M279 525c-43,0 -89,-11 -124,-32l-53 -40c-48,-48 -73,-109 -73,-181 0,-54 18,-98 45,-138 2,-3 4,-5 6,-9l14 -16c14,-17 40,-37 59,-48 76,-46 184,-44 258,5l27 20c3,2 5,5 8,7l16 16c7,8 13,14 20,25l12 19c43,73 44,174 0,247l-12 19c-9,14 -30,38 -44,48 -26,20 -28,21 -57,36 -24,12 -64,22 -101,22zm-279 -258c0,42 2,64 16,103 25,70 77,125 143,157 26,13 70,26 108,26 50,0 86,-6 127,-26 46,-22 79,-50 109,-91 28,-38 51,-98 51,-150 0,-50 -6,-86 -26,-127 -30,-62 -72,-103 -133,-134 -29,-15 -75,-26 -108,-26l-1 0c-30,0 -45,0 -76,8 -9,2 -17,5 -26,8 -8,3 -17,6 -24,10 -48,24 -77,48 -109,91 -10,13 -17,27 -25,42 -3,7 -7,16 -10,24 -3,8 -6,17 -8,26 -4,17 -8,39 -8,59z"/>
 </g>
</svg>
