<?xml version="1.0" encoding="UTF-8"?>
<!DOCTYPE svg PUBLIC "-//W3C//DTD SVG 1.1//EN" "http://www.w3.org/Graphics/SVG/1.1/DTD/svg11.dtd">
<!-- Creator: CorelDRAW 2017 -->
<svg xmlns="http://www.w3.org/2000/svg" xml:space="preserve" width="40.064mm" height="7.2335mm" version="1.1" style="shape-rendering:geometricPrecision; text-rendering:geometricPrecision; image-rendering:optimizeQuality; fill-rule:evenodd; clip-rule:evenodd"
viewBox="0 0 205199 37048"
 xmlns:xlink="http://www.w3.org/1999/xlink">
 <defs>
  <style type="text/css">
   <![CDATA[
    .fil1 {fill:#FEFEFE}
    .fil0 {fill:#FEFEFE;fill-rule:nonzero}
   ]]>
  </style>
 </defs>
 <g id="Слой_x0020_1">
  <metadata id="CorelCorpID_0Corel-Layer"/>
  <path class="fil0" d="M7006 18120l5910 0 0 -2558c0,-547 -31,-951 -96,-1211 -62,-260 -182,-477 -352,-645 -156,-154 -332,-265 -531,-336 -196,-68 -455,-111 -779,-127l0 -179 5309 0 0 179c-316,16 -571,59 -770,127 -196,68 -372,179 -528,333 -170,171 -289,385 -352,647 -65,263 -96,664 -96,1206l0 5857c0,542 31,940 96,1200 62,260 182,477 352,653 156,149 332,257 528,330 199,71 454,114 770,130l0 179 -5309 0 0 -179c324,-16 582,-59 779,-130 198,-73 374,-181 531,-330 170,-168 289,-382 352,-642 65,-260 96,-661 96,-1206l0 -2926 -5910 0 0 2926c0,539 31,940 97,1203 62,260 181,477 351,645 151,149 324,257 523,330 196,71 454,114 777,130l0 179 -5300 0 0 -179c320,-16 579,-59 777,-130 196,-73 369,-181 519,-330 176,-171 296,-385 358,-645 59,-260 91,-661 91,-1208l0 -5857c0,-548 -32,-949 -91,-1208 -62,-260 -181,-474 -358,-645 -150,-155 -324,-266 -525,-333 -198,-68 -456,-111 -771,-127l0 -179 5300 0 0 179c-318,16 -573,59 -769,127 -199,71 -375,182 -531,336 -170,168 -289,385 -351,647 -66,263 -97,666 -97,1208l0 2558z"/>
  <path id="1" class="fil0" d="M28887 23906l-5471 0 0 -179c494,-44 840,-122 1034,-239 344,-206 516,-493 516,-858 0,-217 -76,-507 -232,-873l-142 -333 -797 -1875 -3668 0 -435 1098 -210 490c-249,582 -374,1040 -374,1374 0,198 45,379 139,550 91,168 213,306 369,412 219,143 497,227 837,255l0 179 -3730 0 0 -179c296,-16 551,-84 775,-206 221,-122 437,-320 647,-588 179,-217 352,-498 522,-840 167,-341 392,-853 667,-1536l3043 -7494 477 0 3628 8350c273,631 489,1081 650,1352 159,271 335,474 522,613 134,95 287,167 457,219 173,49 431,92 775,130l0 179zm-5224 -4681l-1746 -4118 -1657 4118 3403 0z"/>
  <path id="2" class="fil0" d="M32671 18607l0 2809c0,542 31,943 97,1203 65,263 181,480 354,648 151,149 326,257 525,330 199,71 457,114 784,130l0 179 -5311 0 0 -179c321,-16 579,-59 778,-130 196,-73 369,-181 519,-330 176,-171 295,-385 358,-645 59,-260 91,-661 91,-1208l0 -5857c0,-548 -32,-949 -91,-1208 -62,-260 -181,-474 -358,-645 -150,-155 -324,-266 -525,-333 -198,-68 -456,-111 -772,-127l0 -179 4011 0c670,0 1110,3 1323,8 860,38 1533,149 2021,333 551,211 976,528 1277,951 304,419 454,910 454,1465 0,826 -327,1487 -982,1986 -199,149 -420,271 -661,366 -242,95 -565,187 -968,271 326,133 571,271 726,412 128,111 242,252 346,417 102,168 259,463 466,886 494,970 866,1679 1119,2127 253,447 465,772 636,973 139,165 273,279 403,341 131,65 309,106 537,128l0 179 -2745 0c-139,-290 -227,-477 -267,-555l-582 -1263c-352,-756 -704,-1425 -1059,-2005 -354,-577 -681,-973 -977,-1184 -150,-106 -312,-181 -482,-225 -173,-46 -386,-68 -636,-68l-408 0zm0 -179l318 0c693,0 1189,-38 1488,-111 298,-76 579,-228 840,-460 587,-531 879,-1190 879,-1972 0,-420 -85,-813 -255,-1181 -171,-369 -406,-672 -707,-911 -236,-181 -514,-306 -837,-376 -324,-73 -786,-109 -1382,-109l-344 0 0 5121z"/>
  <path id="3" class="fil0" d="M43700 18607l0 2809c0,542 31,943 97,1203 65,263 181,480 354,648 151,149 327,257 525,330 199,71 457,114 784,130l0 179 -5311 0 0 -179c320,-16 579,-59 777,-130 196,-73 369,-181 519,-330 176,-171 296,-385 358,-645 59,-260 91,-661 91,-1208l0 -5857c0,-548 -32,-949 -91,-1208 -62,-260 -181,-474 -358,-645 -150,-155 -324,-266 -525,-333 -198,-68 -456,-111 -771,-127l0 -179 4011 0c670,0 1110,3 1323,8 860,38 1533,149 2021,333 551,211 976,528 1277,951 304,419 454,910 454,1465 0,826 -326,1487 -982,1986 -199,149 -420,271 -661,366 -241,95 -565,187 -968,271 326,133 571,271 727,412 128,111 241,252 346,417 102,168 259,463 466,886 494,970 866,1679 1119,2127 253,447 465,772 636,973 139,165 273,279 403,341 131,65 309,106 537,128l0 179 -2745 0c-139,-290 -227,-477 -267,-555l-582 -1263c-352,-756 -704,-1425 -1059,-2005 -354,-577 -681,-973 -977,-1184 -150,-106 -311,-181 -482,-225 -173,-46 -386,-68 -636,-68l-409 0zm0 -179l318 0c692,0 1189,-38 1487,-111 298,-76 579,-228 840,-460 587,-531 880,-1190 880,-1972 0,-420 -85,-813 -256,-1181 -170,-369 -406,-672 -707,-911 -236,-181 -514,-306 -837,-376 -324,-73 -786,-109 -1382,-109l-344 0 0 5121z"/>
  <path id="4" class="fil0" d="M56475 13064l0 179c-315,16 -571,59 -770,127 -196,68 -372,179 -528,333 -216,211 -349,507 -397,883 -34,282 -51,604 -51,970l0 5857c0,441 23,788 65,1043 46,252 117,458 219,609 141,214 329,371 556,474 228,103 528,165 906,187l0 179 -5297 0 0 -179c320,-16 579,-59 777,-130 196,-73 369,-181 519,-330 176,-171 296,-385 358,-645 60,-260 91,-661 91,-1208l0 -5857c0,-548 -31,-949 -91,-1208 -62,-260 -181,-474 -358,-645 -150,-155 -323,-266 -525,-333 -199,-68 -457,-111 -772,-127l0 -179 5297 0z"/>
  <path id="5" class="fil0" d="M57690 23858l26 -3284 196 32c233,835 511,1490 834,1970 605,886 1369,1330 2285,1330 642,0 1170,-203 1587,-612 417,-407 624,-924 624,-1547 0,-271 -46,-547 -139,-826 -91,-282 -213,-523 -369,-723 -161,-206 -389,-404 -681,-596 -292,-190 -739,-431 -1340,-723 -531,-252 -934,-469 -1215,-642 -282,-176 -509,-352 -681,-531 -480,-498 -719,-1105 -719,-1820 0,-439 94,-861 281,-1271 184,-406 446,-756 781,-1048 591,-517 1292,-777 2098,-777 264,0 505,24 729,73 222,51 520,149 894,298 279,106 469,173 568,200 102,30 190,44 270,44 193,0 324,-133 391,-404l187 0 51 3153 -187 0c-151,-503 -279,-891 -389,-1159 -108,-268 -236,-515 -386,-743 -272,-414 -574,-721 -900,-921 -329,-198 -707,-298 -1135,-298 -622,0 -1112,200 -1476,604 -151,165 -267,360 -352,582 -88,222 -131,444 -131,669 0,886 596,1599 1792,2140l1172 542c906,409 1559,861 1956,1355 457,553 684,1194 684,1926 0,485 -102,949 -310,1390 -289,615 -724,1092 -1300,1425 -579,333 -1260,501 -2047,501 -718,0 -1408,-136 -2070,-409 -346,-146 -551,-227 -619,-249 -66,-22 -142,-32 -224,-32 -267,0 -451,128 -551,382l-187 0z"/>
  <path id="6" class="fil0" d="M66499 18553c0,-889 198,-1715 599,-2473 401,-762 982,-1422 1746,-1989 573,-420 1189,-740 1847,-964 662,-225 1326,-339 1996,-339 854,0 1680,179 2481,536 798,358 1496,861 2095,1512 977,1059 1465,2262 1465,3614 0,677 -128,1330 -383,1962 -256,628 -627,1203 -1116,1723 -599,645 -1306,1146 -2123,1501 -817,355 -1674,531 -2566,531 -883,0 -1726,-174 -2529,-518 -806,-344 -1499,-829 -2081,-1460 -460,-493 -815,-1051 -1062,-1679 -247,-626 -368,-1279 -368,-1956zm2010 114c0,1539 437,2834 1314,3888 394,471 811,815 1255,1029 439,214 951,322 1527,322 582,0 1096,-106 1536,-317 443,-214 863,-558 1263,-1035 877,-1060 1315,-2365 1315,-3918 0,-853 -122,-1661 -364,-2422 -241,-761 -579,-1406 -1019,-1934 -354,-436 -749,-753 -1186,-951 -434,-198 -951,-298 -1545,-298 -587,0 -1099,97 -1527,296 -432,195 -829,512 -1195,953 -437,523 -778,1168 -1016,1932 -239,761 -358,1582 -358,2454z"/>
  <path id="7" class="fil0" d="M81998 14500l0 6914c0,547 31,948 96,1208 62,260 182,474 352,645 156,154 332,265 528,333 199,68 455,111 770,128l0 179 -3833 0 0 -179c315,-16 571,-59 769,-128 196,-68 372,-179 528,-333 170,-171 290,-388 352,-648 66,-263 97,-663 97,-1205l0 -5865c0,-536 -31,-935 -97,-1197 -62,-263 -182,-477 -352,-647 -150,-155 -324,-266 -519,-333 -199,-68 -457,-111 -778,-127l0 -179 3202 0 6754 8231 0 -5738c0,-548 -31,-949 -97,-1208 -62,-260 -181,-474 -352,-645 -156,-155 -332,-266 -528,-333 -199,-68 -455,-111 -770,-127l0 -179 3833 0 0 179c-554,0 -985,154 -1297,460 -171,171 -290,385 -352,647 -66,263 -97,661 -97,1197l0 8358 -374 0 -7835 -9406z"/>
  <path class="fil0" d="M144813 13079l5213 0 0 178c-490,0 -824,35 -1001,102 -151,65 -272,167 -368,308 -94,143 -142,305 -142,483 0,224 88,530 266,921l218 489 2590 6020 1792 -5188c232,-664 348,-1162 348,-1488 0,-243 -46,-478 -136,-707 -91,-233 -213,-416 -363,-559 -141,-138 -306,-235 -492,-294 -184,-57 -422,-87 -708,-87l0 -178 5332 0 0 178c-328,0 -563,11 -710,32 -147,22 -286,65 -413,135 -167,94 -300,229 -405,408 -102,176 -153,367 -153,573 0,192 76,521 232,991l2044 6282 2286 -5348c354,-818 532,-1453 532,-1902 0,-470 -164,-802 -490,-999 -198,-116 -498,-173 -903,-173l0 -178 3838 0 0 178c-368,38 -648,105 -838,202 -190,97 -380,276 -566,535 -275,370 -619,1037 -1036,2004l-3418 7889 -340 0 -2955 -8437 -2988 8437 -374 0 -3707 -8524 -249 -578c-170,-391 -314,-672 -431,-848 -116,-173 -257,-311 -421,-411 -133,-87 -278,-146 -431,-183 -155,-35 -373,-65 -654,-87l0 -178z"/>
  <path id="1" class="fil0" d="M163743 18551c0,-886 198,-1710 597,-2466 398,-759 979,-1418 1740,-1983 572,-418 1186,-737 1842,-961 659,-224 1321,-338 1990,-338 852,0 1675,178 2473,535 795,356 1491,859 2089,1507 974,1056 1460,2256 1460,3603 0,675 -127,1326 -382,1955 -255,626 -625,1199 -1112,1717 -597,643 -1302,1143 -2117,1497 -815,353 -1670,529 -2559,529 -880,0 -1720,-173 -2521,-516 -804,-343 -1494,-827 -2074,-1456 -459,-492 -813,-1048 -1059,-1675 -246,-624 -368,-1274 -368,-1950zm2003 114c0,1534 436,2825 1311,3876 393,470 809,813 1251,1026 438,214 948,322 1522,322 580,0 1092,-106 1531,-316 441,-214 860,-556 1259,-1032 874,-1056 1310,-2358 1310,-3905 0,-851 -121,-1656 -362,-2415 -241,-759 -577,-1401 -1016,-1928 -354,-435 -747,-751 -1183,-948 -433,-197 -948,-297 -1540,-297 -586,0 -1095,97 -1522,294 -431,195 -827,511 -1192,951 -435,521 -775,1164 -1013,1926 -238,759 -357,1578 -357,2447z"/>
  <path id="2" class="fil0" d="M180672 18605l0 2801c0,540 31,940 96,1199 65,262 181,478 354,646 150,149 326,256 524,329 198,70 455,113 781,130l0 178 -5295 0 0 -178c320,-16 578,-59 775,-130 196,-73 368,-181 518,-329 176,-171 295,-384 356,-643 60,-260 91,-659 91,-1205l0 -5839c0,-545 -31,-945 -91,-1205 -62,-259 -181,-473 -356,-643 -150,-154 -322,-265 -523,-332 -198,-68 -456,-111 -770,-127l0 -178 3999 0c668,0 1106,3 1318,8 858,37 1528,149 2015,332 549,211 974,527 1273,948 303,418 453,908 453,1461 0,824 -326,1483 -980,1980 -198,149 -418,270 -659,365 -241,95 -563,186 -965,270 326,133 569,270 724,411 128,111 241,251 346,416 101,167 257,462 464,883 493,967 864,1675 1116,2120 251,446 464,769 634,970 139,164 271,278 402,340 130,65 309,106 535,127l0 178 -2737 0c-139,-289 -226,-475 -266,-554l-580 -1258c-351,-754 -702,-1421 -1056,-1999 -353,-576 -679,-970 -974,-1181 -150,-105 -311,-181 -481,-224 -173,-46 -385,-68 -634,-68l-407 0zm0 -178l317 0c691,0 1186,-38 1483,-111 297,-75 577,-226 837,-459 586,-530 877,-1186 877,-1966 0,-418 -85,-810 -255,-1177 -170,-367 -405,-670 -704,-908 -235,-181 -513,-305 -835,-375 -323,-73 -784,-108 -1378,-108l-342 0 0 5105z"/>
  <path id="3" class="fil0" d="M191666 18375l3515 -3327c348,-327 566,-551 651,-670 88,-119 131,-248 131,-391 0,-260 -133,-454 -399,-586 -138,-65 -373,-111 -699,-143l0 -178 3577 0 0 178c-244,22 -447,59 -612,116 -161,54 -340,149 -535,281 -216,146 -586,462 -1112,942l-2691 2463 3826 4662 473 578c348,411 710,735 1084,967 226,140 428,243 597,305 173,59 388,106 648,138l0 178 -5481 0 0 -178c416,-32 716,-97 897,-197 184,-102 275,-248 275,-446 0,-211 -113,-481 -340,-808 -111,-159 -320,-432 -623,-824 -306,-392 -563,-708 -772,-951l-1868 -2212 -540 508 0 2623c0,540 31,940 96,1202 62,259 182,475 351,646 150,149 322,256 520,329 196,70 456,113 775,130l0 178 -5284 0 0 -178c320,-16 578,-59 775,-130 196,-73 368,-181 518,-329 175,-171 294,-384 356,-643 60,-260 91,-659 91,-1205l0 -5839c0,-545 -31,-945 -91,-1205 -62,-259 -181,-473 -356,-643 -150,-154 -323,-265 -524,-332 -198,-68 -456,-111 -770,-127l0 -178 5284 0 0 178c-314,16 -572,59 -767,127 -198,67 -373,178 -529,332 -170,170 -289,384 -351,646 -65,262 -96,661 -96,1202l0 2811z"/>
  <path class="fil1" d="M113409 11239l-1660 0 0 15685 1660 0 0 -15685zm1265 16158c-563,-143 -1071,-234 -1265,-473 -554,0 -1107,0 -1660,0 -249,336 -787,429 -1204,473l0 599 4129 0 0 -599zm0 -16631c-563,143 -1071,233 -1265,473 -554,0 -1107,0 -1660,0 -249,-337 -787,-429 -1204,-473l0 -599 4129 0 0 599zm3717 5201l-4982 1 0 763 4982 -1 0 -763zm4988 -4729l1660 0 0 15685 -1660 0 0 -15685zm-1265 16158c563,-143 1071,-234 1265,-473 554,0 1107,0 1660,0 249,337 787,429 1204,473l0 599 -4129 0 0 -599zm0 -16631c563,143 1071,233 1265,473 554,0 1107,0 1660,0 249,-337 787,-429 1204,-473l0 -599 -4129 0 0 599zm-3723 5202l4988 0 0 763 -4988 0 0 -763z"/>
  <path class="fil1" d="M110082 13060l-5141 0c0,225 0,451 0,676 794,54 1279,237 1790,407 534,-1 1067,-1 1601,-1 572,-287 1157,-406 1751,-406l0 -676zm8309 -4l-2603 2c0,225 0,451 0,676 794,53 1279,237 1790,406l814 -1c0,0 0,-1083 0,-1083zm-3003 9019l-5141 0c0,-225 0,-451 0,-676 794,-53 1279,-237 1790,-406 534,1 1067,1 1601,1 572,287 1157,406 1751,406l0 676zm3003 -7936l-814 1 -4938 5926 999 928 4754 -5788 0 -1066zm-10059 3c-534,0 -1067,0 -1601,1 433,2457 926,5243 5306,6850l1601 1 -999 -928c-3338,-1337 -4491,-3969 -4307,-5924zm18373 -1083l5141 0c0,225 0,451 0,676 -794,53 -1279,237 -1790,406 -534,0 -1067,-1 -1601,-1 -572,-286 -1157,-406 -1751,-406l0 -676zm-8314 -3l2609 0c0,225 0,451 0,676 -793,53 -1279,237 -1790,407l-819 0c0,0 0,-1083 0,-1083zm3009 9018l5141 0c0,-225 0,-451 0,-676 -794,-53 -1279,-237 -1790,-406 -534,0 -1067,1 -1601,1 -572,286 -1157,406 -1751,406l0 676zm-3009 -7935l819 0 4939 5925 -999 928 -4759 -5787 0 -1066zm10065 2c534,0 1067,1 1601,1 -433,2457 -926,5243 -5306,6851l-1601 1 999 -928c3338,-1337 4490,-3968 4307,-5924z"/>
  <ellipse class="fil1" cx="121231" cy="30293" rx="612" ry="584"/>
  <path class="fil1" d="M118797 29006c338,0 612,262 612,584 0,323 -274,584 -612,584 -152,0 -290,-53 -397,-140 0,0 1,-889 1,-889 107,-87 246,-140 397,-140z"/>
  <ellipse class="fil1" cx="122633" cy="31496" rx="612" ry="584"/>
  <path class="fil1" d="M118398 26900c-54,1146 -1049,1713 -162,2163 -24,319 -47,638 -71,956 -56,539 -933,1770 -2158,647l-323 190c542,1110 -656,1669 -1333,1040 -178,-244 -356,-488 -534,-731 178,-759 -758,-659 -1137,-987l1514 2753 4203 -4 0 -6027zm0 0c54,1146 1049,1713 162,2163 24,319 47,638 71,956 56,539 933,1770 2158,647l323 190c-542,1109 656,1669 1333,1040 178,-244 356,-488 534,-732 -178,-759 758,-658 1137,-987l-1514 2753 -4202 -4 0 -6027z"/>
  <ellipse class="fil1" cx="115556" cy="30294" rx="612" ry="584"/>
  <path class="fil1" d="M117990 29008c-338,0 -612,261 -612,584 0,323 274,584 612,584 152,0 290,-53 397,-140 0,0 0,-889 0,-889 -107,-87 -246,-139 -397,-139z"/>
  <ellipse class="fil1" cx="114155" cy="31497" rx="612" ry="584"/>
  <path class="fil1" d="M118399 33507c-1032,0 -2064,0 -3097,0 -86,219 -103,457 0,715l3097 0 0 -715zm1 0c1032,0 2065,0 3097,0 86,219 104,457 0,715l-3097 0 0 -715z"/>
  <path class="fil1" d="M112189 35433c-118,-511 -388,-834 -750,-1156 1632,277 2989,1152 4803,2772 -1680,-1234 -2864,-1429 -4053,-1615z"/>
  <path class="fil1" d="M124752 35431c118,-511 388,-833 749,-1156 -1415,177 -3377,959 -5002,2771 1680,-1234 3063,-1429 4253,-1615z"/>
  <path class="fil1" d="M128454 31358c-3299,525 -6133,2730 -7955,5689 2108,-1717 3179,-2538 5883,-2923l227 -28c676,-1599 977,-1912 1844,-2738z"/>
  <path class="fil1" d="M130416 17192c127,1695 644,2028 189,4071 776,-116 1087,-594 1762,-506 -295,143 -388,277 -217,574 -1112,120 -2841,1119 -2233,3557 139,-522 658,-537 762,-1324 422,1941 746,2012 389,3213 -200,863 1069,47 691,1575 175,113 348,199 534,137 -132,2051 -320,2095 -2679,4789 -93,-2509 -939,-3760 -1876,-4521l0 -69c834,345 1632,116 2362,215 -5647,-5512 -236,-6043 262,-11710l54 0z"/>
  <path class="fil1" d="M125506 4324c2274,2183 4588,947 7307,2434 -2153,64 -916,2910 -3424,888 -1446,-370 -2255,1655 -88,1990 -105,1262 803,1809 1508,2279 -6754,-406 -2051,-3786 -5445,-6954 48,-213 95,-425 142,-638z"/>
  <path class="fil1" d="M108288 31360c3299,524 6133,2730 7955,5689 -2108,-1718 -3179,-2538 -5883,-2923l-227 -28c-676,-1599 -977,-1912 -1845,-2738z"/>
  <path class="fil1" d="M106325 17179c-127,1695 -644,2028 -189,4071 -776,-116 -1087,-594 -1762,-506 295,143 388,276 217,574 1112,120 2841,1119 2233,3557 -139,-522 -658,-537 -762,-1324 -421,1941 -746,2012 -389,3213 200,863 -1069,47 -690,1575 -176,113 -348,199 -534,137 132,2051 320,2095 2680,4789 93,-2509 938,-3760 1876,-4521l0 -69c-834,345 -1632,116 -2363,215 5648,-5512 236,-6043 -262,-11710l-54 0z"/>
  <path class="fil1" d="M111281 4340c-2274,2183 -4588,947 -7307,2434 2154,64 917,2910 3424,888 1446,-370 2255,1655 88,1990 104,1262 -803,1809 -1508,2279 6754,-406 2051,-3786 5444,-6954 -47,-213 -94,-425 -141,-638z"/>
  <path class="fil1" d="M114964 2747c65,-201 50,-147 46,-427l440 185c-168,99 -300,181 -487,242zm1092 -2009c-462,141 53,213 -711,692 -176,111 -296,167 -459,269 -539,337 -47,361 -668,787 -261,179 -170,137 -365,362 -354,407 -465,243 -456,873 4,3 77,45 119,78l121 121c445,204 610,-334 714,-428l842 -577c7,-3 25,-10 32,-12 1,-1 525,6 241,-251 26,3 61,-9 75,20l185 43c232,15 241,-231 339,-345 11,-13 24,-29 36,-40l742 -495c104,-34 106,-3 301,-87 -2,-125 -63,-140 10,-245 180,-261 157,-157 500,-70 -151,-108 -420,-172 -172,-329 172,-108 435,-43 545,-54 247,-27 296,-286 543,-244 138,23 57,228 72,60 235,-157 168,-272 592,-367 -135,-213 -482,-621 -851,-462l-2325 702zm-2420 3183c-200,180 55,316 133,582 212,86 282,254 383,414l218 -245c-162,-103 -42,131 -79,-89 -22,-130 -67,-27 50,-129 -10,-6 -31,-12 -33,-2 0,0 -62,17 -108,-74 -7,-14 172,-278 -122,-170 241,-77 316,86 438,168 8,-17 26,-60 32,-48l159 -212c280,-295 840,-219 1049,-389l938 -955c240,28 96,124 290,83 170,-36 82,-100 308,-92l-63 -308c540,-220 391,-596 177,-918 531,219 264,270 488,582l87 5c386,9 603,-102 928,-288l91 -48c11,-8 30,-18 41,-26 109,-80 -22,45 138,-142 11,-12 23,-31 34,-43l331 -400c271,-221 -5,121 270,-216 -182,-227 -316,-392 -580,-465 -424,94 -358,210 -592,367 -15,168 66,-37 -72,-60 -247,-41 -296,217 -543,244 -110,12 -373,-54 -545,54 -249,157 20,222 172,329 -343,-87 -320,-192 -500,70 -73,105 -11,120 -10,245 -196,83 -197,53 -301,87l-742 495c-12,11 -25,28 -36,40 -98,114 -107,361 -339,345l-185 -43c-13,-29 -49,-17 -75,-20 285,258 -240,251 -241,251 -7,2 -26,9 -32,12l-842 577c-104,94 -269,632 -714,428zm4406 -49c-112,549 -108,992 -399,1457l177 -1237 -101 129c-128,204 -132,305 -139,530 24,-99 131,-54 -77,-62 -531,-21 -371,764 -1129,390l-106 -58c365,752 107,524 -161,1280 385,307 1294,-234 1443,653 59,-81 118,-28 31,-393 133,-53 -61,-46 81,1l77 34c7,3 28,16 43,22 55,-229 132,-210 244,-325l161 -240c152,-149 351,-488 502,-704 162,-232 333,-473 505,-733 370,-562 672,-1050 545,-1861l-119 138c-13,-19 -26,-44 -34,-60l-77 -179c-20,-62 -18,-107 -28,-170 75,105 35,128 13,347l-211 -116 53 402c-313,-8 -257,36 -458,247 -393,413 -135,164 -295,112 -96,-31 74,-206 -118,41 -166,213 -27,163 -227,259 -9,5 -32,7 -41,11 -176,71 -46,-125 -157,87zm-2378 829c-87,263 -226,288 -597,385 -557,145 -237,-13 -592,-74 46,261 95,819 198,1026 138,278 566,529 572,717l217 146 561 -1517c47,-343 -11,-416 245,-365l106 58c758,374 598,-411 1129,-390 208,8 101,-36 77,62 8,-225 11,-326 139,-530l101 -129 -226 -726 -246 224c-68,69 -82,96 -168,174l-78 66c-11,10 -29,23 -40,33l-197 245c33,-54 97,94 5,-164 -65,-183 -3,-51 -117,-167l-366 578c-370,-160 124,-317 -722,347zm4445 -2351c-23,530 -32,1324 -287,1726 -212,333 -659,883 -771,1202l302 -89c5,-1 24,-2 29,-3l140 -7c348,-3 42,-40 528,-318 510,-291 148,-185 392,-456 127,-139 -45,-27 110,-59 11,-3 37,-1 47,-2 16,-1 80,12 104,13 181,-400 641,-1698 584,-2083l-122 -362c-145,89 -198,295 -251,367 -96,131 -358,153 -573,427 -183,234 43,-218 -71,124 -93,279 -69,3 7,132 -1,-87 5,-251 -17,-328 -83,-295 -23,-136 -151,-286zm-5958 2568c465,-130 527,-338 803,-474 370,-184 544,129 710,258 846,-664 352,-508 722,-347l366 -578c114,117 52,-15 117,167 92,258 29,110 -5,164l197 -245c11,-10 29,-23 40,-33l78 -66c86,-78 100,-106 168,-174l246 -224 -302 -600c-226,-9 -139,56 -308,92 -195,41 -51,-55 -290,-83l-938 955c-209,170 -769,94 -1049,389l-159 212c-6,-12 -24,31 -32,48 -122,-82 -197,-245 -438,-168 295,-108 115,155 122,170 46,91 108,74 108,74 2,-10 23,-4 33,2 -117,102 -72,-1 -50,129 37,220 -83,-14 79,89l-218 245zm3742 -2796c-111,227 -224,432 -377,577 66,251 198,634 387,785l-119 -186c668,-138 278,-307 617,-562 314,-237 346,241 1445,-893l-34 -878c-275,337 1,-6 -270,216l-331 400c-11,12 -23,31 -34,43 -160,187 -29,61 -138,142 -11,8 -30,18 -41,26l-91 48c-324,186 -541,297 -928,288l-87 -5zm-343 4831c14,754 -298,982 -959,1024l121 690c250,34 280,4 403,62 -73,-292 -86,-357 131,-548l85 -62c282,-184 533,-136 729,-431 9,22 36,26 46,54 120,341 -171,-115 141,64l31 -165c30,-163 15,-6 171,6 -19,-204 104,-327 192,-457 120,-178 149,-274 275,-435l-522 93c-206,183 -208,-632 -205,-798l-161 240c-112,115 -189,96 -244,325 -15,-5 -36,-19 -43,-22l-77 -34c-142,-47 52,-54 -81,-1 87,366 28,312 -31,393zm2397 -1185c-140,46 -16,-36 -138,109 -51,60 -41,63 -85,131 -80,127 -115,176 -207,307 86,510 283,116 423,748 57,258 -35,161 97,277l73 -31c246,-186 174,-71 219,-327l-4 -615 378 4 50 -102c192,-227 -38,-94 242,-301 511,-376 1733,-1119 469,-880 -172,33 -494,288 -705,444l-362 202c-343,134 -280,93 -452,34zm-2045 -2285c3,111 -17,100 17,199 124,362 -10,37 121,190 112,-212 -18,-15 157,-87 9,-4 32,-6 41,-11 200,-96 61,-47 227,-259 193,-247 22,-73 118,-41 160,52 -99,301 295,-112 201,-211 145,-255 458,-247l-53 -402 211 116c22,-220 61,-242 -13,-347 9,62 7,107 28,170l77 179c8,16 20,41 34,60l119 -138 107 -912c-1099,1134 -1130,657 -1445,893 -339,255 51,425 -617,562l119 186zm2920 1412c363,66 238,-36 696,-380l275 -224c10,-10 23,-29 34,-39l243 -160 44 -464c7,23 25,109 31,124 70,165 -34,-56 43,90l59 91c185,-369 -126,109 63,-367 13,75 21,186 44,257 79,245 595,250 765,425 111,-434 -720,-747 -941,-1028 -273,-347 -216,-445 -620,-607 115,663 118,604 -179,1201 -195,393 -353,712 -556,1083zm-1772 383c-219,169 -570,665 -604,984 123,236 -71,98 293,124 56,4 319,-13 400,-12 131,-572 446,-775 800,-1022 271,-189 212,-226 446,-423 326,-274 140,-178 318,-570 -24,-1 -88,-14 -104,-13 -10,1 -36,-1 -47,2 -154,32 17,-80 -110,59 -245,270 117,164 -392,456 -486,278 -180,314 -528,318l-140 7c-5,1 -25,2 -29,3l-302 89zm1772 -383c-71,92 -238,292 -411,418 -236,172 -256,176 -464,455 173,59 109,99 452,-34l362 -202c211,-156 533,-411 705,-444 759,-143 1215,204 1652,-842 -171,-174 -686,-180 -765,-425 -23,-70 -30,-182 -44,-257 -189,476 122,-2 -63,367l-59 -91c-77,-146 27,75 -43,-90 -6,-15 -24,-101 -31,-124l-44 464 -243 160c-11,10 -24,29 -34,39l-275 224c-457,344 -333,446 -696,380zm-4906 1846c219,5 670,-7 866,24 371,58 324,187 295,540l-595 292 109 380c661,-41 973,-270 959,-1024 -149,-886 -1059,-346 -1443,-653l-190 440zm565 856l595 -292c30,-353 76,-482 -295,-540 -195,-31 -646,-19 -866,-24 -300,782 12,906 437,1698 56,-356 -88,-796 58,-1341l70 499zm3674 -6404c-9,355 8,772 -47,1156 128,150 68,-8 151,286 22,77 16,241 17,328 -76,-129 -100,148 -7,-132 114,-343 -112,110 71,-124 215,-275 477,-297 573,-427 54,-73 107,-278 251,-367 -87,-71 -723,-915 -784,-1017 -103,173 -102,-12 -226,297zm-1013 5632c142,45 249,-4 281,242 10,78 -43,223 -96,283 -167,188 -412,123 -676,86 -196,363 -15,120 -203,213l-39 290c183,-106 215,-120 487,-107 46,3 161,16 201,32 220,88 59,-81 176,157 271,-248 99,-248 494,-373 4,-136 -54,-24 58,-163 97,-119 81,-85 213,-145 -133,-116 -40,-19 -97,-277 -140,-632 -337,-238 -423,-748 -141,177 -218,359 -375,510zm-2028 1904c74,141 338,443 357,551l106 -112c8,-14 28,-39 36,-55l38 -151c116,164 178,169 74,426l245 -266c-141,-669 62,-196 93,-586 47,-432 53,-387 183,-727 -312,-179 -21,277 -141,-64 -10,-29 -37,-33 -46,-54 -196,295 -447,247 -729,431l-85 62c-217,191 -204,256 -131,548zm357 551l31 788c372,115 95,-41 371,-37l87 12c40,-118 42,-104 79,-193 8,-20 34,-83 43,-104l52 -107c6,-13 16,-37 27,-54 44,192 87,240 179,385l249 -871 1 38 -619 -17 -245 266c104,-257 42,-261 -74,-426l-38 151c-8,16 -28,41 -36,55l-106 112zm31 788l159 599c178,145 310,555 561,657l118 -1353c-93,-145 -136,-193 -179,-385 -11,17 -22,41 -27,54l-52 107c-9,20 -35,84 -43,104 -37,89 -39,75 -79,193l-87 -12c-276,-4 1,152 -371,37zm769 -1373l360 -31c297,-249 135,-514 641,-643 -117,-239 45,-70 -176,-157 -40,-16 -156,-30 -201,-32 -271,-14 -304,1 -487,107l-137 757zm1884 -7502c123,-308 122,-123 226,-297 -429,-591 -572,-518 -998,-560 143,219 254,216 408,389 156,174 163,311 364,468zm-2184 7927l619 17 41 -474 -360 31c-20,-15 -47,-32 -63,-44 -15,-11 -42,-31 -57,-42 -15,-11 -71,-58 -88,-75 -30,391 -234,-82 -93,586zm681 -1686c264,37 509,103 676,-86 53,-60 106,-204 96,-283 -32,-245 -139,-197 -281,-242 -64,112 -144,223 -234,324 -146,165 -135,115 -257,286zm-1940 1232c54,536 52,617 410,1004l-7 -942c-123,-58 -153,-28 -403,-62zm1681 -1818l522 -93 224 -383c-81,-2 -344,16 -400,12 -365,-26 -171,112 -293,-124 -82,172 -52,401 -53,588zm-146 958c-130,341 -136,295 -183,727 17,17 73,64 88,75 15,11 42,31 57,42 16,12 43,29 63,44l137 -757 39 -290c-156,-12 -140,-170 -171,-6l-31 165zm2084 -825c121,-153 293,-334 375,-611l-378 -4 4 615z"/>
  <path class="fil1" d="M123119 4246c-984,292 -5634,2481 -4895,7078 816,-1801 2202,-2635 3056,-3226 172,-119 -805,-208 -643,-313 1106,-722 2634,-1279 2483,-3539z"/>
  <rect class="fil1" y="30404" width="97308" height="1330"/>
  <rect class="fil1" x="139429" y="30403" width="65771" height="1330"/>
  <rect class="fil1" x="139429" y="5868" width="65771" height="1321"/>
  <rect class="fil1" x="8" y="5860" width="97308" height="1321"/>
 </g>
</svg>
