<?xml version="1.0" encoding="UTF-8"?>
<!DOCTYPE svg PUBLIC "-//W3C//DTD SVG 1.1//EN" "http://www.w3.org/Graphics/SVG/1.1/DTD/svg11.dtd">
<!-- Creator: CorelDRAW 2017 -->
<svg xmlns="http://www.w3.org/2000/svg" xml:space="preserve" width="46.9225mm" height="17.4126mm" version="1.1" style="shape-rendering:geometricPrecision; text-rendering:geometricPrecision; image-rendering:optimizeQuality; fill-rule:evenodd; clip-rule:evenodd"
viewBox="0 0 6003 2228"
 xmlns:xlink="http://www.w3.org/1999/xlink">
 <defs>
  <style type="text/css">
   <![CDATA[
    .fil1 {fill:#D6BB74}
    .fil0 {fill:#D6BB74;fill-rule:nonzero}
   ]]>
  </style>
 </defs>
 <g id="Слой_x0020_1">
  <metadata id="CorelCorpID_0Corel-Layer"/>
  <g id="_1830502639232">
   <path class="fil0" d="M2291 734l258 0 0 -117c0,-25 -1,-44 -4,-55 -3,-12 -8,-22 -15,-30 -7,-7 -15,-12 -23,-15 -9,-3 -20,-5 -34,-6l0 -8 232 0 0 8c-14,1 -25,3 -34,6 -9,3 -16,8 -23,15 -7,8 -13,18 -15,30 -3,12 -4,30 -4,55l0 268c0,25 1,43 4,55 3,12 8,22 15,30 7,7 15,12 23,15 9,3 20,5 34,6l0 8 -232 0 0 -8c14,-1 25,-3 34,-6 9,-3 16,-8 23,-15 7,-8 13,-17 15,-29 3,-12 4,-30 4,-55l0 -134 -258 0 0 134c0,25 1,43 4,55 3,12 8,22 15,30 7,7 14,12 23,15 9,3 20,5 34,6l0 8 -232 0 0 -8c14,-1 25,-3 34,-6 9,-3 16,-8 23,-15 8,-8 13,-18 16,-30 3,-12 4,-30 4,-55l0 -268c0,-25 -1,-43 -4,-55 -3,-12 -8,-22 -16,-30 -7,-7 -14,-12 -23,-15 -9,-3 -20,-5 -34,-6l0 -8 232 0 0 8c-14,1 -25,3 -34,6 -9,3 -16,8 -23,15 -7,8 -13,18 -15,30 -3,12 -4,31 -4,55l0 117z"/>
   <path id="1" class="fil0" d="M3248 998l-239 0 0 -8c22,-2 37,-6 45,-11 15,-9 23,-23 23,-39 0,-10 -3,-23 -10,-40l-6 -15 -35 -86 -160 0 -19 50 -9 22c-11,27 -16,48 -16,63 0,9 2,17 6,25 4,8 9,14 16,19 10,7 22,10 37,12l0 8 -163 0 0 -8c13,-1 24,-4 34,-9 10,-6 19,-15 28,-27 8,-10 15,-23 23,-38 7,-16 17,-39 29,-70l133 -343 21 0 159 382c12,29 21,49 28,62 7,12 15,22 23,28 6,4 13,8 20,10 8,2 19,4 34,6l0 8zm-228 -214l-76 -189 -72 189 149 0z"/>
   <path id="2" class="fil0" d="M3413 756l0 129c0,25 1,43 4,55 3,12 8,22 16,30 7,7 14,12 23,15 9,3 20,5 34,6l0 8 -232 0 0 -8c14,-1 25,-3 34,-6 9,-3 16,-8 23,-15 8,-8 13,-18 16,-30 3,-12 4,-30 4,-55l0 -268c0,-25 -1,-43 -4,-55 -3,-12 -8,-22 -16,-30 -7,-7 -14,-12 -23,-15 -9,-3 -20,-5 -34,-6l0 -8 175 0c29,0 49,0 58,0 38,2 67,7 88,15 24,10 43,24 56,44 13,19 20,42 20,67 0,38 -14,68 -43,91 -9,7 -18,12 -29,17 -11,4 -25,9 -42,12 14,6 25,12 32,19 6,5 11,12 15,19 4,8 11,21 20,41 22,44 38,77 49,97 11,20 20,35 28,45 6,8 12,13 18,16 6,3 14,5 23,6l0 8 -120 0c-6,-13 -10,-22 -12,-25l-25 -58c-15,-35 -31,-65 -46,-92 -16,-26 -30,-45 -43,-54 -7,-5 -14,-8 -21,-10 -8,-2 -17,-3 -28,-3l-18 0zm0 -8l14 0c30,0 52,-2 65,-5 13,-3 25,-10 37,-21 26,-24 38,-54 38,-90 0,-19 -4,-37 -11,-54 -7,-17 -18,-31 -31,-42 -10,-8 -22,-14 -37,-17 -14,-3 -34,-5 -60,-5l-15 0 0 234z"/>
   <path id="3" class="fil0" d="M3895 756l0 129c0,25 1,43 4,55 3,12 8,22 16,30 7,7 14,12 23,15 9,3 20,5 34,6l0 8 -232 0 0 -8c14,-1 25,-3 34,-6 9,-3 16,-8 23,-15 8,-8 13,-18 16,-30 3,-12 4,-30 4,-55l0 -268c0,-25 -1,-43 -4,-55 -3,-12 -8,-22 -16,-30 -7,-7 -14,-12 -23,-15 -9,-3 -20,-5 -34,-6l0 -8 175 0c29,0 49,0 58,0 38,2 67,7 88,15 24,10 43,24 56,44 13,19 20,42 20,67 0,38 -14,68 -43,91 -9,7 -18,12 -29,17 -11,4 -25,9 -42,12 14,6 25,12 32,19 6,5 11,12 15,19 4,8 11,21 20,41 22,44 38,77 49,97 11,20 20,35 28,45 6,8 12,13 18,16 6,3 14,5 23,6l0 8 -120 0c-6,-13 -10,-22 -12,-25l-25 -58c-15,-35 -31,-65 -46,-92 -16,-26 -30,-45 -43,-54 -7,-5 -14,-8 -21,-10 -8,-2 -17,-3 -28,-3l-18 0zm0 -8l14 0c30,0 52,-2 65,-5 13,-3 25,-10 37,-21 26,-24 38,-54 38,-90 0,-19 -4,-37 -11,-54 -7,-17 -18,-31 -31,-42 -10,-8 -22,-14 -37,-17 -14,-3 -34,-5 -60,-5l-15 0 0 234z"/>
   <path id="4" class="fil0" d="M4453 502l0 8c-14,1 -25,3 -34,6 -9,3 -16,8 -23,15 -9,10 -15,23 -17,40 -1,13 -2,28 -2,44l0 268c0,20 1,36 3,48 2,12 5,21 10,28 6,10 14,17 24,22 10,5 23,8 40,9l0 8 -231 0 0 -8c14,-1 25,-3 34,-6 9,-3 16,-8 23,-15 8,-8 13,-18 16,-30 3,-12 4,-30 4,-55l0 -268c0,-25 -1,-43 -4,-55 -3,-12 -8,-22 -16,-30 -7,-7 -14,-12 -23,-15 -9,-3 -20,-5 -34,-6l0 -8 231 0z"/>
   <path id="5" class="fil0" d="M4506 996l1 -150 9 1c10,38 22,68 36,90 26,41 60,61 100,61 28,0 51,-9 69,-28 18,-19 27,-42 27,-71 0,-12 -2,-25 -6,-38 -4,-13 -9,-24 -16,-33 -7,-9 -17,-18 -30,-27 -13,-9 -32,-20 -59,-33 -23,-12 -41,-21 -53,-29 -12,-8 -22,-16 -30,-24 -21,-23 -31,-51 -31,-83 0,-20 4,-39 12,-58 8,-19 19,-35 34,-48 26,-24 56,-36 92,-36 12,0 22,1 32,3 10,2 23,7 39,14 12,5 20,8 25,9 4,1 8,2 12,2 8,0 14,-6 17,-18l8 0 2 144 -8 0c-7,-23 -12,-41 -17,-53 -5,-12 -10,-24 -17,-34 -12,-19 -25,-33 -39,-42 -14,-9 -31,-14 -50,-14 -27,0 -49,9 -65,28 -7,8 -12,16 -15,27 -4,10 -6,20 -6,31 0,41 26,73 78,98l51 25c40,19 68,39 85,62 20,25 30,55 30,88 0,22 -4,43 -14,64 -13,28 -32,50 -57,65 -25,15 -55,23 -89,23 -31,0 -62,-6 -90,-19 -15,-7 -24,-10 -27,-11 -3,-1 -6,-1 -10,-1 -12,0 -20,6 -24,17l-8 0z"/>
   <path id="6" class="fil0" d="M4891 753c0,-41 9,-79 26,-113 17,-35 43,-65 76,-91 25,-19 52,-34 81,-44 29,-10 58,-16 87,-16 37,0 73,8 108,25 35,16 65,39 92,69 43,48 64,104 64,165 0,31 -6,61 -17,90 -11,29 -27,55 -49,79 -26,30 -57,52 -93,69 -36,16 -73,24 -112,24 -39,0 -75,-8 -111,-24 -35,-16 -65,-38 -91,-67 -20,-23 -36,-48 -46,-77 -11,-29 -16,-59 -16,-90zm88 5c0,70 19,130 57,178 17,22 35,37 55,47 19,10 42,15 67,15 25,0 48,-5 67,-15 19,-10 38,-26 55,-47 38,-49 57,-108 57,-179 0,-39 -5,-76 -16,-111 -11,-35 -25,-64 -45,-89 -16,-20 -33,-34 -52,-44 -19,-9 -42,-14 -67,-14 -26,0 -48,4 -67,14 -19,9 -36,23 -52,44 -19,24 -34,53 -44,88 -10,35 -16,72 -16,112z"/>
   <path id="7" class="fil0" d="M5568 568l0 317c0,25 1,43 4,55 3,12 8,22 15,30 7,7 15,12 23,15 9,3 20,5 34,6l0 8 -167 0 0 -8c14,-1 25,-3 34,-6 9,-3 16,-8 23,-15 7,-8 13,-18 15,-30 3,-12 4,-30 4,-55l0 -269c0,-25 -1,-43 -4,-55 -3,-12 -8,-22 -15,-30 -7,-7 -14,-12 -23,-15 -9,-3 -20,-5 -34,-6l0 -8 140 0 295 377 0 -263c0,-25 -1,-43 -4,-55 -3,-12 -8,-22 -15,-30 -7,-7 -15,-12 -23,-15 -9,-3 -20,-5 -34,-6l0 -8 167 0 0 8c-24,0 -43,7 -57,21 -7,8 -13,18 -15,30 -3,12 -4,30 -4,55l0 383 -16 0 -342 -431z"/>
   <path id="8" class="fil0" d="M2105 1351l228 0 0 8c-21,0 -36,2 -44,5 -7,3 -12,8 -16,14 -4,7 -6,14 -6,22 0,10 4,24 12,42l10 22 113 276 79 -238c10,-31 15,-53 15,-68 0,-11 -2,-22 -6,-32 -4,-11 -9,-19 -16,-26 -6,-6 -13,-11 -22,-14 -8,-3 -18,-4 -31,-4l0 -8 234 0 0 8c-14,0 -25,0 -31,1 -6,1 -13,3 -18,6 -7,4 -13,11 -18,19 -4,8 -7,17 -7,26 0,9 3,24 10,46l90 289 100 -246c16,-38 23,-67 23,-87 0,-22 -7,-37 -21,-46 -9,-5 -22,-8 -40,-8l0 -8 168 0 0 8c-16,2 -28,5 -37,9 -8,4 -17,13 -25,25 -12,17 -27,48 -45,92l-150 362 -15 0 -129 -387 -131 387 -16 0 -162 -391 -11 -27c-7,-18 -14,-31 -19,-39 -5,-8 -11,-14 -18,-19 -6,-4 -12,-7 -19,-8 -7,-2 -16,-3 -29,-4l0 -8z"/>
   <path id="9" class="fil0" d="M2935 1602c0,-41 9,-79 26,-113 17,-35 43,-65 76,-91 25,-19 52,-34 81,-44 29,-10 58,-16 87,-16 37,0 73,8 108,25 35,16 65,39 92,69 43,48 64,104 64,165 0,31 -6,61 -17,90 -11,29 -27,55 -49,79 -26,30 -57,52 -93,69 -36,16 -73,24 -112,24 -39,0 -75,-8 -111,-24 -35,-16 -65,-38 -91,-67 -20,-23 -36,-48 -46,-77 -11,-29 -16,-59 -16,-90zm88 5c0,70 19,130 57,178 17,22 35,37 55,47 19,10 42,15 67,15 25,0 48,-5 67,-15 19,-10 38,-26 55,-47 38,-49 57,-108 57,-179 0,-39 -5,-76 -16,-111 -11,-35 -25,-64 -45,-89 -16,-20 -33,-34 -52,-44 -19,-9 -42,-14 -67,-14 -26,0 -48,4 -67,14 -19,9 -36,23 -52,44 -19,24 -34,53 -44,88 -10,35 -16,72 -16,112z"/>
   <path id="10" class="fil0" d="M3677 1605l0 129c0,25 1,43 4,55 3,12 8,22 16,30 7,7 14,12 23,15 9,3 20,5 34,6l0 8 -232 0 0 -8c14,-1 25,-3 34,-6 9,-3 16,-8 23,-15 8,-8 13,-18 16,-30 3,-12 4,-30 4,-55l0 -268c0,-25 -1,-43 -4,-55 -3,-12 -8,-22 -16,-30 -7,-7 -14,-12 -23,-15 -9,-3 -20,-5 -34,-6l0 -8 175 0c29,0 49,0 58,0 38,2 67,7 88,15 24,10 43,24 56,44 13,19 20,42 20,67 0,38 -14,68 -43,91 -9,7 -18,12 -29,17 -11,4 -25,9 -42,12 14,6 25,12 32,19 6,5 11,12 15,19 4,8 11,21 20,41 22,44 38,77 49,97 11,20 20,35 28,45 6,8 12,13 18,16 6,3 14,5 23,6l0 8 -120 0c-6,-13 -10,-22 -12,-25l-25 -58c-15,-35 -31,-65 -46,-92 -16,-26 -30,-45 -43,-54 -7,-5 -14,-8 -21,-10 -8,-2 -17,-3 -28,-3l-18 0zm0 -8l14 0c30,0 52,-2 65,-5 13,-3 25,-10 37,-21 26,-24 38,-54 38,-90 0,-19 -4,-37 -11,-54 -7,-17 -18,-31 -31,-42 -10,-8 -22,-14 -37,-17 -14,-3 -34,-5 -60,-5l-15 0 0 234z"/>
   <path id="11" class="fil0" d="M4159 1594l154 -153c15,-15 25,-25 29,-31 4,-5 6,-11 6,-18 0,-12 -6,-21 -17,-27 -6,-3 -16,-5 -31,-7l0 -8 157 0 0 8c-11,1 -20,3 -27,5 -7,2 -15,7 -23,13 -9,7 -26,21 -49,43l-118 113 168 214 21 27c15,19 31,34 48,44 10,6 19,11 26,14 8,3 17,5 28,6l0 8 -240 0 0 -8c18,-1 31,-4 39,-9 8,-5 12,-11 12,-20 0,-10 -5,-22 -15,-37 -5,-7 -14,-20 -27,-38 -13,-18 -25,-32 -34,-44l-82 -102 -24 23 0 120c0,25 1,43 4,55 3,12 8,22 15,30 7,7 14,12 23,15 9,3 20,5 34,6l0 8 -232 0 0 -8c14,-1 25,-3 34,-6 9,-3 16,-8 23,-15 8,-8 13,-18 16,-30 3,-12 4,-30 4,-55l0 -268c0,-25 -1,-43 -4,-55 -3,-12 -8,-22 -16,-30 -7,-7 -14,-12 -23,-15 -9,-3 -20,-5 -34,-6l0 -8 232 0 0 8c-14,1 -25,3 -34,6 -9,3 -16,8 -23,15 -7,8 -13,18 -15,30 -3,12 -4,30 -4,55l0 129z"/>
   <g>
    <path class="fil1" d="M541 676l-95 0 0 943 95 0 0 -943zm73 972c-32,-9 -61,-14 -73,-28 -32,0 -64,0 -95,0 -14,20 -45,26 -69,28l0 36 237 0 0 -36zm0 -1000c-32,9 -61,14 -73,28 -32,0 -64,0 -95,0 -14,-20 -45,-26 -69,-28l0 -36 237 0 0 36zm213 313l-286 0 0 46 286 0 0 -46zm286 -284l95 0 0 943 -95 0 0 -943zm-73 972c32,-9 61,-14 73,-28 32,0 63,0 95,0 14,20 45,26 69,28l0 36 -237 0 0 -36zm0 -1000c32,9 61,14 73,28 32,0 63,0 95,0 14,-20 45,-26 69,-28l0 -36 -237 0 0 36zm-214 313l286 0 0 46 -286 0 0 -46z"/>
    <path class="fil1" d="M350 785l-295 0c0,14 0,27 0,41 46,3 73,14 103,24 31,0 61,0 92,0 33,-17 66,-24 100,-24l0 -41zm477 0l-149 0c0,14 0,27 0,41 46,3 73,14 103,24l47 0c0,0 0,-65 0,-65zm-172 542l-295 0c0,-14 0,-27 0,-41 46,-3 73,-14 103,-24 31,0 61,0 92,0 33,17 66,24 100,24l0 41zm172 -477l-47 0 -283 356 57 56 273 -348 0 -64zm-577 0c-31,0 -61,0 -92,0 25,148 53,315 304,412l92 0 -57 -56c-192,-80 -258,-239 -247,-356zm1054 -65l295 0c0,14 0,27 0,41 -46,3 -73,14 -103,24 -31,0 -61,0 -92,0 -33,-17 -66,-24 -100,-24l0 -41zm-477 0l150 0c0,14 0,27 0,41 -46,3 -73,14 -103,24l-47 0c0,0 0,-65 0,-65zm173 542l295 0c0,-14 0,-27 0,-41 -46,-3 -73,-14 -103,-24 -31,0 -61,0 -92,0 -33,17 -66,24 -100,24l0 41zm-173 -477l47 0 283 356 -57 56 -273 -348 0 -64zm578 0c31,0 61,0 92,0 -25,148 -53,315 -304,412l-92 0 57 -56c192,-80 258,-239 247,-356z"/>
    <circle class="fil1" cx="990" cy="1822" r="35"/>
    <path class="fil1" d="M851 1744c19,0 35,16 35,35 0,19 -16,35 -35,35 -9,0 -17,-3 -23,-8 0,0 0,-53 0,-53 6,-5 14,-8 23,-8z"/>
    <circle class="fil1" cx="1071" cy="1894" r="35"/>
    <path class="fil1" d="M828 1617c-3,69 -60,103 -9,130 -1,19 -3,38 -4,57 -3,32 -54,106 -124,39l-19 11c31,67 -38,100 -76,63 -10,-15 -20,-29 -31,-44 10,-46 -43,-40 -65,-59l87 166 241 0 0 -362zm0 0c3,69 60,103 9,130 1,19 3,38 4,57 3,32 54,106 124,39l19 11c-31,67 38,100 76,63 10,-15 20,-29 31,-44 -10,-46 43,-40 65,-59l-87 166 -241 0 0 -362z"/>
    <circle class="fil1" cx="665" cy="1822" r="35"/>
    <path class="fil1" d="M804 1744c-19,0 -35,16 -35,35 0,19 16,35 35,35 9,0 17,-3 23,-8 0,0 0,-53 0,-53 -6,-5 -14,-8 -23,-8z"/>
    <circle class="fil1" cx="584" cy="1894" r="35"/>
    <path class="fil1" d="M828 2015c-59,0 -118,0 -178,0 -5,13 -6,27 0,43l178 0 0 -43zm0 0c59,0 118,0 178,0 5,13 6,27 0,43l-178 0 0 -43z"/>
    <path class="fil1" d="M471 2131c-7,-31 -22,-50 -43,-70 94,17 172,69 276,167 -96,-74 -164,-86 -233,-97z"/>
    <path class="fil1" d="M1192 2131c7,-31 22,-50 43,-70 -81,11 -194,58 -287,167 96,-74 176,-86 244,-97z"/>
    <path class="fil1" d="M1405 1886c-189,32 -352,164 -456,342 121,-103 182,-153 338,-176l13 -2c39,-96 56,-115 106,-165z"/>
    <path class="fil1" d="M1517 1034c7,102 37,122 11,245 45,-7 62,-36 101,-30 -17,9 -22,17 -12,35 -64,7 -163,67 -128,214 8,-31 38,-32 44,-80 24,117 43,121 22,193 -11,52 61,3 40,95 10,7 20,12 31,8 -8,123 -18,126 -154,288 -5,-151 -54,-226 -108,-272l0 -4c48,21 94,7 136,13 -324,-331 -14,-363 15,-704l3 0z"/>
    <path class="fil1" d="M1236 260c130,131 263,57 419,146 -124,4 -53,175 -196,53 -83,-22 -129,100 -5,120 -6,76 46,109 87,137 -388,-24 -118,-228 -312,-418 3,-13 5,-26 8,-38z"/>
    <path class="fil1" d="M248 1886c189,32 352,164 456,342 -121,-103 -182,-153 -338,-176l-13 -2c-39,-96 -56,-115 -106,-165z"/>
    <path class="fil1" d="M135 1033c-7,102 -37,122 -11,245 -45,-7 -62,-36 -101,-30 17,9 22,17 12,35 64,7 163,67 128,214 -8,-31 -38,-32 -44,-80 -24,117 -43,121 -22,193 11,52 -61,3 -40,95 -10,7 -20,12 -31,8 8,123 18,126 154,288 5,-151 54,-226 108,-272l0 -4c-48,21 -94,7 -136,13 324,-331 14,-363 -15,-704l-3 0z"/>
    <path class="fil1" d="M419 261c-130,131 -263,57 -419,146 124,4 53,175 196,53 83,-22 129,100 5,120 6,76 -46,109 -87,137 388,-24 118,-228 312,-418 -3,-13 -5,-26 -8,-38z"/>
    <path class="fil1" d="M631 165c4,-12 3,-9 3,-26l25 11c-10,6 -17,11 -28,15zm63 -121c-27,8 3,13 -41,42 -10,7 -17,10 -26,16 -31,20 -3,22 -38,47 -15,11 -10,8 -21,22 -20,24 -27,15 -26,53 0,0 4,3 7,5l7 7c26,12 35,-20 41,-26l48 -35c0,0 1,-1 2,-1 0,0 30,0 14,-15 1,0 4,-1 4,1l11 3c13,1 14,-14 19,-21 1,-1 1,-2 2,-2l43 -30c6,-2 6,0 17,-5 0,-8 -4,-8 1,-15 10,-16 9,-9 29,-4 -9,-6 -24,-10 -10,-20 10,-7 25,-3 31,-3 14,-2 17,-17 31,-15 8,1 3,14 4,4 13,-9 10,-16 34,-22 -8,-13 -28,-37 -49,-28l-133 42zm-139 191c-11,11 3,19 8,35 12,5 16,15 22,25l13 -15c-9,-6 -2,8 -5,-5 -1,-8 -4,-2 3,-8 -1,0 -2,-1 -2,0 0,0 -4,1 -6,-4 0,-1 10,-17 -7,-10 14,-5 18,5 25,10 0,-1 1,-4 2,-3l9 -13c16,-18 48,-13 60,-23l54 -57c14,2 6,7 17,5 10,-2 5,-6 18,-6l-4 -19c31,-13 22,-36 10,-55 30,13 15,16 28,35l5 0c22,1 35,-6 53,-17l5 -3c1,0 2,-1 2,-2 6,-5 -1,3 8,-9 1,-1 1,-2 2,-3l19 -24c16,-13 0,7 15,-13 -10,-14 -18,-24 -33,-28 -24,6 -21,13 -34,22 -1,10 4,-2 -4,-4 -14,-2 -17,13 -31,15 -6,1 -21,-3 -31,3 -14,9 1,13 10,20 -20,-5 -18,-12 -29,4 -4,6 -1,7 -1,15 -11,5 -11,3 -17,5l-43 30c-1,1 -1,2 -2,2 -6,7 -6,22 -19,21l-11 -3c-1,-2 -3,-1 -4,-1 16,15 -14,15 -14,15 0,0 -1,1 -2,1l-48 35c-6,6 -15,38 -41,26zm253 -3c-6,33 -6,60 -23,88l10 -74 -6 8c-7,12 -8,18 -8,32 1,-6 8,-3 -4,-4 -30,-1 -21,46 -65,23l-6 -4c21,45 6,31 -9,77 22,18 74,-14 83,39 3,-5 7,-2 2,-24 8,-3 -3,-3 5,0l4 2c0,0 2,1 2,1 3,-14 8,-13 14,-20l9 -14c9,-9 20,-29 29,-42 9,-14 19,-28 29,-44 21,-34 39,-63 31,-112l-7 8c-1,-1 -2,-3 -2,-4l-4 -11c-1,-4 -1,-6 -2,-10 4,6 2,8 1,21l-12 -7 3 24c-18,0 -15,2 -26,15 -23,25 -8,10 -17,7 -6,-2 4,-12 -7,2 -10,13 -2,10 -13,16 -1,0 -2,0 -2,1 -10,4 -3,-8 -9,5zm-136 50c-5,16 -13,17 -34,23 -32,9 -14,-1 -34,-4 3,16 5,49 11,62 8,17 32,32 33,43l12 9 32 -91c3,-21 -1,-25 14,-22l6 4c43,22 34,-25 65,-23 12,0 6,-2 4,4 0,-14 1,-20 8,-32l6 -8 -13 -44 -14 13c-4,4 -5,6 -10,10l-4 4c-1,1 -2,1 -2,2l-11 15c2,-3 6,6 0,-10 -4,-11 0,-3 -7,-10l-21 35c-21,-10 7,-19 -41,21zm255 -141c-1,32 -2,80 -16,104 -12,20 -38,53 -44,72l17 -5c0,0 1,0 2,0l8 0c20,0 2,-2 30,-19 29,-18 8,-11 23,-27 7,-8 -3,-2 6,-4 1,0 2,0 3,0 1,0 5,1 6,1 10,-24 37,-102 34,-125l-7 -22c-8,5 -11,18 -14,22 -6,8 -21,9 -33,26 -11,14 2,-13 -4,7 -5,17 -4,0 0,8 0,-5 0,-15 -1,-20 -5,-18 -1,-8 -9,-17zm-342 154c27,-8 30,-20 46,-29 21,-11 31,8 41,16 49,-40 20,-31 41,-21l21 -35c7,7 3,-1 7,10 5,16 2,7 0,10l11 -15c1,-1 2,-1 2,-2l4 -4c5,-5 6,-6 10,-10l14 -13 -17 -36c-13,-1 -8,3 -18,6 -11,2 -3,-3 -17,-5l-54 57c-12,10 -44,6 -60,23l-9 13c0,-1 -1,2 -2,3 -7,-5 -11,-15 -25,-10 17,-7 7,9 7,10 3,5 6,4 6,4 0,-1 1,0 2,0 -7,6 -4,0 -3,8 2,13 -5,-1 5,5l-13 15zm215 -168c-6,14 -13,26 -22,35 4,15 11,38 22,47l-7 -11c38,-8 16,-18 35,-34 18,-14 20,14 83,-54l-2 -53c-16,20 0,0 -15,13l-19 24c-1,1 -1,2 -2,3 -9,11 -2,4 -8,9 -1,0 -2,1 -2,2l-5 3c-19,11 -31,18 -53,17l-5 0zm-20 291c1,45 -17,59 -55,62l7 42c14,2 16,0 23,4 -4,-18 -5,-21 8,-33l5 -4c16,-11 31,-8 42,-26 1,1 2,2 3,3 7,20 -10,-7 8,4l2 -10c2,-10 1,0 10,0 -1,-12 6,-20 11,-27 7,-11 9,-16 16,-26l-30 6c-12,11 -12,-38 -12,-48l-9 14c-6,7 -11,6 -14,20 -1,0 -2,-1 -2,-1l-4 -2c-8,-3 3,-3 -5,0 5,22 2,19 -2,24zm138 -71c-8,3 -1,-2 -8,7 -3,4 -2,4 -5,8 -5,8 -7,11 -12,18 5,31 16,7 24,45 3,16 -2,10 6,17l4 -2c14,-11 10,-4 13,-20l0 -37 22 0 3 -6c11,-14 -2,-6 14,-18 29,-23 99,-67 27,-53 -10,2 -28,17 -40,27l-21 12c-20,8 -16,6 -26,2zm-117 -137c0,7 -1,6 1,12 7,22 -1,2 7,11 6,-13 -1,-1 9,-5 0,0 2,0 2,-1 12,-6 4,-3 13,-16 11,-15 1,-4 7,-2 9,3 -6,18 17,-7 12,-13 8,-15 26,-15l-3 -24 12 7c1,-13 4,-15 -1,-21 1,4 0,6 2,10l4 11c0,1 1,3 2,4l7 -8 6 -55c-63,68 -65,39 -83,54 -19,15 3,26 -35,34l7 11zm168 85c21,4 14,-2 40,-23l16 -13c1,-1 1,-2 2,-2l14 -10 3 -28c0,1 1,7 2,7 4,10 -2,-3 2,5l3 5c11,-22 -7,7 4,-22 1,5 1,11 2,15 5,15 34,15 44,26 6,-26 -41,-45 -54,-62 -16,-21 -12,-27 -36,-37 7,40 7,36 -10,72 -11,24 -20,43 -32,65zm-102 23c-13,10 -33,40 -35,59 7,14 -4,6 17,7 3,0 18,-1 23,-1 7,-34 26,-47 46,-61 16,-11 12,-14 26,-25 19,-16 8,-11 18,-34 -1,0 -5,-1 -6,-1 -1,0 -2,0 -3,0 -9,2 1,-5 -6,4 -14,16 7,10 -23,27 -28,17 -10,19 -30,19l-8 0c0,0 -1,0 -2,0l-17 5zm102 -23c-4,6 -14,18 -24,25 -14,10 -15,11 -27,27 10,4 6,6 26,-2l21 -12c12,-9 31,-25 40,-27 44,-9 70,12 95,-51 -10,-10 -39,-11 -44,-26 -1,-4 -2,-11 -2,-15 -11,29 7,0 -4,22l-3 -5c-4,-9 2,5 -2,-5 0,-1 -1,-6 -2,-7l-3 28 -14 10c-1,1 -1,2 -2,2l-16 13c-26,21 -19,27 -40,23zm-282 111c13,0 38,0 50,1 21,3 19,11 17,32l-34 18 6 23c38,-2 56,-16 55,-62 -9,-53 -61,-21 -83,-39l-11 26zm32 51l34 -18c2,-21 4,-29 -17,-32 -11,-2 -37,-1 -50,-1 -17,47 1,54 25,102 3,-21 -5,-48 3,-81l4 30zm211 -385c-1,21 0,46 -3,70 7,9 4,0 9,17 1,5 1,15 1,20 -4,-8 -6,9 0,-8 7,-21 -6,7 4,-7 12,-17 27,-18 33,-26 3,-4 6,-17 14,-22 -5,-4 -42,-55 -45,-61 -6,10 -6,-1 -13,18zm-58 339c8,3 14,0 16,15 1,5 -2,13 -5,17 -10,11 -24,7 -39,5 -11,22 -1,7 -12,13l-2 17c10,-6 12,-7 28,-6 3,0 9,1 12,2 13,5 3,-5 10,9 16,-15 6,-15 28,-22 0,-8 -3,-1 3,-10 6,-7 5,-5 12,-9 -8,-7 -2,-1 -6,-17 -8,-38 -19,-14 -24,-45 -8,11 -12,22 -22,31zm-116 114c4,9 19,27 21,33l6 -7c0,-1 2,-2 2,-3l2 -9c7,10 10,10 4,26l14 -16c-8,-40 4,-12 5,-35 3,-26 3,-23 10,-44 -18,-11 -1,17 -8,-4 -1,-2 -2,-2 -3,-3 -11,18 -26,15 -42,26l-5 4c-12,11 -12,15 -8,33zm21 33l2 47c21,7 5,-2 21,-2l5 1c2,-7 2,-6 5,-12 0,-1 2,-5 2,-6l3 -6c0,-1 1,-2 2,-3 2,12 5,14 10,23l14 -52 0 2 -36 -1 -14 16c6,-15 2,-16 -4,-26l-2 9c0,1 -2,2 -2,3l-6 7zm2 47l9 36c10,9 18,33 32,40l7 -81c-5,-9 -8,-12 -10,-23 -1,1 -1,2 -2,3l-3 6c-1,1 -2,5 -2,6 -2,5 -2,5 -5,12l-5 -1c-16,0 0,9 -21,2zm44 -83l21 -2c17,-15 8,-31 37,-39 -7,-14 3,-4 -10,-9 -2,-1 -9,-2 -12,-2 -16,-1 -17,0 -28,6l-8 46zm108 -451c7,-19 7,-7 13,-18 -25,-35 -33,-31 -57,-34 8,13 15,13 23,23 9,10 9,19 21,28zm-125 477l36 1 2 -28 -21 2c-1,-1 -3,-2 -4,-3 -1,-1 -2,-2 -3,-3 -1,-1 -4,-3 -5,-4 -2,23 -13,-5 -5,35zm39 -101c15,2 29,6 39,-5 3,-4 6,-12 5,-17 -2,-15 -8,-12 -16,-15 -4,7 -8,13 -13,19 -8,10 -8,7 -15,17zm-111 74c3,32 3,37 24,60l0 -57c-7,-3 -9,-2 -23,-4zm96 -109l30 -6 13 -23c-5,0 -20,1 -23,1 -21,-2 -10,7 -17,-7 -5,10 -3,24 -3,35zm-8 58c-7,20 -8,18 -10,44 1,1 4,4 5,4 1,1 2,2 3,3 1,1 2,2 4,3l8 -46 2 -17c-9,-1 -8,-10 -10,0l-2 10zm120 -50c7,-9 17,-20 22,-37l-22 0 0 37z"/>
    <path class="fil1" d="M1099 255c-56,18 -323,149 -281,426 47,-108 126,-158 175,-194 10,-7 -46,-12 -37,-19 63,-43 151,-77 142,-213z"/>
   </g>
  </g>
 </g>
</svg>
