<?xml version="1.0" encoding="UTF-8"?>
<svg width="360px" height="134px" viewBox="0 0 360 134" version="1.1" xmlns="http://www.w3.org/2000/svg" xmlns:xlink="http://www.w3.org/1999/xlink">
    <!-- Generator: sketchtool 48.1 (47250) - http://www.bohemiancoding.com/sketch -->
    <title>1CDC3B23-7C88-495F-88AF-1B06326E96B0</title>
    <desc>Created with sketchtool.</desc>
    <defs></defs>
    <g id="HarrisonWork" stroke="none" stroke-width="1" fill="none" fill-rule="evenodd" transform="translate(-130.000000, -9397.000000)">
        <g id="footer" transform="translate(0.000000, 8691.000000)" fill="#D6BB74">
            <g id="logo4" transform="translate(130.000000, 706.000000)">
                <path d="M137.277454,43.9904087 L152.72007,43.9904087 L152.72007,36.9132611 C152.72007,35.3994996 152.639601,34.2835696 152.467521,33.5642202 C152.304107,32.8448707 151.994611,32.2431193 151.547699,31.7789825 C151.140402,31.3511259 150.68111,31.0458716 150.159918,30.8494579 C149.647393,30.6618015 148.975167,30.5417014 148.127148,30.4966639 L148.127148,30.001251 L162,30.001251 L162,30.4966639 C161.174264,30.5417014 160.506991,30.6618015 159.989514,30.8494579 C159.476988,31.0371143 159.017696,31.3448707 158.607923,31.7727273 C158.164725,32.2431193 157.851515,32.8361134 157.688101,33.5629691 C157.519735,34.2910759 157.435552,35.3982485 157.435552,36.8982485 L157.435552,53.1030025 C157.435552,54.6030025 157.518497,55.705171 157.688101,56.4245204 C157.851515,57.1438699 158.164725,57.7456214 158.607923,58.2322769 C159.017696,58.6438699 159.476988,58.9428691 159.989514,59.146789 C160.506991,59.3394495 161.174264,59.4608007 162,59.5045872 L162,60 L148.127148,60 L148.127148,59.5045872 C148.97393,59.4595496 149.647393,59.3394495 150.159918,59.146789 C150.679872,58.9428691 151.140402,58.6426188 151.547699,58.2322769 C151.993373,57.7681401 152.304107,57.175146 152.467521,56.4557965 C152.639601,55.736447 152.72007,54.6255213 152.72007,53.1205171 L152.72007,45.0250209 L137.277454,45.0250209 L137.277454,53.1205171 C137.277454,54.6117598 137.357923,55.7201835 137.530003,56.4470392 C137.693417,57.1663887 138.006627,57.7681401 138.449825,58.2322769 C138.843504,58.6438699 139.296606,58.9428691 139.815322,59.146789 C140.327847,59.3394495 141.003787,59.4608007 141.848092,59.5045872 L141.848092,60 L128,60 L128,59.5045872 C128.835639,59.4595496 129.511579,59.3394495 130.03277,59.146789 C130.545296,58.9428691 130.995922,58.6426188 131.389601,58.2322769 C131.848893,57.7593828 132.162103,57.1663887 132.325517,56.4470392 C132.480265,55.7276897 132.560734,54.6192661 132.560734,53.1030025 L132.560734,36.8982485 C132.560734,35.3844871 132.480265,34.2735613 132.325517,33.5542118 C132.162103,32.8348624 131.848893,32.2418682 131.389601,31.7714762 C130.995922,31.3436197 130.545296,31.0358632 130.016676,30.8482068 C129.499199,30.6605505 128.82326,30.5404504 128.001238,30.4954128 L128.001238,30 L141.84933,30 L141.84933,30.4954128 C141.018643,30.5404504 140.351369,30.6605505 139.838844,30.8482068 C139.321366,31.0446205 138.860836,31.3486239 138.451063,31.7777314 C138.007865,32.2418682 137.694655,32.8436197 137.531241,33.5679733 C137.359161,34.2960801 137.278692,35.41201 137.278692,36.91201 L137.278692,43.9891576 L137.277454,43.9904087 Z" id="Shape" fill-rule="nonzero"></path>
                <path d="M195,60 L180.609659,60 L180.609659,59.5045872 C181.908354,59.3844871 182.820682,59.1693078 183.327945,58.8440367 C184.231548,58.2760634 184.688958,57.4816514 184.688958,56.4683069 C184.688958,55.8690575 184.485803,55.0658882 184.075755,54.0562969 L183.70185,53.1330275 L181.602999,47.9449541 L171.955015,47.9449541 L170.812113,50.9812344 L170.259981,52.3386155 C169.601908,53.9499583 169.272872,55.2185154 169.272872,56.1380317 C169.272872,56.6859883 169.392522,57.1876564 169.640545,57.6605505 C169.877352,58.1246872 170.201402,58.5087573 170.610204,58.7989992 C171.184771,59.1968307 171.917624,59.4282736 172.812502,59.5045872 L172.812502,60 L163,60 L163,59.5045872 C163.777722,59.4595496 164.449503,59.2718932 165.040273,58.9366138 C165.622317,58.5975813 166.189406,58.0521268 166.740292,57.3077565 C167.211412,56.7085071 167.668822,55.9278565 168.115015,54.9858215 C168.554976,54.0400334 169.146991,52.6238532 169.87112,50.734779 L177.877663,30 L179.132736,30 L188.674781,53.1017515 C189.391431,54.8507089 189.959766,56.0929942 190.386018,56.8423686 C190.804791,57.5917431 191.267186,58.1547123 191.757001,58.5375313 C192.108471,58.7977481 192.512288,59.0016681 192.960974,59.1442869 C193.415891,59.2781485 194.095151,59.3994996 194.998754,59.5020851 L194.998754,59.9974979 L195,60 Z M181.259007,47.0467056 L176.667459,35.6522102 L172.305239,47.0467056 L181.259007,47.0467056 Z" id="1" fill-rule="nonzero"></path>
                <path d="M204.28543,45.3371419 L204.28543,53.110796 C204.28543,54.6107335 204.365957,55.719111 204.538162,56.4409324 C204.710367,57.1652558 205.015132,57.7669822 205.466086,58.2310996 C205.86005,58.6426755 206.319676,58.9416621 206.840007,59.1455736 C207.35786,59.3382261 208.034291,59.4595722 208.887881,59.5033568 L208.887881,59.998749 L195,59.998749 L195,59.5033568 C195.836246,59.4583212 196.512676,59.3382261 197.034246,59.1455736 C197.547144,58.9416621 197.998097,58.6414245 198.392062,58.2310996 C198.851688,57.7582253 199.165125,57.1652558 199.328658,56.4459364 C199.483518,55.7266169 199.564046,54.6182394 199.564046,53.1020391 L199.564046,36.8979609 C199.564046,35.3842625 199.483518,34.2733831 199.328658,33.5540636 C199.165125,32.8347442 198.851688,32.2417747 198.392062,31.7714024 C197.998097,31.3435637 197.547144,31.03582 197.018141,30.8481715 C196.500288,30.6605229 195.823857,30.5404278 195.001239,30.4953922 L195.001239,30 L205.489624,30 C207.241405,30 208.391089,30.0087569 208.947347,30.0225178 C211.197159,30.128852 212.956374,30.4365956 214.234901,30.9457487 C215.673245,31.5299612 216.787001,32.4069055 217.573691,33.5753305 C218.369054,34.7362495 218.763019,36.0935741 218.763019,37.6297903 C218.763019,39.9153497 217.909429,41.7455486 216.194814,43.1253909 C215.674483,43.5369668 215.094686,43.8747342 214.465333,44.1386931 C213.833503,44.3988991 212.988585,44.6541012 211.933056,44.8855344 C212.786647,45.2545765 213.427149,45.6348776 213.833503,46.0276886 C214.16924,46.3329302 214.465333,46.7244902 214.739127,47.1811017 C215.005486,47.6452191 215.415557,48.4621158 215.95571,49.6317918 C217.246626,52.3151662 218.21915,54.279221 218.881952,55.5164505 C219.541038,56.75368 220.098535,57.6543931 220.544533,58.2085818 C220.907526,58.6651933 221.256891,58.9804429 221.597584,59.1518285 C221.938277,59.3332221 222.406575,59.4458113 223,59.5046078 L223,60 L215.823149,60 C215.460157,59.1968642 215.229724,58.6827071 215.124419,58.4637838 L213.603071,54.9722697 C212.68258,52.8793628 211.763329,51.0266461 210.835406,49.4241274 C209.907482,47.8291147 209.053891,46.7319962 208.280828,46.1502856 C207.886863,45.8563029 207.465643,45.6461365 207.019645,45.5260414 C206.564975,45.3996914 206.008716,45.3383929 205.357064,45.3383929 L204.287908,45.3383929 L204.28543,45.3371419 Z M204.28543,44.8417497 L205.11672,44.8417497 C206.929207,44.8417497 208.226317,44.7379175 209.006814,44.5365081 C209.786071,44.3263417 210.51949,43.9072599 211.204593,43.2604979 C212.739569,41.7918352 213.50396,39.9703932 213.50396,37.8036779 C213.50396,36.6427589 213.2822,35.5543972 212.836202,34.5360911 C212.390204,33.5177849 211.774479,32.6783704 210.987788,32.0178475 C210.372063,31.5136983 209.6436,31.169676 208.798681,30.9770235 C207.951285,30.773112 206.742135,30.6742838 205.182381,30.6742838 L204.284191,30.6742838 L204.284191,44.8404987 L204.28543,44.8417497 Z" id="2" fill-rule="nonzero"></path>
                <path d="M233.28543,45.3371419 L233.28543,53.110796 C233.28543,54.6107335 233.365957,55.719111 233.538162,56.4409324 C233.710367,57.1652558 234.015132,57.7669822 234.466086,58.2310996 C234.86005,58.6426755 235.319676,58.9416621 235.840007,59.1455736 C236.35786,59.3382261 237.034291,59.4595722 237.887881,59.5033568 L237.887881,59.998749 L224,59.998749 L224,59.5033568 C224.836246,59.4583212 225.512676,59.3382261 226.034246,59.1455736 C226.547144,58.9416621 226.998097,58.6414245 227.392062,58.2310996 C227.851688,57.7582253 228.165125,57.1652558 228.328658,56.4459364 C228.483518,55.7266169 228.564046,54.6182394 228.564046,53.1020391 L228.564046,36.8979609 C228.564046,35.3842625 228.483518,34.2733831 228.328658,33.5540636 C228.165125,32.8347442 227.851688,32.2417747 227.392062,31.7714024 C226.998097,31.3435637 226.547144,31.03582 226.018141,30.8481715 C225.500288,30.6605229 224.823857,30.5404278 224.001239,30.4953922 L224.001239,30 L234.489624,30 C236.241405,30 237.391089,30.0087569 237.947347,30.0225178 C240.197159,30.128852 241.956374,30.4365956 243.234901,30.9457487 C244.673245,31.5299612 245.787001,32.4069055 246.573691,33.5753305 C247.369054,34.7362495 247.763019,36.0935741 247.763019,37.6297903 C247.763019,39.9153497 246.909429,41.7455486 245.194814,43.1253909 C244.674483,43.5369668 244.094686,43.8747342 243.465333,44.1386931 C242.833503,44.3988991 241.988585,44.6541012 240.933056,44.8855344 C241.786647,45.2545765 242.427149,45.6348776 242.833503,46.0276886 C243.16924,46.3329302 243.465333,46.7244902 243.739127,47.1811017 C244.005486,47.6452191 244.415557,48.4621158 244.95571,49.6317918 C246.246626,52.3151662 247.21915,54.279221 247.881952,55.5164505 C248.541038,56.75368 249.098535,57.6543931 249.544533,58.2085818 C249.907526,58.6651933 250.256891,58.9804429 250.597584,59.1518285 C250.938277,59.3332221 251.406575,59.4458113 252,59.5046078 L252,60 L244.823149,60 C244.460157,59.1968642 244.229724,58.6827071 244.124419,58.4637838 L242.603071,54.9722697 C241.68258,52.8793628 240.763329,51.0266461 239.835406,49.4241274 C238.907482,47.8291147 238.053891,46.7319962 237.280828,46.1502856 C236.886863,45.8563029 236.465643,45.6461365 236.019645,45.5260414 C235.564975,45.3996914 235.008716,45.3383929 234.357064,45.3383929 L233.287908,45.3383929 L233.28543,45.3371419 Z M233.28543,44.8417497 L234.11672,44.8417497 C235.929207,44.8417497 237.226317,44.7379175 238.006814,44.5365081 C238.786071,44.3263417 239.51949,43.9072599 240.204593,43.2604979 C241.739569,41.7918352 242.50396,39.9703932 242.50396,37.8036779 C242.50396,36.6427589 242.2822,35.5543972 241.836202,34.5360911 C241.390204,33.5177849 240.774479,32.6783704 239.987788,32.0178475 C239.372063,31.5136983 238.6436,31.169676 237.798681,30.9770235 C236.951285,30.773112 235.742135,30.6742838 234.182381,30.6742838 L233.284191,30.6742838 L233.284191,44.8404987 L233.28543,44.8417497 Z" id="3" fill-rule="nonzero"></path>
                <path d="M266.998748,30 L266.998748,30.4953922 C266.167263,30.5404278 265.492308,30.6605229 264.967621,30.8481715 C264.449195,31.03582 263.984615,31.3435637 263.570125,31.7714024 C263.00161,32.3531129 262.648479,33.1700096 262.519499,34.2145865 C262.429338,34.9927026 262.38551,35.8846587 262.38551,36.8979609 L262.38551,53.1020391 C262.38551,54.3242567 262.444365,55.2850173 262.559571,55.9893249 C262.677281,56.6861265 262.865116,57.2565781 263.136852,57.6769109 C263.512522,58.2673783 264.008408,58.703974 264.606977,58.9866978 C265.206798,59.2719236 266.001968,59.4458113 266.998748,59.5046078 L266.998748,60 L253,60 L253,59.5046078 C253.845259,59.4595722 254.52898,59.3394771 255.056172,59.1468246 C255.574597,58.9429131 256.030411,58.6426755 256.428623,58.2323506 C256.893202,57.7594763 257.210018,57.1665068 257.375313,56.4471874 C257.531843,55.7278679 257.613238,54.6194904 257.613238,53.1032901 L257.613238,36.8992119 C257.613238,35.3855135 257.531843,34.2746341 257.375313,33.5553146 C257.210018,32.8359952 256.893202,32.2430257 256.428623,31.7726534 C256.030411,31.3448146 255.574597,31.037071 255.039893,30.8494225 C254.516458,30.6617739 253.832737,30.5416788 253.001252,30.4966432 L253.001252,30.001251 L267,30.001251 L266.998748,30 Z" id="4" fill-rule="nonzero"></path>
                <path d="M270,59.1574012 L270.06897,50.2103318 L270.576392,50.2990264 C271.182343,52.5718259 271.906528,54.3605007 272.747715,55.6662825 C274.320477,58.0795152 276.304596,59.2892112 278.686524,59.2892112 C280.355351,59.2892112 281.727361,58.7348699 282.813638,57.6224916 C283.898684,56.5150407 284.435665,55.10455 284.435665,53.4070336 C284.435665,52.6691437 284.31743,51.9164713 284.074804,51.1564077 C283.838335,50.387721 283.520581,49.7323664 283.116614,49.1866481 C282.695404,48.6249156 282.105464,48.0878204 281.345563,47.5605802 C280.585662,47.0456587 279.425488,46.3866084 277.861347,45.5908206 C276.480716,44.9046692 275.43385,44.3146036 274.704738,43.8415657 C273.974396,43.3623684 273.381993,42.8831711 272.933688,42.3953507 C271.68607,41.0365985 271.066572,39.3834294 271.066572,37.4358434 C271.066572,36.239698 271.311661,35.0878999 271.796915,33.9755216 C272.278473,32.8680707 272.957088,31.9146036 273.826603,31.1188158 C275.361185,29.7083251 277.185195,29 279.28139,29 C279.967395,29 280.595514,29.066521 281.176833,29.198331 C281.751993,29.3387642 282.526674,29.6060799 283.502107,30.011365 C284.226292,30.3008544 284.720166,30.4856348 284.978803,30.5570833 C285.243599,30.6396185 285.471446,30.6753427 285.678356,30.6753427 C286.17962,30.6753427 286.520775,30.3144049 286.698127,29.576515 L287.185843,29.576515 L287.317625,38.167574 L286.829909,38.167574 C286.438258,36.7952712 286.108187,35.7395589 285.818759,35.0102921 C285.537953,34.2773296 285.206651,33.6084244 284.816231,32.9875621 C284.108057,31.8579376 283.325987,31.02273 282.47741,30.4770117 C281.620211,29.9374528 280.639852,29.6639777 279.524016,29.6639777 C277.906916,29.6639777 276.630972,30.209696 275.686329,31.3122194 C275.294678,31.7618518 274.991703,32.2927876 274.771245,32.8964037 C274.542166,33.5024836 274.432553,34.1085635 274.432553,34.7208027 C274.432553,37.1340354 275.980683,39.0766938 279.088027,40.5512418 L282.135023,42.0282535 C284.489855,43.1443274 286.18701,44.3761971 287.220328,45.7201669 C288.407597,47.2242798 289,48.9747665 289,50.9666998 C289,52.2897278 288.732741,53.5511623 288.195761,54.754699 C287.443249,56.4300417 286.313865,57.7272005 284.816231,58.6363203 C283.309976,59.5429764 281.537694,60 279.494458,60 C277.629805,60 275.836585,59.6304391 274.117262,58.8863898 C273.216957,58.4872641 272.684903,58.2667594 272.508783,58.2063978 C272.33759,58.1484999 272.139301,58.1177032 271.925002,58.1177032 C271.230375,58.1177032 270.75128,58.4650904 270.492643,59.158633 L270.004926,59.158633 L270,59.1574012 Z" id="5" fill-rule="nonzero"></path>
                <path d="M293,44.7081942 C293,42.2862423 293.520648,40.0355269 294.569381,37.9683675 C295.614395,35.8938166 297.139149,34.0915196 299.136205,32.5516214 C300.636166,31.4059371 302.250174,30.5349706 303.972031,29.922707 C305.702564,29.3104435 307.440536,29 309.193383,29 C311.430929,29 313.590377,29.4878398 315.686604,30.4598236 C317.771674,31.4355031 319.5989,32.8078604 321.168281,34.5793594 C323.721934,37.4669766 325,40.7426482 325,44.4273168 C325,46.2739628 324.664058,48.0503894 323.995894,49.7701478 C323.327729,51.4837466 322.354614,53.0495152 321.076548,54.4649897 C319.509646,56.2229375 317.660107,57.5866714 315.522972,58.5537275 C313.382118,59.5207837 311.139614,60 308.807856,60 C306.498412,60 304.290617,59.5294071 302.189432,58.591917 C300.079569,57.6519631 298.268459,56.3325783 296.746184,54.6128199 C295.542496,53.2675648 294.614008,51.7473772 293.968157,50.0362423 C293.322306,48.330035 293,46.5511445 293,44.7069623 L293,44.7081942 Z M298.259782,45.0174058 C298.259782,49.2108568 299.405206,52.7378398 301.697296,55.6094421 C302.731154,56.8931013 303.820795,57.8330552 304.979856,58.4145207 C306.132719,58.9984502 307.470287,59.2941106 308.977687,59.2941106 C310.499961,59.2941106 311.844968,59.0070736 312.995351,58.4317676 C314.154412,57.8478382 315.252731,56.9103481 316.300225,55.610674 C318.596033,52.7255206 319.737739,49.1689715 319.737739,44.938563 C319.737739,42.6127007 319.419152,40.413726 318.786937,38.339175 C318.157202,36.2646241 317.27334,34.5066762 316.122957,33.0677953 C315.194468,31.8802257 314.159371,31.0154189 313.017665,30.4783023 C311.880917,29.938722 310.527233,29.6652361 308.977687,29.6652361 C307.439297,29.6652361 306.102967,29.9325624 304.979856,30.4696789 C303.851786,31.0018677 302.81173,31.8642108 301.85473,33.0677953 C300.709305,34.4918932 299.819245,36.249841 299.195708,38.3305516 C298.57217,40.4051025 298.258542,42.6422667 298.258542,45.0174058 L298.259782,45.0174058 Z" id="6" fill-rule="nonzero"></path>
                <path d="M333.544031,33.9733111 L333.544031,53.1017515 C333.544031,54.618015 333.625876,55.7264387 333.800897,56.4457882 C333.967105,57.1651376 334.281892,57.7581318 334.736444,58.2310259 C335.150704,58.6563803 335.617848,58.9641368 336.139136,59.1517932 C336.667978,59.3394495 337.347918,59.4595496 338.183993,59.5045872 L338.183993,60 L328,60 L328,59.5045872 C328.836075,59.4595496 329.514756,59.3394495 330.044857,59.1517932 C330.566145,58.9641368 331.033289,58.6563803 331.447549,58.2310259 C331.900842,57.7581318 332.216888,57.1588824 332.383096,56.440784 C332.558118,55.7126772 332.639962,54.6017515 332.639962,53.1030025 L332.639962,36.8757298 C332.639962,35.3894912 332.558118,34.2898249 332.383096,33.5629691 C332.216888,32.8348624 331.902101,32.2418682 331.447549,31.7727273 C331.047139,31.3448707 330.588809,31.0371143 330.067522,30.8494579 C329.538679,30.6618015 328.851184,30.5417014 328,30.4966639 L328,30.001251 L336.508066,30.001251 L354.455969,52.7752294 L354.455969,36.8982485 C354.455969,35.3844871 354.374124,34.2735613 354.199103,33.5542118 C354.032895,32.8348624 353.718108,32.2418682 353.263556,31.7714762 C352.849296,31.3436197 352.382152,31.0358632 351.860864,30.8482068 C351.332022,30.6605505 350.652082,30.5404504 349.816007,30.4954128 L349.816007,30 L360,30 L360,30.4954128 C358.529315,30.4954128 357.383489,30.9232694 356.552451,31.7714762 C356.099158,32.2418682 355.783112,32.8348624 355.616904,33.5617181 C355.441882,34.2898249 355.360038,35.3894912 355.360038,36.8744787 L355.360038,59.998749 L354.362792,59.998749 L333.541513,33.9733111 L333.544031,33.9733111 Z" id="7" fill-rule="nonzero"></path>
                <path d="M126.001232,81 L139.594108,81 L139.594108,81.4953715 C138.318083,81.4953715 137.448513,81.5929447 136.982936,81.7805854 C136.59126,81.9594696 136.274717,82.2446835 136.024685,82.6337253 C135.77958,83.0315236 135.655179,83.4818614 135.655179,83.9772329 C135.655179,84.5989492 135.884273,85.4458344 136.346155,86.5316487 L136.916425,87.8889167 L143.668523,104.595196 L148.340304,90.1968977 C148.94383,88.3530148 149.246825,86.9732299 149.246825,86.0675507 C149.246825,85.393295 149.128583,84.7415562 148.894563,84.1035777 C148.658079,83.4605954 148.340304,82.9502127 147.94986,82.5536652 C147.580355,82.1708782 147.150497,81.9019264 146.662749,81.7368026 C146.183624,81.5804353 145.564086,81.4966225 144.820148,81.4966225 L144.820148,81.0012509 L158.724641,81.0012509 L158.724641,81.4966225 C157.867389,81.4966225 157.256473,81.5278959 156.870955,81.58669 C156.487901,81.647986 156.127018,81.7680761 155.793231,81.9619715 C155.358446,82.2246685 155.011111,82.59995 154.737677,83.0953215 C154.472864,83.5819365 154.338611,84.1135852 154.338611,84.684013 C154.338611,85.2156617 154.539375,86.1300976 154.9446,87.4348261 L160.27287,104.869152 L166.236689,90.029272 C167.159221,87.7575682 167.622335,85.9949962 167.622335,84.7528146 C167.622335,83.449337 167.19494,82.5261446 166.346309,81.9794846 C165.829001,81.6554916 165.045649,81.4978734 163.991327,81.4978734 L163.991327,81.0025019 L174,81.0025019 L174,81.4978734 C173.041749,81.6042032 172.308896,81.7918439 171.814991,82.0607956 C171.318622,82.3297473 170.825947,82.8251188 170.3382,83.5431574 C169.621359,84.5701776 168.723461,86.4228171 167.638346,89.1060796 L158.72341,111 L157.836596,111 L150.133638,87.5836878 L142.339535,111 L141.36404,111 L131.696544,87.3460095 L131.046214,85.7398049 C130.602807,84.6539905 130.228375,83.8734051 129.92538,83.3867901 C129.622386,82.9089317 129.25288,82.5248937 128.826717,82.2484363 C128.479382,82.0082562 128.102486,81.8431323 127.705884,81.7393045 C127.298196,81.6417313 126.730389,81.5604203 126,81.4991243 L126,81.0037528 L126.001232,81 Z" id="8" fill-rule="nonzero"></path>
                <path d="M176,95.7081942 C176,93.2862423 176.520648,91.0355269 177.569381,88.9683675 C178.614395,86.8938166 180.139149,85.0915196 182.136205,83.5516214 C183.636166,82.4059371 185.250174,81.5349706 186.972031,80.922707 C188.702564,80.3104435 190.440536,80 192.193383,80 C194.430929,80 196.590377,80.4878398 198.686604,81.4598236 C200.771674,82.4355031 202.5989,83.8078604 204.168281,85.5793594 C206.721934,88.4669766 208,91.7426482 208,95.4273168 C208,97.2739628 207.664058,99.0503894 206.995894,100.770148 C206.327729,102.483747 205.354614,104.049515 204.076548,105.46499 C202.509646,107.222938 200.660107,108.586671 198.522972,109.553728 C196.382118,110.520784 194.139614,111 191.807856,111 C189.498412,111 187.290617,110.529407 185.189432,109.591917 C183.079569,108.651963 181.268459,107.332578 179.746184,105.61282 C178.542496,104.267565 177.614008,102.747377 176.968157,101.036242 C176.322306,99.330035 176,97.5511445 176,95.7069623 L176,95.7081942 Z M181.259782,96.0174058 C181.259782,100.210857 182.405206,103.73784 184.697296,106.609442 C185.731154,107.893101 186.820795,108.833055 187.979856,109.414521 C189.132719,109.99845 190.470287,110.294111 191.977687,110.294111 C193.499961,110.294111 194.844968,110.007074 195.995351,109.431768 C197.154412,108.847838 198.252731,107.910348 199.300225,106.610674 C201.596033,103.725521 202.737739,100.168972 202.737739,95.938563 C202.737739,93.6127007 202.419152,91.413726 201.786937,89.339175 C201.157202,87.2646241 200.27334,85.5066762 199.122957,84.0677953 C198.194468,82.8802257 197.159371,82.0154189 196.017665,81.4783023 C194.880917,80.938722 193.527233,80.6652361 191.977687,80.6652361 C190.439297,80.6652361 189.102967,80.9325624 187.979856,81.4696789 C186.851786,82.0018677 185.81173,82.8642108 184.85473,84.0677953 C183.709305,85.4918932 182.819245,87.249841 182.195708,89.3305516 C181.57217,91.4051025 181.258542,93.6422667 181.258542,96.0174058 L181.259782,96.0174058 Z" id="9" fill-rule="nonzero"></path>
                <path d="M220.28543,96.3371419 L220.28543,104.110796 C220.28543,105.610733 220.365957,106.719111 220.538162,107.440932 C220.710367,108.165256 221.015132,108.766982 221.466086,109.2311 C221.86005,109.642675 222.319676,109.941662 222.840007,110.145574 C223.35786,110.338226 224.034291,110.459572 224.887881,110.503357 L224.887881,110.998749 L211,110.998749 L211,110.503357 C211.836246,110.458321 212.512676,110.338226 213.034246,110.145574 C213.547144,109.941662 213.998097,109.641424 214.392062,109.2311 C214.851688,108.758225 215.165125,108.165256 215.328658,107.445936 C215.483518,106.726617 215.564046,105.618239 215.564046,104.102039 L215.564046,87.8979609 C215.564046,86.3842625 215.483518,85.2733831 215.328658,84.5540636 C215.165125,83.8347442 214.851688,83.2417747 214.392062,82.7714024 C213.998097,82.3435637 213.547144,82.03582 213.018141,81.8481715 C212.500288,81.6605229 211.823857,81.5404278 211.001239,81.4953922 L211.001239,81 L221.489624,81 C223.241405,81 224.391089,81.0087569 224.947347,81.0225178 C227.197159,81.128852 228.956374,81.4365956 230.234901,81.9457487 C231.673245,82.5299612 232.787001,83.4069055 233.573691,84.5753305 C234.369054,85.7362495 234.763019,87.0935741 234.763019,88.6297903 C234.763019,90.9153497 233.909429,92.7455486 232.194814,94.1253909 C231.674483,94.5369668 231.094686,94.8747342 230.465333,95.1386931 C229.833503,95.3988991 228.988585,95.6541012 227.933056,95.8855344 C228.786647,96.2545765 229.427149,96.6348776 229.833503,97.0276886 C230.16924,97.3329302 230.465333,97.7244902 230.739127,98.1811017 C231.005486,98.6452191 231.415557,99.4621158 231.95571,100.631792 C233.246626,103.315166 234.21915,105.279221 234.881952,106.516451 C235.541038,107.75368 236.098535,108.654393 236.544533,109.208582 C236.907526,109.665193 237.256891,109.980443 237.597584,110.151829 C237.938277,110.333222 238.406575,110.445811 239,110.504608 L239,111 L231.823149,111 C231.460157,110.196864 231.229724,109.682707 231.124419,109.463784 L229.603071,105.97227 C228.68258,103.879363 227.763329,102.026646 226.835406,100.424127 C225.907482,98.8291147 225.053891,97.7319962 224.280828,97.1502856 C223.886863,96.8563029 223.465643,96.6461365 223.019645,96.5260414 C222.564975,96.3996914 222.008716,96.3383929 221.357064,96.3383929 L220.287908,96.3383929 L220.28543,96.3371419 Z M220.28543,95.8417497 L221.11672,95.8417497 C222.929207,95.8417497 224.226317,95.7379175 225.006814,95.5365081 C225.786071,95.3263417 226.51949,94.9072599 227.204593,94.2604979 C228.739569,92.7918352 229.50396,90.9703932 229.50396,88.8036779 C229.50396,87.6427589 229.2822,86.5543972 228.836202,85.5360911 C228.390204,84.5177849 227.774479,83.6783704 226.987788,83.0178475 C226.372063,82.5136983 225.6436,82.169676 224.798681,81.9770235 C223.951285,81.773112 222.742135,81.6742838 221.182381,81.6742838 L220.284191,81.6742838 L220.284191,95.8404987 L220.28543,95.8417497 Z" id="10" fill-rule="nonzero"></path>
                <path d="M249.443718,95.7041408 L258.821898,86.4680789 C259.752028,85.5611109 260.333045,84.9406197 260.558645,84.6103582 C260.793068,84.2800967 260.905238,83.9198115 260.905238,83.5219966 C260.905238,82.8026771 260.552343,82.2622493 259.842773,81.8957091 C259.470973,81.7168175 258.844584,81.5879655 257.976211,81.4978942 L257.976211,81.002502 L267.520756,81.002502 L267.520756,81.4978942 C266.872942,81.5591927 266.328476,81.6630249 265.891138,81.8193987 C265.460102,81.9707685 264.983694,82.2334765 264.461914,82.6000167 C263.88972,83.0053376 262.900354,83.8810308 261.493816,85.2158375 L254.313667,92.0512489 L264.523671,104.988991 L265.784009,106.592761 C266.714139,107.731162 267.678299,108.629373 268.676487,109.276135 C269.280189,109.665193 269.818354,109.950419 270.269555,110.124307 C270.732099,110.289437 271.304293,110.415787 272,110.504608 L272,111 L257.372509,111 L257.372509,110.504608 C258.482867,110.414537 259.283182,110.235645 259.765892,109.959176 C260.256164,109.67395 260.499409,109.268629 260.499409,108.721947 C260.499409,108.137734 260.198188,107.38714 259.591965,106.480172 C259.298306,106.038572 258.741237,105.279221 257.932099,104.194612 C257.11792,103.106251 256.429776,102.230558 255.871445,101.556274 L250.888066,95.417664 L249.444978,96.8250281 L249.444978,104.10329 C249.444978,105.603228 249.5269,106.714107 249.702087,107.440932 C249.868452,108.160252 250.187318,108.758225 250.638519,109.2311 C251.039307,109.642675 251.500591,109.941662 252.028673,110.145574 C252.550453,110.338226 253.243639,110.459572 254.098149,110.503357 L254.098149,110.998749 L240,110.998749 L240,110.503357 C240.850729,110.458321 241.538874,110.338226 242.069476,110.145574 C242.591256,109.941662 243.05002,109.641424 243.450807,109.2311 C243.918393,108.758225 244.237259,108.165256 244.403623,107.445936 C244.561166,106.726617 244.643088,105.618239 244.643088,104.102039 L244.643088,87.8979609 C244.643088,86.3842625 244.561166,85.2733831 244.403623,84.5540636 C244.237259,83.8347442 243.918393,83.2417747 243.450807,82.7714024 C243.05002,82.3435637 242.591256,82.03582 242.053092,81.8481715 C241.52627,81.6605229 240.838125,81.5404278 240.00126,81.4953922 L240.00126,81 L254.099409,81 L254.099409,81.4953922 C253.262544,81.5404278 252.574399,81.6605229 252.052619,81.8481715 C251.525798,82.03582 251.056952,82.3435637 250.639779,82.7714024 C250.188578,83.2417747 249.869712,83.8347442 249.703348,84.5615696 C249.528161,85.289646 249.446239,86.3967724 249.446239,87.8967099 L249.446239,95.7003878 L249.443718,95.7041408 Z" id="11" fill-rule="nonzero"></path>
                <g id="Group">
                    <path d="M32.4327101,40.6507622 L26.7259913,40.6507622 L26.7259913,97.3825702 L32.4327101,97.3825702 L32.4327101,40.6507622 Z M36.7806273,99.0942467 C34.8428473,98.573897 33.0984733,98.2477449 32.4327101,97.3813253 C30.5308838,97.3813253 28.6278176,97.3813253 26.7259913,97.3813253 C25.8693016,98.5975493 24.0195461,98.9324155 22.5863575,99.0942467 L22.5863575,101.257806 L36.7818671,101.257806 L36.7818671,99.0942467 L36.7806273,99.0942467 Z M36.7806273,38.9415754 C34.8428473,39.4594354 33.0984733,39.7855875 32.4327101,40.6507622 C30.5308838,40.6507622 28.6278176,40.6507622 26.7259913,40.6507622 C25.8693016,39.4345382 24.0195461,39.1021618 22.5863575,38.9415754 L22.5863575,36.7755265 L36.7818671,36.7755265 L36.7818671,38.9415754 L36.7806273,38.9415754 Z M49.5590655,57.7525896 L32.4327101,57.757569 L32.4327101,60.517414 L49.5590655,60.5124346 L49.5590655,57.7525896 Z M66.7040177,40.6482725 L72.4107365,40.6482725 L72.4107365,97.3763459 L66.7040177,97.3763459 L66.7040177,40.6482725 Z M62.3561005,99.0892673 C64.291401,98.5714073 66.0382545,98.2452551 66.7040177,97.3763459 C68.605844,97.3763459 70.5089102,97.3763459 72.4107365,97.3763459 C73.2674262,98.5925699 75.1147022,98.9299258 76.5503703,99.0892673 L76.5503703,101.255316 L62.3548607,101.255316 L62.3548607,99.0892673 L62.3561005,99.0892673 Z M62.3561005,38.9390857 C64.291401,39.4569456 66.0382545,39.7793633 66.7040177,40.6482725 C68.605844,40.6482725 70.5089102,40.6482725 72.4107365,40.6482725 C73.2674262,39.4320485 75.1147022,39.0971824 76.5503703,38.9390857 L76.5503703,36.7730368 L62.3548607,36.7730368 L62.3548607,38.9390857 L62.3561005,38.9390857 Z M49.5590655,57.7525896 L66.7040177,57.7525896 L66.7040177,60.5124346 L49.5590655,60.5124346 L49.5590655,57.7525896 Z" id="Shape"></path>
                    <path d="M20.9969564,47.2360488 L3.32509666,47.2360488 C3.32509666,48.0514293 3.32509666,48.8680546 3.32509666,49.6834351 C6.05385793,49.8751428 7.72012561,50.5386509 9.47565763,51.1511199 C11.3117755,51.1511199 13.144174,51.1511199 14.9802919,51.1511199 C16.946587,50.1129103 18.9562744,49.6834351 20.9981962,49.6834351 L20.9981962,47.2360488 L20.9969564,47.2360488 Z M49.5590655,47.2248451 L40.6103155,47.2273348 C40.6103155,48.0427153 40.6103155,48.8593406 40.6103155,49.6722314 C43.3390768,49.8676737 45.0053444,50.5299369 46.7608764,51.1424059 L49.5590655,51.1399162 C49.5590655,51.1399162 49.5590655,47.2248451 49.5590655,47.2248451 Z M39.2353967,79.8437985 L21.563537,79.8437985 C21.563537,79.028418 21.563537,78.2155273 21.563537,77.3989019 C24.2922983,77.2071942 25.9585659,76.5411964 27.7140979,75.9287274 C29.5502158,75.9287274 31.3826144,75.9312171 33.2187322,75.9312171 C35.1850273,76.966937 37.1947147,77.3989019 39.2366365,77.3989019 L39.2366365,79.8437985 L39.2353967,79.8437985 Z M49.5590655,51.1399162 L46.7608764,51.1424059 L29.7845347,72.576331 L33.2174924,75.9312171 L49.5590655,54.9952342 L49.5590655,51.1386713 L49.5590655,51.1399162 Z M14.9790521,51.1511199 C13.1429343,51.1511199 11.3105357,51.1511199 9.47441784,51.1511199 C10.9609171,60.0393895 12.6581793,70.1152513 27.7128582,75.9287274 L33.2174924,75.9312171 L29.7845347,72.576331 C18.3103477,67.7400667 14.3467631,58.2206553 14.9790521,51.1511199 Z M78.1397715,47.2335591 L95.8116312,47.2335591 C95.8116312,48.0464498 95.8116312,48.8618303 95.8116312,49.6784556 C93.0828699,49.8701634 91.4141226,50.5361612 89.6610702,51.1486302 C87.8249523,51.1461405 85.9925538,51.1461405 84.1564359,51.1461405 C82.1901409,50.1104206 80.1804534,49.6784556 78.1385317,49.6784556 L78.1385317,47.2335591 L78.1397715,47.2335591 Z M49.5578258,47.2248451 L58.5251726,47.2248451 C58.5251726,48.0377358 58.5251726,48.8531163 58.5251726,49.6697416 C55.7964113,49.8614494 54.127664,50.5274472 52.372132,51.1399162 L49.5578258,51.1399162 C49.5578258,51.1399162 49.5578258,47.2248451 49.5578258,47.2248451 Z M59.9013311,79.8375742 L77.5731909,79.8375742 C77.5731909,79.0246834 77.5731909,78.209303 77.5731909,77.3926776 C74.8444296,77.2009699 73.1756823,76.5349721 71.4201503,75.9249928 C69.5877518,75.9249928 67.7516339,75.9249928 65.9179956,75.9249928 C63.949221,76.9607127 61.9420131,77.3926776 59.9000914,77.3926776 L59.9000914,79.8375742 L59.9013311,79.8375742 Z M49.5578258,51.1386713 L52.372132,51.1386713 L69.3509533,72.5701067 L65.9179956,75.9249928 L49.5578258,54.9952342 L49.5578258,51.1386713 Z M84.1564359,51.1436508 C85.9925538,51.1436508 87.8249523,51.1436508 89.6610702,51.1461405 C88.1720914,60.03441 86.4773087,70.1077822 71.4201503,75.9237479 L65.9179956,75.9237479 L69.3509533,72.5688619 C80.8251403,67.7325976 84.788725,58.2156759 84.1564359,51.1436508 Z" id="Shape"></path>
                    <ellipse id="Oval" cx="59.3223527" cy="109.568462" rx="2.1039109" ry="2.11252009"></ellipse>
                    <path d="M50.9563004,104.913947 C52.1179766,104.913947 53.0577318,105.860037 53.0577318,107.027712 C53.0577318,108.194142 52.1179766,109.137742 50.9563004,109.137742 C50.4355918,109.137742 49.9557959,108.948524 49.5888203,108.633576 C49.5888203,108.633576 49.5912999,105.418114 49.5912999,105.418114 C49.9570357,105.103165 50.434352,104.913947 50.9550606,104.913947 L50.9563004,104.913947 Z" id="Shape"></path>
                    <ellipse id="Oval" cx="64.1413873" cy="113.916743" rx="2.1039109" ry="2.11252009"></ellipse>
                    <path d="M49.5813816,97.2929406 C49.3954143,101.43831 45.9736146,103.488587 49.0234795,105.119348 C48.9428936,106.272085 48.8623078,107.424821 48.7792424,108.577557 C48.5845965,110.527001 45.5731648,114.976115 41.3616237,110.919131 L40.2495388,111.603801 C42.1154114,115.615971 37.9980938,117.637617 35.671022,115.363266 C35.0585695,114.483153 34.4448771,113.60055 33.8349041,112.717947 C34.4448771,109.973041 31.2313609,110.337783 29.9283495,109.145211 L35.1329564,119.105302 L49.5801418,119.091608 L49.5801418,97.2929406 L49.5813816,97.2929406 Z M49.5813816,97.2929406 C49.767349,101.43831 53.1866691,103.488587 50.1392838,105.119348 C50.2198696,106.272085 50.3004555,107.424821 50.3810413,108.577557 C50.5756872,110.527001 53.5871189,114.976115 57.79866,110.919131 L58.9107449,111.603801 C57.0473518,115.615971 61.1646695,117.637617 63.4917412,115.363266 C64.1041938,114.483153 64.7141668,113.60055 65.3278591,112.717947 C64.7154066,109.973041 67.9314024,110.337783 69.2344138,109.145211 L64.0298069,119.105302 L49.5826214,119.091608 L49.5826214,97.2929406 L49.5813816,97.2929406 Z" id="Shape"></path>
                    <ellipse id="Oval" cx="39.8143751" cy="109.572197" rx="2.1039109" ry="2.11252009"></ellipse>
                    <path d="M48.1816672,104.920171 C47.019991,104.920171 46.0765165,105.863772 46.0765165,107.030202 C46.0765165,108.196631 47.0187512,109.143967 48.1816672,109.143967 C48.7023758,109.143967 49.1796921,108.954749 49.5491473,108.63731 C49.5491473,108.63731 49.5466677,105.424338 49.5466677,105.424338 C49.1809319,105.109389 48.7036156,104.920171 48.182907,104.920171 L48.1816672,104.920171 Z" id="Shape"></path>
                    <ellipse id="Oval" cx="34.9953405" cy="113.921723" rx="2.1039109" ry="2.11252009"></ellipse>
                    <path d="M49.5875805,121.19168 C46.0405628,121.19168 42.4910655,121.19168 38.9415682,121.19168 C38.6477398,121.982163 38.5869904,122.846093 38.9415682,123.776 L49.5875805,123.776 L49.5875805,121.19168 Z M49.5875805,121.19168 C53.1370778,121.19168 56.6865751,121.19168 60.2360724,121.19168 C60.5299009,121.982163 60.5906502,122.846093 60.2360724,123.776 L49.5875805,123.776 L49.5875805,121.19168 Z" id="Shape"></path>
                    <path d="M28.2372862,128.157892 C27.8318773,126.309282 26.9032802,125.142852 25.6610181,123.975177 C31.2710339,124.974796 35.9375752,128.142954 42.1712016,133.998755 C36.395055,129.535948 32.3273286,128.827625 28.2372862,128.156647 L28.2372862,128.157892 Z" id="Shape"></path>
                    <path d="M71.4238697,128.152913 C71.8317581,126.304302 72.7603552,125.137872 74.0001377,123.970198 C69.136471,124.610054 62.3920542,127.439611 56.8043545,133.993776 C62.5829807,129.533458 67.3338272,128.82638 71.4238697,128.151668 L71.4238697,128.152913 Z" id="Shape"></path>
                    <path d="M84.1527166,113.420046 C72.8111863,115.318451 63.0689754,123.292996 56.8055942,133.993776 C64.0508832,127.781946 67.734277,124.81421 77.0289263,123.424951 L77.8112291,123.324118 C80.1321019,117.540518 81.1697999,116.4077 84.1527166,113.420046 Z" id="Shape"></path>
                    <path d="M90.8996129,62.1855207 C91.3347766,68.3164349 93.1126247,69.5189655 91.5480192,76.9096736 C94.2160311,76.4889124 95.2834838,74.7635425 97.6043567,75.0772461 C96.5889748,75.595106 96.2703507,76.0768652 96.8580076,77.1549102 C93.0345184,77.5893648 87.0910011,81.2031809 89.1825142,90.0217385 C89.66231,88.1345373 91.4451172,88.0785188 91.799695,85.230289 C93.2502405,92.2500302 94.364805,92.5052256 93.1386601,96.8522616 C92.4505808,99.9706251 96.8133754,97.0190723 95.5128436,102.548721 C96.1141381,102.955789 96.7104735,103.267003 97.3489615,103.044174 C96.8964409,110.464759 96.2505142,110.620365 88.1373775,120.365096 C87.8187534,111.291343 84.9127032,106.763803 81.6905085,104.012672 L81.6905085,103.762456 C84.5581254,105.012291 87.3005243,104.183217 89.8098441,104.539245 C70.39609,84.6066163 89.0002661,82.6820694 90.711166,62.1867655 L90.8996129,62.1867655 L90.8996129,62.1855207 Z" id="Shape"></path>
                    <path d="M74.0174946,15.6416116 C81.8343233,23.5377312 89.7900076,19.0662096 99.1379676,24.445231 C91.7339865,24.6767742 95.9876803,34.9704858 87.3662328,27.6557138 C82.394705,26.3162491 79.6151126,33.6422248 87.0637259,34.8534693 C86.7029492,39.4196 89.8234817,41.3989205 92.2497361,43.0981485 C69.0310894,41.6304637 85.1978532,29.404736 73.5314999,17.9470843 C73.6926716,17.1790084 73.8563229,16.4096876 74.0162549,15.6416116 L74.0174946,15.6416116 Z" id="Shape"></path>
                    <path d="M14.8277987,113.42378 C26.169329,115.322185 35.9115398,123.300465 42.1724414,134 C34.9296321,127.78817 31.2462383,124.820434 21.9491093,123.427441 L21.1692861,123.326607 C18.8459337,117.546742 17.8107154,116.410189 14.8277987,113.422536 L14.8277987,113.42378 Z" id="Shape"></path>
                    <path d="M8.08090232,62.1357264 C7.64573866,68.2666407 5.86541099,69.4729058 7.43249607,76.8598794 C4.76448414,76.4416079 3.69703141,74.7137482 1.37615857,75.0274519 C2.39154044,75.5453118 2.70768497,76.0295607 2.12250764,77.105116 C5.94351729,77.5395706 11.8895141,81.1533867 9.79552151,89.9719443 C9.31820525,88.0847431 7.53539802,88.0312143 7.17834066,85.1804948 C5.7302747,92.2027257 4.61571024,92.4591659 5.84185513,96.8024674 C6.52993441,99.9233206 2.16713981,96.9717678 3.46767164,102.502662 C2.86265779,102.909729 2.27004175,103.220943 1.63155377,102.998114 C2.08407438,110.416209 2.73000106,110.574306 10.8406582,120.316546 C11.1617618,111.245283 14.0690518,106.717743 17.2912465,103.966612 L17.2912465,103.716396 C14.4236296,104.963741 11.6812307,104.137157 9.16943135,104.493186 C28.585665,84.5568221 9.97900932,82.6360098 8.26810947,62.1369713 L8.0821421,62.1369713 L8.08090232,62.1357264 Z" id="Shape"></path>
                    <path d="M25.1179934,15.7001198 C17.3036443,23.5937497 9.34796003,19.1222281 0,24.5012495 C7.40150151,24.7352824 3.15028733,35.0265043 11.7717348,27.714222 C16.7407831,26.3747573 19.522855,33.700733 12.0742417,34.9119776 C12.4325389,39.4756185 9.31200634,41.454939 6.88823155,43.1566567 C30.1043986,41.6889719 13.9401144,29.4632442 25.6064677,18.0055926 C25.4428164,17.2375166 25.2816447,16.4681958 25.1179934,15.7001198 Z" id="Shape"></path>
                    <g transform="translate(32.383119, 0.000000)" id="Shape">
                        <path d="M5.39677321,9.9376829 C5.61869428,9.21068718 5.56910298,9.40612952 5.55422559,8.392817 L7.06800002,9.0613045 C6.49150116,9.42106779 6.03650098,9.71609859 5.39553343,9.93892775 L5.39677321,9.9376829 Z M9.14835505,2.67270515 C7.55895389,3.18185112 9.33184286,3.4407811 6.70226418,5.17610992 C6.09725032,5.57695345 5.68440275,5.77986492 5.12402106,6.14834221 C3.26930645,7.36830077 4.96284934,7.4517061 2.82794388,8.99408229 C1.92910157,9.6426521 2.2452461,9.48953485 1.57204421,10.3024256 C0.354577794,11.7750899 -0.0285149974,11.1850283 0.002479565,13.4631142 C0.0161171725,13.4743179 0.269032802,13.6249454 0.410368007,13.7469413 L0.829414491,14.1838856 C2.35682653,14.922085 2.92588669,12.9751308 3.28294405,12.6352852 L6.17783618,10.5501519 C6.20015227,10.5389482 6.26338118,10.5140511 6.28817683,10.5053371 C6.29065639,10.5053371 8.09330014,10.5277445 7.11511175,9.59534758 C7.20437609,9.60655129 7.32587478,9.56422619 7.37298651,9.66754921 L8.00775515,9.82315617 C8.80617508,9.88166439 8.83716964,8.98785801 9.17191091,8.57581078 C9.20786461,8.52850627 9.25497634,8.46999805 9.29712895,8.42767296 L11.8461218,6.63757049 C12.2068985,6.51557463 12.209378,6.62636679 12.8801004,6.32511171 C12.8751412,5.87073939 12.6643782,5.81596574 12.9135745,5.43628476 C13.5347055,4.49268415 13.4541197,4.86863057 14.6356324,5.1823342 C14.1149237,4.79518408 13.1875664,4.56115121 14.0454959,3.99349702 C14.6356324,3.60136748 15.5406736,3.84037977 15.9175675,3.79556497 C16.7655787,3.69473166 16.9354289,2.76233475 17.7871595,2.91296229 C18.2607564,2.99636762 17.9818053,3.73705675 18.0338762,3.12707747 C18.8409746,2.56191299 18.6103751,2.14364148 20.0695991,1.80130617 C19.6034408,1.03323021 18.4107701,-0.445658334 17.1437124,0.130709846 L9.14959483,2.67021543 L9.14835505,2.67270515 Z M0.829414491,14.1826408 C0.141335205,14.8337003 1.01786143,15.3241734 1.28689423,16.2876917 C2.01588634,16.6001505 2.25764393,17.2063952 2.60354324,17.7889877 L3.35237187,16.9001607 C2.79446975,16.5304386 3.2085571,17.3732059 3.08085951,16.5802328 C3.00895212,16.1096774 2.85025996,16.4793995 3.25318927,16.1121671 C3.22219471,16.0922494 3.15028733,16.069842 3.14284863,16.1071876 C3.14284863,16.1071876 2.92960604,16.1706753 2.77091388,15.8395437 C2.74611823,15.7872597 3.36105035,14.8349451 2.34938783,15.2270747 C3.17880232,14.9457373 3.43667708,15.5357989 3.85572357,15.8345643 C3.88299878,15.7735663 3.94746747,15.6204491 3.96358464,15.6615293 L4.51280829,14.8959431 C5.47487951,13.8291018 7.39902194,14.10297 8.11809579,13.4892562 L11.3427701,10.0372714 C12.1659856,10.1381047 11.6725522,10.4879091 12.3383154,10.3385264 C12.9234928,10.2078166 12.6234654,9.97378371 13.400809,10.0073948 L13.1850869,8.89075927 C15.0435208,8.09405163 14.5302509,6.73591409 13.7950598,5.56948431 C15.6200197,6.36245738 14.7013409,6.54669602 15.470006,7.67702498 L15.766314,7.6932081 C17.0941211,7.72681921 17.8404701,7.32348597 18.9550346,6.6512639 L19.26622,6.47573925 C19.3083726,6.44835242 19.3716015,6.41225161 19.4100348,6.38113022 C19.7844491,6.08858913 19.3319285,6.54545117 19.8811521,5.86824968 C19.9171058,5.82343487 19.961738,5.75745752 19.9976917,5.71264272 L21.1345722,4.26487556 C22.0668887,3.46567821 21.1184551,4.70430962 22.0631693,3.4855959 C21.4370792,2.66648087 20.9758801,2.06895014 20.0695991,1.80379588 C18.6116148,2.14613119 18.8409746,2.5644027 18.0338762,3.12956718 C17.9818053,3.73954646 18.2607564,2.99885733 17.7871595,2.915452 C16.9354289,2.76482447 16.7668185,3.69846623 15.9175675,3.79805468 C15.5406736,3.84286949 14.6368722,3.60261234 14.0454959,3.99598673 C13.1888062,4.56364092 14.1149237,4.79767379 14.6356324,5.18482391 C13.4541197,4.86987542 13.5347055,4.49392901 12.9135745,5.43877447 C12.6643782,5.81721059 12.8751412,5.8732291 12.8801004,6.32760142 C12.209378,6.6288565 12.2056587,6.51681949 11.8461218,6.6400602 L9.29712895,8.43016267 C9.25497634,8.47248776 9.20786461,8.53099598 9.17191091,8.57830049 C8.83592986,8.99034772 8.80617508,9.8841541 8.00775515,9.82564589 L7.37298651,9.67003892 C7.32587478,9.5667159 7.20437609,9.609041 7.11511175,9.5978373 C8.09453992,10.5302342 6.29189617,10.5078268 6.28817683,10.5078268 C6.26338118,10.5165408 6.19891249,10.5414379 6.17783618,10.5526416 L3.28294405,12.6377749 C2.92464691,12.9776205 2.35682653,14.9233299 0.829414491,14.1863753 L0.829414491,14.1826408 Z M15.9758373,14.0071161 C15.5927445,15.9926609 15.6076219,17.596035 14.603398,19.2753454 L15.213371,14.801334 L14.8662319,15.2669101 C14.4248694,16.0051095 14.4137113,16.3698522 14.3864361,17.182743 C14.4695015,16.8267142 14.8389567,16.9873006 14.1236022,16.9574241 C12.2961628,16.8827327 12.847866,19.7222485 10.2443228,18.3690904 L9.8810665,18.1599547 C11.1344866,20.8774746 10.2468023,20.0533802 9.32688373,22.7908178 C10.6497317,23.9012291 13.7777029,21.9443159 14.2909728,25.152309 C14.4930574,24.8572782 14.6988613,25.0514757 14.3963544,23.7269493 C14.8538341,23.5377312 14.1855913,23.5626283 14.6765452,23.7319287 L14.9393791,23.8539245 C14.9616952,23.8651282 15.0336026,23.9149225 15.0869132,23.9323505 C15.2778397,23.1057663 15.5419134,23.1754782 15.9274857,22.7596964 L16.479189,21.8907871 C17.0036169,21.3505198 17.6854973,20.1255818 18.206206,19.3425676 C18.7603887,18.5047797 19.351765,17.6333807 19.9419015,16.6885353 C21.2151581,14.6556859 22.2516163,12.8929703 21.813973,9.95884544 L21.4060846,10.4605223 C21.3614524,10.3908104 21.3143407,10.298691 21.289545,10.2401828 L21.0229918,9.59161302 C20.953564,9.36629414 20.9597629,9.2044629 20.9287683,8.97914402 C21.1866431,9.36006986 21.0477875,9.43849577 20.9734005,10.2352034 L20.2493675,9.8169319 L20.4328553,11.2671888 C19.3567241,11.2398019 19.5476506,11.3978986 18.8583316,12.1609951 C17.5044891,13.6560668 18.3946529,12.7535464 17.846669,12.5680629 C17.5168869,12.4535362 18.1020642,11.8223944 17.4387806,12.7162008 C16.8697204,13.4880113 17.3470367,13.3062624 16.6564778,13.654822 C16.6254833,13.6710051 16.5486168,13.6797191 16.5176222,13.6934125 C15.9126084,13.9523425 16.3601698,13.2427747 15.977077,14.008361 L15.9758373,14.0071161 Z M7.80071147,17.0059734 C7.50068411,17.958288 7.02460763,18.0479177 5.751351,18.3952324 C3.83464726,18.9218063 4.93929347,18.3479279 3.71562814,18.1275884 C3.87060096,19.0736787 4.04293072,21.0928346 4.39750852,21.8422378 C4.87110543,22.8468363 6.34148747,23.7518464 6.36380356,24.4340273 L7.11015262,24.963091 L9.0380144,19.4782568 C9.19918613,18.2358909 8.99958115,17.9719815 9.8810665,18.1587098 L10.2443228,18.3678456 C12.847866,19.7210037 12.2961628,16.8814879 14.1236022,16.9561792 C14.8389567,16.9873006 14.4707413,16.8254694 14.3864361,17.1814981 C14.4137113,16.3686073 14.4248694,16.0038646 14.8662319,15.2656652 L15.213371,14.8000892 L14.4372672,12.1746886 L13.5917355,12.9850896 C13.361136,13.2328159 13.3090651,13.3336492 13.0152367,13.6137417 L12.7462039,13.852754 C12.7077706,13.8888548 12.6457815,13.9336696 12.6073482,13.9722602 L11.930427,14.8573525 C12.044487,14.6619102 12.2602091,15.1971981 11.9440646,14.2610667 C11.7221435,13.6012932 11.9353861,14.0805626 11.5448546,13.6573117 L10.2864754,15.7486692 C9.0169381,15.1698113 10.710481,14.6009123 7.80195125,17.0047286 L7.80071147,17.0059734 Z M23.0822705,8.49987459 C23.0041642,10.4181972 22.9719299,13.2913241 22.0978832,14.7428258 C21.3688911,15.9478461 19.8328006,17.9358806 19.4472283,19.088617 L20.4849262,18.7686891 C20.5010434,18.7661994 20.5679916,18.7599751 20.5853486,18.7574854 L21.0651444,18.735078 C22.2627743,18.7238743 21.2126785,18.5869402 22.8814258,17.5848313 C24.6344782,16.5291937 23.3884968,16.9138541 24.2315489,15.9366424 C24.664233,15.4349656 24.0765761,15.8395437 24.6084428,15.7225272 C24.6443965,15.7138133 24.7336608,15.7225272 24.7696145,15.7200375 C24.8254047,15.7150581 25.0436064,15.7623626 25.1279117,15.767342 C25.7515222,14.3195749 27.3322449,9.62273441 27.1351195,8.23596518 L26.716073,6.92513215 C26.2164407,7.24754977 26.0366722,7.9882389 25.8507048,8.25339316 C25.5209227,8.72643832 24.6220804,8.80486423 23.8819302,9.79825906 C23.2496412,10.6447609 24.025745,9.01026541 23.6352135,10.2488968 C23.3165894,11.2572299 23.3996549,10.2576108 23.6624887,10.721942 C23.6575296,10.4094832 23.6786059,9.81444218 23.604219,9.53559451 C23.3153496,8.47248776 23.5236331,9.04263166 23.0835103,8.49987459 L23.0822705,8.49987459 Z M2.60354324,17.7889877 C4.2003831,17.3184322 4.41114613,16.5665394 5.35957974,16.0710868 C6.63283636,15.4088236 7.23165131,16.5391526 7.79947169,17.0072183 C10.7080014,14.6046468 9.01445854,15.172301 10.2839958,15.7511589 L11.542375,13.6598014 C11.9329065,14.0830523 11.7196639,13.6037829 11.941585,14.2635564 C12.2577295,15.1996879 12.0420074,14.6643999 11.9279474,14.8598423 L12.6048686,13.9747499 C12.6433019,13.9361593 12.705291,13.8913445 12.7437243,13.8552437 L13.0127571,13.6162314 C13.3065855,13.334894 13.3598962,13.2353056 13.589256,12.9875793 L14.4347876,12.1771783 L13.3970897,10.0086397 C12.6209858,9.97502857 12.9197734,10.2090614 12.3345961,10.3397713 C11.6688329,10.4903988 12.1622663,10.1393495 11.3390507,10.0385162 L8.11437644,13.490501 C7.39654238,14.10297 5.47116016,13.8303466 4.50908894,14.8971879 L3.9598653,15.6627742 C3.94374812,15.6204491 3.87927943,15.7735663 3.85200422,15.8358091 C3.43295773,15.5382886 3.17508298,14.9469822 2.34566848,15.2283195 C3.357331,14.83619 2.74239888,15.7885046 2.76719453,15.8407885 C2.92464691,16.1719201 3.13912928,16.1084325 3.13912928,16.1084325 C3.14780776,16.0723317 3.21971515,16.0947391 3.24946993,16.1134119 C2.8477804,16.4806444 3.00523277,16.1109222 3.07714016,16.5814777 C3.20483776,17.3744507 2.79199018,16.5316834 3.34865252,16.9014056 L2.5998239,17.7902325 L2.60354324,17.7889877 Z M15.4675264,7.67578013 C15.088153,8.49738487 14.6988613,9.23558429 14.1694742,9.76091339 C14.3938748,10.6659235 14.848875,12.0526927 15.4972812,12.6004292 L15.0893928,11.9232277 C17.38547,11.4277751 16.0465049,10.8153062 17.2106606,9.89037838 C18.291751,9.03267282 18.4033314,10.7592876 22.1772293,6.65997789 L22.0606898,3.48310619 C21.1147357,4.70306476 22.0631693,3.4631885 21.1320927,4.26238585 L19.9952121,5.71015301 C19.9592584,5.75496781 19.9146263,5.82094516 19.8786726,5.86575997 C19.3294489,6.54296146 19.7819695,6.08609942 19.4075552,6.37864051 C19.369122,6.4097619 19.3046533,6.44586271 19.2637404,6.47324954 L18.952555,6.64877419 C17.8379906,7.3197514 17.0916415,7.72308464 15.7638345,7.69071839 L15.4675264,7.67453527 L15.4675264,7.67578013 Z M14.2884933,25.1498193 C14.335605,27.8760533 13.2619534,28.7026374 10.9881923,28.8507752 L11.4047592,31.3479557 C12.2639285,31.4699516 12.3668304,31.3641389 12.790836,31.5732746 C12.5379204,30.517637 12.4970076,30.2811144 13.2396373,29.5939541 L13.5309862,29.3686352 C14.5017359,28.706372 15.3633847,28.8781621 16.0378264,27.808831 C16.0688209,27.8897467 16.1630444,27.9034401 16.1952788,28.0067631 C16.6081263,29.2379254 15.6076219,27.5922262 16.6800337,28.2383063 L16.7878948,27.6420204 C16.8907967,27.0519588 16.8374861,27.619613 17.3755517,27.6644278 C17.3086034,26.9262284 17.7301295,26.4843046 18.0326364,26.0137492 C18.445484,25.3676691 18.5434268,25.022844 18.9785905,24.4377619 L17.1821456,24.7751178 C16.4717503,25.437381 16.4667911,22.4920524 16.4754696,21.8907871 L15.9237664,22.7596964 C15.538194,23.1742333 15.2753601,23.1045214 15.0831939,23.9323505 C15.031123,23.9161673 14.9579758,23.8651282 14.9356597,23.8539245 L14.6728259,23.7319287 C14.181872,23.5626283 14.8501148,23.5364863 14.392635,23.7269493 C14.6951419,25.0527206 14.489338,24.8572782 14.2872535,25.152309 L14.2884933,25.1498193 Z M22.526848,20.8612915 C22.0470521,21.0281022 22.4710578,20.7330714 22.0532511,21.2571556 C21.8784417,21.4737605 21.9119159,21.4824745 21.7643817,21.7302008 C21.4866705,22.1870628 21.3701309,22.3650772 21.0515068,22.840612 C21.3453353,24.686733 22.0222565,23.2613732 22.5045319,25.5469283 C22.7016573,26.4768355 22.3830332,26.1257862 22.8367936,26.5465474 L23.0897092,26.4357552 C23.9352409,25.764778 23.6885242,26.179315 23.843497,25.255632 L23.8298594,23.0310749 L25.1328708,23.0447684 L25.3014812,22.6775359 C25.9610455,21.8534415 25.171304,22.3352006 26.1333753,21.5882872 C27.8889073,20.2264151 32.0892904,17.5400165 27.7475721,18.4027015 C27.1537163,18.5222077 26.0478303,19.4471354 25.3237973,20.0098102 L24.0815352,20.7392956 C22.9025021,21.2235445 23.119464,21.0766515 22.5256082,20.8612915 L22.526848,20.8612915 Z M15.4972812,12.6004292 C15.5059597,12.998783 15.441491,12.9626822 15.5580306,13.3187109 C15.9845157,14.6270542 15.5245564,13.4519105 15.9745975,14.0058713 C16.3576903,13.240285 15.9113686,13.9498528 16.5151426,13.6909228 C16.5461372,13.6772294 16.6230037,13.6685154 16.6539983,13.6523322 C17.3445571,13.3037727 16.8672409,13.4855216 17.436301,12.7137111 C18.0995847,11.8199047 17.5144073,12.4522914 17.8441895,12.5655732 C18.3934131,12.7523016 17.5032493,13.654822 18.855852,12.1585054 C19.5464109,11.3954089 19.3554843,11.2373122 20.4303758,11.2646991 L20.246888,9.81444218 L20.9709209,10.2327137 C21.0453079,9.43600606 21.1841635,9.358825 20.9262888,8.97665431 C20.9572833,9.20197319 20.9510844,9.36380443 21.0205122,9.58912331 L21.2870655,10.2376931 C21.3118611,10.2962013 21.3589729,10.3883207 21.403605,10.4580326 L21.8114935,9.95635573 L22.1772293,6.65997789 C18.4033314,10.7580428 18.291751,9.03267282 17.2106606,9.89037838 C16.0465049,10.8153062 17.38547,11.4277751 15.0893928,11.9232277 L15.4972812,12.6004292 Z M25.5358001,17.7043375 C26.7842611,17.9433498 26.3540565,17.5736276 27.9285803,16.3312617 L28.870815,15.5183709 C28.9042891,15.4822701 28.9489213,15.4150479 28.984875,15.3789471 L29.8217282,14.7975995 L29.9742214,13.1220237 C29.9965375,13.2054291 30.0572869,13.5141533 30.0796029,13.5701718 C30.3176412,14.1664576 29.9630634,13.3672603 30.2271371,13.896324 L30.4292216,14.2249659 C31.0639903,12.8879909 29.9965375,14.6170954 30.6449438,12.8967048 C30.6920555,13.1668385 30.7168512,13.5701718 30.7949574,13.826612 C31.0664698,14.7092147 32.838119,14.7316221 33.4270157,15.3602742 C33.8101085,13.7905112 30.95117,12.6589374 30.1911834,11.6406455 C29.2539078,10.3870758 29.4485537,10.0310471 28.061237,9.44347519 C28.4579674,11.8435569 28.4666459,11.6294418 27.4450651,13.7867767 C26.7743428,15.2096467 26.2300783,16.3648728 25.5345603,17.7043375 L25.5358001,17.7043375 Z M19.4459885,19.088617 C18.6922007,19.6985963 17.4858923,21.494923 17.3656334,22.6464145 C17.7871595,23.4978958 17.1213963,22.9999536 18.3748164,23.0945626 C18.5657429,23.1107457 19.4732637,23.0472581 19.7497352,23.0522375 C20.1985364,20.9832873 21.2808666,20.2488225 22.498333,19.3550161 C23.4306494,18.6728352 23.2273251,18.5359011 24.0294644,17.8263333 C25.1502277,16.8354282 24.5142193,17.1864775 25.1241923,15.7660972 C25.0411269,15.7611178 24.8216854,15.7138133 24.7658952,15.7187927 C24.7299415,15.7212824 24.6406771,15.7138133 24.6047234,15.7212824 C24.0728567,15.8382988 24.6605137,15.4349656 24.2278296,15.9353976 C23.3847775,16.9126093 24.6295191,16.5279489 22.8777064,17.5835865 C21.2089592,18.5856953 22.259055,18.7226294 21.0614251,18.7338331 L20.5816292,18.7562405 C20.5655121,18.7587302 20.4985638,18.7649545 20.4812069,18.7674442 L19.4435089,19.0873721 L19.4459885,19.088617 Z M25.5358001,17.7043375 C25.2940425,18.0379588 24.7200232,18.7624648 24.1212083,19.2193268 C23.3116303,19.8405098 23.2422025,19.8542032 22.526848,20.8625363 C23.1207038,21.0766515 22.9037419,21.2247893 24.082775,20.7405405 L25.3250371,20.0110551 C26.04907,19.4483803 27.154956,18.5246974 27.7488119,18.4039464 C30.3548347,17.8860864 31.9243993,19.1421458 33.4282555,15.3602742 C32.8405986,14.7316221 31.0689494,14.7092147 30.7961972,13.826612 C30.7180909,13.5701718 30.6932953,13.1668385 30.6461835,12.8967048 C29.9977773,14.6170954 31.06523,12.8879909 30.4304614,14.2249659 L30.2283768,13.896324 C29.965543,13.3672603 30.3201208,14.1664576 30.0808427,13.5701718 C30.0585266,13.5141533 29.9977773,13.2054291 29.9754612,13.1220237 L29.822968,14.7975995 L28.9861148,15.3789471 C28.9501611,15.4150479 28.9055289,15.4822701 28.8720548,15.5183709 L27.9298201,16.3312617 C26.3552963,17.5736276 26.7842611,17.9433498 25.5370399,17.7043375 L25.5358001,17.7043375 Z M8.67351835,24.3817434 C9.42730611,24.3979265 10.978274,24.359336 11.6489963,24.4676384 C12.9247325,24.6792639 12.7635608,25.1448399 12.6606589,26.4220618 L10.613778,27.4801891 L10.9881923,28.8495304 C13.2619534,28.7013926 14.335605,27.8748084 14.2884933,25.1485745 C13.7752233,21.9405814 10.6472521,23.8987394 9.32440416,22.7870832 L8.67227857,24.3792536 L8.67351835,24.3817434 Z M10.6150177,27.4801891 L12.6618986,26.4220618 C12.7648006,25.143595 12.9247325,24.6792639 11.6502361,24.4676384 C10.9795138,24.359336 9.42854589,24.3979265 8.67475813,24.3817434 C7.6432591,27.2100555 8.71319139,27.6594484 10.174895,30.5238613 C10.3695408,29.2341908 9.87486759,27.6420204 10.3744999,25.6739036 L10.6162575,27.481434 L10.6150177,27.4801891 Z M23.2434423,4.3171595 C23.2124477,5.60309542 23.2744368,7.10937079 23.0822705,8.49987459 C23.5236331,9.04263166 23.3153496,8.47248776 23.6029792,9.53559451 C23.6773661,9.81444218 23.65505,10.4094832 23.661249,10.721942 C23.3984151,10.256366 23.3141099,11.2559851 23.6339737,10.2488968 C24.0245052,9.01026541 23.2484014,10.6447609 23.8806905,9.79825906 C24.6208406,8.80486423 25.5196829,8.72643832 25.8494651,8.25339316 C26.0354324,7.98948376 26.2152009,7.24879463 26.7148332,6.92513215 C26.4185252,6.66869188 24.2278296,3.61755061 24.0195461,3.24658361 C23.6649683,3.87025631 23.6674479,3.20425852 23.2434423,4.31840436 L23.2434423,4.3171595 Z M19.7633728,24.6879779 C20.2518471,24.8522988 20.6175829,24.6742844 20.7279236,25.5618665 C20.7638773,25.8456936 20.5803895,26.3660433 20.400621,26.5838931 C19.8241221,27.266074 18.9835496,27.0295514 18.0735492,26.8926173 C17.4028269,28.2034503 18.0214784,27.3270719 17.3780313,27.6644278 L17.2416552,28.7113514 C17.8677453,28.3304256 17.9793258,28.2768968 18.9141218,28.326691 C19.0690946,28.335405 19.465825,28.3851992 19.6046806,28.4437074 C20.3621877,28.7611456 19.8067652,28.1486766 20.2096945,29.0113616 C21.1420109,28.1150655 20.5506347,28.1125758 21.9069567,27.6631829 C21.9181148,27.1727098 21.7185098,27.5772879 22.1065617,27.075611 C22.4388234,26.6436461 22.3867526,26.7693766 22.8380334,26.5465474 C22.3830332,26.1257862 22.7016573,26.4768355 22.5057717,25.5469283 C22.0234963,23.2613732 21.346575,24.686733 21.0527466,22.840612 C20.5642723,23.4804678 20.303918,24.1377516 19.7633728,24.686733 L19.7633728,24.6879779 Z M12.7920758,31.5732746 C13.0449914,32.0861552 13.9512724,33.174159 14.0207003,33.5662886 L14.3839565,33.1592208 C14.4112317,33.1094265 14.47818,33.0173072 14.5054552,32.958799 L14.6381119,32.4135522 C15.0373219,33.0098381 15.2505645,33.0210418 14.8935071,33.9534387 L15.7340797,32.9899204 C15.2518043,30.5699209 15.9498018,32.2828424 16.0527038,30.8686863 C16.2163551,29.3063924 16.2361916,29.4707134 16.6825133,28.2370614 C15.6088616,27.5909813 16.6106059,29.2366805 16.1977583,28.0055182 C16.1642842,27.9021952 16.0700607,27.8885018 16.0403059,27.8075862 C15.3658643,28.8769172 14.5042154,28.7038823 13.5334657,29.3673904 L13.2421169,29.5927092 C12.4994871,30.2798696 12.5404,30.517637 12.7933156,31.5720298 L12.7920758,31.5732746 Z M14.0207003,33.5662886 L14.1236022,36.4145184 C15.4042975,36.8327899 14.4509048,36.2663805 15.3993384,36.2813188 L15.6993658,36.3261336 C15.8382214,35.900393 15.8431805,35.9501872 15.9708781,35.6302593 C16.0018727,35.5580577 16.0898972,35.3265145 16.1208918,35.2543129 L16.2981807,34.8671628 C16.3180172,34.8223479 16.3539709,34.7339632 16.3924042,34.6717204 C16.5424179,35.365105 16.6887122,35.53814 17.0085761,36.0634691 L17.8627862,32.9139842 L17.8652658,33.053408 L15.7353195,32.9899204 L14.8947469,33.9534387 C15.2530441,33.0210418 15.0385617,33.0098381 14.6393517,32.4135522 L14.506695,32.958799 C14.4794198,33.0173072 14.4124715,33.1094265 14.3851963,33.1592208 L14.02194,33.5662886 L14.0207003,33.5662886 Z M14.1236022,36.4145184 L14.6703463,38.583057 C15.2827988,39.1096309 15.7353195,40.5910092 16.6006876,40.9582416 L17.0085761,36.0634691 C16.689952,35.5368951 16.5424179,35.365105 16.3924042,34.6717204 C16.3539709,34.7327183 16.3180172,34.8223479 16.2981807,34.8671628 L16.1208918,35.2543129 C16.0898972,35.3265145 16.0018727,35.5580577 15.9708781,35.6302593 C15.8431805,35.9501872 15.8382214,35.900393 15.6993658,36.3261336 L15.3993384,36.2813188 C14.4509048,36.2676254 15.4042975,36.8327899 14.1236022,36.4145184 Z M16.7692981,31.4500339 L18.006601,31.3392418 C19.0294215,30.4367214 18.4727592,29.4794274 20.2109343,29.0113616 C19.8092447,28.1486766 20.3634275,28.7611456 19.6059204,28.4437074 C19.4670648,28.3851992 19.0703344,28.335405 18.9153616,28.326691 C17.9805656,28.2768968 17.8702249,28.3291807 17.242895,28.7113514 L16.7692981,31.4512788 L16.7692981,31.4500339 Z M23.244682,4.31591464 C23.6686877,3.20176881 23.6662081,3.8677666 24.0207859,3.2440939 C22.5479243,1.10792156 22.0569704,1.3705861 20.5903077,1.21995857 C21.0812616,2.01044192 21.4643544,1.99923822 21.9937415,2.62664549 C22.5293275,3.25280789 22.5541232,3.75199502 23.244682,4.3171595 L23.244682,4.31591464 Z M15.7353195,32.9886755 L17.8652658,33.0521632 L18.006601,31.336752 L16.7692981,31.4475442 C16.6998702,31.3915257 16.6118457,31.3305278 16.5535759,31.285713 C16.5039846,31.2471224 16.4097611,31.1749208 16.3589301,31.1350854 C16.3068592,31.0927603 16.1146929,30.9259497 16.0539436,30.8649517 C15.9510416,32.2791078 15.2530441,30.5674312 15.7353195,32.9861858 L15.7353195,32.9886755 Z M18.0760288,26.8913724 C18.9860292,27.0283065 19.8253619,27.2648291 20.4031006,26.5826482 C20.582869,26.3660433 20.7663568,25.8444488 20.7304031,25.5606217 C20.6200625,24.6717947 20.2530869,24.8510539 19.7658524,24.686733 C19.5464109,25.0938008 19.2699394,25.4909098 18.9612335,25.8556525 C18.4591216,26.4544281 18.4975549,26.2701894 18.0760288,26.8913724 Z M11.4072388,31.3467109 C11.5932061,33.2874409 11.5870072,33.579982 12.8156317,34.9804446 L12.7933156,31.5720298 C12.36931,31.362894 12.266408,31.4687067 11.4072388,31.3467109 Z M17.185865,24.772628 L18.9823098,24.4352721 L19.7534545,23.0509926 C19.4757432,23.0460132 18.5694622,23.1095009 18.3785357,23.0933177 C17.1251156,22.9987087 17.7908788,23.496651 17.3693528,22.6451697 C17.0866824,23.2663527 17.1920639,24.0954265 17.185865,24.772628 Z M16.6837531,28.2358165 C16.2374314,29.4694685 16.2175948,29.3051476 16.0539436,30.8674414 C16.1146929,30.9284394 16.3068592,31.09525 16.3589301,31.1375751 C16.4085214,31.1761657 16.5027448,31.2483673 16.5535759,31.2882027 C16.6118457,31.3330175 16.70111,31.3940154 16.7692981,31.4500339 L17.242895,28.7101066 L17.379271,27.6631829 C16.8412054,27.6183681 16.8945161,27.0507139 16.7916141,27.6407755 L16.6837531,28.2370614 L16.6837531,28.2358165 Z M23.8459766,25.2543872 C24.2625435,24.7004264 24.8551595,24.0431426 25.1353503,23.0435235 L23.8323389,23.0298301 L23.8459766,25.2543872 Z"></path>
                        <path d="M33.4282555,15.3615191 C30.044889,16.4196464 14.0616131,24.3356837 16.5994479,40.9607313 C19.4025961,34.4451567 24.1695598,31.4326059 27.1066045,29.2939439 C27.696741,28.8619789 24.33941,28.542051 24.8935928,28.1611252 C28.6984852,25.5519077 33.9502039,23.5339966 33.4294953,15.3615191 L33.4282555,15.3615191 Z"></path>
                    </g>
                </g>
            </g>
        </g>
    </g>
</svg>