<?xml version="1.0" encoding="UTF-8"?>
<!DOCTYPE svg PUBLIC "-//W3C//DTD SVG 1.1//EN" "http://www.w3.org/Graphics/SVG/1.1/DTD/svg11.dtd">
<!-- Creator: CorelDRAW 2017 -->
<svg xmlns="http://www.w3.org/2000/svg" xml:space="preserve" width="98.3395mm" height="12.051mm" version="1.1" style="shape-rendering:geometricPrecision; text-rendering:geometricPrecision; image-rendering:optimizeQuality; fill-rule:evenodd; clip-rule:evenodd"
viewBox="0 0 9833960 1205101"
 xmlns:xlink="http://www.w3.org/1999/xlink">
 <defs>
  <style type="text/css">
   <![CDATA[
    .fil0 {fill:#48587F;fill-rule:nonzero}
   ]]>
  </style>
 </defs>
 <g id="Слой_x0020_1">
  <metadata id="CorelCorpID_0Corel-Layer"/>
  <path class="fil0" d="M590081 471950c60570,12880 105790,33440 135940,61940 41660,39470 62490,87980 62490,145260 0,43850 -13700,85790 -41380,125800 -27410,39740 -65230,68790 -113200,86880 -47960,18370 -121140,27410 -219530,27410l-414400 0 0 -24120 32890 0c37000,0 63590,-11510 79480,-34530 9590,-15080 14530,-47140 14530,-96200l0 -566241c0,-54540 -6030,-88800 -18370,-102770 -17260,-19190 -42480,-28780 -75640,-28780l-32890 0 0 -24120 379050 0c70710,0 127440,5210 170190,15900 64690,15620 114290,43030 148280,82490 33980,39190 50980,84690 50980,135940 0,43850 -13430,83320 -40290,118130 -26860,34810 -66050,60570 -118130,77010zm-338750 -35350c15620,3290 33710,5750 54260,7400 20560,1370 43310,2190 67700,2190 62760,0 109900,-6580 141700,-20280 32060,-13710 56450,-34540 73170,-62760 17000,-27960 25220,-58660 25220,-91820 0,-50980 -20830,-94550 -63040,-131010 -41930,-36450 -102780,-54540 -182530,-54540 -43310,0 -82220,4940 -116480,14530l0 336290zm0 419330c49880,11780 98940,17540 147720,17540 78110,0 137860,-17540 178700,-52620 40840,-35080 61390,-78660 61390,-130460 0,-34260 -9320,-67150 -27950,-98390 -18920,-31250 -49060,-55910 -90720,-74280 -41940,-18090 -93460,-27400 -155130,-27400 -26860,0 -49610,540 -68520,1640 -19180,1100 -34260,2740 -45490,4930l0 359040zm1079571 -21930c-60570,46600 -98400,73730 -114020,81130 -23570,10690 -48510,16170 -74550,16170 -40830,0 -74270,-13980 -100850,-41660 -26590,-27960 -39750,-64960 -39750,-111000 0,-28780 6310,-53720 19190,-74550 17810,-29600 48240,-57000 92090,-82770 43580,-25760 116210,-57280 217890,-94830l0 -23290c0,-58660 -9320,-99220 -28230,-121140 -18640,-21930 -45770,-32890 -81680,-32890 -26860,0 -48230,7120 -64400,21650 -16450,15070 -24940,31790 -24940,50700l1640 37550c0,20010 -4930,35080 -15070,45770 -10140,10690 -23300,16170 -39470,16170 -15900,0 -29050,-5750 -39190,-16990 -10420,-11240 -15350,-26310 -15350,-45770 0,-36730 18910,-70710 57010,-101960 38090,-30970 91260,-46590 159780,-46590 52350,0 95650,9050 129360,26590 24940,13430 43860,34260 56190,62760 7400,18640 11240,56730 11240,114010l0 200620c0,56190 1090,90720 3010,103600 2190,12890 5760,21380 10960,25770 4940,4110 10690,6300 17270,6300 6850,0 12880,-1640 17540,-4660 9320,-5480 26860,-21100 53170,-46590l0 35900c-48780,64410 -95100,96480 -138950,96480 -20830,0 -37550,-7130 -50160,-21650 -12610,-14530 -19190,-39470 -19730,-74830zm0 -42480l0 -225560c-64680,26310 -106890,44670 -126080,55360 -33710,18640 -57830,38650 -72630,59480 -14800,20830 -22200,43300 -22200,67420 0,30970 9320,56730 27690,77560 18630,20560 39740,30700 63850,30700 32620,0 75920,-21650 129370,-64960zm548961 -791521l0 785221c0,37270 2470,62210 7950,74270 5210,12060 13700,21110 24940,27140 11240,6300 32070,9310 62490,9310l0 23300 -289700 0 0 -23300c27140,0 45770,-2740 55640,-8490 9870,-5480 17540,-14800 23020,-27680 5210,-12890 7950,-37830 7950,-74550l0 -537191c0,-66870 -1370,-107980 -4380,-123330 -3020,-15350 -7680,-25760 -14530,-31240 -6580,-5760 -15070,-8500 -25220,-8500 -11230,0 -25480,3560 -42480,10420l-11230 -23300 176500 -72080 29050 0zm592001 834001c-60570,46600 -98400,73730 -114020,81130 -23570,10690 -48510,16170 -74550,16170 -40830,0 -74270,-13980 -100850,-41660 -26590,-27960 -39750,-64960 -39750,-111000 0,-28780 6310,-53720 19190,-74550 17810,-29600 48240,-57000 92090,-82770 43580,-25760 116210,-57280 217890,-94830l0 -23290c0,-58660 -9320,-99220 -28230,-121140 -18640,-21930 -45770,-32890 -81680,-32890 -26860,0 -48230,7120 -64400,21650 -16450,15070 -24940,31790 -24940,50700l1640 37550c0,20010 -4930,35080 -15070,45770 -10140,10690 -23300,16170 -39470,16170 -15900,0 -29050,-5750 -39190,-16990 -10420,-11240 -15350,-26310 -15350,-45770 0,-36730 18910,-70710 57010,-101960 38090,-30970 91260,-46590 159780,-46590 52350,0 95650,9050 129360,26590 24940,13430 43860,34260 56190,62760 7400,18640 11240,56730 11240,114010l0 200620c0,56190 1090,90720 3010,103600 2190,12890 5760,21380 10960,25770 4940,4110 10690,6300 17270,6300 6850,0 12880,-1640 17540,-4660 9320,-5480 26860,-21100 53170,-46590l0 35900c-48780,64410 -95100,96480 -138950,96480 -20830,0 -37550,-7130 -50160,-21650 -12610,-14530 -19190,-39470 -19730,-74830zm0 -42480l0 -225560c-64680,26310 -106890,44670 -126080,55360 -33710,18640 -57830,38650 -72630,59480 -14800,20830 -22200,43300 -22200,67420 0,30970 9320,56730 27690,77560 18630,20560 39740,30700 63850,30700 32620,0 75920,-21650 129370,-64960zm517441 -356570c69620,-83320 135940,-125250 199250,-125250 32070,0 59750,8220 83050,24120 23290,16170 41930,42480 55910,79480 9040,26310 13700,66330 13700,119770l0 252150c0,37270 3020,62760 9600,76190 4660,10690 12330,19190 22740,25220 10420,6300 29880,9310 58380,9310l0 23300 -293260 0 0 -23300 12880 0c27410,0 46600,-4110 57560,-12330 10960,-8500 18360,-20830 22750,-37550 2190,-6300 3290,-26580 3290,-60840l0 -242560c0,-53440 -7130,-92360 -21380,-116750 -14250,-24390 -37820,-36730 -70990,-36730 -51520,0 -102500,28230 -153480,84420l0 311620c0,40010 2470,64950 7400,74550 6310,12330 14800,21370 25220,27400 10410,5760 31790,8770 63860,8770l0 23300 -292170 0 0 -23300 12610 0c30150,0 50430,-7670 61120,-22740 10690,-15350 16170,-44680 16170,-87980l0 -219260c0,-71260 -1640,-114560 -4930,-130190 -3290,-15340 -8220,-26030 -14800,-31510 -6850,-5760 -15620,-8500 -26860,-8500 -12330,0 -26860,3290 -43310,9590l-9860 -23290 178420 -72360 27130 0 0 125250zm964731 -125250l0 201720 -20830 0c-16720,-63310 -37820,-106340 -63580,-129360 -25490,-23030 -58380,-34540 -97850,-34540 -30150,0 -54260,7950 -73170,24120 -18640,16170 -27960,33710 -27960,52900 0,24120 6850,44670 20830,61940 13430,17540 40560,36450 81950,56180l93730 46600c87980,42200 131830,98390 131830,168550 0,53450 -20560,97020 -61390,130190 -41110,33160 -86610,49600 -137040,49600 -35900,0 -77010,-6570 -123610,-20000 -14520,-4390 -26310,-6310 -35350,-6310 -9590,0 -17270,5480 -23300,16720l-20830 0 0 -211040 20830 0c12330,60300 35630,105800 69620,136490 33980,30420 72080,45770 114280,45770 29600,0 53720,-8770 72360,-26030 18640,-17550 27960,-38650 27960,-63040 0,-30150 -10420,-55090 -31250,-75100 -20830,-20280 -62490,-45770 -124700,-76740 -62490,-30970 -103330,-59200 -122510,-84410 -19460,-24670 -29050,-55640 -29050,-93190 0,-48510 16710,-89350 49880,-121960 33160,-32610 76190,-49060 129360,-49060 23570,0 51800,4930 84960,14530 21930,6570 36450,9590 43310,9590 7120,0 12600,-1370 16440,-4390 4110,-3010 8770,-9590 14250,-19730l20830 0zm981451 -287230l20010 298470 -20010 0c-26590,-89350 -64960,-153760 -114290,-192950 -49610,-39470 -109080,-59200 -178700,-59200 -58370,0 -110990,15070 -157860,44670 -46870,29600 -83590,76740 -110730,141430 -27130,64400 -40560,144710 -40560,241180 0,79210 12610,148000 38100,205830 25490,58100 63860,102780 114830,133750 51250,31240 109360,46590 174590,46590 57280,0 107710,-12060 151010,-36450 43310,-24390 91270,-72630 143620,-144990l19460 12880c-43860,78120 -95110,135400 -153760,171300 -58650,36180 -128270,54270 -208570,54270 -144980,0 -257350,-53720 -337110,-161430 -59470,-80310 -89070,-174590 -89070,-283390 0,-87160 19460,-167460 58650,-240910 38920,-73180 92910,-130190 161700,-170480 68790,-40560 143890,-60570 225290,-60570 63040,0 125530,15350 186920,46320 18360,9870 31520,14530 39460,14530 11790,0 21930,-3840 30430,-12060 11230,-11790 19180,-27960 23290,-48790l23300 0zm509501 287230c89890,0 161970,33990 215970,101960 46040,58370 69060,125250 69060,200890 0,52900 -12600,106620 -38090,160610 -25490,53990 -60300,94830 -104700,122780 -44400,27960 -94280,41660 -149370,41660 -89070,0 -159780,-35630 -212950,-106610 -43860,-60020 -65780,-127170 -65780,-201720 0,-54540 13430,-108530 40290,-161980 26580,-53720 61940,-93180 105790,-118940 43850,-25770 90440,-38650 139780,-38650zm-20010 41930c-22470,0 -45500,6860 -68790,20290 -23300,13700 -41940,37540 -56190,71530 -14250,33980 -21100,77840 -21100,131280 0,86330 16990,160610 51250,222820 34260,62490 79480,93460 135670,93460 41930,0 76190,-16990 103320,-51250 26860,-34260 40560,-93460 40560,-177600 0,-105240 -22470,-188290 -67420,-248860 -30690,-41110 -69610,-61670 -117300,-61670zm660231 84140c43310,-43300 68790,-68240 76190,-74540 20010,-16170 40840,-28780 63040,-37830 22200,-9040 44400,-13700 66330,-13700 37550,0 69610,10690 96470,32340 26590,21380 44400,52620 52900,93730 44400,-51800 81940,-85780 112920,-101950 30690,-15900 62210,-24120 94280,-24120 31510,0 59470,8220 83860,24120 24400,16170 43580,42480 57280,79480 9870,24670 14530,63860 14530,117300l0 254620c0,37270 2740,62760 8220,76190 4660,9590 12880,17820 24390,24390 11520,6850 30430,10140 56460,10140l0 23300 -292160 0 0 -23300 12880 0c25220,0 44950,-4930 59480,-14520 9590,-6850 16440,-18090 20830,-33710 1640,-6850 2460,-27680 2460,-62490l0 -254620c0,-48230 -5750,-82220 -16990,-101950 -16990,-27960 -44130,-41660 -81120,-41660 -23030,0 -46050,5760 -69070,17270 -23020,11510 -50700,32610 -83320,63580l-1640 7400 1640 27960 0 282020c0,40560 2190,65780 6580,75920 4660,9860 13150,18090 25760,24660 12610,6850 33990,10140 63860,10140l0 23300 -299560 0 0 -23300c32610,0 55360,-3830 67420,-11510 12330,-7950 21100,-19460 25760,-35080 2200,-7400 3290,-28780 3290,-64130l0 -254620c0,-48230 -7120,-82770 -20830,-103600 -19460,-27680 -45770,-41650 -79480,-41650 -23570,0 -46590,6020 -69070,18360 -35900,19180 -63850,40830 -83590,64130l0 317380c0,38920 2740,64410 8500,75920 5480,11510 13700,20000 24120,26030 10410,5760 31520,8770 63860,8770l0 23300 -292440 0 0 -23300c26860,0 45770,-3010 56730,-8770 10970,-6030 19190,-15070 24940,-27680 5480,-12610 8230,-37550 8230,-74270l0 -225840c0,-65230 -1920,-107160 -6310,-125800 -2740,-14520 -7400,-24390 -13700,-29870 -6310,-5210 -15350,-7950 -26590,-7950 -12330,0 -26580,3290 -43300,9590l-9590 -23290 178140 -72360 27410 0 0 126070zm903621 -49600l182250 -74000 24950 0 0 138130c30420,-51800 61110,-88250 91810,-109080 30970,-21100 63310,-31520 97570,-31520 59470,0 109080,23300 148550,69890 48780,56730 73180,131010 73180,222550 0,102230 -29330,186370 -88260,252970 -48230,55090 -109080,82490 -182260,82490 -31790,0 -59200,-4380 -82770,-13430 -17260,-6570 -36450,-19730 -57820,-39460l0 180610c0,40840 2460,66600 7670,77560 4930,10970 13700,19740 25760,26040 12060,6580 34260,9590 66880,9590l0 24120 -310800 0 0 -24120 16170 0c24120,550 44400,-3830 61120,-13700 7940,-4660 14250,-12330 18910,-22750 4380,-10410 6570,-37270 6570,-80580l0 -559651c0,-38650 -1640,-63040 -5200,-73180 -3290,-10140 -8770,-18090 -16450,-23300 -7400,-5480 -17540,-7950 -30420,-7950 -10140,0 -23300,3020 -39470,9600l-7940 -20830zm207200 102770l0 220630c0,48240 1910,79760 5750,94830 6300,24670 21100,46320 44400,65510 23300,18910 52900,28500 88800,28500 43300,0 78110,-16990 104420,-50700 35360,-43850 52900,-105800 52900,-185550 0,-90440 -19740,-159790 -59480,-208570 -27680,-33160 -60570,-49880 -98660,-49880 -20280,0 -40560,5210 -61120,15350 -15350,7400 -41110,30690 -77010,69880zm925261 345060c-60570,46600 -98400,73730 -114020,81130 -23570,10690 -48510,16170 -74550,16170 -40830,0 -74270,-13980 -100850,-41660 -26590,-27960 -39750,-64960 -39750,-111000 0,-28780 6310,-53720 19190,-74550 17810,-29600 48240,-57000 92090,-82770 43580,-25760 116210,-57280 217890,-94830l0 -23290c0,-58660 -9320,-99220 -28230,-121140 -18640,-21930 -45770,-32890 -81680,-32890 -26860,0 -48230,7120 -64400,21650 -16450,15070 -24940,31790 -24940,50700l1640 37550c0,20010 -4930,35080 -15070,45770 -10140,10690 -23300,16170 -39470,16170 -15900,0 -29050,-5750 -39190,-16990 -10420,-11240 -15350,-26310 -15350,-45770 0,-36730 18910,-70710 57010,-101960 38090,-30970 91260,-46590 159780,-46590 52350,0 95650,9050 129360,26590 24940,13430 43860,34260 56190,62760 7400,18640 11240,56730 11240,114010l0 200620c0,56190 1090,90720 3010,103600 2190,12890 5760,21380 10960,25770 4940,4110 10690,6300 17270,6300 6850,0 12880,-1640 17540,-4660 9320,-5480 26860,-21100 53170,-46590l0 35900c-48780,64410 -95100,96480 -138950,96480 -20830,0 -37550,-7130 -50160,-21650 -12610,-14530 -19190,-39470 -19730,-74830zm0 -42480l0 -225560c-64680,26310 -106890,44670 -126080,55360 -33710,18640 -57830,38650 -72630,59480 -14800,20830 -22200,43300 -22200,67420 0,30970 9320,56730 27690,77560 18630,20560 39740,30700 63850,30700 32620,0 75920,-21650 129370,-64960zm517441 -356570c69620,-83320 135940,-125250 199250,-125250 32070,0 59750,8220 83050,24120 23290,16170 41930,42480 55910,79480 9040,26310 13700,66330 13700,119770l0 252150c0,37270 3020,62760 9600,76190 4660,10690 12330,19190 22740,25220 10420,6300 29880,9310 58380,9310l0 23300 -293260 0 0 -23300 12880 0c27410,0 46600,-4110 57560,-12330 10960,-8500 18360,-20830 22750,-37550 2190,-6300 3290,-26580 3290,-60840l0 -242560c0,-53440 -7130,-92360 -21380,-116750 -14250,-24390 -37820,-36730 -70990,-36730 -51520,0 -102500,28230 -153480,84420l0 311620c0,40010 2470,64950 7400,74550 6310,12330 14800,21370 25220,27400 10410,5760 31790,8770 63860,8770l0 23300 -292170 0 0 -23300 12610 0c30150,0 50430,-7670 61120,-22740 10690,-15350 16170,-44680 16170,-87980l0 -219260c0,-71260 -1640,-114560 -4930,-130190 -3290,-15340 -8220,-26030 -14800,-31510 -6850,-5760 -15620,-8500 -26860,-8500 -12330,0 -26860,3290 -43310,9590l-9860 -23290 178420 -72360 27130 0 0 125250zm548691 -107430l275440 0 0 23290 -13700 0c-19190,0 -33710,4110 -43310,12880 -9590,8500 -14520,18910 -14520,31250 0,16990 7400,40290 21920,69890l143620 298740 132380 -326970c7670,-17540 11230,-35360 11230,-52900 0,-7400 -1370,-13150 -4660,-16990 -3280,-4660 -8490,-8500 -16170,-11510 -7400,-3020 -20280,-4390 -38370,-4390l0 -23290 192680 0 0 23290c-16170,2190 -28510,5760 -37000,10690 -8500,5210 -18090,15070 -29050,29330 -3570,6030 -10970,22200 -21660,49060l-240630 590901c-23570,57280 -54270,100580 -92090,130180 -37820,29330 -74000,44130 -108810,44130 -25210,0 -46040,-7400 -62490,-22200 -16720,-14530 -24940,-31250 -24940,-50160 0,-18090 6030,-32610 18090,-43570 12060,-10970 28230,-16450 48510,-16450 14530,0 33990,4390 58650,13430 17000,7130 27690,10420 32070,10420 12880,0 26860,-6580 42210,-20010 15070,-13430 30690,-39190 46040,-77840l42760 -102780 -212960 -446460c-6300,-13430 -16720,-29880 -31240,-49880 -10690,-14800 -19460,-24940 -26590,-30430 -9590,-6850 -25490,-13150 -47410,-18360l0 -23290z"/>
 </g>
</svg>
