<?xml version="1.0" encoding="UTF-8"?>
<svg width="731px" height="524px" viewBox="0 0 731 524" version="1.1" xmlns="http://www.w3.org/2000/svg" xmlns:xlink="http://www.w3.org/1999/xlink">
    <!-- Generator: sketchtool 48.1 (47250) - http://www.bohemiancoding.com/sketch -->
    <title>5D4948B5-D105-425E-ADC6-BB667A26B301</title>
    <desc>Created with sketchtool.</desc>
    <defs></defs>
    <g id="HarrisonWork" stroke="none" stroke-width="1" fill="none" fill-rule="evenodd" transform="translate(-334.000000, -8142.000000)" opacity="0.200000003">
        <g id="Group-15" transform="translate(0.000000, 7979.000000)" fill="#FFFFFF">
            <g id="Location_of_Agryzsky_District_(Tatarstan)">
                <g id="Group-2" transform="translate(184.000000, 12.000000)">
                    <g id="logo">
                        <g transform="translate(131.000000, 0.000000)">
                            <path d="M249.779495,315.965633 L205.12699,315.965633 L205.12699,751.458486 L249.779495,751.458486 L249.779495,315.965633 Z M283.799989,764.597903 C268.637733,760.60352 254.988792,758.099864 249.779495,751.44893 C234.89856,751.44893 220.007925,751.44893 205.12699,751.44893 C198.423779,760.785083 183.950276,763.355631 172.73622,764.597903 L172.73622,781.206127 L283.809689,781.206127 L283.809689,764.597903 L283.799989,764.597903 Z M283.799989,302.845328 C268.637733,306.820599 254.988792,309.324255 249.779495,315.965633 C234.89856,315.965633 220.007925,315.965633 205.12699,315.965633 C198.423779,306.62948 183.950276,304.078044 172.73622,302.845328 L172.73622,286.217992 L283.809689,286.217992 L283.809689,302.845328 L283.799989,302.845328 Z M383.785512,447.245137 L249.779495,447.28336 L249.779495,468.468879 L383.785512,468.430656 L383.785512,447.245137 Z M517.937041,315.946521 L562.589545,315.946521 L562.589545,751.410706 L517.937041,751.410706 L517.937041,315.946521 Z M483.916547,764.55968 C499.059401,760.584408 512.727744,758.080752 517.937041,751.410706 C532.817975,751.410706 547.708611,751.410706 562.589545,751.410706 C569.292756,760.746859 583.746858,763.336519 594.980315,764.55968 L594.980315,781.187015 L483.906846,781.187015 L483.906846,764.55968 L483.916547,764.55968 Z M483.916547,302.826216 C499.059401,306.801487 512.727744,309.276475 517.937041,315.946521 C532.817975,315.946521 547.708611,315.946521 562.589545,315.946521 C569.292756,306.610368 583.746858,304.03982 594.980315,302.826216 L594.980315,286.19888 L483.906846,286.19888 L483.906846,302.826216 L483.916547,302.826216 Z M383.785512,447.245137 L517.937041,447.245137 L517.937041,468.430656 L383.785512,468.430656 L383.785512,447.245137 Z" id="Shape"></path>
                            <path d="M155.164554,362.213955 L19.1929134,362.213955 C19.1929134,368.382587 19.1929134,374.560636 19.1929134,380.729268 C40.1886747,382.179603 53.0093485,387.199268 66.5168442,391.832805 C80.6443873,391.832805 94.7433129,391.832805 108.870856,391.832805 C124.000014,383.978395 139.463044,380.729268 155.174093,380.729268 L155.174093,362.213955 L155.164554,362.213955 Z M374.928456,362.129195 L306.074569,362.148031 C306.074569,368.316663 306.074569,374.494712 306.074569,380.644508 C327.070331,382.123096 339.891004,387.133344 353.3985,391.766881 L374.928456,391.748046 C374.928456,391.748046 374.928456,362.129195 374.928456,362.129195 Z M295.495605,608.90272 L159.523965,608.90272 C159.523965,602.734088 159.523965,596.584291 159.523965,590.406242 C180.519726,588.955907 193.3404,583.917406 206.847896,579.283869 C220.975439,579.283869 235.074364,579.302705 249.201907,579.302705 C264.331066,587.13828 279.794096,590.406242 295.505145,590.406242 L295.505145,608.90272 L295.495605,608.90272 Z M374.928456,391.748046 L353.3985,391.766881 L222.778346,553.921846 L249.192368,579.302705 L374.928456,420.914843 L374.928456,391.738628 L374.928456,391.748046 Z M108.861317,391.832805 C94.7337737,391.832805 80.6348481,391.832805 66.507305,391.832805 C77.944796,459.075601 91.0039497,535.302937 206.838356,579.283869 L249.192368,579.302705 L222.778346,553.921846 C134.493125,517.333854 103.996329,445.316256 108.861317,391.832805 Z M594.835446,362.19512 L730.807087,362.19512 C730.807087,368.344916 730.807087,374.513548 730.807087,380.691597 C709.811325,382.141932 696.971573,387.180433 683.483156,391.81397 C669.355613,391.795134 655.256687,391.795134 641.129144,391.795134 C625.999986,383.959559 610.536956,380.691597 594.825907,380.691597 L594.825907,362.19512 L594.835446,362.19512 Z M374.918917,362.129195 L443.915892,362.129195 C443.915892,368.278992 443.915892,374.447623 443.915892,380.625673 C422.92013,382.076008 410.080378,387.114508 396.572882,391.748046 L374.918917,391.748046 C374.918917,391.748046 374.918917,362.129195 374.918917,362.129195 Z M454.504395,608.855631 L590.476035,608.855631 C590.476035,602.705834 590.476035,596.537203 590.476035,590.359153 C569.480274,588.908818 556.640522,583.870318 543.133026,579.255616 C529.0341,579.255616 514.906557,579.255616 500.798093,579.255616 C485.649856,587.091191 470.205904,590.359153 454.494855,590.359153 L454.494855,608.855631 L454.504395,608.855631 Z M374.918917,391.738628 L396.572882,391.738628 L527.212115,553.874757 L500.798093,579.255616 L374.918917,420.914843 L374.918917,391.738628 Z M641.129144,391.776299 C655.256687,391.776299 669.355613,391.776299 683.483156,391.795134 C672.026586,459.03793 658.986511,535.246431 543.133026,579.246198 L500.798093,579.246198 L527.212115,553.865339 C615.497335,517.277348 645.994132,445.278584 641.129144,391.776299 Z" id="Shape"></path>
                            <path d="M695.639148,476.024668 C699.167377,522.187007 713.581848,531.241387 700.896309,586.889267 C722.528068,583.721171 731.182782,570.730105 750,573.092117 C741.767467,576.991311 739.18412,580.618687 743.948737,588.73576 C712.948576,592.00696 664.759611,619.216964 681.717222,685.615748 C685.607319,671.406183 700.061999,670.984395 702.936851,649.538825 C714.697613,702.393532 723.7343,704.31501 713.792939,737.045749 C708.214116,760.525274 743.586867,738.30174 733.04239,779.936889 C737.917577,783.001881 742.752557,785.345147 747.929302,783.667369 C744.260346,839.540202 739.02329,840.711835 673.243442,914.084178 C670.660096,845.763916 647.098365,811.674083 620.973393,790.959612 L620.973393,789.075626 C644.223513,798.486182 666.458388,792.243722 686.803499,794.924418 C529.400286,644.84292 680.239587,630.352164 694.111254,476.034041 L695.639148,476.034041 L695.639148,476.024668 Z" id="Shape"></path>
                            <path d="M561.713561,115.355671 C620.303335,175.406064 679.933879,141.399914 750,182.307646 C694.504658,184.068544 726.387531,262.352747 661.766867,206.723532 C624.503585,196.536835 603.669601,252.251254 659.499475,261.462831 C656.795332,296.188488 680.184779,311.241322 698.370375,324.164038 C524.338768,313.002219 645.514129,220.024936 558.070866,132.888909 C559.278903,127.047652 560.505524,121.196928 561.704268,115.355671 L561.713561,115.355671 Z" id="Shape"></path>
                            <path d="M73.5542175,476.024668 C70.0259598,522.18602 55.5912644,531.268324 68.297013,586.886895 C46.6650739,583.737613 38.0102879,570.728078 19.1929134,573.09004 C27.4255147,576.989151 29.9887789,580.635195 25.2442272,588.733349 C56.2245414,592.004478 104.434012,619.2139 87.456156,685.611263 C83.5861298,671.402003 69.1313303,670.99897 66.2363496,649.535113 C54.4955946,702.407434 45.458832,704.338244 55.4002761,737.040164 C60.9791451,760.537932 25.6060998,738.314874 36.1506649,779.958505 C31.2452809,783.023431 26.4404171,785.366647 21.2636287,783.688905 C24.9326147,839.541797 30.1697152,840.732151 95.9300058,914.084178 C98.533478,845.784124 122.105456,811.69502 148.230647,790.980992 L148.230647,789.097047 C124.980333,798.488656 102.745273,792.265075 82.3798878,794.945713 C239.804515,644.839308 88.9438545,630.37698 75.072072,476.034041 L73.5642695,476.034041 L73.5542175,476.024668 Z" id="Shape"></path>
                            <path d="M188.267854,115.355671 C129.696665,175.38713 70.0661213,141.380979 0,182.288712 C55.4767565,184.068544 23.6124687,262.333813 88.2331329,206.723532 C125.47783,196.536835 146.330399,252.251254 90.5005246,261.462831 C93.1860828,296.169554 69.7966362,311.222388 51.6296247,324.164038 C225.642647,313.002219 104.485871,220.024936 191.929134,132.888909 C190.702512,127.047652 189.494476,121.196928 188.267854,115.355671 Z" id="Shape"></path>
                            <g id="Group" transform="translate(249.507874, 0.000000)">
                                <path d="M42.7347417,78.459904 C44.4920399,72.720134 44.0993475,74.2631886 43.9815398,66.2628928 L55.9684729,71.5407292 C51.4034247,74.3811291 47.8004727,76.7104536 42.7249244,78.4697324 L42.7347417,78.459904 Z M72.4419157,21.1015175 C59.8561269,25.1213221 73.8948773,27.1656238 53.072367,40.8663762 C48.2815207,44.0311124 45.0123572,45.6331372 40.574934,48.5423357 C25.8882412,58.1741415 39.2986839,58.8326425 22.3932795,71.0099971 C15.2757312,76.1305795 17.7791448,74.9216896 12.4483465,81.3396174 C2.80775009,92.966583 -0.225798084,88.3079341 0.019634616,106.293857 C0.127625004,106.382313 2.13035584,107.571546 3.24952895,108.534726 L6.56777905,111.984485 C18.6627025,117.812711 23.1688469,102.441135 25.9962316,99.7579889 L48.9196458,83.2954637 C49.0963573,83.2070083 49.59704,83.0104408 49.7933862,82.9416422 C49.8130208,82.9416422 64.0873866,83.118553 56.3415306,75.7571014 C57.0483768,75.8455567 58.010473,75.511392 58.3835307,76.327147 L63.4099924,77.5556937 C69.7323387,78.0176272 69.9777714,70.9608552 72.6284446,67.7076636 C72.9131465,67.3341854 73.2862042,66.8722519 73.6199927,66.5380872 L93.8043779,52.4048864 C96.6612146,51.4417058 96.6808492,52.316431 101.992013,49.9379647 C101.952744,46.3506085 100.283801,45.91816 102.25708,42.9205062 C107.175551,35.4705992 106.537426,38.438768 115.893321,40.915518 C111.770052,37.8588939 104.426705,36.0111598 111.220282,31.5294215 C115.893321,28.4334839 123.059956,30.3205316 126.044417,29.9667102 C132.759456,29.1706119 134.104427,21.8091603 140.848918,22.9983935 C144.59913,23.6568945 142.390235,29.5047766 142.802562,24.6888737 C149.19363,20.2267922 147.36761,16.9244588 158.922582,14.2216562 C155.231274,8.15754983 145.787024,-3.51855764 135.753735,1.0319792 L72.451733,21.0818607 L72.4419157,21.1015175 Z M6.56777905,111.974657 C1.11917311,117.114896 8.06000987,120.987275 10.1903657,128.594436 C15.9629428,131.061358 17.8773179,135.847776 20.6163468,140.447454 L26.5460008,133.429996 C22.1282122,130.510969 25.4071931,137.164778 24.3960104,130.904104 C23.8266065,127.188979 22.5699911,130.108006 25.7606162,127.208636 C25.5151835,127.051382 24.9457796,126.874471 24.8868758,127.169322 C24.8868758,127.169322 23.1982988,127.670569 21.9416834,125.056222 C21.7453372,124.64343 26.614722,117.124725 18.6037987,120.220662 C25.1715777,117.99945 27.2135778,122.658099 30.5318279,125.016908 C30.7478087,124.535318 31.2583087,123.326428 31.3859337,123.650764 L35.7350011,117.606315 C43.3532321,109.183399 58.5896941,111.345641 64.2837328,106.500253 L89.8185509,79.2461739 C96.3372434,80.0422721 92.4299548,82.804045 97.7018492,81.6246402 C102.335619,80.592661 99.9598301,78.7449268 106.115282,79.0102929 L104.407071,70.1942421 C119.123215,63.9040832 115.05885,53.1813279 109.237186,43.9721421 C123.688263,50.2328159 116.413638,51.6874152 122.500369,60.6115781 L124.846706,60.739347 C135.361043,61.004713 141.271062,57.8203201 150.096822,52.5129985 L152.560966,51.1271979 C152.894755,50.9109737 153.395437,50.6259508 153.699774,50.3802415 C156.664601,48.0705738 153.081284,51.6775868 157.430351,46.3309517 C157.715053,45.9771303 158.068476,45.4562265 158.353178,45.102405 L167.355649,33.6720069 C174.738265,27.3621913 167.228024,37.1414227 174.708813,27.5194452 C169.751073,21.0523756 166.099034,16.3347564 158.922582,14.2413129 C147.377428,16.9441156 149.19363,20.246449 142.802562,24.7085305 C142.390235,29.5244334 144.59913,23.6765513 140.848918,23.0180503 C134.104427,21.8288171 132.769273,29.2000971 126.044417,29.9863669 C123.059956,30.3401884 115.903138,28.4433123 111.220282,31.5490783 C104.436523,36.0308165 111.770052,37.8785507 115.893321,40.9351748 C106.537426,38.4485963 107.175551,35.4804276 102.25708,42.9401629 C100.283801,45.9279884 101.952744,46.3702652 101.992013,49.9576215 C96.6808492,52.3360878 96.6513973,51.4515342 93.8043779,52.4245432 L73.6199927,66.557744 C73.2862042,66.8919086 72.9131465,67.3538422 72.6284446,67.7273204 C69.9679541,70.9805119 69.7323387,78.037284 63.4099924,77.5753504 L58.3835307,76.3468038 C58.010473,75.5310488 57.0483768,75.8652135 56.3415306,75.7767581 C64.0972039,83.1382097 49.8228381,82.961299 49.7933862,82.961299 C49.59704,83.0300976 49.08654,83.2266651 48.9196458,83.3151204 L25.9962316,99.7776457 C23.1590296,102.460792 18.6627025,117.822539 6.56777905,112.004142 L6.56777905,111.974657 Z M126.505831,110.588856 C123.472283,126.265112 123.59009,138.924057 115.638071,152.182532 L120.468186,116.859358 L117.71934,120.53517 C114.224379,126.363395 114.136023,129.243109 113.920042,135.661037 C114.577802,132.850122 117.503359,134.117982 111.838773,133.882101 C97.3680607,133.292399 101.736763,155.710918 81.120416,145.027476 L78.2439448,143.37631 C88.1692431,164.831649 81.1400506,158.325265 73.8556081,179.937858 C84.3306757,188.704767 109.099744,173.254564 113.164109,198.582282 C114.764331,196.252958 116.394004,197.786184 113.99858,187.328795 C117.621167,185.834882 112.329638,186.03145 116.217292,187.368108 L118.298561,188.331289 C118.475273,188.419744 119.044677,188.812879 119.466821,188.950477 C120.978686,182.424437 123.069773,182.974826 126.122956,179.692149 L130.491658,172.831944 C134.644379,168.56643 140.043899,158.895311 144.167168,152.713264 C148.555505,146.098769 153.238361,139.218908 157.911399,131.759172 C167.993774,115.709439 176.201044,101.792462 172.735534,78.6269864 L169.50564,82.5878208 C169.152217,82.0374319 168.779159,81.3101323 168.582813,80.8481987 L166.472092,75.7276162 C165.922323,73.9486807 165.971409,72.6709921 165.725976,70.8920566 C167.767976,73.8995388 166.668438,74.5187263 166.079399,80.8088852 L160.346092,77.5065518 L161.799053,88.9566067 C153.27763,88.7403825 154.789495,89.9885859 149.331072,96.0133787 C138.610572,107.817255 145.659399,100.691684 141.320149,99.2272568 C138.708745,98.3230464 143.342514,93.3400612 138.090254,100.396833 C133.58411,106.490425 137.363774,105.055482 131.895533,107.807427 C131.6501,107.935196 131.041427,108.003994 130.795994,108.112106 C126.005148,110.156408 129.549196,104.554235 126.515648,110.598685 L126.505831,110.588856 Z M61.7705019,134.265408 C59.3947134,141.784113 55.6248671,142.491756 45.5424918,145.233872 C30.3649336,149.391274 39.1121551,144.860394 29.4224721,143.120772 C30.6496356,150.590336 32.0142414,166.531957 34.8219915,172.448638 C38.5722031,180.380135 50.2155304,187.525362 50.392242,192.911311 L56.3022614,197.08837 L71.5681753,153.784557 C72.8444254,143.97584 71.2638388,141.892225 78.2439448,143.366481 L81.120416,145.017648 C101.736763,155.70109 97.3680607,133.28257 111.838773,133.872273 C117.503359,134.117982 114.587619,132.840293 113.920042,135.651208 C114.136023,129.23328 114.224379,126.353567 117.71934,120.525342 L120.468186,116.84953 L114.322552,96.1214908 L107.627148,102.519762 C105.801128,104.475608 105.388801,105.271706 103.062099,107.48309 L100.931744,109.370138 C100.627407,109.655161 100.136542,110.008982 99.8322051,110.313662 L94.4719549,117.301635 C95.3751472,115.758581 97.0833588,119.984781 94.5799453,112.593844 C92.8226471,107.384807 94.5112241,111.16873 91.4187721,107.827083 L81.4542045,124.338751 C71.4012811,119.768557 84.8117238,115.27699 61.7803192,134.255579 L61.7705019,134.265408 Z M182.77864,67.1081329 C182.16015,82.2536561 181.9049,104.937542 174.983698,116.397425 C169.211121,125.91129 157.047476,141.607202 153.994293,150.708276 L162.21138,148.182384 C162.339005,148.162727 162.86914,148.113586 163.006582,148.093929 L166.80588,147.917018 C176.2894,147.828563 167.97414,146.747442 181.188236,138.835601 C195.06991,130.501141 185.203515,133.538108 191.879285,125.822835 C195.305525,121.862 190.652121,125.056222 194.863746,124.132355 C195.148448,124.063556 195.855295,124.132355 196.139997,124.112698 C196.581775,124.073384 198.309622,124.446863 198.977199,124.486176 C203.915304,113.055778 216.432372,75.9733256 214.87142,65.0245177 L211.55317,54.6752406 C207.596795,57.2207893 206.173285,63.0686714 204.700689,65.1621149 C202.089285,68.8968968 194.971737,69.5160843 189.110804,77.3591262 C184.103977,84.04242 190.249612,71.1377659 187.15716,80.9169973 C184.634112,88.8779797 185.291871,80.9857959 187.37314,84.6517792 C187.333871,82.1848575 187.500765,77.4868951 186.911727,75.2853394 C184.624294,66.8919086 186.273602,71.3933036 182.788458,67.1081329 L182.77864,67.1081329 Z M20.6163468,140.447454 C33.2610395,136.732329 34.9299819,130.795992 42.4402225,126.884299 C52.5225978,121.655605 57.2643576,130.579768 61.7606846,134.275236 C84.7920892,115.306475 71.3816465,119.788214 81.4345699,124.358407 L91.3991375,107.84674 C94.4915895,111.188387 92.8030125,107.404463 94.5603107,112.613501 C97.0637242,120.004438 95.3555126,115.778237 94.4523203,117.321292 L99.8125704,110.333319 C100.116907,110.028639 100.607772,109.674818 100.912109,109.389795 L103.042465,107.502747 C105.369167,105.281535 105.791311,104.495265 107.607513,102.539419 L114.302917,96.1411476 L106.08583,79.0201213 C99.9401954,78.7547552 102.306167,80.6024894 97.6723973,81.6344686 C92.4005029,82.8237018 96.3077915,80.0521005 89.789099,79.2560022 L64.2542809,106.510081 C58.5700595,111.345641 43.3237802,109.193227 35.7055492,117.616143 L31.3564818,123.660593 C31.2288567,123.326428 30.7183567,124.535318 30.502376,125.026737 C27.1841259,122.677755 25.1421258,118.009278 18.5743467,120.230491 C26.5852701,117.134553 21.7158853,124.653258 21.9122315,125.06605 C23.1590296,127.680397 24.8574239,127.17915 24.8574239,127.17915 C24.926145,126.894128 25.4955489,127.071038 25.7311643,127.218464 C22.5503565,130.117834 23.7971546,127.198807 24.3665585,130.913932 C25.3777412,137.174606 22.1085776,130.520797 26.5165489,133.439824 L20.5868949,140.457283 L20.6163468,140.447454 Z M122.480735,60.6017497 C119.476638,67.0884761 116.394004,72.9167015 112.202013,77.064275 C113.978946,84.2095024 117.581898,95.1583102 122.71635,99.4827945 L119.486456,94.1361594 C137.66811,90.2244668 127.065417,85.3889072 136.28387,78.0864258 C144.844562,71.3146766 145.72812,84.9466304 175.612006,52.5817971 L174.689179,27.4997885 C167.198573,37.1315943 174.708813,27.3425345 167.336015,33.6523502 L158.333543,45.0827483 C158.048841,45.4365697 157.695418,45.9574735 157.410716,46.311295 C153.061649,51.65793 156.644966,48.050917 153.680139,50.3605848 C153.375803,50.6062941 152.865303,50.8913169 152.541332,51.1075411 L150.077187,52.4933418 C141.251428,57.790835 135.341408,60.9752279 124.827071,60.7196902 L122.480735,60.5919214 L122.480735,60.6017497 Z M113.144475,198.562626 C113.517532,220.086763 105.015744,226.612803 87.0108008,227.782379 L90.3094163,247.498096 C97.1128107,248.461277 97.9276473,247.625865 101.285167,249.277032 C99.2824358,240.942571 98.9584646,239.07518 104.839032,233.649918 L107.1461,231.870983 C114.833052,226.642288 121.656081,227.998604 126.996696,219.556031 C127.242129,220.194875 127.988244,220.302987 128.243494,221.118742 C131.512658,230.839004 123.59009,217.845894 132.082062,222.94682 L132.936168,218.239029 C133.751004,213.58038 133.32886,218.062118 137.589572,218.41594 C137.059437,212.587714 140.397322,209.098642 142.792745,205.383517 C146.061908,200.282591 146.837476,197.560132 150.283351,192.940796 L136.058072,195.604285 C130.432754,200.83298 130.393485,177.579049 130.462206,172.831944 L126.093504,179.692149 C123.040321,182.964997 120.959052,182.414608 119.437369,188.950477 C119.025042,188.822708 118.445821,188.419744 118.269109,188.331289 L116.18784,187.368108 C112.300186,186.03145 117.591715,185.825054 113.969129,187.328795 C116.364552,197.796013 114.734879,196.252958 113.134657,198.582282 L113.144475,198.562626 Z M178.380486,164.70388 C174.581188,166.020882 177.938707,163.691557 174.630275,167.829302 C173.246034,169.539439 173.511102,169.608238 172.342842,171.564084 C170.143765,175.171097 169.220938,176.576555 166.69789,180.330993 C169.024592,194.906471 174.384842,183.652983 178.203775,201.697877 C179.764727,209.039672 177.241679,206.26807 180.834813,209.590061 L182.837544,208.715335 C189.532948,203.417842 187.579304,206.69069 188.806467,199.398037 L188.698477,181.834734 L199.016468,181.942846 L200.351622,179.043476 C205.57443,172.537093 199.320804,176.340674 206.939035,170.44365 C220.840343,159.691409 254.101383,138.48178 219.72117,145.292842 C215.01868,146.236366 206.261641,153.538848 200.528333,157.981272 L190.691391,163.740699 C181.355131,167.563936 183.07316,166.404188 178.370669,164.70388 L178.380486,164.70388 Z M122.71635,99.4827945 C122.785071,102.627874 122.274571,102.342851 123.197398,105.153766 C126.574552,115.483386 122.932331,106.205402 126.496014,110.579028 C129.529562,104.534578 125.995331,110.136751 130.77636,108.092449 C131.021793,107.984337 131.630466,107.915539 131.875898,107.78777 C137.344139,105.035825 133.564475,106.470768 138.07062,100.377176 C143.322879,93.3204044 138.68911,98.3132181 141.300514,99.2076 C145.649581,100.681856 138.600754,107.807427 149.311437,95.993722 C154.779678,89.9689291 153.267812,88.7207257 161.779419,88.9369499 L160.326457,77.4868951 L166.059765,80.7892285 C166.648803,74.4990696 167.748342,73.8897104 165.706342,70.8723998 C165.951774,72.6513354 165.902688,73.9290239 166.452457,75.7079595 L168.563178,80.828542 C168.759525,81.2904755 169.132582,82.0177751 169.486005,82.568164 L172.7159,78.6073296 L175.612006,52.5817971 C145.72812,84.936802 144.844562,71.3146766 136.28387,78.0864258 C127.065417,85.3889072 137.66811,90.2244668 119.486456,94.1361594 L122.71635,99.4827945 Z M202.207093,139.779125 C212.093122,141.666173 208.686516,138.747146 221.154497,128.938429 L228.615651,122.520501 C228.880719,122.235479 229.234142,121.704747 229.518844,121.419724 L236.145527,116.829873 L237.353056,103.600883 C237.529767,104.259384 238.010815,106.69682 238.187527,107.139097 C240.07245,111.846888 237.2647,105.537072 239.355786,109.714131 L240.956008,112.308822 C245.982469,101.753149 237.529767,115.404759 242.664219,101.821947 C243.037277,103.954704 243.233623,107.139097 243.852113,109.163742 C246.002104,116.132059 260.031037,116.30897 264.694258,121.272298 C267.727806,108.878719 245.089094,99.944728 239.071084,91.9051187 C231.6492,82.0079468 233.190517,79.197032 222.204949,74.5580398 C225.346488,93.5071435 225.415209,91.8166633 217.325747,108.849234 C212.014584,120.083065 207.704785,129.203795 202.197276,139.779125 L202.207093,139.779125 Z M153.984476,150.708276 C148.015553,155.524179 138.463312,169.706522 137.511033,178.797767 C140.848918,185.520374 135.577023,181.589025 145.502322,182.335981 C147.014187,182.46375 154.200457,181.962503 156.389716,182.001817 C159.943582,165.66706 168.514092,159.86832 178.154688,152.811548 C185.537304,147.425599 183.927265,146.344478 190.279064,140.742306 C199.15391,132.91892 194.117631,135.690522 198.947747,124.476348 C198.289987,124.437034 196.552323,124.063556 196.110545,124.10287 C195.825843,124.122526 195.118996,124.063556 194.834295,124.122526 C190.622669,125.046393 195.276073,121.862 191.849833,125.813007 C185.174063,133.52828 195.030641,130.491312 181.158785,138.825773 C167.944688,146.737613 176.259948,147.818734 166.776428,147.90719 L162.97713,148.0841 C162.849505,148.103757 162.31937,148.152899 162.181928,148.172556 L153.964841,150.698448 L153.984476,150.708276 Z M202.207093,139.779125 C200.292718,142.413129 195.747304,148.133242 191.005544,151.740255 C184.594842,156.644614 184.045073,156.752726 178.380486,164.713708 C183.082977,166.404188 181.364948,167.573765 190.701208,163.750527 L200.538151,157.991101 C206.271458,153.548676 215.028497,146.256023 219.730988,145.302671 C240.366969,141.214067 252.795681,151.130896 264.704076,121.272298 C260.050672,116.30897 246.021738,116.132059 243.861931,109.163742 C243.24344,107.139097 243.047094,103.954704 242.674036,101.821947 C237.539584,115.404759 245.992287,101.753149 240.965825,112.308822 L239.365604,109.714131 C237.284334,105.537072 240.092084,111.846888 238.197344,107.139097 C238.020632,106.69682 237.539584,104.259384 237.362873,103.600883 L236.155344,116.829873 L229.528661,121.419724 C229.243959,121.704747 228.890536,122.235479 228.625469,122.520501 L221.164315,128.938429 C208.696333,138.747146 212.093122,141.666173 202.21691,139.779125 L202.207093,139.779125 Z M68.6818868,192.498519 C74.65081,192.626288 86.9322623,192.321609 92.243426,193.176677 C102.345436,194.847501 101.069186,198.523312 100.254349,208.607223 L84.0459738,216.96134 L87.0108008,227.772551 C105.015744,226.602975 113.517532,220.076935 113.144475,198.552797 C109.080109,173.225079 84.3110411,188.685111 73.8359735,179.908373 L68.6720695,192.478863 L68.6818868,192.498519 Z M84.0557911,216.96134 L100.264167,208.607223 C101.079003,198.513484 102.345436,194.847501 92.2532433,193.176677 C86.9420796,192.321609 74.6606273,192.626288 68.6917041,192.498519 C60.5237038,214.828583 68.9960406,218.376626 80.5706468,240.991713 C82.1119641,230.809518 78.1948582,218.239029 82.1512333,202.700371 L84.0656084,216.971169 L84.0557911,216.96134 Z M184.05489,34.0847986 C183.809458,44.2375082 184.300323,56.1298399 182.77864,67.1081329 C186.273602,71.3933036 184.624294,66.8919086 186.90191,75.2853394 C187.490948,77.4868951 187.314237,82.1848575 187.363323,84.6517792 C185.282054,80.9759676 184.614477,88.8681513 187.147342,80.9169973 C190.239794,71.1377659 184.09416,84.04242 189.100987,77.3591262 C194.96192,69.5160843 202.079468,68.8968968 204.690872,65.1621149 C206.163468,63.0784998 207.586978,57.2306177 211.543353,54.6752406 C209.197016,52.6505957 191.849833,28.5612528 190.200525,25.6323976 C187.392775,30.5564126 187.41241,25.2982329 184.05489,34.094627 L184.05489,34.0847986 Z M156.497707,194.916299 C160.365726,196.213644 163.261832,194.808187 164.135572,201.815817 C164.420274,204.056686 162.967313,208.164946 161.543803,209.884912 C156.978755,215.27086 150.32262,213.403469 143.116716,212.322348 C137.805552,222.671625 142.704389,215.752451 137.609206,218.41594 L136.529302,226.681602 C141.487043,223.674119 142.370601,223.251499 149.772851,223.644634 C151.000014,223.713433 154.141553,224.106568 155.241091,224.568501 C161.239467,227.074737 156.841313,222.239177 160.031938,229.05024 C167.414553,221.973811 162.731697,221.954154 173.471832,218.406111 C173.560188,214.533732 171.979602,217.727954 175.052419,213.767119 C177.683457,210.356674 177.271131,211.349339 180.844631,209.590061 C177.241679,206.26807 179.764727,209.039672 178.213592,201.697877 C174.394659,183.652983 169.034409,194.906471 166.707707,180.330993 C162.839688,185.382777 160.778053,190.572158 156.497707,194.906471 L156.497707,194.916299 Z M101.294984,249.277032 C103.297715,253.326322 110.474167,261.91632 111.023936,265.012258 L113.900407,261.798379 C114.116388,261.405245 114.646523,260.677945 114.862504,260.216011 L115.912956,255.911184 C119.074129,260.618975 120.762706,260.70743 117.935321,268.068882 L124.591456,260.461721 C120.772523,241.355363 126.299667,254.879205 127.114504,243.714173 C128.410389,231.379564 128.567466,232.676909 132.101696,222.936991 C123.599908,217.836066 131.532293,230.829175 128.263129,221.108914 C127.998062,220.293159 127.251946,220.185047 127.016331,219.546203 C121.675715,227.988775 114.852686,226.622631 107.165734,231.861154 L104.858667,233.64009 C98.9780993,239.065352 99.3020704,240.942571 101.304801,249.267204 L101.294984,249.277032 Z M111.023936,265.012258 L111.838773,287.499576 C121.980052,290.801909 114.430542,286.329999 121.940783,286.44794 L124.316571,286.801761 C125.41611,283.440457 125.455379,283.833592 126.466562,281.3077 C126.711994,280.737655 127.409023,278.909577 127.654456,278.339532 L129.058331,275.282908 C129.215408,274.929086 129.50011,274.231272 129.804446,273.739853 C130.992341,279.214257 132.150783,280.580401 134.683648,284.727974 L141.447774,259.86219 L141.467408,260.962968 L124.601273,260.461721 L117.945138,268.068882 C120.78234,260.70743 119.083946,260.618975 115.922773,255.911184 L114.872321,260.216011 C114.65634,260.677945 114.126205,261.405245 113.910225,261.798379 L111.033753,265.012258 L111.023936,265.012258 Z M111.838773,287.499576 L116.168206,304.620602 C121.017956,308.778004 124.601273,320.473768 131.453754,323.373138 L134.683648,284.727974 C132.1606,280.570572 130.992341,279.214257 129.804446,273.739853 C129.50011,274.221443 129.215408,274.929086 129.058331,275.282908 L127.654456,278.339532 C127.409023,278.909577 126.711994,280.737655 126.466562,281.3077 C125.455379,283.833592 125.41611,283.440457 124.316571,286.801761 L121.940783,286.44794 C114.430542,286.339828 121.980052,290.801909 111.838773,287.499576 Z M132.788908,248.304023 L142.586581,247.429298 C150.68586,240.303727 146.277889,232.745708 160.041755,229.05024 C156.860947,222.239177 161.249284,227.074737 155.250909,224.568501 C154.15137,224.106568 151.009832,223.713433 149.782668,223.644634 C142.380418,223.251499 141.506678,223.664291 136.53912,226.681602 L132.788908,248.313851 L132.788908,248.304023 Z M184.064708,34.0749702 C187.422227,25.2785761 187.402592,30.5367558 190.210342,25.6127408 C178.547381,8.74725223 174.659727,10.821039 163.045851,9.63180583 C166.933505,15.8728229 169.967053,15.7843675 174.159044,20.7378677 C178.400121,25.6815394 178.596467,29.6227171 184.064708,34.0847986 L184.064708,34.0749702 Z M124.601273,260.451892 L141.467408,260.953139 L142.586581,247.409641 L132.788908,248.284366 C132.239139,247.842089 131.54211,247.360499 131.080696,247.006678 C130.688004,246.701998 129.941889,246.131952 129.539379,245.817444 C129.127052,245.48328 127.605369,244.166278 127.124321,243.684687 C126.309485,254.84972 120.78234,241.335706 124.601273,260.432236 L124.601273,260.451892 Z M143.136351,212.31252 C150.342255,213.393641 156.988572,215.261032 161.563438,209.875083 C162.986947,208.164946 164.439909,204.046858 164.155207,201.805989 C163.281467,194.78853 160.375543,196.203816 156.517341,194.906471 C154.779678,198.120349 152.590418,201.2556 150.145909,204.135313 C146.169899,208.862761 146.474235,207.408162 143.136351,212.31252 Z M90.3290509,247.488268 C91.8016471,262.810702 91.7525606,265.12037 101.481513,276.17729 L101.304801,249.267204 C97.9472819,247.616037 97.1324454,248.451449 90.3290509,247.488268 Z M136.087523,195.584629 L150.312803,192.921139 L156.419168,181.991988 C154.220091,181.952675 147.043639,182.453922 145.531774,182.326153 C135.606475,181.579197 140.87837,185.510546 137.540485,178.787939 C135.302139,183.692297 136.13661,190.237993 136.087523,195.584629 Z M132.111514,222.927163 C128.577283,232.667081 128.420206,231.369736 127.124321,243.704344 C127.605369,244.185935 129.127052,245.502937 129.539379,245.837101 C129.932071,246.141781 130.678187,246.711826 131.080696,247.026334 C131.54211,247.380156 132.248956,247.861746 132.788908,248.304023 L136.53912,226.671773 L137.619024,218.406111 C133.358312,218.05229 133.780456,213.570552 132.96562,218.229201 L132.111514,222.936991 L132.111514,222.927163 Z M188.826102,199.388209 C192.124718,195.014583 196.817391,189.825202 199.036102,181.933018 L188.718112,181.824906 L188.826102,199.388209 Z" id="Shape"></path>
                                <path d="M264.704076,121.282126 C237.912642,129.636244 111.347907,192.13487 131.443937,323.392795 C153.64087,271.951089 191.388419,248.166426 214.645622,231.28128 C219.318661,227.870835 192.733391,225.344943 197.121727,222.337461 C227.251046,201.73719 268.837162,185.805397 264.713893,121.282126 L264.704076,121.282126 Z" id="Shape"></path>
                            </g>
                        </g>
                    </g>
                </g>
            </g>
        </g>
    </g>
</svg>