<?xml version="1.0" encoding="UTF-8"?>
<svg width="320px" height="119px" viewBox="0 0 320 119" version="1.1" xmlns="http://www.w3.org/2000/svg" xmlns:xlink="http://www.w3.org/1999/xlink">
    <!-- Generator: sketchtool 48.1 (47250) - http://www.bohemiancoding.com/sketch -->
    <title>82A90E69-9E74-42B6-BDF4-D30D05DB9662</title>
    <desc>Created with sketchtool.</desc>
    <defs></defs>
    <g id="HarrisonWork" stroke="none" stroke-width="1" fill="none" fill-rule="evenodd" transform="translate(-130.000000, -50.000000)">
        <g id="logo4-copy" transform="translate(130.000000, 50.000000)" fill="#D6BB74">
            <path d="M122.166952,39.186877 L135.930844,39.186877 L135.930844,32.9330286 C135.930844,31.5953662 135.859123,30.6092547 135.705749,29.9735886 C135.560099,29.3379226 135.284248,28.8061741 134.885918,28.3960313 C134.522897,28.0179482 134.113534,27.7482047 133.649,27.5746402 C133.192189,27.4088143 132.59304,27.3026857 131.837206,27.2628875 L131.837206,26.8251071 L144.201979,26.8251071 L144.201979,27.2628875 C143.466006,27.3026857 142.87127,27.4088143 142.410047,27.5746402 C141.953236,27.7404662 141.543872,28.0124207 141.178645,28.3905038 C140.783625,28.8061741 140.504464,29.330184 140.358814,29.9724831 C140.208751,30.6158877 140.133719,31.5942607 140.133719,32.9197625 L140.133719,47.2393839 C140.133719,48.5648858 140.207647,49.5388367 140.358814,50.1745028 C140.504464,50.8101688 140.783625,51.3419173 141.178645,51.7719592 C141.543872,52.1356707 141.953236,52.3998867 142.410047,52.5800842 C142.87127,52.7503321 143.466006,52.8575662 144.201979,52.8962589 L144.201979,53.3340394 L131.837206,53.3340394 L131.837206,52.8962589 C132.591936,52.8564607 133.192189,52.7503321 133.649,52.5800842 C134.11243,52.3998867 134.522897,52.1345652 134.885918,51.7719592 C135.283144,51.3618164 135.560099,50.8378065 135.705749,50.2021404 C135.859123,49.5664744 135.930844,48.5847849 135.930844,47.254861 L135.930844,40.1011306 L122.166952,40.1011306 L122.166952,47.254861 C122.166952,48.5726243 122.238674,49.5521028 122.392047,50.1944019 C122.537697,50.8300679 122.816859,51.3618164 123.211878,51.7719592 C123.562761,52.1356707 123.966608,52.3998867 124.428935,52.5800842 C124.885746,52.7503321 125.488206,52.8575662 126.240729,52.8962589 L126.240729,53.3340394 L113.898025,53.3340394 L113.898025,52.8962589 C114.642824,52.8564607 115.245284,52.7503321 115.709818,52.5800842 C116.166628,52.3998867 116.568268,52.1345652 116.919151,51.7719592 C117.328515,51.3540778 117.607677,50.8300679 117.753327,50.1944019 C117.891252,49.5587358 117.962974,48.5792574 117.962974,47.2393839 L117.962974,32.9197625 C117.962974,31.5821001 117.891252,30.6004106 117.753327,29.9647446 C117.607677,29.3290785 117.328515,28.8050686 116.919151,28.3893983 C116.568268,28.0113152 116.166628,27.7393607 115.695474,27.5735347 C115.23425,27.4077088 114.63179,27.3015802 113.899128,27.261782 L113.899128,26.8240016 L126.241832,26.8240016 L126.241832,27.261782 C125.501446,27.3015802 124.90671,27.4077088 124.4499,27.5735347 C123.988676,27.7470992 123.578209,28.0157372 123.212982,28.3949258 C122.817962,28.8050686 122.5388,29.3368171 122.393151,29.9769051 C122.239777,30.6203097 122.168056,31.6064212 122.168056,32.9319231 L122.168056,39.1857715 L122.166952,39.186877 Z" id="Shape" fill-rule="nonzero"></path>
            <path d="M173.126675,53.3351449 L160.386744,53.3351449 L160.386744,52.8973644 C161.536493,52.7912358 162.344187,52.6010888 162.793273,52.3136572 C163.593243,51.8117574 163.998193,51.109761 163.998193,50.214301 C163.998193,49.6847635 163.818338,48.9750286 163.455317,48.0828851 L163.124295,47.2670215 L161.266159,42.6824875 L152.72469,42.6824875 L151.712866,45.3655509 L151.224057,46.5650251 C150.641458,47.9889171 150.350159,49.1099003 150.350159,49.9224473 C150.350159,50.406659 150.456086,50.849967 150.675664,51.2678484 C150.885311,51.6779911 151.172197,52.0173815 151.534114,52.273859 C152.042785,52.6254099 152.691588,52.8299286 153.483833,52.8973644 L153.483833,53.3351449 L144.796715,53.3351449 L144.796715,52.8973644 C145.48524,52.8575662 146.079976,52.6917403 146.602991,52.3954646 C147.118282,52.0958725 147.620332,51.6138718 148.108037,50.9560956 C148.525125,50.4265582 148.930075,49.7367223 149.325095,48.9042762 C149.714597,48.0685135 150.238715,46.8170805 150.879794,45.1477662 L157.968077,26.8251071 L159.079207,26.8251071 L167.526887,47.2393839 C168.161346,48.7848815 168.664499,49.8826491 169.041864,50.5448473 C169.412608,51.2070455 169.821972,51.7045233 170.255611,52.0428082 C170.566772,52.2727535 170.924275,52.452951 171.321502,52.5789787 C171.724245,52.6972678 172.325601,52.8045019 173.125571,52.8951534 L173.125571,53.3329339 L173.126675,53.3351449 Z M160.961619,41.8887341 L156.896669,31.8197839 L153.034747,41.8887341 L160.961619,41.8887341 Z" id="1" fill-rule="nonzero"></path>
            <path d="M181.939582,40.3786126 L181.939582,47.2482279 C181.939582,48.5737298 182.011303,49.5532083 182.164677,50.1910853 C182.31805,50.8311734 182.589488,51.3629219 182.991128,51.7730647 C183.342011,52.1367762 183.751375,52.4009922 184.214806,52.5811897 C184.67603,52.7514376 185.278489,52.8586717 186.038736,52.8973644 L186.038736,53.3351449 L173.66955,53.3351449 L173.66955,52.8973644 C174.41435,52.8575662 175.01681,52.7514376 175.481344,52.5811897 C175.938154,52.4009922 176.339794,52.1356707 176.690677,51.7730647 C177.100041,51.3551833 177.379203,50.8311734 177.524853,50.1955074 C177.662778,49.5598413 177.7345,48.5803629 177.7345,47.2404894 L177.7345,32.9208681 C177.7345,31.5832056 177.662778,30.6015161 177.524853,29.9658501 C177.379203,29.330184 177.100041,28.8061741 176.690677,28.3905038 C176.339794,28.0124207 175.938154,27.7404662 175.467,27.5746402 C175.005776,27.4088143 174.403316,27.3026857 173.670654,27.2628875 L173.670654,26.8251071 L183.012093,26.8251071 C184.572309,26.8251071 185.59627,26.8328456 186.0917,26.8450062 C188.095486,26.9389742 189.662323,27.2109287 190.801039,27.6608697 C192.082093,28.1771411 193.074056,28.9521009 193.774719,29.9846437 C194.483106,31.0105534 194.833989,32.2100276 194.833989,33.5675892 C194.833989,35.5873489 194.073742,37.2047044 192.546628,38.4240777 C192.083197,38.7877893 191.566803,39.0862759 191.006272,39.3195377 C190.443535,39.549483 189.691012,39.7750063 188.750909,39.9795249 C189.511156,40.3056492 190.081618,40.6417231 190.443535,40.988852 C190.742558,41.2585955 191.006272,41.604619 191.250125,42.0081287 C191.487357,42.4182715 191.852585,43.140167 192.33367,44.1738153 C193.48342,46.545126 194.349594,48.2807707 194.939916,49.3741163 C195.526928,50.4674619 196.023461,51.2634263 196.420687,51.7531656 C196.743986,52.1566753 197.055146,52.4352629 197.358583,52.5867172 C197.66202,52.7470156 198.079107,52.8465112 198.607639,52.8984699 L198.607639,53.3362504 L192.215606,53.3362504 C191.892308,52.6265154 191.687074,52.1721524 191.593284,51.9786888 L190.238301,48.8932211 C189.41847,47.0437093 188.599743,45.4064547 187.773291,43.9903013 C186.94684,42.5807809 186.186593,41.611252 185.498067,41.0971916 C185.147184,40.8373977 184.772026,40.6516727 184.3748,40.5455441 C183.969849,40.4338879 183.47442,40.3797181 182.894028,40.3797181 L181.941788,40.3797181 L181.939582,40.3786126 Z M181.939582,39.9408322 L182.679967,39.9408322 C184.294251,39.9408322 185.449517,39.8490752 186.144663,39.6710887 C186.838706,39.4853637 187.491923,39.1150191 188.102106,38.5434724 C189.469227,37.2456082 190.150029,35.6359912 190.150029,33.7212545 C190.150029,32.6953448 189.952519,31.7335544 189.555293,30.8336724 C189.158066,29.9337904 188.609673,29.1919958 187.90901,28.6082885 C187.360617,28.1627695 186.711814,27.8587553 185.959291,27.6885074 C185.204561,27.5083099 184.127637,27.4209749 182.738448,27.4209749 L181.938478,27.4209749 L181.938478,39.9397267 L181.939582,39.9408322 Z" id="2" fill-rule="nonzero"></path>
            <path d="M207.623573,40.3786126 L207.623573,47.2482279 C207.623573,48.5737298 207.695294,49.5532083 207.848668,50.1910853 C208.002041,50.8311734 208.273479,51.3629219 208.675119,51.7730647 C209.026002,52.1367762 209.435366,52.4009922 209.898797,52.5811897 C210.360021,52.7514376 210.962481,52.8586717 211.722728,52.8973644 L211.722728,53.3351449 L199.353542,53.3351449 L199.353542,52.8973644 C200.098341,52.8575662 200.700801,52.7514376 201.165335,52.5811897 C201.622145,52.4009922 202.023785,52.1356707 202.374669,51.7730647 C202.784032,51.3551833 203.063194,50.8311734 203.208844,50.1955074 C203.34677,49.5598413 203.418491,48.5803629 203.418491,47.2404894 L203.418491,32.9208681 C203.418491,31.5832056 203.34677,30.6015161 203.208844,29.9658501 C203.063194,29.330184 202.784032,28.8061741 202.374669,28.3905038 C202.023785,28.0124207 201.622145,27.7404662 201.150991,27.5746402 C200.689767,27.4088143 200.087307,27.3026857 199.354645,27.2628875 L199.354645,26.8251071 L208.696084,26.8251071 C210.256301,26.8251071 211.280262,26.8328456 211.775691,26.8450062 C213.779477,26.9389742 215.346314,27.2109287 216.48503,27.6608697 C217.766085,28.1771411 218.758047,28.9521009 219.45871,29.9846437 C220.167097,31.0105534 220.51798,32.2100276 220.51798,33.5675892 C220.51798,35.5873489 219.757733,37.2047044 218.230619,38.4240777 C217.767188,38.7877893 217.250794,39.0862759 216.690263,39.3195377 C216.127526,39.549483 215.375003,39.7750063 214.434901,39.9795249 C215.195148,40.3056492 215.765609,40.6417231 216.127526,40.988852 C216.426549,41.2585955 216.690263,41.604619 216.934116,42.0081287 C217.171349,42.4182715 217.536576,43.140167 218.017661,44.1738153 C219.167411,46.545126 220.033585,48.2807707 220.623907,49.3741163 C221.21092,50.4674619 221.707452,51.2634263 222.104679,51.7531656 C222.427977,52.1566753 222.739137,52.4352629 223.042574,52.5867172 C223.346011,52.7470156 223.763099,52.8465112 224.29163,52.8984699 L224.29163,53.3362504 L217.899597,53.3362504 C217.576299,52.6265154 217.371065,52.1721524 217.277276,51.9786888 L215.922293,48.8932211 C215.102462,47.0437093 214.283734,45.4064547 213.457283,43.9903013 C212.630831,42.5807809 211.870584,41.611252 211.182059,41.0971916 C210.831175,40.8373977 210.456017,40.6516727 210.058791,40.5455441 C209.653841,40.4338879 209.158411,40.3797181 208.578019,40.3797181 L207.62578,40.3797181 L207.623573,40.3786126 Z M207.623573,39.9408322 L208.363959,39.9408322 C209.978242,39.9408322 211.133509,39.8490752 211.828655,39.6710887 C212.522697,39.4853637 213.175914,39.1150191 213.786098,38.5434724 C215.153218,37.2456082 215.83402,35.6359912 215.83402,33.7212545 C215.83402,32.6953448 215.63651,31.7335544 215.239284,30.8336724 C214.842058,29.9337904 214.293665,29.1919958 213.593002,28.6082885 C213.044609,28.1627695 212.395806,27.8587553 211.643282,27.6885074 C210.888553,27.5083099 209.811628,27.4209749 208.422439,27.4209749 L207.622469,27.4209749 L207.622469,39.9397267 L207.623573,39.9408322 Z" id="3" fill-rule="nonzero"></path>
            <path d="M237.372513,26.8262126 L237.372513,27.263993 C236.639852,27.3037912 236.045116,27.4099198 235.582788,27.5757458 C235.125978,27.7415717 234.716614,28.0135262 234.351387,28.3916093 C233.85044,28.9056697 233.53928,29.6275652 233.425629,30.5506628 C233.346183,31.2382877 233.307564,32.0265136 233.307564,32.9219736 L233.307564,47.2415949 C233.307564,48.3216744 233.359424,49.1707032 233.460938,49.7931031 C233.564658,50.4088701 233.730169,50.9129809 233.969608,51.2844309 C234.30063,51.8062299 234.737579,52.1920515 235.265007,52.4418959 C235.793539,52.6939513 236.494202,52.8476167 237.372513,52.8995754 L237.372513,53.3373559 L225.037533,53.3373559 L225.037533,52.8995754 C225.782332,52.8597772 226.384792,52.7536486 226.849326,52.5834007 C227.306137,52.4032032 227.707777,52.1378817 228.05866,51.7752757 C228.468024,51.3573943 228.747185,50.8333844 228.892835,50.1977184 C229.030761,49.5620523 229.102482,48.5825739 229.102482,47.2427004 L229.102482,32.9230791 C229.102482,31.5854166 229.030761,30.6037271 228.892835,29.9680611 C228.747185,29.332395 228.468024,28.8083851 228.05866,28.3927148 C227.707777,28.0146317 227.306137,27.7426772 226.834982,27.5768513 C226.373758,27.4110253 225.771298,27.3048967 225.038636,27.2650985 L225.038636,26.8273181 L237.373617,26.8273181 L237.372513,26.8262126 Z" id="4" fill-rule="nonzero"></path>
            <path d="M240.203854,53.2168557 L240.265645,45.1875644 L240.720249,45.2671609 C241.263125,47.3068198 241.911927,48.9120147 242.665554,50.0838512 C244.074604,52.2495378 245.852192,53.3351449 247.98618,53.3351449 C249.481296,53.3351449 250.71049,52.8376671 251.683695,51.839395 C252.655796,50.845545 253.136881,49.5797404 253.136881,48.0563529 C253.136881,47.3941548 253.030954,46.7186905 252.813583,46.0365932 C252.601729,45.3467573 252.31705,44.7586281 251.955133,44.2688888 C251.577768,43.764778 251.049236,43.2827773 250.368434,42.8096207 C249.687633,42.3475191 248.648224,41.7560733 247.246898,41.0419163 C246.009979,40.4261494 245.072083,39.8966119 244.418867,39.4720976 C243.764547,39.0420557 243.233808,38.6120138 242.832168,38.1742333 C241.714418,36.95486 241.159404,35.4712708 241.159404,33.7234655 C241.159404,32.650019 241.378982,31.6163708 241.813724,30.6180987 C242.245156,29.6242487 242.853133,28.7685869 243.632138,28.0544299 C245.006982,26.7886254 246.641127,26.1529593 248.519125,26.1529593 C249.133723,26.1529593 249.69646,26.2126567 250.217268,26.3309458 C250.732558,26.4569735 251.426601,26.6968684 252.300499,27.0605799 C252.949302,27.3203738 253.391768,27.4861998 253.623483,27.5503191 C253.860716,27.624388 254.064846,27.6564477 254.250218,27.6564477 C254.699305,27.6564477 255.004948,27.3325344 255.163839,26.6703362 L255.600788,26.6703362 L255.718852,34.3801362 L255.281903,34.3801362 C254.93102,33.1486023 254.635307,32.2011835 254.376006,31.5467239 C254.12443,30.8889477 253.827613,30.2886579 253.477834,29.7314828 C252.843375,28.7177336 252.142712,27.9682004 251.382465,27.4784612 C250.614494,26.9942495 249.736182,26.7488271 248.736496,26.7488271 C247.287724,26.7488271 246.144595,27.2385664 245.298282,28.2279944 C244.947399,28.6315041 244.675961,29.1079773 244.478451,29.6496753 C244.273217,30.1935843 244.175014,30.7374934 244.175014,31.2869299 C244.175014,33.4526165 245.561996,35.1959997 248.34589,36.5192906 L251.075718,37.8447925 C253.185431,38.8463811 254.705925,39.9518873 255.631683,41.1579945 C256.695367,42.5078175 257.226105,44.0787418 257.226105,45.8663452 C257.226105,47.0536589 256.986666,48.1856972 256.505581,49.2657767 C255.831399,50.7692651 254.819576,51.9333631 253.477834,52.7492266 C252.128368,53.5628791 250.540566,53.9730219 248.710014,53.9730219 C247.039457,53.9730219 245.432897,53.6413701 243.892542,52.9736444 C243.085952,52.6154604 242.60928,52.4175748 242.451493,52.363405 C242.29812,52.3114462 242.120471,52.2838085 241.928479,52.2838085 C241.306157,52.2838085 240.876932,52.5955613 240.645217,53.2179612 L240.208268,53.2179612 L240.203854,53.2168557 Z" id="5" fill-rule="nonzero"></path>
            <path d="M260.717283,40.2470574 C260.717283,38.0736323 261.180714,36.0538725 262.114196,34.1988332 C263.044367,32.3371608 264.401557,30.7198053 266.179145,29.3379226 C267.514267,28.3098018 268.950902,27.528209 270.483533,26.9787724 C272.023889,26.4293359 273.570865,26.1507483 275.131081,26.1507483 C277.12273,26.1507483 279.044864,26.5885287 280.910724,27.4607731 C282.766654,28.336334 284.393075,29.5678679 285.789987,31.1575857 C288.063005,33.7488922 289.200617,36.6884331 289.200617,39.995002 C289.200617,41.6521557 288.901593,43.2462956 288.306857,44.7895822 C287.712121,46.3273413 286.845947,47.7324396 285.708335,49.0026662 C284.313629,50.5802235 282.667347,51.8040188 280.765074,52.6718412 C278.859492,53.5396635 276.863429,53.9697054 274.787922,53.9697054 C272.732276,53.9697054 270.767109,53.5474021 268.896835,52.7061119 C267.018837,51.8626107 265.40676,50.6786136 264.051777,49.135327 C262.98037,47.9281142 262.153918,46.5639196 261.579044,45.0283716 C261.004169,43.4972455 260.717283,41.9008946 260.717283,40.2459519 L260.717283,40.2470574 Z M265.399037,40.5245394 C265.399037,44.2876824 266.418584,47.4527466 268.458783,50.0296814 C269.379024,51.1816189 270.348918,52.0251201 271.380603,52.546919 C272.406771,53.0709289 273.597346,53.3362504 274.939089,53.3362504 C276.294072,53.3362504 277.491268,53.0786674 278.515229,52.5623961 C279.546914,52.0383861 280.524532,51.197096 281.45691,50.030787 C283.500419,47.4416915 284.516656,44.2500952 284.516656,40.4537871 C284.516656,38.3665914 284.233081,36.3932629 283.670344,34.5315905 C283.109813,32.6699182 282.323084,31.0923609 281.299123,29.8011297 C280.472672,28.7354217 279.551327,27.9593564 278.53509,27.4773557 C277.523266,26.993144 276.318347,26.7477216 274.939089,26.7477216 C273.569761,26.7477216 272.380289,26.9876165 271.380603,27.4696172 C270.376503,27.9471958 269.450745,28.7210501 268.598915,29.8011297 C267.579368,31.0790948 266.787122,32.6566521 266.232108,34.523852 C265.677095,36.3855244 265.397933,38.3931236 265.397933,40.5245394 L265.399037,40.5245394 Z" id="6" fill-rule="nonzero"></path>
            <path d="M296.816328,30.3373001 L296.816328,47.2404894 C296.816328,48.5803629 296.888049,49.5598413 297.041423,50.1955074 C297.187072,50.8311734 297.462924,51.3551833 297.861254,51.7730647 C298.224274,52.1489368 298.633638,52.4208913 299.090448,52.5867172 C299.553879,52.7525431 300.149718,52.8586717 300.88238,52.8984699 L300.88238,53.3362504 L291.958029,53.3362504 L291.958029,52.8984699 C292.690691,52.8586717 293.285427,52.7525431 293.749961,52.5867172 C294.206771,52.4208913 294.616135,52.1489368 294.979156,51.7730647 C295.376382,51.3551833 295.653337,50.8256459 295.798987,50.1910853 C295.95236,49.5476808 296.024082,48.5659913 296.024082,47.2415949 L296.024082,32.9020744 C296.024082,31.5887331 295.95236,30.6169932 295.798987,29.9746941 C295.653337,29.3312895 295.377486,28.8072796 294.979156,28.3927148 C294.628273,28.0146317 294.226633,27.7426772 293.769823,27.5768513 C293.306392,27.4110253 292.703932,27.3048967 291.958029,27.2650985 L291.958029,26.8273181 L299.413746,26.8273181 L315.141702,46.9519523 L315.141702,32.9219736 C315.141702,31.5843111 315.06998,30.6026216 314.916607,29.9669556 C314.770957,29.3312895 314.495105,28.8072796 314.096776,28.3916093 C313.733755,28.0135262 313.324391,27.7415717 312.867581,27.5757458 C312.40415,27.4099198 311.808311,27.3037912 311.075649,27.263993 L311.075649,26.8262126 L320,26.8262126 L320,27.263993 C318.711221,27.263993 317.707121,27.6420761 316.978873,28.3916093 C316.581647,28.8072796 316.304692,29.3312895 316.159042,29.9735886 C316.005669,30.6169932 315.933947,31.5887331 315.933947,32.9009689 L315.933947,53.3351449 L315.060049,53.3351449 L296.814121,30.3373001 L296.816328,30.3373001 Z" id="7" fill-rule="nonzero"></path>
            <path d="M112.250639,72.1597038 L124.427832,72.1597038 L124.427832,72.5974843 C123.284703,72.5974843 122.505698,72.6837138 122.08861,72.8495397 C121.737727,73.0076271 121.454152,73.2596825 121.23016,73.6034949 C121.010582,73.9550458 120.899138,74.3530281 120.899138,74.7908085 C120.899138,75.3402451 121.104372,76.0886727 121.518149,77.0482521 L122.029026,78.2477263 L128.0779,93.0117611 L132.263121,80.2873852 C132.80379,78.6578691 133.075228,77.4384958 133.075228,76.6381093 C133.075228,76.0422415 132.969301,75.4662728 132.759654,74.9024646 C132.5478,74.3342345 132.263121,73.8831879 131.913341,73.5327425 C131.582319,73.1944576 131.19723,72.9567738 130.760282,72.810847 C130.331056,72.6726587 129.776043,72.5985898 129.109585,72.5985898 L129.109585,72.1608093 L141.565941,72.1608093 L141.565941,72.5985898 C140.79797,72.5985898 140.25068,72.6262274 139.905314,72.6781862 C139.562155,72.732356 139.238856,72.8384846 138.939833,73.0098381 C138.550331,73.2419944 138.23917,73.5736462 137.994214,74.0114267 C137.756982,74.4414686 137.63671,74.9113087 137.63671,75.4154195 C137.63671,75.8852596 137.816566,76.6933846 138.179586,77.8464275 L142.952922,93.2538669 L148.295616,80.1392473 C149.122068,78.1316481 149.536949,76.5739899 149.536949,75.4762223 C149.536949,74.3242849 149.154067,73.5084214 148.39382,73.0253152 C147.930389,72.7389891 147.228622,72.5996953 146.284106,72.5996953 L146.284106,72.1619148 L155.250387,72.1619148 L155.250387,72.5996953 C154.391937,72.6936633 153.73541,72.8594892 153.292944,73.0971731 C152.848271,73.3348569 152.406909,73.7726373 151.96996,74.4071979 C151.327777,75.3148184 150.523394,76.9520731 149.551293,79.3233838 L141.564837,98.6719527 L140.770385,98.6719527 L133.869681,77.9779828 L126.887325,98.6719527 L126.013427,98.6719527 L117.35279,77.7679366 L116.770191,76.3484667 C116.372965,75.3888873 116.03753,74.6990515 115.766092,74.2690096 C115.494654,73.8467062 115.163632,73.5073158 114.781853,73.262999 C114.470692,73.0507418 114.13305,72.904815 113.777753,72.813058 C113.412526,72.7268285 112.903855,72.6549706 112.249535,72.6008008 L112.249535,72.1630204 L112.250639,72.1597038 Z" id="8" fill-rule="nonzero"></path>
            <path d="M156.471858,85.5816542 C156.471858,83.4082291 156.935289,81.3884693 157.86877,79.5334299 C158.798942,77.6717576 160.156132,76.0544021 161.93372,74.6725193 C163.268842,73.6443986 164.705477,72.8628058 166.238108,72.3133692 C167.778464,71.7639326 169.325439,71.4853451 170.885656,71.4853451 C172.877305,71.4853451 174.799439,71.9231255 176.665299,72.7953699 C178.521229,73.6709308 180.14765,74.9024646 181.544562,76.4921825 C183.817579,79.0834889 184.955191,82.0230298 184.955191,85.3295988 C184.955191,86.9867525 184.656168,88.5808924 184.061432,90.124179 C183.466696,91.6619381 182.600522,93.0670364 181.46291,94.337263 C180.068204,95.9148203 178.421922,97.1386156 176.519649,98.0064379 C174.614066,98.8742603 172.618004,99.3043022 170.542497,99.3043022 C168.48685,99.3043022 166.521684,98.8819988 164.65141,98.0407086 C162.773412,97.1972074 161.161335,96.0132103 159.806352,94.4699237 C158.734945,93.262711 157.908493,91.8985164 157.333618,90.3629683 C156.758744,88.8318423 156.471858,87.2354914 156.471858,85.5805487 L156.471858,85.5816542 Z M161.153611,85.8591362 C161.153611,89.6222792 162.173159,92.7873433 164.213357,95.3642782 C165.133598,96.5162156 166.103493,97.3597168 167.135178,97.8815158 C168.161346,98.4055257 169.351921,98.6708472 170.693663,98.6708472 C172.048646,98.6708472 173.245842,98.4132642 174.269804,97.8969928 C175.301489,97.3729829 176.279107,96.5316927 177.211485,95.3653837 C179.254994,92.7762883 180.271231,89.584692 180.271231,85.7883838 C180.271231,83.7011882 179.987656,81.7278597 179.424918,79.8661873 C178.864388,78.0045149 178.077659,76.4269576 177.053698,75.1357264 C176.227247,74.0700185 175.305902,73.2939532 174.289665,72.8119525 C173.277841,72.3277408 172.072921,72.0823184 170.693663,72.0823184 C169.324336,72.0823184 168.134864,72.3222132 167.135178,72.8042139 C166.131078,73.2817926 165.20532,74.0556469 164.35349,75.1357264 C163.333943,76.4136916 162.541697,77.9912489 161.986683,79.8584488 C161.43167,81.7201211 161.152508,83.7277203 161.152508,85.8591362 L161.153611,85.8591362 Z" id="9" fill-rule="nonzero"></path>
            <path d="M196.021254,85.7121039 L196.021254,92.5817192 C196.021254,93.9072211 196.092976,94.8866996 196.246349,95.5245766 C196.399723,96.1646647 196.671161,96.6964131 197.072801,97.1065559 C197.423684,97.4702675 197.833048,97.7344834 198.296478,97.9146809 C198.757702,98.0849289 199.360162,98.192163 200.120409,98.2308557 L200.120409,98.6686361 L187.751223,98.6686361 L187.751223,98.2308557 C188.496023,98.1910575 189.098482,98.0849289 189.563017,97.9146809 C190.019827,97.7344834 190.421467,97.469162 190.77235,97.1065559 C191.181714,96.6886746 191.460876,96.1646647 191.606525,95.5289986 C191.744451,94.8933326 191.816172,93.9138541 191.816172,92.5739807 L191.816172,78.2543593 C191.816172,76.9166969 191.744451,75.9350074 191.606525,75.2993413 C191.460876,74.6636753 191.181714,74.1396654 190.77235,73.7239951 C190.421467,73.3459119 190.019827,73.0739574 189.548672,72.9081315 C189.087448,72.7423056 188.484989,72.636177 187.752327,72.5963788 L187.752327,72.1585983 L197.093765,72.1585983 C198.653982,72.1585983 199.677943,72.1663369 200.173373,72.1784974 C202.177159,72.2724655 203.743996,72.54442 204.882711,72.994361 C206.163766,73.5106324 207.155729,74.2855922 207.856392,75.3181349 C208.564779,76.3440447 208.915662,77.5435189 208.915662,78.9010804 C208.915662,80.9208402 208.155415,82.5381957 206.6283,83.757569 C206.16487,84.1212805 205.648475,84.4197672 205.087945,84.653029 C204.525208,84.8829743 203.772684,85.1084975 202.832582,85.3130162 C203.592829,85.6391405 204.16329,85.9752144 204.525208,86.3223433 C204.824231,86.5920868 205.087945,86.9381102 205.331798,87.34162 C205.56903,87.7517628 205.934258,88.4736583 206.415343,89.5073066 C207.565092,91.8786173 208.431266,93.614262 209.021589,94.7076076 C209.608601,95.8009532 210.105134,96.5969176 210.50236,97.0866568 C210.825658,97.4901666 211.136819,97.7687541 211.440256,97.9202085 C211.743692,98.0805069 212.16078,98.1800024 212.689312,98.2319612 L212.689312,98.6697416 L206.297278,98.6697416 C205.97398,97.9600067 205.768747,97.5056437 205.674957,97.3121801 L204.319974,94.2267124 C203.500143,92.3772006 202.681416,90.7399459 201.854964,89.3237925 C201.028513,87.9142722 200.268266,86.9447433 199.57974,86.4306829 C199.228857,86.170889 198.853699,85.9851639 198.456472,85.8790353 C198.051522,85.7673792 197.556093,85.7132094 196.975701,85.7132094 L196.023461,85.7132094 L196.021254,85.7121039 Z M196.021254,85.2743235 L196.76164,85.2743235 C198.375924,85.2743235 199.53119,85.1825664 200.226336,85.00458 C200.920379,84.8188549 201.573595,84.4485104 202.183779,83.8769637 C203.5509,82.5790994 204.231702,80.9694825 204.231702,79.0547458 C204.231702,78.0288361 204.034192,77.0670457 203.636965,76.1671637 C203.239739,75.2672817 202.691346,74.525487 201.990683,73.9417798 C201.44229,73.4962608 200.793487,73.1922466 200.040964,73.0219986 C199.286234,72.8418011 198.209309,72.7544662 196.820121,72.7544662 L196.020151,72.7544662 L196.020151,85.273218 L196.021254,85.2743235 Z" id="10" fill-rule="nonzero"></path>
            <path d="M221.706349,85.1516123 L229.916796,76.9896603 C230.73111,76.1881683 231.239781,75.6398372 231.43729,75.3479836 C231.642524,75.05613 231.740727,74.7377442 231.740727,74.3861932 C231.740727,73.7505272 231.431773,73.2729485 230.810555,72.9490352 C230.485051,72.7909479 229.936658,72.6770807 229.176411,72.5974843 L229.176411,72.1597038 L237.532507,72.1597038 L237.532507,72.5974843 C236.965356,72.6516541 236.488685,72.7434111 236.105803,72.8815994 C235.728438,73.0153656 235.31135,73.2475219 234.85454,73.5714352 C234.353593,73.9296192 233.487419,74.7034735 232.256018,75.8830486 L225.969911,81.9235343 L234.908607,93.356679 L236.012013,94.7739379 C236.826327,95.7799485 237.670433,96.573702 238.544331,97.1452486 C239.072863,97.4890611 239.544017,97.7411165 239.939037,97.8947818 C240.343987,98.0407086 240.844933,98.1523648 241.454014,98.2308557 L241.454014,98.6686361 L228.647879,98.6686361 L228.647879,98.2308557 C229.61998,98.1512593 230.320643,97.9931719 230.743248,97.748855 C231.172473,97.4967996 231.38543,97.1386156 231.38543,96.6555094 C231.38543,96.139238 231.121716,95.4759343 230.590978,94.6744424 C230.333884,94.2841987 229.846178,93.6131565 229.137791,92.6546826 C228.424991,91.6928922 227.822531,90.9190379 227.333722,90.3231701 L222.970853,84.8984514 L221.707452,86.1421458 L221.707452,92.5739807 C221.707452,93.8994825 221.779174,94.881172 221.932547,95.5234711 C222.078197,96.1591371 222.357359,96.6875691 222.752378,97.1054504 C223.103262,97.469162 223.507108,97.7333779 223.969436,97.9135754 C224.426246,98.0838234 225.033119,98.1910575 225.781229,98.2297502 L225.781229,98.6675306 L213.438525,98.6675306 L213.438525,98.2297502 C214.183324,98.189952 214.785784,98.0838234 215.250318,97.9135754 C215.707128,97.7333779 216.108768,97.4680564 216.459652,97.1054504 C216.869015,96.6875691 217.148177,96.1635592 217.293827,95.5278931 C217.431753,94.8922271 217.503474,93.9127486 217.503474,92.5728752 L217.503474,78.2532538 C217.503474,76.9155914 217.431753,75.9339019 217.293827,75.2982358 C217.148177,74.6625698 216.869015,74.1385599 216.459652,73.7228896 C216.108768,73.3448064 215.707128,73.0728519 215.235974,72.907026 C214.77475,72.7412001 214.17229,72.6350715 213.439628,72.5952733 L213.439628,72.1574928 L225.782332,72.1574928 L225.782332,72.5952733 C225.049671,72.6350715 224.447211,72.7412001 223.9904,72.907026 C223.529176,73.0728519 223.118709,73.3448064 222.753482,73.7228896 C222.358462,74.1385599 222.0793,74.6625698 221.933651,75.3048689 C221.780277,75.9482735 221.708556,76.9266464 221.708556,78.2521483 L221.708556,85.1482958 L221.706349,85.1516123 Z" id="11" fill-rule="nonzero"></path>
            <g id="Group">
                <path d="M28.865112,36.1003038 L23.7861323,36.1003038 L23.7861323,86.4815362 L28.865112,86.4815362 L28.865112,36.1003038 Z M32.7347583,88.0016072 C31.0101341,87.5395056 29.4576413,87.249863 28.865112,86.4804307 C27.1724866,86.4804307 25.4787577,86.4804307 23.7861323,86.4804307 C23.0236784,87.5605102 21.377396,87.8578914 20.1018582,88.0016072 L20.1018582,89.9229769 L32.7358617,89.9229769 L32.7358617,88.0016072 L32.7347583,88.0016072 Z M32.7347583,34.5824438 C31.0101341,35.0423344 29.4576413,35.331977 28.865112,36.1003038 C27.1724866,36.1003038 25.4787577,36.1003038 23.7861323,36.1003038 C23.0236784,35.0202243 21.377396,34.7250541 20.1018582,34.5824438 L20.1018582,32.6588631 L32.7358617,32.6588631 L32.7358617,34.5824438 L32.7347583,34.5824438 Z M44.1075683,51.2877475 L28.865112,51.2921695 L28.865112,53.7430767 L44.1075683,53.7386546 L44.1075683,51.2877475 Z M59.3665758,36.0980928 L64.4455555,36.0980928 L64.4455555,86.4760087 L59.3665758,86.4760087 L59.3665758,36.0980928 Z M55.4969294,87.9971851 C57.2193469,87.5372946 58.7740465,87.247652 59.3665758,86.4760087 C61.0592012,86.4760087 62.7529301,86.4760087 64.4455555,86.4760087 C65.2080094,87.5560882 66.8520849,87.8556804 68.1298296,87.9971851 L68.1298296,89.9207659 L55.495826,89.9207659 L55.495826,87.9971851 L55.4969294,87.9971851 Z M55.4969294,34.5802328 C57.2193469,35.0401234 58.7740465,35.3264495 59.3665758,36.0980928 C61.0592012,36.0980928 62.7529301,36.0980928 64.4455555,36.0980928 C65.2080094,35.0180132 66.8520849,34.7206321 68.1298296,34.5802328 L68.1298296,32.6566521 L55.495826,32.6566521 L55.495826,34.5802328 L55.4969294,34.5802328 Z M44.1075683,51.2877475 L59.3665758,51.2877475 L59.3665758,53.7386546 L44.1075683,53.7386546 L44.1075683,51.2877475 Z" id="Shape"></path>
                <path d="M18.6872912,41.9484314 L2.95933603,41.9484314 C2.95933603,42.6725379 2.95933603,43.39775 2.95933603,44.1218565 C5.38793356,44.2921045 6.87091179,44.8813392 8.43333529,45.4252483 C10.0674802,45.4252483 11.6983149,45.4252483 13.3324598,45.4252483 C15.0824624,44.5032561 16.8710842,44.1218565 18.6883946,44.1218565 L18.6883946,41.9484314 L18.6872912,41.9484314 Z M44.1075683,41.9384818 L36.1431808,41.9406928 C36.1431808,42.6647994 36.1431808,43.3900114 36.1431808,44.111907 C38.5717783,44.2854714 40.0547565,44.8736007 41.61718,45.4175097 L44.1075683,45.4152987 C44.1075683,45.4152987 44.1075683,41.9384818 44.1075683,41.9384818 Z M34.9195031,70.9060598 L19.1915479,70.9060598 C19.1915479,70.1819533 19.1915479,69.4600578 19.1915479,68.7348457 C21.6201454,68.5645978 23.1031237,67.973152 24.6655472,67.429243 C26.2996921,67.429243 27.9305268,67.431454 29.5646717,67.431454 C31.3146743,68.3512351 33.1032961,68.7348457 34.9206065,68.7348457 L34.9206065,70.9060598 L34.9195031,70.9060598 Z M44.1075683,45.4152987 L41.61718,45.4175097 L26.5082359,64.4521149 L29.5635683,67.431454 L44.1075683,48.8390513 L44.1075683,45.4141932 L44.1075683,45.4152987 Z M13.3313564,45.4252483 C11.6972115,45.4252483 10.0663768,45.4252483 8.43223188,45.4252483 C9.75521618,53.3185623 11.2657796,62.2665292 24.6644438,67.429243 L29.5635683,67.431454 L26.5082359,64.4521149 C16.2962095,60.1572234 12.7686191,51.7034178 13.3313564,45.4252483 Z M69.5443966,41.9462204 L85.2723517,41.9462204 C85.2723517,42.6681159 85.2723517,43.3922224 85.2723517,44.1174345 C82.8437542,44.2876824 81.3585692,44.8791282 79.7983525,45.4230373 C78.1642076,45.4208262 76.5333729,45.4208262 74.899228,45.4208262 C73.1492254,44.5010451 71.3606036,44.1174345 69.5432932,44.1174345 L69.5432932,41.9462204 L69.5443966,41.9462204 Z M44.1064649,41.9384818 L52.0874036,41.9384818 C52.0874036,42.6603774 52.0874036,43.3844839 52.0874036,44.1096959 C49.658806,44.2799439 48.173621,44.8713897 46.6111975,45.4152987 L44.1064649,45.4152987 C44.1064649,45.4152987 44.1064649,41.9384818 44.1064649,41.9384818 Z M53.3121847,70.9005323 L69.0401399,70.9005323 C69.0401399,70.1786368 69.0401399,69.4545303 69.0401399,68.7293182 C66.6115423,68.5590703 65.1263573,67.9676245 63.5639338,67.4259264 C61.9330991,67.4259264 60.2989542,67.4259264 58.6670161,67.4259264 C56.9148067,68.3457076 55.1283917,68.7293182 53.3110813,68.7293182 L53.3110813,70.9005323 L53.3121847,70.9005323 Z M44.1064649,45.4141932 L46.6111975,45.4141932 L61.7223485,64.4465873 L58.6670161,67.4259264 L44.1064649,48.8390513 L44.1064649,45.4141932 Z M74.899228,45.4186152 C76.5333729,45.4186152 78.1642076,45.4186152 79.7983525,45.4208262 C78.4731614,53.3141403 76.9648048,62.2598961 63.5639338,67.4248209 L58.6670161,67.4248209 L61.7223485,64.4454818 C71.9343749,60.1505904 75.4619652,51.6989958 74.899228,45.4186152 Z" id="Shape"></path>
                <ellipse id="Oval" cx="52.7968939" cy="97.303336" rx="1.8724807" ry="1.87604396"></ellipse>
                <path d="M45.3511074,93.1698485 C46.3849992,93.1698485 47.2213813,94.0100332 47.2213813,95.0469979 C47.2213813,96.0828572 46.3849992,96.9208309 45.3511074,96.9208309 C44.8876767,96.9208309 44.4606584,96.752794 44.1340501,96.4731009 C44.1340501,96.4731009 44.1362569,93.6175785 44.1362569,93.6175785 C44.4617618,93.3378854 44.8865733,93.1698485 45.350004,93.1698485 L45.3511074,93.1698485 Z" id="Shape"></path>
                <ellipse id="Oval" cx="57.0858347" cy="101.164869" rx="1.8724807" ry="1.87604396"></ellipse>
                <path d="M44.1274296,86.4019397 C43.9619187,90.0832753 40.916517,91.9040439 43.6308968,93.352257 C43.5591753,94.3759557 43.4874539,95.3996544 43.4135257,96.4233531 C43.2402909,98.1545758 40.5601167,102.105655 36.8118451,98.5028102 L35.8220895,99.1108386 C37.4827162,102.673885 33.8183034,104.469227 31.7472096,102.449467 C31.2021268,101.667874 30.6559406,100.88407 30.1130647,100.100267 C30.6559406,97.6626255 27.7959112,97.9865388 26.636231,96.9274639 L31.2683312,105.772619 L44.1263262,105.760458 L44.1263262,86.4019397 L44.1274296,86.4019397 Z M44.1274296,86.4019397 C44.2929406,90.0832753 47.3361355,91.9040439 44.6239625,93.352257 C44.695684,94.3759557 44.7674054,95.3996544 44.8391268,96.4233531 C45.0123616,98.1545758 47.6925358,102.105655 51.4408074,98.5028102 L52.430563,99.1108386 C50.7721431,102.673885 54.4365559,104.469227 56.5076497,102.449467 C57.0527325,101.667874 57.5956084,100.88407 58.1417946,100.100267 C57.5967118,97.6626255 60.4589481,97.9865388 61.6186283,96.9274639 L56.9865281,105.772619 L44.1285331,105.760458 L44.1285331,86.4019397 L44.1274296,86.4019397 Z" id="Shape"></path>
                <ellipse id="Oval" cx="35.4347939" cy="97.3066525" rx="1.8724807" ry="1.87604396"></ellipse>
                <path d="M42.8816838,93.175376 C41.847792,93.175376 41.0080997,94.0133497 41.0080997,95.049209 C41.0080997,96.0850682 41.8466886,96.9263584 42.8816838,96.9263584 C43.3451145,96.9263584 43.769926,96.7583215 44.0987411,96.4764174 C44.0987411,96.4764174 44.0965343,93.623106 44.0965343,93.623106 C43.7710294,93.3434129 43.3462179,93.175376 42.8827872,93.175376 L42.8816838,93.175376 Z" id="Shape"></path>
                <ellipse id="Oval" cx="31.1458531" cy="101.169291" rx="1.8724807" ry="1.87604396"></ellipse>
                <path d="M44.1329467,107.625447 C40.9761009,107.625447 37.8170483,107.625447 34.6579957,107.625447 C34.3964884,108.327443 34.3424215,109.094665 34.6579957,109.920478 L44.1329467,109.920478 L44.1329467,107.625447 Z M44.1329467,107.625447 C47.2919993,107.625447 50.4510519,107.625447 53.6101044,107.625447 C53.8716118,108.327443 53.9256787,109.094665 53.6101044,109.920478 L44.1329467,109.920478 L44.1329467,107.625447 Z" id="Shape"></path>
                <path d="M25.1311847,113.81186 C24.7703708,112.170183 23.9439194,111.134324 22.8383061,110.097359 C27.8312202,110.98508 31.984442,113.798593 37.5323695,118.998894 C32.3915989,115.035655 28.7713225,114.406622 25.1311847,113.810754 L25.1311847,113.81186 Z" id="Shape"></path>
                <path d="M63.567244,113.807438 C63.9302647,112.165761 64.7567161,111.129902 65.8601225,110.092937 C61.5314592,110.661167 55.5289282,113.173983 50.5558755,118.994472 C55.6988528,115.033444 59.9271062,114.405516 63.567244,113.806332 L63.567244,113.807438 Z" id="Shape"></path>
                <path d="M74.8959177,100.723772 C64.8019558,102.409669 56.1313881,109.491541 50.5569789,118.994472 C57.005286,113.477997 60.2835065,110.84247 68.5557444,109.608725 L69.2519939,109.519179 C71.3175707,104.382998 72.2411219,103.376987 74.8959177,100.723772 Z" id="Shape"></path>
                <path d="M80.9006555,55.2244549 C81.2879511,60.6690728 82.870236,61.7369917 81.4777371,68.3003818 C83.8522677,67.9267207 84.8023006,66.3944892 86.8678774,66.6730767 C85.9641876,67.1329673 85.6806121,67.5607982 86.2036268,68.5181665 C82.8007214,68.9039882 77.510991,72.1132726 79.3724376,79.9446782 C79.7994559,78.2687309 81.3861543,78.2189831 81.7017286,75.689585 C82.9927141,81.9235343 83.9846764,82.150163 82.8934075,86.0105906 C82.2810169,88.7798835 86.1639041,86.1587284 85.0064308,91.0693868 C85.5415829,91.4308873 86.0723214,91.7072638 86.6405757,91.5093782 C86.2378324,98.0993005 85.6629576,98.2374887 78.442266,106.891391 C78.1586905,98.8333566 75.5723059,94.8126306 72.7045526,92.369462 L72.7045526,92.1472553 C75.2567316,93.2571835 77.6974666,92.5209164 79.9307612,92.8370911 C62.6525201,75.1357264 79.2102369,73.4266139 80.7329377,55.2255604 L80.9006555,55.2255604 L80.9006555,55.2244549 Z" id="Shape"></path>
                <path d="M65.8755702,13.8906849 C72.8325477,20.9029105 79.9131067,16.9319324 88.2327912,21.7088245 C81.643248,21.9144487 85.4290355,31.0558792 77.7559472,24.5599249 C73.3312874,23.3704003 70.8574502,29.8763041 77.486716,30.9519616 C77.1656248,35.0069582 79.9428987,36.764713 82.1022651,38.2737289 C61.4376696,36.9703371 75.8260894,26.1131611 65.4430349,15.9380824 C65.5864778,15.2559851 65.7321274,14.5727823 65.8744668,13.8906849 L65.8755702,13.8906849 Z" id="Shape"></path>
                <path d="M13.1967408,100.727089 C23.2907028,102.412986 31.9612704,109.498175 37.5334729,119 C31.0873725,113.483524 27.8091521,110.847998 19.5347073,109.610936 L18.8406647,109.52139 C16.772881,104.388525 15.8515367,103.379198 13.1967408,100.725983 L13.1967408,100.727089 Z" id="Shape"></path>
                <path d="M7.19200306,55.1802347 C6.80470741,60.6248525 5.22021578,61.696088 6.6149215,68.2561616 C4.24039088,67.8847115 3.29035795,66.3502689 1.22478113,66.6288565 C2.12847099,67.0887471 2.40983963,67.518789 1.8890318,68.4739463 C5.28973039,68.8597679 10.5816676,72.0690523 8.71801414,79.900458 C8.29320267,78.2245107 6.70650424,78.1769739 6.38872319,75.6453648 C5.09994448,81.881525 4.10798211,82.1092593 5.19925106,85.9663703 C5.81164163,88.7378743 1.92875443,86.1167192 3.08622776,91.028483 C2.54776543,91.3899836 2.02033716,91.6663601 1.45208285,91.4684745 C1.8548262,98.0561857 2.42970094,98.196585 9.64818576,106.848276 C9.93396802,98.7924528 12.5214561,94.7717269 15.3892094,92.3285583 L15.3892094,92.1063516 C12.8370303,93.2140687 10.3962953,92.4800126 8.1607939,92.7961874 C25.4412419,75.0915062 8.88131829,73.3857102 7.35861743,55.1813402 L7.19310647,55.1813402 L7.19200306,55.1802347 Z" id="Shape"></path>
                <path d="M22.3550141,13.9426437 C15.4002434,20.9526583 8.31968443,16.9816802 0,21.7585723 C6.58733634,21.9664075 2.80375572,31.1056269 10.476844,24.6118837 C14.8992969,23.4223591 17.3753409,29.9282629 10.7460751,31.0039204 C11.0649596,35.056706 8.28768564,36.8144608 6.13052608,38.3256877 C26.7929148,37.0222959 12.4067018,26.1651199 22.7897563,15.9900412 C22.6441066,15.3079439 22.5006638,14.624741 22.3550141,13.9426437 Z" id="Shape"></path>
                <g transform="translate(28.820976, 0.000000)" id="Shape">
                    <path d="M4.80312816,8.82525571 C5.00063791,8.17964011 4.95650165,8.35320457 4.94326077,7.45332256 L6.29052001,8.04697937 C5.77743603,8.36647065 5.37248587,8.62847561 4.80202475,8.82636121 L4.80312816,8.82525571 Z M8.14203599,2.37352173 C6.72746896,2.82567375 8.30534014,3.05561904 5.96501512,4.59669463 C5.42655279,4.95266761 5.05911845,5.13286512 4.56037874,5.46009494 C2.90968274,6.54349098 4.41693591,6.6175599 2.51687005,7.98728203 C1.71690039,8.56325075 1.99826903,8.42727349 1.39911934,9.14916901 C0.315574237,10.4569828 -0.0253783477,9.93297288 0.00220681285,11.9560492 C0.0143442835,11.9659987 0.239439194,12.099765 0.365227526,12.2081046 L0.738178897,12.5961372 C2.09757561,13.2517024 2.60403916,11.5226907 2.92182021,11.2208876 L5.4982742,9.36916474 C5.51813552,9.35921518 5.57440925,9.33710506 5.59647737,9.32936652 C5.59868419,9.32936652 7.20303713,9.34926563 6.33244946,8.52124151 C6.41189472,8.53119107 6.52002855,8.49360386 6.56195799,8.58536087 L7.12690208,8.72354914 C7.83749582,8.77550793 7.86508098,7.9817545 8.16300071,7.61583196 C8.1949995,7.57382273 8.23692894,7.52186394 8.27444476,7.48427673 L10.5430484,5.89455887 C10.8641396,5.78621926 10.8663464,5.88460931 11.4632893,5.61707682 C11.4588757,5.21356707 11.2712966,5.1649248 11.4930813,4.82774542 C12.0458879,3.98977175 11.9741665,4.32363461 13.0257128,4.60222216 C12.5622821,4.25840974 11.7369341,4.05057458 12.5004914,3.54646377 C13.0257128,3.19822933 13.8311995,3.41048652 14.1666351,3.37068829 C14.9213651,3.28114229 15.0725317,2.45311818 15.8305719,2.58688442 C16.2520732,2.66095334 16.0038068,3.3187295 16.0501498,2.77703148 C16.7684674,2.27513169 16.5632338,1.90368161 17.8619432,1.59966742 C17.4470624,0.917570116 16.3855854,-0.395771207 15.257904,0.116078147 L8.1431394,2.37131072 L8.14203599,2.37352173 Z M0.738178897,12.5950317 C0.125788332,13.1732114 0.905896673,13.6087809 1.14533587,14.4644426 C1.79413884,14.7419247 2.0093031,15.2803062 2.31715349,15.7976831 L2.98361097,15.0083517 C2.48707808,14.6800164 2.85561582,15.428444 2.74196496,14.7242366 C2.67796739,14.3063553 2.53673137,14.6346906 2.89533845,14.3085663 C2.86775329,14.2908782 2.80375572,14.2709791 2.79713528,14.3041443 C2.79713528,14.3041443 2.60734938,14.3605251 2.46611335,14.0664604 C2.44404523,14.0200292 2.99133481,13.174317 2.09095517,13.5225514 C2.82913407,13.272707 3.0586426,13.7967169 3.43159397,14.0620384 C3.45586892,14.0078686 3.51324605,13.8718913 3.52759033,13.908373 L4.01639938,13.2284868 C4.87264276,12.281068 6.58512953,12.5242793 7.22510525,11.9792648 L10.0950654,8.9136962 C10.8277272,9.0032422 10.3885715,9.31388943 10.9811007,9.18122869 C11.5019085,9.06515054 11.2348842,8.85731539 11.92672,8.88716405 L11.7347273,7.89552502 C13.3887335,7.18800108 12.9319233,5.98189385 12.2776033,4.94603458 C13.9018175,5.650242 13.0841934,5.81385692 13.7683053,6.81765651 L14.0320195,6.83202809 C15.2137678,6.86187676 15.8780184,6.50369276 16.8699808,5.90671943 L17.1469358,5.75084306 C17.1844516,5.72652193 17.2407254,5.69446225 17.274931,5.6668246 C17.6081597,5.40703065 17.2054163,5.81275141 17.6942254,5.21135606 C17.7262242,5.17155783 17.7659468,5.11296601 17.7979456,5.07316779 L18.8097693,3.78746412 C19.6395309,3.07772916 18.795425,4.17770779 19.6362207,3.09541726 C19.0790005,2.3679942 18.6685333,1.83735124 17.8619432,1.60187843 C16.5643372,1.90589263 16.7684674,2.2773427 16.0501498,2.7792425 C16.0038068,3.32094052 16.2520732,2.66316435 15.8305719,2.58909544 C15.0725317,2.45532919 14.9224685,3.28445881 14.1666351,3.37289931 C13.8311995,3.41269753 13.0268162,3.19933484 12.5004914,3.54867479 C11.7380375,4.0527856 12.5622821,4.26062076 13.0257128,4.60443317 C11.9741665,4.32474011 12.0458879,3.99087725 11.4930813,4.82995643 C11.2712966,5.1660303 11.4588757,5.21577808 11.4632893,5.61928783 C10.8663464,5.88682032 10.8630362,5.78732477 10.5430484,5.89676988 L8.27444476,7.48648774 C8.23692894,7.52407495 8.1949995,7.57603374 8.16300071,7.61804298 C7.86397757,7.98396552 7.83749582,8.77771894 7.12690208,8.72576015 L6.56195799,8.58757188 C6.52002855,8.49581487 6.41189472,8.53340208 6.33244946,8.52345252 C7.20414053,9.35147664 5.59978759,9.33157753 5.59647737,9.33157753 C5.57440925,9.33931607 5.51703211,9.3614262 5.4982742,9.37137575 L2.92182021,11.2230986 C2.60293575,11.5249018 2.09757561,13.2528079 0.738178897,12.5983482 L0.738178897,12.5950317 Z M14.2184952,12.4391554 C13.8775426,14.2024377 13.8907835,15.6263296 12.9970243,17.1176574 L13.5399002,13.1444683 L13.2309464,13.5579276 C12.8381337,14.2134927 12.8282031,14.5374061 12.8039281,15.2593016 C12.8778564,14.9431268 13.2066715,15.0857371 12.570006,15.059205 C10.9435849,14.9928746 11.4346008,17.5145342 9.11744727,16.312849 L8.79414919,16.1271239 C9.90969308,18.5404439 9.11965408,17.8085988 8.30092652,20.2396068 C9.47826117,21.2257183 12.2621556,19.4878627 12.7189658,22.336752 C12.8988211,22.0747471 13.0819865,22.247206 12.8127554,21.0709475 C13.2199123,20.9029105 12.6251763,20.9250207 13.0621252,21.0753695 L13.2960474,21.1837091 C13.3159087,21.1936587 13.3799063,21.2378789 13.4273528,21.253356 C13.5972773,20.5192999 13.8323029,20.5812083 14.1754623,20.2119692 L14.6664782,19.4403259 C15.1332191,18.9605362 15.7400926,17.8727182 16.2035233,17.1773548 C16.696746,16.4333491 17.2230708,15.6594948 17.7482923,14.8204156 C18.8814907,13.0151241 19.8039385,11.4497273 19.414436,8.84404931 L19.0514153,9.2895683 C19.0116927,9.22765995 18.9697632,9.14585249 18.9476951,9.0938937 L18.7104627,8.51792499 C18.6486719,8.31782838 18.654189,8.17411258 18.6266038,7.97401596 C18.8561124,8.31230085 18.7325308,8.38194773 18.6663264,9.08947168 L18.0219371,8.71802161 L18.1852412,10.0059363 C17.2274845,9.98161515 17.3974091,10.1220144 16.7839151,10.7996897 C15.5789953,12.1274026 16.3712411,11.3259106 15.8835355,11.1611902 C15.5900293,11.0594837 16.1108372,10.498992 15.5205147,11.2927455 C15.0140512,11.9781593 15.4388627,11.8167554 14.8242653,12.1262971 C14.7966801,12.1406687 14.7282689,12.1484072 14.7006838,12.1605678 C14.1622214,12.3905131 14.5605512,11.7603746 14.2195986,12.4402609 L14.2184952,12.4391554 Z M6.94263321,15.1023197 C6.67560886,15.9480319 6.25190079,16.0276284 5.11870239,16.3360646 C3.41283606,16.8036937 4.39597119,16.2940553 3.30690905,16.0983808 C3.44483485,16.9385654 3.59820834,18.7316964 3.91378258,19.3972112 C4.33528383,20.2893546 5.64392385,21.0930576 5.66378517,21.698875 L6.32803583,22.1687151 L8.04383282,17.2978549 C8.18727566,16.1945598 8.00962722,15.9601925 8.79414919,16.1260184 L9.11744727,16.3117434 C11.4346008,17.5134286 10.9435849,14.9917691 12.570006,15.0580995 C13.2066715,15.0857371 12.8789598,14.9420213 12.8039281,15.2581961 C12.8282031,14.5363005 12.8381337,14.2123872 13.2309464,13.5568221 L13.5399002,13.1433628 L12.8491678,10.8118503 L12.0966446,11.5315348 C11.891411,11.7515305 11.8450679,11.8410765 11.5835606,12.0898154 L11.3441214,12.3020726 C11.3099158,12.3341323 11.2547455,12.3739305 11.2205399,12.4082012 L10.61808,13.1942161 C10.7195934,13.0206516 10.9115861,13.4960192 10.6302175,12.6646786 C10.4327077,12.0787603 10.6224936,12.5043802 10.2749206,12.1285081 L9.15496309,13.9857585 C8.02507491,13.4716981 9.53232808,12.9664818 6.94373662,15.1012142 L6.94263321,15.1023197 Z M20.5432208,7.54839609 C20.4737062,9.25198109 20.4450176,11.8034893 19.6671161,13.0925095 C19.0183131,14.1626395 17.6511925,15.9281328 17.3080331,16.9518315 L18.2315843,16.6677164 C18.2459286,16.6655054 18.3055125,16.6599779 18.3209602,16.6577669 L18.7479785,16.6378678 C19.8138691,16.6279182 18.8792839,16.5063125 20.3644689,15.6163801 C21.9246856,14.6789108 20.8157622,15.0205122 21.5660785,14.1526899 C21.9511674,13.7071709 21.4281527,14.0664604 21.9015141,13.9625428 C21.9335129,13.9548043 22.0129581,13.9625428 22.0449569,13.9603318 C22.0946102,13.9559098 22.2888097,13.997919 22.3638414,14.0023411 C22.9188548,12.7166374 24.325698,8.54556265 24.1502564,7.31402878 L23.777305,6.14993079 C23.3326322,6.43625689 23.1726383,7.09403305 23.0071273,7.32950587 C22.7136212,7.74959821 21.9136516,7.8192451 21.2549179,8.70143902 C20.6921806,9.45318321 21.3829131,8.00165361 21.03534,9.10163225 C20.7517646,9.99709224 20.8256928,9.10937079 21.059615,9.52172459 C21.0552014,9.24424254 21.0739593,8.7158106 21.0077549,8.46817722 C20.7506612,7.52407495 20.9360335,8.03039677 20.5443242,7.54839609 L20.5432208,7.54839609 Z M2.31715349,15.7976831 C3.73834096,15.3798018 3.92592005,14.712076 4.77002596,14.2720846 C5.90322436,13.6839553 6.43616966,14.6877549 6.9415298,15.1034252 C9.53012127,12.9697983 8.0228681,13.4739091 9.15275627,13.9879695 L10.2727138,12.1307191 C10.6202868,12.5065912 10.4305009,12.0809714 10.6280107,12.6668896 C10.9093793,13.4982303 10.7173866,13.0228626 10.6158732,13.1964271 L11.2183331,12.4104122 C11.2525387,12.3761415 11.307709,12.3363433 11.3419146,12.3042836 L11.5813538,12.0920264 C11.8428611,11.842182 11.8903076,11.7537415 12.0944378,11.5337458 L12.846961,10.8140613 L11.9234098,8.88826956 C11.2326774,8.85842089 11.4985983,9.06625605 10.9777905,9.1823342 C10.3852612,9.31610044 10.824417,9.0043477 10.0917551,8.91480171 L7.22179504,11.9803703 C6.58292272,12.5242793 4.86933254,12.2821735 4.01308916,13.2295923 L3.52428011,13.9094786 C3.50993583,13.8718913 3.4525587,14.0078686 3.42828375,14.0631439 C3.05533238,13.7989279 2.82582385,13.2738125 2.08764495,13.5236569 C2.98802459,13.1754225 2.44073501,14.0211347 2.46280314,14.0675659 C2.60293575,14.3616306 2.79382506,14.3052498 2.79382506,14.3052498 C2.80154891,14.2731901 2.86554648,14.2930892 2.89202823,14.3096718 C2.53452455,14.6357961 2.67465717,14.3074608 2.73865474,14.7253421 C2.8523056,15.4295495 2.48487126,14.6811219 2.98030075,15.0094572 L2.31384327,15.7987886 L2.31715349,15.7976831 Z M13.7660985,6.81655101 C13.4284562,7.54618507 13.0819865,8.20175023 12.610832,8.66827383 C12.8105486,9.47197681 13.2154987,10.7035107 13.7925803,11.1899334 L13.4295596,10.588538 C15.4730683,10.1485466 14.2813893,9.60463755 15.317488,8.78324647 C16.2796584,8.02155273 16.3789649,9.55488977 19.7377341,5.91445798 L19.6340139,3.09320625 C18.7921148,4.17660229 19.6362207,3.07551815 18.8075625,3.78525311 L17.7957388,5.07095677 C17.76374,5.110755 17.7240174,5.16934682 17.6920186,5.20914504 C17.2032095,5.8105404 17.6059529,5.40481964 17.2727241,5.66461358 C17.2385185,5.69225124 17.1811414,5.72431092 17.144729,5.74863205 L16.867774,5.90450842 C15.8758116,6.50037624 15.2115609,6.85856024 14.0298127,6.82981708 L13.7660985,6.8154455 L13.7660985,6.81655101 Z M12.716759,22.334541 C12.7586885,24.7555995 11.8031385,25.4896556 9.77949112,25.6212109 L10.1502357,27.8388562 C10.9148963,27.9471958 11.0064791,27.8532278 11.3838441,28.0389528 C11.1587492,27.1014836 11.1223367,26.8914374 11.7832772,26.281198 L12.0425777,26.0811014 C12.9065449,25.4929721 13.6734124,25.645532 14.2736655,24.6959022 C14.3012506,24.7677601 14.3851095,24.7799207 14.4137981,24.8716777 C14.7812324,25.9650233 13.8907835,24.5035441 14.84523,25.0773018 L14.9412264,24.5477644 C15.0328091,24.0237544 14.9853626,24.5278653 15.464241,24.5676635 C15.4046571,23.9120983 15.7798152,23.5196436 16.0490464,23.1017623 C16.4164808,22.5280046 16.5036499,22.2217794 16.8909455,21.7021915 L15.2921096,22.0017837 C14.6598577,22.589913 14.6554441,19.9742854 14.6631679,19.4403259 L14.1721521,20.2119692 C13.8289927,20.5801027 13.5950705,20.5181944 13.4240425,21.253356 C13.3776995,21.2389844 13.3125985,21.1936587 13.2927372,21.1837091 L13.058815,21.0753695 C12.6218661,20.9250207 13.2166021,20.901805 12.8094452,21.0709475 C13.0786763,22.2483115 12.8955109,22.0747471 12.7156556,22.336752 L12.716759,22.334541 Z M20.0488947,18.5260723 C19.6218764,18.6742101 19.9992414,18.4122052 19.6273934,18.8776233 C19.4718131,19.0699813 19.5016051,19.0777199 19.3702997,19.2977156 C19.1231367,19.7034364 19.0194165,19.8615237 18.7358411,20.2838271 C18.9973484,21.9232927 19.5998083,20.6574882 20.0290334,22.6871975 C20.204475,23.5130106 19.9208996,23.2012579 20.3247463,23.5749189 L20.5498412,23.4765289 C21.3023644,22.8806611 21.0827865,23.2487946 21.2207123,22.4285091 L21.2085748,20.4529695 L22.368255,20.4651301 L22.5183183,20.1390058 C23.1053305,19.4071607 22.4024606,19.8349916 23.258704,19.1716879 C24.8211275,17.9622642 28.5594684,15.5765818 24.6953391,16.3426976 C24.1668075,16.4488262 23.1825689,17.2702173 22.5381796,17.7699061 L21.4325664,18.4177327 C20.3832268,18.8477746 20.576323,18.7173249 20.0477913,18.5260723 L20.0488947,18.5260723 Z M13.7925803,11.1899334 C13.8003041,11.5436954 13.742927,11.5116357 13.8466472,11.8278104 C14.226219,12.9896974 13.8168552,11.9460996 14.2173918,12.4380498 C14.5583443,11.7581636 14.161118,12.3883021 14.698477,12.1583568 C14.7260621,12.1461962 14.7944733,12.1384577 14.8220585,12.1240861 C15.4366559,11.8145444 15.0118444,11.9759483 15.5183079,11.2905345 C16.1086304,10.496781 15.5878225,11.0583782 15.8813286,11.1589792 C16.3701377,11.3248051 15.5778919,12.1262971 16.7817083,10.7974787 C17.3963057,10.1198034 17.2263811,9.97940414 18.1830344,10.0037253 L18.0197303,8.7158106 L18.6641196,9.08726067 C18.730324,8.37973672 18.8539055,8.31119534 18.624397,7.97180495 C18.6519822,8.17190156 18.6464651,8.31561736 18.7082559,8.51571398 L18.9454883,9.09168269 C18.9675564,9.14364148 19.0094858,9.22544894 19.0492085,9.28735728 L19.4122292,8.8418383 L19.7377341,5.91445798 C16.3789649,9.55378427 16.2796584,8.02155273 15.317488,8.78324647 C14.2813893,9.60463755 15.4730683,10.1485466 13.4295596,10.588538 L13.7925803,11.1899334 Z M22.7268621,15.7225087 C23.8379924,15.9347658 23.4551103,15.6064305 24.8564365,14.5031354 L25.6950254,13.7812398 C25.7248173,13.7491802 25.76454,13.6894828 25.7965388,13.6574231 L26.5413381,13.1411518 L26.6770571,11.6531405 C26.6969184,11.7272094 26.7509853,12.0013749 26.7708466,12.0511227 C26.9827007,12.5806601 26.6671264,11.8709252 26.902152,12.3407653 L27.0820072,12.6326189 C27.6469513,11.4453053 26.6969184,12.9808534 27.274,11.4530439 C27.3159294,11.6929387 27.3379975,12.0511227 27.4075121,12.278857 C27.6491581,13.0626608 29.2259259,13.0825599 29.750044,13.6408406 C30.0909965,12.2467973 27.5465413,11.2418922 26.8701532,10.3375881 C26.0359779,9.22434343 26.2092128,8.90816867 24.974501,8.38636976 C25.327591,10.5177856 25.3353149,10.3276386 24.426108,12.2434808 C23.8291651,13.5070743 23.3447697,14.532984 22.7257587,15.7225087 L22.7268621,15.7225087 Z M17.3069297,16.9518315 C16.6360586,17.4935295 15.5624442,19.0887749 15.4554138,20.1113681 C15.8305719,20.8675343 15.2380427,20.4253319 16.3535866,20.5093504 C16.5235112,20.5237219 17.3312047,20.4673411 17.5772643,20.4717631 C17.9766974,18.6344119 18.9399712,17.9821633 20.0235163,17.1884098 C20.853278,16.5825925 20.6723193,16.4609868 21.3862233,15.8308483 C22.3837027,14.9508654 21.8176552,15.2626181 22.3605312,14.0012356 C22.2866029,13.9968135 22.0913,13.9548043 22.0416467,13.9592263 C22.0096479,13.9614373 21.9302026,13.9548043 21.8982039,13.9614373 C21.4248425,14.0653549 21.9478572,13.7071709 21.5627683,14.1515844 C20.8124519,15.0194067 21.920272,14.6778053 20.3611587,15.6152746 C18.8759737,16.505207 19.8105589,16.6268127 18.7446683,16.6367623 L18.31765,16.6566614 C18.3033057,16.6588724 18.2437218,16.6643999 18.2282741,16.6666109 L17.3047229,16.950726 L17.3069297,16.9518315 Z M22.7268621,15.7225087 C22.5116978,16.0187843 22.0008207,16.6621889 21.4678754,17.0679097 C20.747351,17.6195572 20.6855602,17.6317178 20.0488947,18.5271778 C20.5774264,18.7173249 20.3843302,18.8488801 21.4336698,18.4188382 L22.539283,17.7710116 C23.1836723,17.2713228 24.1679109,16.4510372 24.6964425,16.3438031 C27.0158028,15.8839126 28.4127154,16.9993683 29.7511474,13.6408406 C29.2281327,13.0825599 27.6513649,13.0626608 27.4086155,12.278857 C27.3391009,12.0511227 27.3170328,11.6929387 27.2751034,11.4530439 C26.6980218,12.9808534 27.6480547,11.4453053 27.0831106,12.6326189 L26.9032554,12.3407653 C26.6693332,11.8709252 26.9849075,12.5806601 26.77195,12.0511227 C26.7520887,12.0013749 26.6980218,11.7272094 26.6781605,11.6531405 L26.5424415,13.1411518 L25.7976422,13.6574231 C25.7656434,13.6894828 25.7259207,13.7491802 25.6961288,13.7812398 L24.8575399,14.5031354 C23.4562137,15.6064305 23.8379924,15.9347658 22.7279655,15.7225087 L22.7268621,15.7225087 Z M7.71943133,21.6524437 C8.39030244,21.6668153 9.77066387,21.6325446 10.3676067,21.7287237 C11.503012,21.9166597 11.3595691,22.330119 11.2679864,23.4643683 L9.44626238,24.4040486 L9.77949112,25.6201053 C11.8031385,25.4885501 12.7586885,24.754494 12.716759,22.3334355 C12.2599488,19.4845461 9.47605436,21.2235073 8.2987197,20.2362903 L7.71832793,21.6502327 L7.71943133,21.6524437 Z M9.44736579,24.4040486 L11.2690898,23.4643683 C11.3606725,22.3290135 11.503012,21.9166597 10.3687102,21.7287237 C9.77176728,21.6325446 8.39140584,21.6668153 7.72053474,21.6524437 C6.80250059,24.1641537 7.75474034,24.5632415 9.05565651,27.1070111 C9.22889132,25.9617068 8.78863216,24.5477644 9.23330494,22.7999591 L9.4484692,24.4051541 L9.44736579,24.4040486 Z M20.6866636,3.83389538 C20.6590784,4.97588324 20.7142488,6.3135457 20.5432208,7.54839609 C20.9360335,8.03039677 20.7506612,7.52407495 21.0066515,8.46817722 C21.0728559,8.7158106 21.0529945,9.24424254 21.0585116,9.52172459 C20.8245894,9.10826528 20.7495578,9.99598673 21.0342366,9.10163225 C21.3818097,8.00165361 20.6910772,9.45318321 21.2538145,8.70143902 C21.9125481,7.8192451 22.7125178,7.74959821 23.0060239,7.32950587 C23.1715349,7.09513856 23.3315288,6.43736239 23.7762016,6.14993079 C23.5124875,5.92219652 21.5627683,3.21260091 21.377396,2.88316008 C21.0618218,3.43701866 21.0640286,2.84557287 20.6866636,3.83500088 L20.6866636,3.83389538 Z M17.5894018,21.9243982 C18.0241439,22.0703251 18.3496488,21.9122377 18.447852,22.7004636 C18.4798508,22.952519 18.3165466,23.4146206 18.1565527,23.6080841 C17.6434687,24.2139015 16.8953591,24.0038553 16.0854588,23.8822497 C15.488516,25.0463476 16.0391158,24.2680713 15.4664478,24.5676635 L15.3450731,25.4973942 C15.9022934,25.1591093 16.0015999,25.1115725 16.8335684,25.1557928 C16.9714942,25.1635313 17.3245842,25.2077515 17.4481658,25.2597103 C18.1223471,25.5416144 17.628021,24.9977054 17.9866281,25.7638211 C18.8163897,24.9678567 18.2900649,24.9656457 19.4971915,24.566558 C19.5071221,24.1309885 19.3294737,24.490278 19.6748399,24.0447591 C19.9705528,23.6611484 19.9242098,23.7728045 20.3258497,23.5749189 C19.9208996,23.2012579 20.204475,23.5130106 20.0301368,22.6871975 C19.6009117,20.6574882 18.9984518,21.9232927 18.7369445,20.2838271 C18.3022023,20.8520573 18.070487,21.4357645 17.5894018,21.9232927 L17.5894018,21.9243982 Z M11.3849475,28.0389528 C11.6100424,28.4944214 12.4166325,29.4606338 12.4784232,29.8088682 L12.8017213,29.4473677 C12.8259963,29.4031474 12.8855802,29.32134 12.9098551,29.2693812 L13.0279196,28.7851695 C13.3832165,29.3147069 13.5730024,29.3246565 13.2552214,30.1526806 L14.0033309,29.2970188 C13.5741058,27.1479149 14.1953236,28.6690913 14.2869064,27.4132363 C14.432556,26.0258261 14.4502105,26.1717529 14.8474368,25.0761963 C13.8918869,24.5024386 14.7834392,25.9639178 14.4160049,24.8705722 C14.3862129,24.7788152 14.302354,24.7666546 14.2758723,24.6947967 C13.6756192,25.6444265 12.9087517,25.4907611 12.0447845,26.0799959 L11.785484,26.2800925 C11.1245436,26.8903319 11.160956,27.1014836 11.3860509,28.0378473 L11.3849475,28.0389528 Z M12.4784232,29.8088682 L12.570006,32.3382663 C13.7098248,32.7097164 12.8613053,32.2067111 13.7054112,32.2199771 L13.9724355,32.2597754 C14.096017,31.8816923 14.1004307,31.9259125 14.2140815,31.6417974 C14.2416667,31.5776781 14.3200086,31.3720539 14.3475937,31.3079346 L14.5053808,30.9641221 C14.5230353,30.9243239 14.5550341,30.845833 14.5892397,30.7905577 C14.7227519,31.4063246 14.8529539,31.55999 15.1376327,32.0265136 L15.8978797,29.229583 L15.9000865,29.3533997 L14.0044343,29.2970188 L13.2563248,30.1526806 C13.5752092,29.3246565 13.3843199,29.3147069 13.029023,28.7851695 L12.9109585,29.2693812 C12.8866836,29.32134 12.8270997,29.4031474 12.8028247,29.4473677 L12.4795266,29.8088682 L12.4784232,29.8088682 Z M12.570006,32.3382663 L13.0566082,34.264058 C13.601691,34.7316872 14.0044343,36.0472395 14.774612,36.3733638 L15.1376327,32.0265136 C14.8540573,31.5588845 14.7227519,31.4063246 14.5892397,30.7905577 C14.5550341,30.8447275 14.5230353,30.9243239 14.5053808,30.9641221 L14.3475937,31.3079346 C14.3200086,31.3720539 14.2416667,31.5776781 14.2140815,31.6417974 C14.1004307,31.9259125 14.096017,31.8816923 13.9724355,32.2597754 L13.7054112,32.2199771 C12.8613053,32.2078166 13.7098248,32.7097164 12.570006,32.3382663 Z M14.9246753,27.9295077 L16.0258749,27.8311177 C16.9361852,27.0296257 16.4407557,26.1794915 17.9877315,25.7638211 C17.6302278,24.9977054 18.1234505,25.5416144 17.4492692,25.2597103 C17.3256876,25.2077515 16.9725976,25.1635313 16.8346718,25.1557928 C16.0027033,25.1115725 15.9045002,25.1580038 15.3461765,25.4973942 L14.9246753,27.9306132 L14.9246753,27.9295077 Z M20.687767,3.83278987 C21.065132,2.84336185 21.0629252,3.43480765 21.3784994,2.88094906 C20.0676526,0.983900486 19.6307037,1.21716229 18.3253739,1.08339604 C18.7623228,1.78539245 19.1032754,1.7754429 19.5744299,2.33261801 C20.0511015,2.88868761 20.0731696,3.33199558 20.687767,3.83389538 L20.687767,3.83278987 Z M14.0044343,29.2959133 L15.9000865,29.3522942 L16.0258749,27.8289067 L14.9246753,27.9272967 C14.8628845,27.8775489 14.7845427,27.8233791 14.7326826,27.7835809 C14.6885463,27.7493102 14.6046874,27.6851909 14.5594477,27.6498147 C14.5131047,27.6122275 14.3420767,27.4640896 14.2880098,27.4099198 C14.196427,28.6657748 13.5752092,27.1457039 14.0044343,29.2937023 L14.0044343,29.2959133 Z M16.0876656,23.8811442 C16.897566,24.0027498 17.6445721,24.212796 18.1587595,23.6069786 C18.3187534,23.4146206 18.4820576,22.9514135 18.4500588,22.6993581 C18.3518556,21.9100267 18.0252473,22.0692195 17.5916086,21.9232927 C17.3963057,22.2847933 17.150246,22.6374497 16.8754978,22.961363 C16.4286182,23.4931115 16.4628238,23.3294966 16.0876656,23.8811442 Z M10.1524425,27.8377507 C10.3179535,29.5612348 10.3124364,29.8210288 11.4059122,31.0647232 L11.3860509,28.0378473 C11.0086859,27.8521223 10.9171031,27.9460903 10.1524425,27.8377507 Z M15.2954198,21.9995727 L16.8942557,21.6999805 L17.5805745,20.4706576 C17.3334115,20.4662356 16.5268214,20.5226164 16.3568968,20.5082448 C15.2413529,20.4242264 15.8338822,20.8664288 15.458724,20.1102626 C15.2071473,20.6619102 15.3009369,21.3981773 15.2954198,21.9995727 Z M14.8485402,25.0750908 C14.4513139,26.1706474 14.4336594,26.0247206 14.2880098,27.4121308 C14.3420767,27.4663006 14.5131047,27.6144385 14.5594477,27.6520257 C14.603584,27.6862964 14.6874429,27.7504157 14.7326826,27.7857919 C14.7845427,27.8255901 14.8639879,27.8797599 14.9246753,27.9295077 L15.3461765,25.4962887 L15.4675512,24.566558 C14.9886728,24.5267598 15.0361193,24.0226489 14.9445366,24.5466589 L14.8485402,25.0761963 L14.8485402,25.0750908 Z M21.2229191,22.4274035 C21.5936637,21.9354533 22.121092,21.351746 22.3704618,20.4640246 L21.2107817,20.451864 L21.2229191,22.4274035 Z"></path>
                    <path d="M29.7511474,13.6419461 C26.7399512,14.5816263 12.5148356,21.61154 14.7735086,36.3755748 C17.2683105,30.5893556 21.5109082,27.9140306 24.124878,26.014771 C24.6500995,25.6311604 21.6620749,25.3470453 22.1552976,25.0087604 C25.5416519,22.6916195 30.2156815,20.899594 29.7522508,13.6419461 L29.7511474,13.6419461 Z"></path>
                </g>
            </g>
        </g>
    </g>
</svg>