<?xml version="1.0" encoding="UTF-8"?>
<!DOCTYPE svg PUBLIC "-//W3C//DTD SVG 1.1//EN" "http://www.w3.org/Graphics/SVG/1.1/DTD/svg11.dtd">
<!-- Creator: CorelDRAW 2017 -->
<svg xmlns="http://www.w3.org/2000/svg" xml:space="preserve" width="18.5942mm" height="27.2346mm" version="1.1" style="shape-rendering:geometricPrecision; text-rendering:geometricPrecision; image-rendering:optimizeQuality; fill-rule:evenodd; clip-rule:evenodd"
viewBox="0 0 16570 24271"
 xmlns:xlink="http://www.w3.org/1999/xlink">
 <defs>
  <style type="text/css">
   <![CDATA[
    .fil1 {fill:#D6BB74}
    .fil0 {fill:#D6BB74;fill-rule:nonzero}
   ]]>
  </style>
 </defs>
 <g id="Слой_x0020_1">
  <metadata id="CorelCorpID_0Corel-Layer"/>
  <path class="fil0" d="M665 19756l1107 0 0 -502c0,-107 -6,-187 -18,-238 -12,-51 -34,-94 -66,-126 -29,-30 -62,-52 -99,-66 -37,-13 -85,-22 -146,-25l0 -35 994 0 0 35c-59,3 -107,12 -144,25 -37,13 -70,35 -99,65 -32,33 -54,75 -66,127 -12,52 -18,130 -18,237l0 1149c0,106 6,184 18,235 12,51 34,94 66,128 29,29 62,51 99,65 37,14 85,22 144,25l0 35 -994 0 0 -35c61,-3 109,-12 146,-25 37,-14 70,-36 99,-65 32,-33 54,-75 66,-126 12,-51 18,-130 18,-237l0 -574 -1107 0 0 574c0,106 6,184 18,236 12,51 34,94 66,126 28,29 61,51 98,65 37,14 85,22 146,25l0 35 -992 0 0 -35c60,-3 108,-12 146,-25 37,-14 69,-36 97,-65 33,-33 55,-75 67,-126 11,-51 17,-130 17,-237l0 -1149c0,-107 -6,-186 -17,-237 -12,-51 -34,-93 -67,-126 -28,-30 -61,-52 -98,-65 -37,-13 -86,-22 -145,-25l0 -35 992 0 0 35c-60,3 -107,12 -144,25 -37,14 -70,36 -99,66 -32,33 -54,75 -66,127 -12,52 -18,131 -18,237l0 502z"/>
  <path id="1" class="fil0" d="M4762 20891l-1024 0 0 -35c93,-8 157,-24 193,-47 64,-40 97,-97 97,-168 0,-43 -14,-99 -44,-171l-27 -65 -149 -368 -687 0 -81 215 -39 96c-47,114 -70,204 -70,269 0,39 9,74 26,108 17,33 40,60 69,81 41,28 93,45 157,50l0 35 -698 0 0 -35c55,-3 103,-16 145,-40 42,-24 82,-63 121,-115 34,-43 66,-98 98,-165 31,-67 73,-167 125,-301l570 -1470 89 0 679 1638c51,124 91,212 122,265 30,53 63,93 98,120 25,19 54,33 86,43 32,10 81,18 145,25l0 35zm-978 -919l-327 -808 -310 808 637 0z"/>
  <path id="2" class="fil0" d="M5471 19852l0 551c0,106 6,185 18,236 12,52 34,94 66,127 28,29 61,51 98,65 37,14 86,22 147,25l0 35 -994 0 0 -35c60,-3 108,-12 146,-25 37,-14 69,-36 97,-65 33,-33 55,-75 67,-126 11,-51 17,-130 17,-237l0 -1149c0,-107 -6,-186 -17,-237 -12,-51 -34,-93 -67,-126 -28,-30 -61,-52 -98,-65 -37,-13 -86,-22 -145,-25l0 -35 751 0c125,0 208,1 248,2 161,7 287,29 378,65 103,41 183,104 239,187 57,82 85,179 85,288 0,162 -61,292 -184,390 -37,29 -79,53 -124,72 -45,19 -106,37 -181,53 61,26 107,53 136,81 24,22 45,49 65,82 19,33 48,91 87,174 92,190 162,330 209,417 47,88 87,151 119,191 26,32 51,55 75,67 24,13 58,21 100,25l0 35 -514 0c-26,-57 -43,-94 -50,-109l-109 -248c-66,-148 -132,-280 -198,-393 -66,-113 -128,-191 -183,-232 -28,-21 -58,-36 -90,-44 -32,-9 -72,-13 -119,-13l-77 0zm0 -35l60 0c130,0 223,-7 279,-22 56,-15 108,-45 157,-90 110,-104 165,-233 165,-387 0,-82 -16,-159 -48,-232 -32,-72 -76,-132 -132,-179 -44,-36 -96,-60 -157,-74 -61,-14 -147,-21 -259,-21l-64 0 0 1005z"/>
  <path id="3" class="fil0" d="M7536 19852l0 551c0,106 6,185 18,236 12,52 34,94 66,127 28,29 61,51 98,65 37,14 86,22 147,25l0 35 -994 0 0 -35c60,-3 108,-12 146,-25 37,-14 69,-36 97,-65 33,-33 55,-75 67,-126 11,-51 17,-130 17,-237l0 -1149c0,-107 -6,-186 -17,-237 -12,-51 -34,-93 -67,-126 -28,-30 -61,-52 -98,-65 -37,-13 -86,-22 -145,-25l0 -35 751 0c125,0 208,1 248,2 161,7 287,29 378,65 103,41 183,104 239,187 57,82 85,179 85,288 0,162 -61,292 -184,390 -37,29 -79,53 -124,72 -45,19 -106,37 -181,53 61,26 107,53 136,81 24,22 45,49 65,82 19,33 48,91 87,174 92,190 162,330 209,417 47,88 87,151 119,191 26,32 51,55 75,67 24,13 58,21 100,25l0 35 -514 0c-26,-57 -43,-94 -50,-109l-109 -248c-66,-148 -132,-280 -198,-393 -66,-113 -128,-191 -183,-232 -28,-21 -58,-36 -90,-44 -32,-9 -72,-13 -119,-13l-77 0zm0 -35l60 0c130,0 223,-7 279,-22 56,-15 108,-45 157,-90 110,-104 165,-233 165,-387 0,-82 -16,-159 -48,-232 -32,-72 -76,-132 -132,-179 -44,-36 -96,-60 -157,-74 -61,-14 -147,-21 -259,-21l-64 0 0 1005z"/>
  <path id="4" class="fil0" d="M9927 18764l0 35c-59,3 -107,12 -144,25 -37,13 -70,35 -99,65 -40,41 -65,99 -74,173 -6,55 -10,119 -10,190l0 1149c0,87 4,155 12,205 8,49 22,90 41,120 27,42 62,73 104,93 43,20 99,32 170,37l0 35 -992 0 0 -35c60,-3 108,-12 146,-25 37,-14 69,-36 97,-65 33,-33 55,-75 67,-126 11,-51 17,-130 17,-237l0 -1149c0,-107 -6,-186 -17,-237 -12,-51 -34,-93 -67,-126 -28,-30 -61,-52 -98,-65 -37,-13 -86,-22 -145,-25l0 -35 992 0z"/>
  <path id="5" class="fil0" d="M10155 20882l5 -644 37 6c44,164 96,292 156,386 113,174 256,261 428,261 120,0 219,-40 297,-120 78,-80 117,-181 117,-304 0,-53 -9,-107 -26,-162 -17,-55 -40,-103 -69,-142 -30,-40 -73,-79 -128,-117 -55,-37 -138,-84 -251,-142 -99,-49 -175,-92 -228,-126 -53,-34 -95,-69 -128,-104 -90,-98 -134,-217 -134,-357 0,-86 18,-169 53,-249 35,-80 84,-148 146,-206 111,-102 242,-153 393,-153 49,0 95,5 137,14 41,10 97,29 167,58 52,21 88,34 106,39 19,6 36,9 51,9 36,0 61,-26 73,-79l35 0 10 619 -35 0c-28,-99 -52,-175 -73,-228 -20,-53 -44,-101 -72,-146 -51,-81 -107,-141 -169,-181 -62,-39 -132,-59 -213,-59 -116,0 -208,39 -276,119 -28,32 -50,71 -66,114 -16,44 -24,87 -24,131 0,174 112,314 335,420l220 106c169,80 292,169 366,266 86,108 128,234 128,378 0,95 -19,186 -58,273 -54,121 -135,214 -243,280 -108,65 -236,98 -383,98 -134,0 -264,-27 -387,-80 -65,-29 -103,-45 -116,-49 -12,-4 -27,-6 -42,-6 -50,0 -85,25 -103,75l-35 0z"/>
  <path id="6" class="fil0" d="M11804 19841c0,-174 37,-336 112,-485 75,-149 184,-279 327,-390 107,-82 223,-145 346,-189 124,-44 248,-66 374,-66 160,0 315,35 465,105 149,70 280,169 392,297 183,208 274,444 274,709 0,133 -24,261 -72,385 -48,123 -117,236 -209,338 -112,127 -245,225 -398,295 -153,70 -314,104 -481,104 -165,0 -323,-34 -474,-102 -151,-67 -281,-163 -390,-286 -86,-97 -153,-206 -199,-330 -46,-123 -69,-251 -69,-384zm376 22c0,302 82,556 246,763 74,93 152,160 235,202 82,42 178,63 286,63 109,0 205,-21 287,-62 83,-42 162,-110 237,-203 164,-208 246,-464 246,-769 0,-167 -23,-326 -68,-475 -45,-149 -108,-276 -191,-380 -66,-86 -140,-148 -222,-187 -81,-39 -178,-59 -289,-59 -110,0 -206,19 -286,58 -81,38 -155,100 -224,187 -82,103 -146,229 -190,379 -45,149 -67,310 -67,482z"/>
  <path id="7" class="fil0" d="M14706 19046l0 1357c0,107 6,186 18,237 12,51 34,93 66,126 29,30 62,52 99,65 37,13 85,22 144,25l0 35 -718 0 0 -35c59,-3 107,-12 144,-25 37,-13 70,-35 99,-65 32,-33 54,-76 66,-127 12,-52 18,-130 18,-237l0 -1151c0,-105 -6,-183 -18,-235 -12,-52 -34,-94 -66,-127 -28,-30 -61,-52 -97,-65 -37,-13 -86,-22 -146,-25l0 -35 600 0 1264 1615 0 -1126c0,-107 -6,-186 -18,-237 -12,-51 -34,-93 -66,-126 -29,-30 -62,-52 -99,-65 -37,-13 -85,-22 -144,-25l0 -35 718 0 0 35c-104,0 -184,30 -243,90 -32,33 -54,75 -66,127 -12,52 -18,130 -18,235l0 1640 -70 0 -1467 -1846z"/>
  <path class="fil0" d="M3093 22092l979 0 0 35c-92,0 -155,7 -188,20 -28,13 -51,33 -69,61 -17,28 -27,60 -27,95 0,44 16,104 50,181l41 96 486 1185 336 -1021c44,-131 65,-229 65,-293 0,-48 -9,-94 -25,-139 -17,-46 -40,-82 -68,-110 -27,-27 -57,-46 -93,-58 -34,-11 -79,-17 -133,-17l0 -35 1001 0 0 35c-62,0 -106,2 -133,6 -28,4 -54,13 -78,27 -31,19 -56,45 -76,80 -19,35 -29,72 -29,113 0,38 14,103 44,195l384 1236 429 -1052c66,-161 100,-286 100,-374 0,-93 -31,-158 -92,-197 -37,-23 -94,-34 -170,-34l0 -35 721 0 0 35c-69,7 -122,21 -157,40 -36,19 -71,54 -106,105 -52,73 -116,204 -195,394l-642 1553 -64 0 -555 -1661 -561 1661 -70 0 -696 -1678 -47 -114c-32,-77 -59,-132 -81,-167 -22,-34 -48,-61 -79,-81 -25,-17 -52,-29 -81,-36 -29,-7 -70,-13 -123,-17l0 -35z"/>
  <path id="1" class="fil0" d="M6648 23169c0,-174 37,-336 112,-485 75,-149 184,-279 327,-390 107,-82 223,-145 346,-189 124,-44 248,-66 374,-66 160,0 315,35 465,105 149,70 280,169 392,297 183,208 274,444 274,709 0,133 -24,261 -72,385 -48,123 -117,236 -209,338 -112,127 -245,225 -398,295 -153,70 -314,104 -481,104 -165,0 -323,-34 -474,-102 -151,-67 -281,-163 -390,-286 -86,-97 -153,-206 -199,-330 -46,-123 -69,-251 -69,-384zm376 22c0,302 82,556 246,763 74,93 152,160 235,202 82,42 178,63 286,63 109,0 205,-21 287,-62 83,-42 162,-110 237,-203 164,-208 246,-464 246,-769 0,-167 -23,-326 -68,-475 -45,-149 -108,-276 -191,-380 -66,-86 -140,-148 -222,-187 -81,-39 -178,-59 -289,-59 -110,0 -206,19 -286,58 -81,38 -155,100 -224,187 -82,103 -146,229 -190,379 -45,149 -67,310 -67,482z"/>
  <path id="2" class="fil0" d="M9828 23180l0 551c0,106 6,185 18,236 12,52 34,94 66,127 28,29 61,51 98,65 37,14 86,22 147,25l0 35 -994 0 0 -35c60,-3 108,-12 146,-25 37,-14 69,-36 97,-65 33,-33 55,-75 67,-126 11,-51 17,-130 17,-237l0 -1149c0,-107 -6,-186 -17,-237 -12,-51 -34,-93 -67,-126 -28,-30 -61,-52 -98,-65 -37,-13 -86,-22 -145,-25l0 -35 751 0c125,0 208,1 248,2 161,7 287,29 378,65 103,41 183,104 239,187 57,82 85,179 85,288 0,162 -61,292 -184,390 -37,29 -79,53 -124,72 -45,19 -106,37 -181,53 61,26 107,53 136,81 24,22 45,49 65,82 19,33 48,91 87,174 92,190 162,330 209,417 47,88 87,151 119,191 26,32 51,55 75,67 24,13 58,21 100,25l0 35 -514 0c-26,-57 -43,-94 -50,-109l-109 -248c-66,-148 -132,-280 -198,-393 -66,-113 -128,-191 -183,-232 -28,-21 -58,-36 -90,-44 -32,-9 -72,-13 -119,-13l-77 0zm0 -35l60 0c130,0 223,-7 279,-22 56,-15 108,-45 157,-90 110,-104 165,-233 165,-387 0,-82 -16,-159 -48,-232 -32,-72 -76,-132 -132,-179 -44,-36 -96,-60 -157,-74 -61,-14 -147,-21 -259,-21l-64 0 0 1005z"/>
  <path id="3" class="fil0" d="M11893 23135l660 -655c65,-64 106,-108 122,-132 16,-23 24,-49 24,-77 0,-51 -25,-89 -75,-115 -26,-13 -70,-22 -131,-28l0 -35 672 0 0 35c-46,4 -84,12 -115,23 -30,11 -64,29 -100,55 -40,29 -110,91 -209,185l-506 485 719 917 89 114c65,81 133,145 204,190 43,28 80,48 112,60 32,12 73,21 122,27l0 35 -1030 0 0 -35c78,-6 134,-19 169,-39 35,-20 52,-49 52,-88 0,-41 -21,-95 -64,-159 -21,-31 -60,-85 -117,-162 -57,-77 -106,-139 -145,-187l-351 -435 -102 100 0 516c0,106 6,185 18,237 12,51 34,94 66,127 28,29 61,51 98,65 37,14 86,22 146,25l0 35 -992 0 0 -35c60,-3 108,-12 146,-25 37,-14 69,-36 97,-65 33,-33 55,-75 67,-126 11,-51 17,-130 17,-237l0 -1149c0,-107 -6,-186 -17,-237 -12,-51 -34,-93 -67,-126 -28,-30 -61,-52 -98,-65 -37,-13 -86,-22 -145,-25l0 -35 992 0 0 35c-59,3 -107,12 -144,25 -37,13 -70,35 -99,65 -32,33 -54,75 -66,127 -12,52 -18,130 -18,237l0 553z"/>
  <path class="fil1" d="M6249 4818l-679 0 0 6723 679 0 0 -6723zm518 6926c-231,-61 -438,-100 -518,-203 -226,0 -453,0 -679,0 -102,144 -322,184 -493,203l0 257 1689 0 0 -257zm0 -7129c-231,61 -438,100 -518,203 -226,0 -453,0 -679,0 -102,-144 -322,-184 -493,-203l0 -257 1689 0 0 257zm1521 2229l-2038 1 0 327 2038 -1 0 -327zm2040 -2027l679 0 0 6723 -679 0 0 -6723zm-517 6926c230,-61 438,-100 517,-203 226,0 453,0 679,0 102,144 322,184 493,203l0 257 -1689 0 0 -257zm0 -7129c230,61 438,100 517,203 226,0 453,0 679,0 102,-144 322,-184 493,-203l0 -257 -1689 0 0 257zm-1523 2230l2040 0 0 327 -2040 0 0 -327z"/>
  <path class="fil1" d="M4889 5598l-2103 0c0,97 0,193 0,290 325,23 523,102 732,174 218,0 437,0 655,0 234,-123 473,-174 716,-174l0 -290zm3399 -2l-1065 1c0,97 0,193 0,290 325,23 523,102 732,174l333 0c0,0 0,-464 0,-464zm-1228 3866l-2103 0c0,-97 0,-193 0,-290 325,-23 523,-102 732,-174 218,0 437,0 655,0 234,123 473,174 716,174l0 290zm1228 -3402l-333 0 -2020 2540 409 398 1945 -2481 0 -457zm-4115 1c-218,0 -437,0 -655,0 177,1053 379,2248 2170,2937l655 0 -409 -398c-1366,-573 -1837,-1701 -1762,-2539zm7516 -464l2103 0c0,97 0,193 0,290 -325,23 -523,102 -732,174 -218,0 -437,0 -655,0 -234,-123 -473,-174 -716,-174l0 -290zm-3401 -1l1067 0c0,97 0,193 0,290 -325,23 -523,102 -732,174l-335 0c0,0 0,-464 0,-464zm1231 3865l2103 0c0,-97 0,-193 0,-290 -325,-23 -523,-102 -732,-174 -218,0 -437,0 -655,0 -234,123 -473,174 -716,174l0 290zm-1231 -3401l335 0 2020 2540 -409 398 -1947 -2481 0 -457zm4117 1c218,0 437,0 655,0 -177,1053 -379,2248 -2170,2937l-655 0 409 -398c1366,-573 1837,-1701 1762,-2539z"/>
  <circle class="fil1" cx="9449" cy="12985" r="250"/>
  <path class="fil1" d="M8454 12434c138,0 250,112 250,250 0,138 -112,250 -250,250 -62,0 -119,-23 -163,-60 0,0 0,-381 0,-381 44,-37 100,-60 162,-60z"/>
  <circle class="fil1" cx="10023" cy="13501" r="250"/>
  <path class="fil1" d="M8290 11531c-22,491 -429,734 -66,927 -10,137 -19,273 -29,410 -23,231 -381,758 -883,278l-132 81c222,476 -268,715 -545,446 -73,-105 -146,-209 -218,-314 73,-325 -310,-282 -465,-423l619 1180 1719 -2 0 -2583zm0 0c22,491 429,734 66,927 10,137 19,273 29,410 23,231 382,758 883,278l132 81c-222,476 268,715 545,446 73,-105 146,-209 218,-314 -73,-325 310,-282 465,-423l-619 1180 -1719 -2 0 -2583z"/>
  <circle class="fil1" cx="7128" cy="12986" r="250"/>
  <path class="fil1" d="M8124 12434c-138,0 -250,112 -250,250 0,138 112,250 250,250 62,0 119,-23 163,-60 0,0 0,-381 0,-381 -44,-37 -100,-60 -162,-60z"/>
  <circle class="fil1" cx="6555" cy="13501" r="250"/>
  <path class="fil1" d="M8291 14363c-422,0 -845,0 -1267,0 -35,94 -42,196 0,306l1267 0 0 -306zm0 0c422,0 845,0 1267,0 35,94 42,196 0,306l-1267 0 0 -306z"/>
  <path class="fil1" d="M5750 15188c-48,-219 -159,-357 -307,-495 668,119 1223,494 1965,1188 -688,-529 -1172,-613 -1658,-692z"/>
  <path class="fil1" d="M10889 15188c48,-219 159,-357 307,-495 -579,76 -1381,411 -2046,1188 687,-529 1253,-613 1740,-692z"/>
  <path class="fil1" d="M12404 13442c-1350,225 -2509,1170 -3254,2438 862,-736 1300,-1088 2407,-1253l93 -12c276,-685 400,-820 755,-1174z"/>
  <path class="fil1" d="M13207 7370c52,727 263,869 77,1745 318,-50 445,-254 721,-217 -121,61 -159,119 -89,246 -455,52 -1162,480 -913,1525 57,-224 269,-230 312,-568 172,832 305,862 159,1377 -82,370 437,20 283,675 72,48 142,85 218,59 -54,879 -131,898 -1096,2053 -38,-1075 -384,-1612 -767,-1938l0 -30c341,148 668,50 966,92 -2310,-2363 -96,-2591 107,-5020l22 0z"/>
  <path class="fil1" d="M11198 1854c930,936 1877,406 2989,1043 -881,27 -375,1247 -1401,381 -592,-159 -922,710 -36,853 -43,541 328,775 617,977 -2763,-174 -839,-1623 -2227,-2981 19,-91 39,-182 58,-273z"/>
  <path class="fil1" d="M4155 13442c1350,225 2509,1170 3254,2438 -862,-736 -1300,-1088 -2407,-1253l-93 -12c-276,-685 -400,-820 -755,-1174z"/>
  <path class="fil1" d="M3352 7364c-52,727 -264,869 -77,1745 -318,-50 -445,-254 -721,-217 121,61 159,119 89,246 455,52 1162,480 913,1525 -57,-224 -269,-230 -312,-568 -172,832 -305,862 -159,1377 82,370 -437,20 -283,675 -72,48 -142,85 -218,59 54,879 131,898 1096,2053 38,-1075 384,-1612 767,-1938l0 -30c-341,148 -668,50 -966,92 2310,-2363 96,-2591 -107,-5020l-22 0z"/>
  <path class="fil1" d="M5379 1860c-930,936 -1877,406 -2989,1043 881,27 375,1247 1401,381 592,-159 922,710 36,853 43,541 -328,776 -617,977 2763,-174 839,-1623 2227,-2981 -19,-91 -39,-182 -58,-273z"/>
  <path class="fil1" d="M6886 1177c27,-86 20,-63 19,-183l180 79c-69,43 -122,77 -199,104zm447 -861c-189,61 22,91 -291,297 -72,47 -121,72 -188,115 -221,144 -19,155 -273,337 -107,77 -69,59 -149,155 -145,174 -190,104 -187,374 2,1 32,19 49,33l50 52c182,88 249,-143 292,-183l344 -247c3,-1 10,-4 13,-5 0,0 215,2 98,-108 11,1 25,-4 31,9l76 18c95,7 98,-99 138,-148 4,-5 10,-12 15,-17l303 -212c43,-14 43,-1 123,-37 -1,-54 -26,-60 4,-105 74,-112 64,-67 205,-30 -62,-46 -172,-74 -70,-141 70,-46 178,-18 223,-23 101,-12 121,-122 222,-105 56,10 23,98 30,26 96,-67 69,-117 242,-157 -55,-91 -197,-266 -348,-198l-951 301zm-990 1364c-82,77 22,135 54,250 87,37 115,109 157,178l89 -105c-66,-44 -17,56 -32,-38 -9,-56 -27,-12 20,-55 -4,-2 -12,-5 -13,-1 0,0 -25,7 -44,-32 -3,-6 70,-119 -50,-73 98,-33 129,37 179,72 3,-7 11,-26 13,-20l65 -91c114,-127 343,-94 429,-167l384 -409c98,12 39,53 119,36 70,-16 34,-43 126,-39l-26 -132c221,-94 160,-255 73,-394 217,94 108,116 199,250l35 2c158,4 247,-44 379,-124l37 -21c5,-3 12,-8 17,-11 45,-35 -9,19 56,-61 4,-5 9,-13 14,-18l135 -172c111,-95 -2,52 110,-93 -75,-97 -129,-168 -237,-199 -174,40 -146,90 -242,157 -6,72 27,-16 -30,-26 -101,-18 -121,93 -222,105 -45,5 -152,-23 -223,23 -102,67 8,95 70,141 -140,-37 -131,-82 -205,30 -30,45 -5,52 -4,105 -80,36 -80,23 -123,37l-303 212c-5,5 -10,12 -15,17 -40,49 -44,155 -138,148l-76 -18c-6,-12 -20,-7 -31,-9 116,110 -98,108 -98,108 -3,1 -11,4 -13,5l-344 247c-43,40 -110,271 -292,183zm1802 -21c-46,235 -44,425 -163,624l72 -530 -41 55c-52,88 -54,131 -57,227 10,-42 54,-23 -31,-27 -217,-9 -152,328 -462,167l-43 -25c149,322 44,224 -66,549 157,132 529,-100 590,280 24,-35 48,-12 13,-169 55,-23 -25,-20 33,0l31 15c3,1 11,7 18,9 23,-98 54,-90 100,-139l66 -103c62,-64 144,-209 205,-302 66,-99 136,-203 207,-314 151,-241 275,-450 223,-798l-49 59c-5,-8 -11,-19 -14,-26l-32 -77c-8,-27 -8,-46 -11,-73 31,45 14,55 5,149l-86 -50 22 172c-128,-3 -105,15 -187,106 -161,177 -55,70 -120,48 -40,-13 30,-88 -48,18 -68,91 -11,70 -93,111 -4,2 -13,3 -17,5 -72,31 -19,-54 -64,37zm-973 355c-36,113 -92,123 -244,165 -228,62 -97,-6 -242,-32 19,112 39,351 81,440 57,119 231,227 234,307l89 63 229 -650c19,-147 -5,-178 100,-157l43 25c310,160 244,-176 462,-167 85,3 41,-16 31,27 3,-97 5,-140 57,-227l41 -55 -92 -311 -101 96c-28,29 -34,41 -69,75l-32 28c-5,4 -12,10 -16,14l-81 105c13,-23 39,40 2,-70 -27,-78 -1,-22 -48,-72l-150 248c-151,-69 51,-136 -295,149zm1818 -1008c-9,227 -13,568 -117,740 -87,143 -269,379 -315,515l124 -38c2,0 10,-1 12,-1l57 -3c142,-1 17,-17 216,-136 209,-125 60,-79 161,-195 52,-60 -18,-11 45,-25 4,-1 15,0 19,-1 7,-1 33,5 43,6 74,-171 262,-728 239,-893l-50 -155c-59,38 -81,126 -103,157 -39,56 -146,66 -235,183 -75,100 17,-93 -29,53 -38,120 -28,1 3,56 0,-37 2,-108 -7,-141 -34,-126 -10,-58 -62,-123zm-2437 1101c190,-56 215,-145 328,-203 151,-79 223,55 290,111 346,-285 144,-218 295,-149l150 -248c47,50 21,-7 48,72 38,111 12,47 -2,70l81 -105c5,-4 12,-10 16,-14l32 -28c35,-34 41,-45 69,-75l101 -96 -123 -257c-92,-4 -57,24 -126,39 -79,18 -21,-24 -119,-36l-384 409c-86,73 -315,40 -429,167l-65 91c-2,-5 -10,13 -13,20 -50,-35 -81,-105 -179,-72 120,-46 47,66 50,73 19,39 44,32 44,32 1,-4 10,-2 13,1 -48,44 -29,0 -20,55 15,94 -34,-6 32,38l-89 105zm1531 -1199c-45,97 -91,185 -154,247 27,107 81,271 158,337l-49 -80c273,-59 114,-132 252,-241 129,-101 142,103 591,-383l-14 -377c-112,144 1,-2 -110,93l-135 172c-4,5 -9,13 -14,18 -66,80 -12,26 -56,61 -4,3 -12,8 -17,11l-37 21c-133,80 -221,127 -379,124l-35 -2zm-140 2071c6,323 -122,421 -392,439l49 296c102,15 114,2 165,27 -30,-125 -35,-153 54,-235l35 -27c115,-79 218,-58 298,-185 4,9 15,11 19,23 49,146 -70,-49 58,28l13 -71c12,-70 6,-3 70,2 -8,-87 42,-140 78,-196 49,-76 61,-117 112,-187l-214 40c-84,79 -85,-271 -84,-342l-66 103c-46,49 -77,41 -100,139 -6,-2 -15,-8 -18,-9l-31 -15c-58,-20 21,-23 -33,0 36,157 11,134 -13,169zm981 -508c-57,20 -7,-15 -56,47 -21,26 -17,27 -34,56 -33,54 -47,75 -85,132 35,219 116,50 173,321 23,111 -15,69 40,119l30 -13c100,-80 71,-30 90,-140l-2 -263 155 2 20 -44c79,-97 -16,-40 99,-129 209,-161 709,-480 192,-377 -70,14 -202,124 -288,190l-148 86c-140,57 -114,40 -185,15zm-836 -979c1,47 -7,43 7,85 51,155 -4,16 50,81 46,-91 -8,-7 64,-37 4,-2 13,-3 17,-5 82,-41 25,-20 93,-111 79,-106 9,-31 48,-18 65,22 -41,129 120,-48 82,-91 59,-109 187,-106l-22 -172 86 50c9,-94 25,-104 -5,-149 4,27 3,46 11,73l32 77c3,7 9,18 14,26l49 -59 43 -391c-449,486 -462,281 -591,383 -139,110 21,182 -252,241l49 80zm1195 605c148,28 97,-16 285,-163l112 -96c4,-4 10,-12 14,-17l100 -69 18 -199c3,10 10,46 12,53 29,71 -14,-24 18,38l24 39c76,-158 -52,47 26,-157 6,32 9,80 18,110 32,105 243,107 313,182 45,-186 -295,-320 -385,-441 -112,-149 -88,-191 -253,-260 47,284 48,259 -73,515 -80,168 -145,305 -227,464zm-725 164c-90,72 -233,285 -247,422 50,101 -29,42 120,53 23,2 131,-6 164,-5 53,-245 182,-332 327,-438 111,-81 87,-97 182,-181 133,-117 57,-76 130,-244 -10,0 -36,-6 -43,-6 -4,0 -15,-1 -19,1 -63,14 7,-34 -45,25 -100,116 48,70 -161,195 -199,119 -74,135 -216,136l-57 3c-2,0 -10,1 -12,1l-124 38zm725 -164c-29,40 -97,125 -168,180 -97,73 -105,75 -190,195 71,25 45,43 185,-15l148 -86c86,-67 218,-176 288,-190 310,-61 497,87 676,-361 -70,-75 -281,-77 -313,-182 -9,-30 -12,-78 -18,-110 -77,204 50,-1 -26,157l-24 -39c-31,-62 11,32 -18,-38 -3,-7 -10,-43 -12,-53l-18 199 -100 69c-4,4 -10,12 -14,17l-112 96c-187,147 -136,191 -285,163zm-2007 791c90,2 274,-3 354,10 152,25 133,80 120,232l-243 125 45 163c270,-18 398,-116 392,-439 -61,-380 -433,-148 -590,-280l-78 189zm231 367l243 -125c12,-151 31,-207 -120,-232 -80,-13 -264,-8 -354,-10 -123,335 5,388 179,728 23,-153 -36,-341 24,-575l29 214zm1503 -2745c-4,152 3,331 -19,496 52,64 28,-3 62,123 9,33 6,103 7,141 -31,-55 -41,63 -3,-56 47,-147 -46,47 29,-53 88,-118 195,-127 235,-183 22,-31 43,-119 103,-157 -35,-30 -296,-392 -321,-436 -42,74 -42,-5 -92,127zm-414 2414c58,20 102,-2 115,104 4,34 -18,95 -39,121 -68,81 -169,53 -277,37 -80,155 -6,51 -83,91l-16 124c75,-45 88,-51 199,-46 19,1 66,7 82,14 90,38 24,-35 72,68 111,-106 40,-107 202,-160 1,-58 -22,-10 24,-70 40,-51 33,-36 87,-63 -54,-50 -16,-8 -40,-119 -57,-271 -138,-102 -173,-321 -58,76 -89,154 -153,219zm-830 816c30,61 138,190 146,236l43 -48c3,-6 11,-17 15,-24l16 -65c48,71 73,72 30,182l100 -114c-58,-287 26,-84 38,-251 19,-185 22,-166 75,-312 -128,-77 -9,119 -58,-28 -4,-12 -15,-14 -19,-23 -80,127 -183,106 -298,185l-35 27c-88,82 -83,110 -54,235zm146 236l12 338c152,49 39,-17 152,-16l36 5c16,-50 17,-44 32,-83 3,-8 14,-36 18,-45l21 -46c2,-5 7,-16 11,-23 18,82 35,103 73,165l102 -373 0 16 -253 -7 -100 114c42,-110 17,-112 -30,-182l-16 65c-3,7 -11,18 -15,24l-43 48zm12 338l65 257c73,62 127,238 230,282l48 -580c-38,-62 -56,-83 -73,-165 -5,7 -9,18 -11,23l-21 46c-4,9 -14,36 -18,45 -15,38 -16,32 -32,83l-36 -5c-113,-2 1,65 -152,16zm315 -589l147 -13c122,-107 55,-221 262,-276 -48,-102 18,-30 -72,-68 -17,-7 -64,-13 -82,-14 -111,-6 -124,0 -199,46l-56 325zm771 -3216c50,-132 50,-53 92,-127 -175,-253 -234,-222 -408,-240 59,94 104,93 167,167 64,74 67,133 149,200zm-894 3398l253 7 17 -203 -147 13c-8,-7 -19,-14 -26,-19 -6,-5 -17,-13 -23,-18 -6,-5 -29,-25 -36,-32 -12,167 -95,-35 -38,251zm278 -722c108,16 208,44 277,-37 22,-26 43,-87 39,-121 -13,-105 -57,-84 -115,-104 -26,48 -59,96 -96,139 -60,71 -55,49 -105,123zm-794 528c22,230 21,265 168,431l-3 -404c-51,-25 -63,-12 -165,-27zm688 -779l214 -40 92 -164c-33,-1 -141,7 -164,5 -149,-11 -70,48 -120,-53 -34,74 -21,172 -22,252zm-60 411c-53,146 -55,126 -75,312 7,7 30,27 36,32 6,5 17,13 23,18 7,5 17,12 26,19l56 -325 16 -124c-64,-5 -58,-73 -70,-2l-13 71zm852 -354c49,-66 120,-143 153,-262l-155 -2 2 263z"/>
  <path class="fil1" d="M10222 1820c-403,125 -2305,1064 -2003,3034 334,-772 901,-1129 1250,-1383 70,-51 -329,-89 -263,-134 453,-309 1078,-548 1016,-1517z"/>
 </g>
</svg>
