<?xml version="1.0" encoding="UTF-8"?>
<svg width="382px" height="398px" viewBox="0 0 382 398" version="1.1" xmlns="http://www.w3.org/2000/svg" xmlns:xlink="http://www.w3.org/1999/xlink">
    <!-- Generator: sketchtool 48.1 (47250) - http://www.bohemiancoding.com/sketch -->
    <title>9EF2F26C-69AA-4D90-9F1A-52200257209C</title>
    <desc>Created with sketchtool.</desc>
    <defs></defs>
    <g id="HarrisonWork" stroke="none" stroke-width="1" fill="none" fill-rule="evenodd" transform="translate(-1018.000000, -4171.000000)" opacity="0.200000003">
        <g id="measuring-tape" transform="translate(1018.000000, 4171.000000)" fill="#000000" fill-rule="nonzero">
            <path d="M148.454,90.934 C146.79,85.643 141.151,82.704 135.864,84.37 C130.575,86.034 127.637,91.671 129.3,96.959 C130.102,99.509 130.509,102.173 130.509,104.882 C130.509,119.418 118.687,131.245 104.156,131.245 C89.62,131.245 77.793,119.419 77.793,104.882 C77.793,90.35 89.619,78.529 104.156,78.529 C106.774,78.529 109.357,78.91 111.833,79.661 C117.139,81.271 122.745,78.277 124.356,72.972 C125.966,67.666 122.972,62.06 117.666,60.449 C113.299,59.123 108.754,58.45 104.157,58.45 C78.549,58.45 57.716,79.279 57.716,104.881 C57.716,130.489 78.549,151.322 104.157,151.322 C129.759,151.322 150.588,130.489 150.588,104.881 C150.588,100.129 149.87,95.436 148.454,90.934 Z" id="Shape"></path>
            <path d="M501.961,312.443 C507.506,312.443 512,307.947 512,302.404 L512,199 C512,193.456 507.505,188.961 501.961,188.961 L165.553,188.961 C191.451,169.995 208.305,139.372 208.305,104.883 C208.305,47.457 161.585,0.736 104.158,0.736 C46.725,0.736 0,47.456 0,104.882 L0,293.117 C0,350.543 46.725,397.264 104.157,397.264 L501.961,397.264 C507.506,397.264 512,392.768 512,387.225 L512,370.67 C512,365.126 507.505,360.631 501.961,360.631 C496.417,360.631 491.922,365.127 491.922,370.67 L491.922,377.185 L411.608,377.185 L411.608,209.039 L491.922,209.039 L491.922,302.404 C491.922,307.948 496.416,312.443 501.961,312.443 Z M104.157,20.814 C150.512,20.814 188.225,58.526 188.225,104.882 C188.225,151.243 150.512,188.96 104.157,188.96 C57.796,188.96 20.079,151.243 20.079,104.882 C20.078,58.526 57.796,20.814 104.157,20.814 Z M391.529,377.186 L355.388,377.186 L355.388,350.371 C355.388,344.827 350.893,340.332 345.349,340.332 C339.805,340.332 335.31,344.828 335.31,350.371 L335.31,377.186 L300.504,377.186 L300.504,368.802 C300.504,363.258 296.009,358.763 290.465,358.763 C284.921,358.763 280.426,363.259 280.426,368.802 L280.426,377.186 L245.63,377.186 L245.63,350.371 C245.63,344.827 241.135,340.332 235.591,340.332 C230.046,340.332 225.552,344.828 225.552,350.371 L225.552,377.186 L190.746,377.186 L190.746,368.802 C190.746,363.258 186.251,358.763 180.707,358.763 C175.162,358.763 170.668,363.259 170.668,368.802 L170.668,377.186 L135.862,377.186 L135.862,350.371 C135.862,344.827 131.367,340.332 125.823,340.332 C120.278,340.332 115.784,344.828 115.784,350.371 L115.784,377.186 L104.159,377.186 C96.122,377.186 88.354,376.03 80.989,373.913 L80.989,362.127 C80.989,356.583 76.494,352.088 70.95,352.088 C65.405,352.088 60.911,356.584 60.911,362.127 L60.911,365.18 C36.468,350.459 20.081,323.669 20.081,293.117 L20.081,166.283 C39.047,192.184 69.67,209.039 104.159,209.039 L115.784,209.039 L115.784,235.854 C115.784,241.398 120.279,245.893 125.823,245.893 C131.368,245.893 135.862,241.397 135.862,235.854 L135.862,209.039 L225.552,209.039 L225.552,235.854 C225.552,241.398 230.047,245.893 235.591,245.893 C241.136,245.893 245.63,241.397 245.63,235.854 L245.63,209.039 L335.31,209.039 L335.31,235.854 C335.31,241.398 339.805,245.893 345.349,245.893 C350.893,245.893 355.388,241.397 355.388,235.854 L355.388,209.039 L391.529,209.039 L391.529,377.186 Z" id="Shape"></path>
        </g>
    </g>
</svg>