<?xml version="1.0" encoding="UTF-8"?>
<svg width="15px" height="15px" viewBox="0 0 15 15" version="1.1" xmlns="http://www.w3.org/2000/svg" xmlns:xlink="http://www.w3.org/1999/xlink">
    <!-- Generator: sketchtool 48.1 (47250) - http://www.bohemiancoding.com/sketch -->
    <title>06E42310-DA0B-4D67-B85A-704C08B724A1</title>
    <desc>Created with sketchtool.</desc>
    <defs></defs>
    <g id="HarrisonWork" stroke="none" stroke-width="1" fill="none" fill-rule="evenodd" transform="translate(-847.000000, -129.000000)" opacity="0.600000024">
        <g id="Group-20" transform="translate(847.000000, 123.000000)" fill-rule="nonzero">
            <g id="mobile-phone" transform="translate(0.000000, 6.000000)">
                <path d="M7.5,0 C3.35786133,0 0,3.35786133 0,7.5000293 C0,9.06761719 0.481230469,10.5227051 1.30362305,11.7261621 L0.318486328,14.6815137 L3.27386719,13.6964063 C4.47732422,14.5187695 5.93235352,15 7.5,15 C11.6421387,15 15,11.6421387 15,7.5000293 C15,3.35786133 11.6421387,0 7.5,0 Z" id="Shape" fill="#DEDEE0"></path>
                <path d="M11.008125,9.74264648 C10.4419336,9.17648437 9.83548828,8.69985352 9.83548828,8.69985352 L8.95195312,9.58341797 L5.41661133,6.04804687 L6.30017578,5.16451172 C6.30017578,5.16451172 5.82357422,4.55806641 5.25738281,3.991875 C4.69119141,3.42571289 4.08477539,2.94908203 4.08477539,2.94908203 C4.08477539,2.94908203 3.02607422,3.92302734 2.95488281,4.69546875 C2.85960937,5.72944336 3.95408203,7.60930664 5.67240234,9.32762695 C7.39072266,11.0459473 9.27055664,12.1404199 10.3045312,12.0451172 C11.077002,11.9738965 12.050918,10.9152539 12.050918,10.9152539 C12.050918,10.9152539 11.5742871,10.3088672 11.008125,9.74264648 Z" id="Shape" fill="#6E6E6E"></path>
            </g>
        </g>
    </g>
</svg>