<?xml version="1.0" encoding="UTF-8"?>
<svg width="11px" height="14px" viewBox="0 0 11 14" version="1.1" xmlns="http://www.w3.org/2000/svg" xmlns:xlink="http://www.w3.org/1999/xlink">
    <!-- Generator: sketchtool 48.1 (47250) - http://www.bohemiancoding.com/sketch -->
    <title>6B2770C2-D18F-4683-839F-440EA93F11BF</title>
    <desc>Created with sketchtool.</desc>
    <defs></defs>
    <g id="HarrisonWork" stroke="none" stroke-width="1" fill="none" fill-rule="evenodd" transform="translate(-787.000000, -6461.000000)">
        <g id="Видосик" transform="translate(0.000000, 6065.000000)" fill="#160C00" fill-rule="nonzero">
            <g id="Group-16" transform="translate(327.000000, 229.000000)">
                <g id="bt" transform="translate(242.000000, 144.000000)">
                    <g id="play-button" transform="translate(218.000000, 23.000000)">
                        <path d="M10.356,6.72533333 L0.689333333,0.0586666667 C0.587,-0.0116666667 0.454333333,-0.019 0.345,0.038 C0.235333333,0.0956666667 0.166666667,0.209 0.166666667,0.333 L0.166666667,13.6663333 C0.166666667,13.7903333 0.235333333,13.904 0.345,13.9616667 C0.393666667,13.987 0.447,13.9996667 0.5,13.9996667 C0.566333333,13.9996667 0.632333333,13.9796667 0.689333333,13.9406667 L10.356,7.274 C10.4463333,7.21166667 10.5,7.10933333 10.5,6.99966667 C10.5,6.89 10.446,6.78766667 10.356,6.72533333 Z" id="Shape"></path>
                    </g>
                </g>
            </g>
        </g>
    </g>
</svg>