<?xml version="1.0" encoding="UTF-8"?>
<svg width="326px" height="519px" viewBox="0 0 326 519" version="1.1" xmlns="http://www.w3.org/2000/svg" xmlns:xlink="http://www.w3.org/1999/xlink">
    <!-- Generator: sketchtool 48.1 (47250) - http://www.bohemiancoding.com/sketch -->
    <title>226F8867-58DD-4A3C-9B0A-8E1C3BCBBE5A</title>
    <desc>Created with sketchtool.</desc>
    <defs></defs>
    <g id="HarrisonWork" stroke="none" stroke-width="1" fill="none" fill-rule="evenodd" transform="translate(-1074.000000, -5120.000000)" opacity="0.200000003">
        <g id="plier" transform="translate(1270.000000, 5369.000000) rotate(-30.000000) translate(-1270.000000, -5369.000000) translate(1159.000000, 5113.000000)" fill="#000000" fill-rule="nonzero">
            <path d="M179.233,182.067 L206.83,126.831 L208.434,123.298 C214.68,109.551 221.755,93.96 221.541,73.549 C221.131,35.055 184.523,0 144.75,0 L110.617,0 L77.252,0 C37.478,0 0.87,35.055 0.46,73.549 C0.238,93.969 7.329,109.56 13.576,123.315 L42.129,180.778 L8.26,502.579 C8.004,504.977 8.789,507.375 10.402,509.175 C12.023,510.975 14.327,512 16.751,512 L42.351,512 C46.549,512 50.125,508.945 50.773,504.798 L100.838,187.733 L120.388,187.733 L170.453,504.798 C171.102,508.945 174.677,512 178.884,512 L204.484,512 C206.899,512 209.203,510.976 210.824,509.175 C212.437,507.374 213.222,504.977 212.966,502.579 L179.233,182.067 Z M51.702,161.775 L30.736,119.842 L29.115,116.258 C23.329,103.526 17.348,90.359 17.527,73.736 C17.834,44.612 46.865,17.066 77.252,17.066 L94.319,17.066 L81.417,34.278 C54.435,36.002 34.586,53.708 34.586,76.8 C34.586,99.524 54.528,119.467 77.253,119.467 L78.149,119.467 L51.702,161.775 Z M110.616,153.6 C105.897,153.6 102.083,149.777 102.083,145.067 C102.083,140.357 105.897,136.534 110.616,136.534 C115.326,136.534 119.149,140.357 119.149,145.067 C119.149,149.777 115.327,153.6 110.616,153.6 Z M93.55,102.4 L77.251,102.4 C65.415,102.4 51.651,91.213 51.651,76.8 C51.651,62.208 66.328,51.2 85.784,51.2 C88.472,51.2 91.006,49.937 92.611,47.787 L111,23.27 L129.389,47.786 C130.993,49.936 133.528,51.199 136.216,51.199 C155.672,51.199 170.349,62.207 170.349,76.799 C170.349,91.212 156.585,102.399 144.749,102.399 L93.55,102.399 L93.55,102.4 Z M186.17,494.933 L137.667,187.733 L162.661,187.733 L195.002,494.933 L186.17,494.933 Z" id="Shape"></path>
        </g>
    </g>
</svg>