<?xml version="1.0" encoding="UTF-8"?>
<!DOCTYPE svg PUBLIC "-//W3C//DTD SVG 1.1//EN" "http://www.w3.org/Graphics/SVG/1.1/DTD/svg11.dtd">
<!-- Creator: CorelDRAW 2017 -->
<svg xmlns="http://www.w3.org/2000/svg" xml:space="preserve" width="98.9023mm" height="32.2772mm" version="1.1" style="shape-rendering:geometricPrecision; text-rendering:geometricPrecision; image-rendering:optimizeQuality; fill-rule:evenodd; clip-rule:evenodd"
viewBox="0 0 25809 8423"
 xmlns:xlink="http://www.w3.org/1999/xlink">
 <defs>
  <style type="text/css">
   <![CDATA[
    .fil1 {fill:#D6BB74}
    .fil2 {fill:#FEFEFE;fill-rule:nonzero}
    .fil0 {fill:#D6BB74;fill-rule:nonzero}
   ]]>
  </style>
   <clipPath id="id0">
    <path d="M0 0l13608 0 0 5907 -13608 0 0 -5907z"/>
   </clipPath>
 </defs>
 <g id="Слой_x0020_1">
  <metadata id="CorelCorpID_0Corel-Layer"/>
  <g style="clip-path:url(#id0)">
   <image x="0" y="0" width="13608" height="5907" xlink:href="prim_Images\prim_ImgID1.png"/>
  </g>
  <g id="_1830502596768">
   <g>
    <path class="fil0" d="M7618 2178l527 0 0 -239c0,-51 -3,-89 -9,-113 -6,-24 -16,-45 -31,-60 -14,-14 -30,-25 -47,-31 -17,-6 -40,-10 -69,-12l0 -17 473 0 0 17c-28,2 -51,6 -69,12 -17,6 -33,17 -47,31 -15,16 -26,36 -31,60 -6,25 -9,62 -9,113l0 547c0,51 3,88 9,112 6,24 16,45 31,61 14,14 30,24 47,31 18,7 40,11 69,12l0 17 -473 0 0 -17c29,-2 52,-6 69,-12 18,-7 33,-17 47,-31 15,-16 26,-36 31,-60 6,-24 9,-62 9,-113l0 -273 -527 0 0 273c0,50 3,88 9,112 6,24 16,45 31,60 13,14 29,24 47,31 17,7 40,11 69,12l0 17 -472 0 0 -17c29,-2 52,-6 69,-12 17,-7 33,-17 46,-31 16,-16 26,-36 32,-60 5,-24 8,-62 8,-113l0 -547c0,-51 -3,-89 -8,-113 -6,-24 -16,-44 -32,-60 -13,-14 -29,-25 -47,-31 -18,-6 -41,-10 -69,-12l0 -17 472 0 0 17c-28,2 -51,6 -69,12 -18,7 -33,17 -47,31 -15,16 -26,36 -31,60 -6,25 -9,62 -9,113l0 239z"/>
    <path id="1" class="fil0" d="M9568 2718l-488 0 0 -17c44,-4 75,-11 92,-22 31,-19 46,-46 46,-80 0,-20 -7,-47 -21,-81l-13 -31 -71 -175 -327 0 -39 102 -19 46c-22,54 -33,97 -33,128 0,18 4,35 12,51 8,16 19,29 33,38 19,13 44,21 75,24l0 17 -332 0 0 -17c26,-2 49,-8 69,-19 20,-11 39,-30 58,-55 16,-20 31,-47 47,-78 15,-32 35,-80 59,-143l271 -700 43 0 323 780c24,59 44,101 58,126 14,25 30,44 47,57 12,9 26,16 41,21 15,5 38,9 69,12l0 17zm-466 -437l-156 -385 -148 385 303 0z"/>
    <path id="2" class="fil0" d="M9905 2223l0 262c0,51 3,88 9,112 6,25 16,45 32,60 13,14 29,24 47,31 18,7 41,11 70,12l0 17 -473 0 0 -17c29,-2 52,-6 69,-12 17,-7 33,-17 46,-31 16,-16 26,-36 32,-60 5,-24 8,-62 8,-113l0 -547c0,-51 -3,-89 -8,-113 -6,-24 -16,-44 -32,-60 -13,-14 -29,-25 -47,-31 -18,-6 -41,-10 -69,-12l0 -17 357 0c60,0 99,0 118,1 77,4 137,14 180,31 49,20 87,49 114,89 27,39 40,85 40,137 0,77 -29,139 -88,185 -18,14 -37,25 -59,34 -22,9 -50,17 -86,25 29,12 51,25 65,38 11,10 22,24 31,39 9,16 23,43 41,83 44,91 77,157 100,199 22,42 41,72 57,91 12,15 24,26 36,32 12,6 28,10 48,12l0 17 -245 0c-12,-27 -20,-45 -24,-52l-52 -118c-31,-71 -63,-133 -94,-187 -32,-54 -61,-91 -87,-111 -13,-10 -28,-17 -43,-21 -15,-4 -34,-6 -57,-6l-36 0zm0 -17l28 0c62,0 106,-4 133,-10 27,-7 52,-21 75,-43 52,-50 78,-111 78,-184 0,-39 -8,-76 -23,-110 -15,-34 -36,-63 -63,-85 -21,-17 -46,-29 -75,-35 -29,-7 -70,-10 -123,-10l-31 0 0 478z"/>
    <path id="3" class="fil0" d="M10888 2223l0 262c0,51 3,88 9,112 6,25 16,45 32,60 13,14 29,24 47,31 18,7 41,11 70,12l0 17 -473 0 0 -17c29,-2 52,-6 69,-12 17,-7 33,-17 46,-31 16,-16 26,-36 32,-60 5,-24 8,-62 8,-113l0 -547c0,-51 -3,-89 -8,-113 -6,-24 -16,-44 -32,-60 -13,-14 -29,-25 -47,-31 -18,-6 -41,-10 -69,-12l0 -17 357 0c60,0 99,0 118,1 77,4 137,14 180,31 49,20 87,49 114,89 27,39 40,85 40,137 0,77 -29,139 -88,185 -18,14 -37,25 -59,34 -22,9 -50,17 -86,25 29,12 51,25 65,38 11,10 22,24 31,39 9,16 23,43 41,83 44,91 77,157 100,199 22,42 41,72 57,91 12,15 24,26 36,32 12,6 28,10 48,12l0 17 -245 0c-12,-27 -20,-45 -24,-52l-52 -118c-31,-71 -63,-133 -94,-187 -32,-54 -61,-91 -87,-111 -13,-10 -28,-17 -43,-21 -15,-4 -34,-6 -57,-6l-36 0zm0 -17l28 0c62,0 106,-4 133,-10 27,-7 52,-21 75,-43 52,-50 78,-111 78,-184 0,-39 -8,-76 -23,-110 -15,-34 -36,-63 -63,-85 -21,-17 -46,-29 -75,-35 -29,-7 -70,-10 -123,-10l-31 0 0 478z"/>
    <path id="4" class="fil0" d="M12027 1706l0 17c-28,2 -51,6 -69,12 -17,6 -33,17 -47,31 -19,20 -31,47 -35,82 -3,26 -5,56 -5,91l0 547c0,41 2,74 6,97 4,24 10,43 19,57 13,20 29,35 50,44 20,10 47,15 81,17l0 17 -472 0 0 -17c29,-2 52,-6 69,-12 17,-7 33,-17 46,-31 16,-16 26,-36 32,-60 5,-24 8,-62 8,-113l0 -547c0,-51 -3,-89 -8,-113 -6,-24 -16,-44 -32,-60 -13,-14 -29,-25 -47,-31 -18,-6 -41,-10 -69,-12l0 -17 472 0z"/>
    <path id="5" class="fil0" d="M12135 2713l2 -307 17 3c21,78 46,139 74,184 54,83 122,124 204,124 57,0 104,-19 141,-57 37,-38 56,-86 56,-144 0,-25 -4,-51 -12,-77 -8,-26 -19,-49 -33,-68 -14,-19 -35,-38 -61,-56 -26,-18 -66,-40 -119,-68 -47,-24 -83,-44 -108,-60 -25,-16 -45,-33 -61,-50 -43,-47 -64,-103 -64,-170 0,-41 8,-80 25,-119 16,-38 40,-71 70,-98 53,-48 115,-73 187,-73 24,0 45,2 65,7 20,5 46,14 80,28 25,10 42,16 51,19 9,3 17,4 24,4 17,0 29,-12 35,-38l17 0 5 294 -17 0c-13,-47 -25,-83 -35,-108 -10,-25 -21,-48 -34,-69 -24,-39 -51,-67 -80,-86 -29,-18 -63,-28 -101,-28 -55,0 -99,19 -132,56 -13,15 -24,34 -31,54 -8,21 -12,41 -12,62 0,83 53,149 160,200l104 51c81,38 139,80 174,127 41,52 61,112 61,180 0,45 -9,89 -28,130 -26,57 -65,102 -116,133 -52,31 -112,47 -182,47 -64,0 -125,-13 -184,-38 -31,-14 -49,-21 -55,-23 -6,-2 -13,-3 -20,-3 -24,0 -40,12 -49,36l-17 0z"/>
    <path id="6" class="fil0" d="M12920 2218c0,-83 18,-160 53,-231 36,-71 88,-133 156,-186 51,-39 106,-69 165,-90 59,-21 118,-32 178,-32 76,0 150,17 221,50 71,33 133,80 187,141 87,99 131,211 131,337 0,63 -11,124 -34,183 -23,59 -56,112 -99,161 -53,60 -116,107 -189,140 -73,33 -149,50 -229,50 -79,0 -154,-16 -225,-48 -72,-32 -134,-77 -185,-136 -41,-46 -73,-98 -95,-157 -22,-58 -33,-119 -33,-183zm179 11c0,144 39,265 117,363 35,44 72,76 112,96 39,20 85,30 136,30 52,0 98,-10 137,-30 39,-20 77,-52 113,-97 78,-99 117,-221 117,-366 0,-80 -11,-155 -32,-226 -22,-71 -52,-131 -91,-181 -32,-41 -67,-70 -106,-89 -39,-18 -85,-28 -138,-28 -52,0 -98,9 -136,28 -38,18 -74,48 -106,89 -39,49 -69,109 -91,180 -21,71 -32,148 -32,229z"/>
    <path id="7" class="fil0" d="M14302 1840l0 646c0,51 3,89 9,113 6,24 16,44 31,60 14,14 30,25 47,31 18,6 40,10 69,12l0 17 -342 0 0 -17c28,-2 51,-6 69,-12 17,-6 33,-17 47,-31 15,-16 26,-36 31,-60 6,-25 9,-62 9,-113l0 -548c0,-50 -3,-87 -9,-112 -6,-25 -16,-45 -31,-60 -13,-14 -29,-25 -46,-31 -18,-6 -41,-10 -69,-12l0 -17 285 0 602 769 0 -536c0,-51 -3,-89 -9,-113 -6,-24 -16,-44 -31,-60 -14,-14 -30,-25 -47,-31 -18,-6 -40,-10 -69,-12l0 -17 342 0 0 17c-49,0 -88,14 -116,43 -15,16 -26,36 -31,60 -6,25 -9,62 -9,112l0 781 -33 0 -698 -878z"/>
    <path id="8" class="fil0" d="M7239 3437l466 0 0 17c-44,0 -74,3 -90,10 -13,6 -24,16 -33,29 -8,13 -13,29 -13,45 0,21 8,50 24,86l19 46 231 564 160 -486c21,-62 31,-109 31,-139 0,-23 -4,-45 -12,-66 -8,-22 -19,-39 -32,-52 -13,-13 -27,-22 -44,-28 -16,-5 -38,-8 -63,-8l0 -17 477 0 0 17c-29,0 -50,1 -63,3 -13,2 -26,6 -37,13 -15,9 -27,22 -36,38 -9,16 -14,34 -14,54 0,18 7,49 21,93l183 588 204 -501c32,-77 48,-136 48,-178 0,-44 -15,-75 -44,-94 -18,-11 -45,-16 -81,-16l0 -17 343 0 0 17c-33,4 -58,10 -75,19 -17,9 -34,26 -51,50 -25,35 -55,97 -93,188l-306 739 -30 0 -264 -790 -267 790 -33 0 -331 -798 -22 -54c-15,-37 -28,-63 -38,-79 -10,-16 -23,-29 -38,-38 -12,-8 -25,-14 -38,-17 -14,-3 -33,-6 -58,-8l0 -17z"/>
    <path id="9" class="fil0" d="M8931 3950c0,-83 18,-160 53,-231 36,-71 88,-133 156,-186 51,-39 106,-69 165,-90 59,-21 118,-32 178,-32 76,0 150,17 221,50 71,33 133,80 187,141 87,99 131,211 131,337 0,63 -11,124 -34,183 -23,59 -56,112 -99,161 -53,60 -116,107 -189,140 -73,33 -149,50 -229,50 -79,0 -154,-16 -225,-48 -72,-32 -134,-77 -185,-136 -41,-46 -73,-98 -95,-157 -22,-58 -33,-119 -33,-183zm179 11c0,144 39,265 117,363 35,44 72,76 112,96 39,20 85,30 136,30 52,0 98,-10 137,-30 39,-20 77,-52 113,-97 78,-99 117,-221 117,-366 0,-80 -11,-155 -32,-226 -22,-71 -52,-131 -91,-181 -32,-41 -67,-70 -106,-89 -39,-18 -85,-28 -138,-28 -52,0 -98,9 -136,28 -38,18 -74,48 -106,89 -39,49 -69,109 -91,180 -21,71 -32,148 -32,229z"/>
    <path id="10" class="fil0" d="M10444 3955l0 262c0,51 3,88 9,112 6,25 16,45 32,60 13,14 29,24 47,31 18,7 41,11 70,12l0 17 -473 0 0 -17c29,-2 52,-6 69,-12 17,-7 33,-17 46,-31 16,-16 26,-36 32,-60 5,-24 8,-62 8,-113l0 -547c0,-51 -3,-89 -8,-113 -6,-24 -16,-44 -32,-60 -13,-14 -29,-25 -47,-31 -18,-6 -41,-10 -69,-12l0 -17 357 0c60,0 99,0 118,1 77,4 137,14 180,31 49,20 87,49 114,89 27,39 40,85 40,137 0,77 -29,139 -88,185 -18,14 -37,25 -59,34 -22,9 -50,17 -86,25 29,12 51,25 65,38 11,10 22,24 31,39 9,16 23,43 41,83 44,91 77,157 100,199 22,42 41,72 57,91 12,15 24,26 36,32 12,6 28,10 48,12l0 17 -245 0c-12,-27 -20,-45 -24,-52l-52 -118c-31,-71 -63,-133 -94,-187 -32,-54 -61,-91 -87,-111 -13,-10 -28,-17 -43,-21 -15,-4 -34,-6 -57,-6l-36 0zm0 -17l28 0c62,0 106,-4 133,-10 27,-7 52,-21 75,-43 52,-50 78,-111 78,-184 0,-39 -8,-76 -23,-110 -15,-34 -36,-63 -63,-85 -21,-17 -46,-29 -75,-35 -29,-7 -70,-10 -123,-10l-31 0 0 478z"/>
    <path id="11" class="fil0" d="M11427 3933l314 -312c31,-31 51,-52 58,-63 8,-11 12,-23 12,-37 0,-24 -12,-43 -36,-55 -12,-6 -33,-10 -62,-13l0 -17 320 0 0 17c-22,2 -40,6 -55,11 -14,5 -30,14 -48,26 -19,14 -52,43 -99,88l-241 231 342 437 42 54c31,38 64,69 97,91 20,13 38,23 53,29 15,6 35,10 58,13l0 17 -490 0 0 -17c37,-3 64,-9 80,-18 16,-10 25,-23 25,-42 0,-20 -10,-45 -30,-76 -10,-15 -29,-40 -56,-77 -27,-37 -50,-66 -69,-89l-167 -207 -48 48 0 246c0,51 3,88 9,113 6,24 16,45 31,60 13,14 29,24 47,31 17,7 41,11 69,12l0 17 -472 0 0 -17c29,-2 52,-6 69,-12 17,-7 33,-17 46,-31 16,-16 26,-36 32,-60 5,-24 8,-62 8,-113l0 -547c0,-51 -3,-89 -8,-113 -6,-24 -16,-44 -32,-60 -13,-14 -29,-25 -47,-31 -18,-6 -41,-10 -69,-12l0 -17 472 0 0 17c-28,2 -51,6 -69,12 -18,6 -33,17 -47,31 -15,16 -26,36 -31,60 -6,25 -9,62 -9,113l0 263z"/>
    <g>
     <path class="fil1" d="M4049 2060l-194 0 0 1924 194 0 0 -1924zm148 1982c-66,-18 -125,-29 -148,-58 -65,0 -130,0 -194,0 -29,41 -92,53 -141,58l0 73 483 0 0 -73zm0 -2040c-66,18 -125,29 -148,58 -65,0 -130,0 -194,0 -29,-41 -92,-53 -141,-58l0 -73 483 0 0 73zm435 638l-583 0 0 94 583 0 0 -94zm584 -580l194 0 0 1924 -194 0 0 -1924zm-148 1982c66,-18 125,-29 148,-58 65,0 130,0 194,0 29,41 92,53 141,58l0 73 -483 0 0 -73zm0 -2040c66,18 125,29 148,58 65,0 130,0 194,0 29,-41 92,-53 141,-58l0 -73 -483 0 0 73zm-436 638l584 0 0 94 -584 0 0 -94z"/>
     <path class="fil1" d="M3659 2283l-602 0c0,28 0,55 0,83 93,7 150,29 209,50 62,0 125,0 187,0 67,-35 135,-50 205,-50l0 -83zm973 0l-305 0c0,28 0,55 0,83 93,7 150,29 209,50l95 0c0,0 0,-133 0,-133zm-352 1106l-602 0c0,-28 0,-55 0,-83 93,-7 150,-29 209,-50 62,0 125,0 187,0 67,35 135,50 205,50l0 83zm352 -973l-95 0 -578 727 117 114 556 -710 0 -131zm-1177 0c-62,0 -125,0 -187,0 51,301 108,643 621,840l187 0 -117 -114c-391,-164 -526,-487 -504,-727zm2151 -133l602 0c0,28 0,55 0,83 -93,7 -150,29 -209,50 -62,0 -125,0 -187,0 -67,-35 -135,-50 -205,-50l0 -83zm-973 0l305 0c0,28 0,55 0,83 -93,7 -150,29 -209,50l-96 0c0,0 0,-133 0,-133zm352 1106l602 0c0,-28 0,-55 0,-83 -93,-7 -150,-29 -209,-50 -62,0 -125,0 -187,0 -67,35 -135,50 -205,50l0 83zm-352 -973l96 0 578 727 -117 114 -557 -710 0 -131zm1178 0c62,0 125,0 187,0 -51,301 -108,643 -621,840l-187 0 117 -114c391,-164 526,-487 504,-727z"/>
     <circle class="fil1" cx="4964" cy="4397" r="72"/>
     <path class="fil1" d="M4679 4239c40,0 72,32 72,72 0,40 -32,72 -72,72 -18,0 -34,-6 -47,-17 0,0 0,-109 0,-109 12,-11 29,-17 46,-17z"/>
     <circle class="fil1" cx="5128" cy="4544" r="72"/>
     <path class="fil1" d="M4632 3981c-6,141 -123,210 -19,265 -3,39 -6,78 -8,117 -7,66 -109,217 -253,79l-38 23c64,136 -77,205 -156,128 -21,-30 -42,-60 -62,-90 21,-93 -89,-81 -133,-121l177 338 492 0 0 -739zm0 0c6,141 123,210 19,265 3,39 6,78 8,117 7,66 109,217 253,79l38 23c-64,136 77,205 156,128 21,-30 42,-60 62,-90 -21,-93 89,-81 133,-121l-177 338 -492 0 0 -739z"/>
     <circle class="fil1" cx="4300" cy="4397" r="72"/>
     <path class="fil1" d="M4585 4239c-40,0 -72,32 -72,72 0,40 32,72 72,72 18,0 34,-6 47,-17 0,0 0,-109 0,-109 -13,-11 -29,-17 -46,-17z"/>
     <circle class="fil1" cx="4136" cy="4545" r="72"/>
     <path class="fil1" d="M4633 4791c-121,0 -242,0 -362,0 -10,27 -12,56 0,88l362 0 0 -88zm0 0c121,0 242,0 362,0 10,27 12,56 0,88l-362 0 0 -88z"/>
     <path class="fil1" d="M3906 5027c-14,-63 -45,-102 -88,-142 191,34 350,141 562,340 -197,-151 -335,-175 -474,-198z"/>
     <path class="fil1" d="M5376 5027c14,-63 45,-102 88,-142 -166,22 -395,118 -585,340 197,-151 358,-175 498,-198z"/>
     <path class="fil1" d="M5810 4528c-386,64 -718,335 -931,698 247,-211 372,-311 689,-358l27 -3c79,-196 114,-235 216,-336z"/>
     <path class="fil1" d="M6039 2790c15,208 75,249 22,499 91,-14 127,-73 206,-62 -35,18 -45,34 -25,70 -130,15 -333,137 -261,436 16,-64 77,-66 89,-162 49,238 87,247 46,394 -23,106 125,6 81,193 21,14 41,24 62,17 -15,252 -37,257 -314,587 -11,-308 -110,-461 -220,-554l0 -9c98,42 191,14 277,26 -661,-676 -28,-741 31,-1436l6 0z"/>
     <path class="fil1" d="M5465 1212c266,268 537,116 855,299 -252,8 -107,357 -401,109 -169,-45 -264,203 -10,244 -12,155 94,222 177,280 -790,-50 -240,-464 -637,-853 6,-26 11,-52 17,-78z"/>
     <path class="fil1" d="M3449 4528c386,64 718,335 931,698 -247,-211 -372,-311 -689,-358l-27 -3c-79,-196 -114,-235 -216,-336z"/>
     <path class="fil1" d="M3219 2788c-15,208 -75,249 -22,499 -91,-14 -127,-73 -206,-62 35,18 45,34 25,70 130,15 333,137 261,436 -16,-64 -77,-66 -89,-162 -49,238 -87,247 -46,394 23,106 -125,6 -81,193 -21,14 -41,24 -62,17 15,252 37,257 314,587 11,-308 110,-461 220,-554l0 -9c-98,42 -191,14 -277,26 661,-676 28,-741 -31,-1436l-6 0z"/>
     <path class="fil1" d="M3800 1214c-266,268 -537,116 -855,299 252,8 107,357 401,109 169,-45 264,203 10,244 12,155 -94,222 -177,280 791,-50 240,-464 637,-853 -6,-26 -11,-52 -17,-78z"/>
     <path class="fil1" d="M4231 1018c8,-25 6,-18 5,-52l52 23c-20,12 -35,22 -57,30zm128 -246c-54,17 6,26 -83,85 -21,14 -35,20 -54,33 -63,41 -6,44 -78,97 -31,22 -20,17 -43,44 -41,50 -54,30 -53,107 0,0 9,5 14,10l14 15c52,25 71,-41 84,-52l98 -71c1,0 3,-1 4,-1 0,0 62,1 28,-31 3,0 7,-1 9,2l22 5c27,2 28,-28 40,-42 1,-2 3,-4 4,-5l87 -61c12,-4 12,0 35,-11 0,-15 -7,-17 1,-30 21,-32 18,-19 59,-9 -18,-13 -49,-21 -20,-40 20,-13 51,-5 64,-7 29,-3 35,-35 64,-30 16,3 7,28 8,7 27,-19 20,-33 69,-45 -16,-26 -57,-76 -100,-57l-272 86zm-283 390c-23,22 6,39 16,71 25,11 33,31 45,51l26 -30c-19,-13 -5,16 -9,-11 -3,-16 -8,-3 6,-16 -1,-1 -4,-1 -4,0 0,0 -7,2 -13,-9 -1,-2 20,-34 -14,-21 28,-10 37,10 51,21 1,-2 3,-7 4,-6l19 -26c33,-36 98,-27 123,-48l110 -117c28,3 11,15 34,10 20,-4 10,-12 36,-11l-7 -38c63,-27 46,-73 21,-113 62,27 31,33 57,71l10 1c45,1 71,-13 109,-35l11 -6c1,-1 4,-2 5,-3 13,-10 -3,6 16,-17 1,-2 3,-4 4,-5l39 -49c32,-27 -1,15 32,-26 -21,-28 -37,-48 -68,-57 -50,12 -42,26 -69,45 -2,21 8,-4 -8,-7 -29,-5 -35,27 -64,30 -13,2 -44,-7 -64,7 -29,19 2,27 20,40 -40,-11 -37,-23 -59,9 -9,13 -1,15 -1,30 -23,10 -23,6 -35,11l-87 61c-1,1 -3,3 -4,5 -11,14 -12,44 -40,42l-22 -5c-2,-4 -6,-2 -9,-2 33,32 -28,31 -28,31 -1,0 -3,1 -4,1l-98 71c-12,12 -32,78 -84,52zm516 -6c-13,67 -13,122 -47,179l21 -152 -12 16c-15,25 -15,37 -16,65 3,-12 15,-7 -9,-8 -62,-3 -43,94 -132,48l-12 -7c43,92 12,64 -19,157 45,38 151,-29 169,80 7,-10 14,-3 4,-48 16,-6 -7,-6 9,0l9 4c1,0 3,2 5,3 6,-28 15,-26 29,-40l19 -29c18,-18 41,-60 59,-86 19,-28 39,-58 59,-90 43,-69 79,-129 64,-228l-14 17c-2,-2 -3,-5 -4,-7l-9 -22c-2,-8 -2,-13 -3,-21 9,13 4,16 2,43l-25 -14 6 49c-37,-1 -30,4 -54,30 -46,51 -16,20 -34,14 -11,-4 9,-25 -14,5 -19,26 -3,20 -27,32 -1,1 -4,1 -5,1 -21,9 -5,-15 -18,11zm-278 102c-10,32 -26,35 -70,47 -65,18 -28,-2 -69,-9 5,32 11,100 23,126 16,34 66,65 67,88l25 18 66 -186c5,-42 -1,-51 29,-45l12 7c89,46 70,-50 132,-48 24,1 12,-4 9,8 1,-28 1,-40 16,-65l12 -16 -26 -89 -29 27c-8,8 -10,12 -20,21l-9 8c-1,1 -3,3 -5,4l-23 30c4,-7 11,12 1,-20 -8,-22 0,-6 -14,-20l-43 71c-43,-20 15,-39 -84,43zm520 -288c-3,65 -4,162 -34,212 -25,41 -77,108 -90,147l35 -11c1,0 3,0 3,0l16 -1c41,0 5,-5 62,-39 60,-36 17,-23 46,-56 15,-17 -5,-3 13,-7 1,0 4,0 6,0 2,0 9,1 12,2 21,-49 75,-208 68,-255l-14 -44c-17,11 -23,36 -29,45 -11,16 -42,19 -67,52 -21,29 5,-27 -8,15 -11,34 -8,0 1,16 0,-11 1,-31 -2,-40 -10,-36 -3,-17 -18,-35zm-697 315c54,-16 62,-41 94,-58 43,-23 64,16 83,32 99,-81 41,-62 84,-43l43 -71c13,14 6,-2 14,20 11,32 3,14 -1,20l23 -30c1,-1 3,-3 5,-4l9 -8c10,-10 12,-13 20,-21l29 -27 -35 -74c-26,-1 -16,7 -36,11 -23,5 -6,-7 -34,-10l-110 117c-24,21 -90,11 -123,48l-19 26c-1,-1 -3,4 -4,6 -14,-10 -23,-30 -51,-21 34,-13 13,19 14,21 5,11 13,9 13,9 0,-1 3,0 4,0 -14,12 -8,0 -6,16 4,27 -10,-2 9,11l-26 30zm438 -343c-13,28 -26,53 -44,71 8,31 23,78 45,96l-14 -23c78,-17 33,-38 72,-69 37,-29 41,30 169,-109l-4 -108c-32,41 0,-1 -32,26l-39 49c-1,2 -3,4 -4,5 -19,23 -3,7 -16,17 -1,1 -3,2 -5,3l-11 6c-38,23 -63,36 -109,35l-10 -1zm-40 593c2,92 -35,120 -112,126l14 85c29,4 33,1 47,8 -9,-36 -10,-44 15,-67l10 -8c33,-23 62,-17 85,-53 1,3 4,3 5,7 14,42 -20,-14 16,8l4 -20c4,-20 2,-1 20,1 -2,-25 12,-40 22,-56 14,-22 17,-34 32,-53l-61 11c-24,22 -24,-77 -24,-98l-19 29c-13,14 -22,12 -29,40 -2,-1 -4,-2 -5,-3l-9 -4c-17,-6 6,-7 -9,0 10,45 3,38 -4,48zm281 -145c-16,6 -2,-4 -16,13 -6,7 -5,8 -10,16 -9,16 -13,22 -24,38 10,63 33,14 50,92 7,32 -4,20 11,34l9 -4c29,-23 20,-9 26,-40l0 -75 44 0 6 -13c22,-28 -5,-12 28,-37 60,-46 203,-137 55,-108 -20,4 -58,35 -82,54l-42 25c-40,16 -33,11 -53,4zm-239 -280c0,14 -2,12 2,24 15,44 -1,4 14,23 13,-26 -2,-2 18,-11 1,0 4,-1 5,-1 23,-12 7,-6 27,-32 23,-30 3,-9 14,-5 19,6 -12,37 34,-14 24,-26 17,-31 54,-30l-6 -49 25 14c3,-27 7,-30 -2,-43 1,8 1,13 3,21l9 22c1,2 2,5 4,7l14 -17 12 -112c-129,139 -132,80 -169,109 -40,31 6,52 -72,69l14 23zm342 173c42,8 28,-4 81,-47l32 -28c1,-1 3,-4 4,-5l29 -20 5 -57c1,3 3,13 4,15 8,20 -4,-7 5,11l7 11c22,-45 -15,13 7,-45 2,9 2,23 5,31 9,30 70,31 90,52 13,-53 -84,-92 -110,-126 -32,-43 -25,-55 -72,-74 13,81 14,74 -21,147 -23,48 -41,87 -65,133zm-207 47c-26,21 -67,82 -71,121 14,29 -8,12 34,15 7,0 37,-2 47,-1 15,-70 52,-95 94,-125 32,-23 25,-28 52,-52 38,-34 16,-22 37,-70 -3,0 -10,-2 -12,-2 -1,0 -4,0 -6,0 -18,4 2,-10 -13,7 -29,33 14,20 -46,56 -57,34 -21,39 -62,39l-16 1c-1,0 -3,0 -3,0l-35 11zm207 -47c-8,11 -28,36 -48,51 -28,21 -30,22 -54,56 20,7 13,12 53,-4l42 -25c25,-19 62,-50 82,-54 89,-18 142,25 193,-103 -20,-21 -80,-22 -90,-52 -3,-9 -3,-22 -5,-31 -22,58 14,0 -7,45l-7 -11c-9,-18 3,9 -5,-11 -1,-2 -3,-12 -4,-15l-5 57 -29 20c-1,1 -3,3 -4,5l-32 28c-54,42 -39,55 -81,47zm-574 226c26,1 78,-1 101,3 43,7 38,23 34,66l-70 36 13 47c77,-5 114,-33 112,-126 -17,-109 -124,-42 -169,-80l-22 54zm66 105l70 -36c3,-43 9,-59 -34,-66 -23,-4 -76,-2 -101,-3 -35,96 1,111 51,208 7,-44 -10,-98 7,-165l8 61zm430 -785c-1,44 1,95 -6,142 15,18 8,-1 18,35 3,9 2,30 2,40 -9,-16 -12,18 -1,-16 13,-42 -13,13 8,-15 25,-34 56,-36 67,-52 6,-9 12,-34 29,-45 -10,-9 -85,-112 -92,-125 -12,21 -12,-1 -26,36zm-119 691c17,6 29,0 33,30 1,10 -5,27 -11,35 -20,23 -48,15 -79,11 -23,44 -2,15 -24,26l-5 36c21,-13 25,-15 57,-13 5,0 19,2 24,4 26,11 7,-10 21,19 32,-30 12,-31 58,-46 0,-17 -6,-3 7,-20 11,-15 9,-10 25,-18 -16,-14 -5,-2 -11,-34 -16,-77 -39,-29 -50,-92 -17,22 -25,44 -44,63zm-237 234c9,17 40,54 42,68l12 -14c1,-2 3,-5 4,-7l5 -19c14,20 21,21 9,52l29 -33c-16,-82 7,-24 11,-72 6,-53 6,-47 21,-89 -36,-22 -2,34 -16,-8 -1,-3 -4,-4 -5,-7 -23,36 -52,30 -85,53l-10 8c-25,23 -24,31 -15,67zm42 68l4 97c44,14 11,-5 43,-5l10 2c5,-14 5,-13 9,-24 1,-2 4,-10 5,-13l6 -13c1,-2 2,-5 3,-7 5,24 10,29 21,47l29 -107 0 5 -72 -2 -29 33c12,-32 5,-32 -9,-52l-5 19c-1,2 -3,5 -4,7l-12 14zm4 97l19 73c21,18 36,68 66,81l14 -166c-11,-18 -16,-24 -21,-47 -1,2 -3,5 -3,7l-6 13c-1,3 -4,10 -5,13 -4,11 -5,9 -9,24l-10 -2c-32,0 0,19 -43,5zm90 -168l42 -4c35,-31 16,-63 75,-79 -14,-29 5,-9 -21,-19 -5,-2 -18,-4 -24,-4 -32,-2 -36,0 -57,13l-16 93zm220 -920c14,-38 14,-15 26,-36 -50,-72 -67,-63 -117,-69 17,27 30,26 48,48 18,21 19,38 43,57zm-256 972l72 2 5 -58 -42 4c-2,-2 -5,-4 -7,-5 -2,-1 -5,-4 -7,-5 -2,-1 -8,-7 -10,-9 -3,48 -27,-10 -11,72zm80 -207c31,5 60,13 79,-11 6,-7 12,-25 11,-35 -4,-30 -16,-24 -33,-30 -7,14 -17,27 -27,40 -17,20 -16,14 -30,35zm-227 151c6,66 6,76 48,123l-1 -116c-14,-7 -18,-3 -47,-8zm197 -223l61 -11 26 -47c-9,0 -40,2 -47,1 -43,-3 -20,14 -34,-15 -10,21 -6,49 -6,72zm-17 117c-15,42 -16,36 -21,89 2,2 9,8 10,9 2,1 5,4 7,5 2,1 5,4 7,5l16 -93 5 -36c-18,-1 -16,-21 -20,-1l-4 20zm244 -101c14,-19 34,-41 44,-75l-44 0 0 75z"/>
     <path class="fil1" d="M5185 1202c-115,36 -659,304 -573,868 95,-221 258,-323 358,-396 20,-15 -94,-25 -75,-38 129,-88 308,-157 291,-434z"/>
    </g>
   </g>
   <g>
    <path class="fil2" d="M13654 4021l-150 0 0 7c0,5 -2,12 -7,21l-178 328 -2 0c4,-75 4,-123 4,-155l0 -110c0,-56 3,-62 62,-68l0 -23 -200 0 0 23c61,6 65,12 65,69l0 233c0,58 -5,67 -65,72l0 25 150 0 0 -7c0,-10 3,-19 9,-30l175 -323 2 0c-4,72 -4,107 -4,133l0 137c0,52 -6,59 -57,65l0 25 196 0 0 -25c-62,-6 -66,-12 -66,-66l0 -249c0,-46 5,-53 67,-59l0 -23z"/>
    <path id="1" class="fil2" d="M14186 4442l0 -25c-57,-5 -63,-12 -63,-73l0 -234c0,-55 5,-61 60,-67l0 -23 -194 0 0 23c55,6 59,13 59,67l0 89 -187 0 0 -89c0,-54 5,-61 54,-67l0 -23 -196 0 0 23c63,6 66,12 66,67l0 234c0,62 -4,69 -64,73l0 25 195 0 0 -25c-50,-5 -55,-11 -55,-73l0 -108 187 0 0 108c0,61 -6,69 -57,73l0 25 195 0z"/>
    <path id="2" class="fil2" d="M14671 4021l-384 0 0 24 28 5c38,6 46,13 46,42 0,51 -8,136 -21,199 -11,45 -22,83 -32,102 -6,12 -13,15 -23,15l-35 0 -1 178 28 0 18 -73c14,-58 21,-71 55,-71l215 0c34,0 41,12 48,61l13 84 28 0 19 -178 -39 0c-28,0 -33,-7 -33,-48l0 -252c0,-51 5,-58 69,-64l0 -24zm-145 339c0,46 -3,50 -50,50l-103 0c-11,0 -14,-6 -11,-17 21,-67 40,-188 42,-300 0,-33 4,-40 31,-40l54 0c33,0 37,2 37,40l0 267z"/>
    <path id="3" class="fil2" d="M15202 4021l-150 0 0 7c0,5 -2,12 -7,21l-178 328 -2 0c4,-75 4,-123 4,-155l0 -110c0,-56 3,-62 62,-68l0 -23 -200 0 0 23c61,6 65,12 65,69l0 233c0,58 -5,67 -65,72l0 25 150 0 0 -7c0,-10 3,-19 9,-30l175 -323 2 0c-4,72 -4,107 -4,133l0 137c0,52 -6,59 -57,65l0 25 196 0 0 -25c-62,-6 -66,-12 -66,-66l0 -249c0,-46 5,-53 67,-59l0 -23z"/>
    <path id="4" class="fil2" d="M15544 4211c40,-11 94,-34 94,-96 0,-67 -58,-94 -143,-94l-228 0 0 22c59,5 64,13 64,71l0 231c0,61 -5,68 -69,72l0 25 190 0c102,0 214,-26 214,-125 0,-65 -52,-96 -123,-104l0 -2zm-138 -11l0 -121c0,-24 4,-29 54,-29 56,0 97,21 97,74 0,54 -41,75 -101,75l-49 0zm0 31l53 0c70,0 121,25 121,89 0,62 -52,92 -111,92 -43,0 -63,-9 -63,-67l0 -114z"/>
    <path id="5" class="fil2" d="M16206 4021l-150 0 0 7c0,5 -2,12 -7,21l-178 328 -2 0c4,-75 4,-123 4,-155l0 -110c0,-56 3,-62 62,-68l0 -23 -200 0 0 23c61,6 65,12 65,69l0 233c0,58 -5,67 -65,72l0 25 150 0 0 -7c0,-10 3,-19 9,-30l175 -323 2 0c-4,72 -4,107 -4,133l0 137c0,52 -6,59 -57,65l0 25 196 0 0 -25c-62,-6 -66,-12 -66,-66l0 -249c0,-46 5,-53 67,-59l0 -23z"/>
    <path id="6" class="fil2" d="M16689 4021l-384 0 0 24 28 5c38,6 46,13 46,42 0,51 -8,136 -21,199 -11,45 -22,83 -32,102 -6,12 -13,15 -23,15l-35 0 -1 178 28 0 18 -73c14,-58 21,-71 55,-71l215 0c34,0 41,12 48,61l13 84 28 0 19 -178 -39 0c-28,0 -33,-7 -33,-48l0 -252c0,-51 5,-58 69,-64l0 -24zm-145 339c0,46 -3,50 -50,50l-103 0c-11,0 -14,-6 -11,-17 21,-67 40,-188 42,-300 0,-33 4,-40 31,-40l54 0c33,0 37,2 37,40l0 267z"/>
    <path id="7" class="fil2" d="M17200 4021l-174 0 0 24 33 8c25,6 32,13 23,41 -14,49 -64,190 -89,251l-96 -250c-10,-27 -8,-37 13,-41l32 -9 0 -24 -203 0 0 24c51,7 63,20 80,62 34,85 81,201 124,319 3,10 7,21 3,34 -6,18 -15,40 -27,63 -25,53 -66,84 -110,95 -13,2 -18,10 -18,23 1,28 25,50 51,50 15,0 37,-15 62,-55 35,-53 78,-168 106,-239 56,-144 86,-223 109,-275 25,-58 35,-67 81,-76l0 -24z"/>
    <path id="8" class="fil2" d="M17601 4405l-10 -25c-10,6 -23,11 -35,11 -16,0 -34,-14 -34,-58l0 -179c0,-50 -10,-90 -43,-118 -21,-17 -50,-26 -79,-26 -55,11 -118,48 -145,68 -18,14 -31,24 -31,39 0,22 25,41 42,41 13,0 24,-7 28,-22 8,-30 16,-51 29,-64 10,-12 24,-19 43,-19 48,0 81,40 81,109l0 17c-21,17 -92,43 -150,63 -53,18 -78,48 -78,96 0,61 47,118 116,118 29,0 75,-36 114,-62 5,16 11,30 23,43 11,10 31,18 45,18l82 -49zm-152 -43c-18,17 -52,34 -77,35 -30,0 -69,-24 -69,-74 0,-35 21,-53 59,-70 20,-10 67,-30 87,-41l0 151z"/>
    <path id="9" class="fil2" d="M18076 4021l-380 0 0 24c70,7 73,18 73,58 0,86 -18,159 -41,210 -18,43 -49,90 -82,117l0 17c9,4 23,8 41,8 13,0 28,-9 43,-31 29,-41 78,-138 83,-331 0,-32 4,-40 35,-40l51 0c31,0 34,8 34,42l0 249c0,60 -4,67 -65,72l0 25 207 0 0 -25c-63,-6 -67,-14 -67,-73l0 -232c0,-54 3,-61 67,-68l0 -24z"/>
    <path id="10" class="fil2" d="M18320 4442c138,0 206,-56 206,-144 0,-91 -70,-126 -178,-126 -22,0 -45,2 -70,4l0 -62c0,-59 4,-65 64,-70l0 -23 -201 0 0 23c59,6 63,13 63,70l0 233c0,58 -5,65 -67,70l0 25 184 0zm-43 -236c12,-1 28,-3 41,-3 69,0 122,21 122,99 0,69 -41,110 -109,110 -41,0 -54,-9 -54,-53l0 -153z"/>
    <path id="11" class="fil2" d="M19055 4442l0 -25c-57,-5 -63,-12 -63,-73l0 -234c0,-55 5,-61 60,-67l0 -23 -194 0 0 23c55,6 59,13 59,67l0 89 -187 0 0 -89c0,-54 5,-61 54,-67l0 -23 -196 0 0 23c63,6 66,12 66,67l0 234c0,62 -4,69 -64,73l0 25 195 0 0 -25c-50,-5 -55,-11 -55,-73l0 -108 187 0 0 108c0,61 -6,69 -57,73l0 25 195 0z"/>
    <path id="12" class="fil2" d="M19331 4009c-88,0 -211,72 -211,232 0,107 79,213 211,213 96,0 209,-74 209,-230 0,-120 -90,-215 -209,-215zm-10 32c84,0 129,92 129,205 0,132 -49,177 -109,177 -79,0 -132,-91 -132,-212 0,-109 52,-169 112,-169z"/>
    <path id="13" class="fil2" d="M20298 4021l-150 0 0 7c0,5 -2,12 -7,21l-178 328 -2 0c4,-75 4,-123 4,-155l0 -110c0,-56 3,-62 62,-68l0 -23 -200 0 0 23c61,6 65,12 65,69l0 233c0,58 -5,67 -65,72l0 25 150 0 0 -7c0,-10 3,-19 9,-30l175 -323 2 0c-4,72 -4,107 -4,133l0 137c0,52 -6,59 -57,65l0 25 196 0 0 -25c-62,-6 -66,-12 -66,-66l0 -249c0,-46 5,-53 67,-59l0 -23z"/>
    <path id="14" class="fil2" d="M20575 4209c34,-13 53,-23 67,-34 14,-12 26,-31 26,-58 0,-66 -58,-108 -147,-108 -47,0 -97,19 -130,39l-13 91 27 7c17,-56 46,-106 101,-106 43,0 76,28 76,89 0,41 -22,68 -55,68 -18,0 -36,-5 -58,-5 -20,0 -34,12 -34,24 0,14 13,24 32,24 21,0 39,-6 58,-6 51,0 72,45 72,89 0,63 -34,100 -88,101 -41,0 -75,-27 -95,-69 -9,-17 -18,-27 -32,-27 -14,0 -27,12 -27,30 0,14 6,30 19,46 24,29 71,50 132,50 92,0 180,-47 180,-134 0,-68 -53,-99 -114,-109l0 -2z"/>
    <path id="15" class="fil2" d="M21083 4145c-3,-35 -5,-107 -6,-124l-322 0 0 24c64,7 68,13 68,64l0 237c0,60 -6,66 -65,71l0 25 214 0 0 -25c-69,-6 -74,-14 -74,-71l0 -262c0,-27 1,-32 28,-32l44 0c27,0 49,4 61,23 9,13 16,36 25,73l27 -3z"/>
    <path id="16" class="fil2" d="M21354 4009c-88,0 -211,72 -211,232 0,107 79,213 211,213 96,0 209,-74 209,-230 0,-120 -90,-215 -209,-215zm-10 32c84,0 129,92 129,205 0,132 -49,177 -109,177 -79,0 -132,-91 -132,-212 0,-109 52,-169 112,-169z"/>
    <path id="17" class="fil2" d="M22004 4140c-1,-41 -2,-85 -1,-120l-370 0c-1,35 -3,78 -8,120l26 4c9,-33 14,-51 23,-68 11,-20 28,-25 57,-25l46 0 0 298c0,54 -5,62 -70,68l0 25 217 0 0 -25c-66,-6 -70,-14 -70,-68l0 -298 42 0c34,0 51,7 62,24 9,16 13,38 19,68l26 -3z"/>
    <path id="18" class="fil2" d="M22460 4405l-10 -25c-10,6 -23,11 -35,11 -16,0 -34,-14 -34,-58l0 -179c0,-50 -10,-90 -43,-118 -21,-17 -50,-26 -79,-26 -55,11 -118,48 -145,68 -18,14 -31,24 -31,39 0,22 25,41 42,41 13,0 24,-7 28,-22 8,-30 16,-51 29,-64 10,-12 24,-19 43,-19 48,0 81,40 81,109l0 17c-21,17 -92,43 -150,63 -53,18 -78,48 -78,96 0,61 47,118 116,118 29,0 75,-36 114,-62 5,16 11,30 23,43 11,10 31,18 45,18l82 -49zm-152 -43c-18,17 -52,34 -77,35 -30,0 -69,-24 -69,-74 0,-35 21,-53 59,-70 20,-10 67,-30 87,-41l0 151z"/>
    <path id="19" class="fil2" d="M22784 4211c40,-11 94,-34 94,-96 0,-67 -58,-94 -143,-94l-228 0 0 22c59,5 64,13 64,71l0 231c0,61 -5,68 -69,72l0 25 190 0c102,0 214,-26 214,-125 0,-65 -52,-96 -123,-104l0 -2zm-138 -11l0 -121c0,-24 4,-29 54,-29 56,0 97,21 97,74 0,54 -41,75 -101,75l-49 0zm0 31l53 0c70,0 121,25 121,89 0,62 -52,92 -111,92 -43,0 -63,-9 -63,-67l0 -114z"/>
    <path id="20" class="fil2" d="M23388 4021l-380 0 0 24c70,7 73,18 73,58 0,86 -18,159 -41,210 -18,43 -49,90 -82,117l0 17c9,4 23,8 41,8 13,0 28,-9 43,-31 29,-41 78,-138 83,-331 0,-32 4,-40 35,-40l51 0c31,0 34,8 34,42l0 249c0,60 -4,67 -65,72l0 25 207 0 0 -25c-63,-6 -67,-14 -67,-73l0 -232c0,-54 3,-61 67,-68l0 -24z"/>
    <path id="21" class="fil2" d="M23919 4021l-150 0 0 7c0,5 -2,12 -7,21l-178 328 -2 0c4,-75 4,-123 4,-155l0 -110c0,-56 3,-62 62,-68l0 -23 -200 0 0 23c61,6 65,12 65,69l0 233c0,58 -5,67 -65,72l0 25 150 0 0 -7c0,-10 3,-19 9,-30l175 -323 2 0c-4,72 -4,107 -4,133l0 137c0,52 -6,59 -57,65l0 25 196 0 0 -25c-62,-6 -66,-12 -66,-66l0 -249c0,-46 5,-53 67,-59l0 -23z"/>
    <path id="22" class="fil2" d="M24262 4211c40,-11 94,-34 94,-96 0,-67 -58,-94 -143,-94l-228 0 0 22c59,5 64,13 64,71l0 231c0,61 -5,68 -69,72l0 25 190 0c102,0 214,-26 214,-125 0,-65 -52,-96 -123,-104l0 -2zm-138 -11l0 -121c0,-24 4,-29 54,-29 56,0 97,21 97,74 0,54 -41,75 -101,75l-49 0zm0 31l53 0c70,0 121,25 121,89 0,62 -52,92 -111,92 -43,0 -63,-9 -63,-67l0 -114z"/>
    <path id="23" class="fil2" d="M24852 4405l-10 -25c-10,6 -23,11 -35,11 -16,0 -34,-14 -34,-58l0 -179c0,-50 -10,-90 -43,-118 -21,-17 -50,-26 -79,-26 -55,11 -118,48 -145,68 -18,14 -31,24 -31,39 0,22 25,41 42,41 13,0 24,-7 28,-22 8,-30 16,-51 29,-64 10,-12 24,-19 43,-19 48,0 81,40 81,109l0 17c-21,17 -92,43 -150,63 -53,18 -78,48 -78,96 0,61 47,118 116,118 29,0 75,-36 114,-62 5,16 11,30 23,43 11,10 31,18 45,18l82 -49zm-152 -43c-18,17 -52,34 -77,35 -30,0 -69,-24 -69,-74 0,-35 21,-53 59,-70 20,-10 67,-30 87,-41l0 151z"/>
    <path id="24" class="fil2" d="M25224 4340c-35,33 -71,48 -110,48 -68,0 -143,-54 -144,-185 115,-4 235,-13 252,-16 17,-4 22,-12 22,-31 0,-75 -65,-147 -145,-147 -50,0 -102,26 -142,70 -40,43 -64,102 -64,169 0,109 69,206 188,206 30,0 97,-17 157,-94l-15 -20zm-148 -295c53,0 86,46 85,97 0,13 -6,19 -23,19 -56,2 -109,3 -163,3 14,-78 57,-119 101,-119z"/>
    <path id="25" class="fil2" d="M25694 4140c-1,-41 -2,-85 -1,-120l-370 0c-1,35 -3,78 -8,120l26 4c9,-33 14,-51 23,-68 11,-20 28,-25 57,-25l46 0 0 298c0,54 -5,62 -70,68l0 25 217 0 0 -25c-66,-6 -70,-14 -70,-68l0 -298 42 0c34,0 51,7 62,24 9,16 13,38 19,68l26 -3z"/>
    <path class="fil2" d="M8047 5313c-88,0 -211,72 -211,232 0,107 79,213 211,213 96,0 209,-74 209,-230 0,-120 -90,-215 -209,-215zm-10 32c84,0 129,92 129,205 0,132 -49,177 -109,177 -79,0 -132,-91 -132,-212 0,-109 52,-169 112,-169z"/>
    <path id="1" class="fil2" d="M8570 5313c-57,0 -105,32 -138,69l-2 -2c2,-55 13,-96 30,-126 15,-30 47,-58 99,-68 40,-8 87,-18 114,-33 41,-23 53,-66 53,-91 0,-9 -5,-12 -15,-3 -21,17 -44,26 -87,38 -41,13 -69,25 -95,42 -31,18 -66,48 -100,93 -53,69 -82,162 -83,260 -1,155 75,265 206,265 96,0 204,-78 204,-236 1,-120 -78,-208 -185,-208zm-21 35c69,0 118,83 117,204 -2,134 -55,175 -108,175 -69,0 -124,-89 -122,-225 1,-62 12,-86 32,-109 26,-30 51,-44 81,-44z"/>
    <path id="2" class="fil2" d="M9255 5325l-174 0 0 24 33 8c25,6 32,13 23,41 -14,49 -64,190 -89,251l-96 -250c-10,-27 -8,-37 13,-41l32 -9 0 -24 -203 0 0 24c51,7 63,20 80,62 34,85 81,201 124,319 3,10 7,21 3,34 -6,18 -15,40 -27,63 -25,53 -66,84 -110,95 -13,2 -18,10 -18,23 1,28 25,50 51,50 15,0 37,-15 62,-55 35,-53 78,-168 106,-239 56,-144 86,-223 109,-275 25,-58 35,-67 81,-76l0 -24z"/>
    <path id="3" class="fil2" d="M9559 5515c40,-11 94,-34 94,-96 0,-67 -58,-94 -143,-94l-228 0 0 22c59,5 64,13 64,71l0 231c0,61 -5,68 -69,72l0 25 190 0c102,0 214,-26 214,-125 0,-65 -52,-96 -123,-104l0 -2zm-138 -11l0 -121c0,-24 4,-29 54,-29 56,0 97,21 97,74 0,54 -41,75 -101,75l-49 0zm0 31l53 0c70,0 121,25 121,89 0,62 -52,92 -111,92 -43,0 -63,-9 -63,-67l0 -114z"/>
    <path id="4" class="fil2" d="M9934 5746c138,0 206,-56 206,-144 0,-91 -70,-126 -178,-126 -22,0 -45,2 -70,4l0 -62c0,-59 4,-65 64,-70l0 -23 -201 0 0 23c59,6 63,13 63,70l0 233c0,58 -5,65 -67,70l0 25 184 0zm-43 -236c12,-1 28,-3 41,-3 69,0 122,21 122,99 0,69 -41,110 -109,110 -41,0 -54,-9 -54,-53l0 -153z"/>
    <path id="5" class="fil2" d="M10834 5325l-384 0 0 24 28 5c38,6 46,13 46,42 0,51 -8,136 -21,199 -11,45 -22,83 -32,102 -6,12 -13,15 -23,15l-35 0 -1 178 28 0 18 -73c14,-58 21,-71 55,-71l215 0c34,0 41,12 48,61l13 84 28 0 19 -178 -39 0c-28,0 -33,-7 -33,-48l0 -252c0,-51 5,-58 69,-64l0 -24zm-145 339c0,46 -3,50 -50,50l-103 0c-11,0 -14,-6 -11,-17 21,-67 40,-188 42,-300 0,-33 4,-40 31,-40l54 0c33,0 37,2 37,40l0 267z"/>
    <path id="6" class="fil2" d="M11310 5325l-380 0 0 24c70,7 73,18 73,58 0,86 -18,159 -41,210 -18,43 -49,90 -82,117l0 17c9,4 23,8 41,8 13,0 28,-9 43,-31 29,-41 78,-138 83,-331 0,-32 4,-40 35,-40l51 0c31,0 34,8 34,42l0 249c0,60 -4,67 -65,72l0 25 207 0 0 -25c-63,-6 -67,-14 -67,-73l0 -232c0,-54 3,-61 67,-68l0 -24z"/>
    <path id="7" class="fil2" d="M11787 5746l0 -25c-58,-4 -64,-11 -64,-71l0 -231c0,-62 6,-67 62,-70l0 -24 -206 0c-93,0 -159,34 -159,112 0,58 40,96 115,110l0 2c-53,13 -77,47 -96,83 -16,33 -27,56 -39,69 -13,15 -33,18 -55,21l0 25 71 0c34,0 60,-16 81,-63 18,-37 31,-70 47,-93 13,-19 35,-30 71,-30l32 0 0 88c0,62 -5,69 -59,72l0 25 197 0zm-138 -217l-29 0c-38,0 -63,-5 -84,-18 -21,-15 -36,-37 -36,-69 0,-58 39,-89 99,-89 38,0 49,7 49,31l0 145z"/>
    <path id="8" class="fil2" d="M12543 5746l0 -25c-62,-6 -67,-14 -67,-74l0 -232c0,-54 3,-61 65,-67l0 -24 -471 0 0 24c64,6 68,11 68,67l0 232c0,62 -5,69 -66,74l0 25 201 0 0 -25c-55,-6 -59,-13 -59,-74l0 -246c0,-39 4,-43 41,-43l103 0c36,0 41,4 41,44l0 245c0,62 -3,69 -62,74l0 25 205 0z"/>
    <path id="9" class="fil2" d="M12933 5644c-35,33 -71,48 -110,48 -68,0 -143,-54 -144,-185 115,-4 235,-13 252,-16 17,-4 22,-12 22,-31 0,-75 -65,-147 -145,-147 -50,0 -102,26 -142,70 -40,43 -64,102 -64,169 0,109 69,206 188,206 30,0 97,-17 157,-94l-15 -20zm-148 -295c53,0 86,46 85,97 0,13 -6,19 -23,19 -56,2 -109,3 -163,3 14,-78 57,-119 101,-119z"/>
    <path id="10" class="fil2" d="M13140 5380l0 -76c-45,18 -99,35 -140,41l0 23c60,8 64,10 64,72l0 436c0,64 -9,69 -70,75l0 26 229 0 0 -26c-75,-7 -82,-12 -82,-85l0 -126c13,7 39,16 67,17 125,-23 240,-117 240,-262 0,-96 -64,-182 -171,-182 -12,0 -30,5 -47,14l-89 52zm0 32c26,-19 66,-41 96,-41 70,0 129,58 129,161 0,109 -54,178 -135,178 -33,0 -69,-15 -91,-38l0 -261z"/>
    <path id="11" class="fil2" d="M13779 5515c40,-11 94,-34 94,-96 0,-67 -58,-94 -143,-94l-228 0 0 22c59,5 64,13 64,71l0 231c0,61 -5,68 -69,72l0 25 190 0c102,0 214,-26 214,-125 0,-65 -52,-96 -123,-104l0 -2zm-138 -11l0 -121c0,-24 4,-29 54,-29 56,0 97,21 97,74 0,54 -41,75 -101,75l-49 0zm0 31l53 0c70,0 121,25 121,89 0,62 -52,92 -111,92 -43,0 -63,-9 -63,-67l0 -114z"/>
    <path id="12" class="fil2" d="M14148 5746c137,0 205,-55 205,-144 0,-91 -70,-126 -178,-126 -22,0 -41,1 -66,4l0 -62c0,-58 5,-65 63,-70l0 -23 -200 0 0 23c58,6 63,11 63,71l0 231c0,58 -5,64 -67,70l0 26 179 0zm413 0l0 -26c-60,-5 -64,-11 -64,-70l0 -234c0,-56 5,-62 63,-68l0 -24 -203 0 0 24c59,6 64,12 64,68l0 234c0,58 -4,66 -60,70l0 26 200 0zm-452 -236c14,-2 25,-3 38,-3 72,0 119,23 119,99 0,69 -37,109 -107,109 -40,0 -49,-9 -49,-52l0 -153z"/>
    <path id="13" class="fil2" d="M15053 5746l0 -25c-59,-8 -70,-16 -106,-71l-95 -143c32,-47 56,-82 75,-106 35,-41 47,-45 106,-52l0 -24 -176 0 0 24c41,5 48,10 31,41 -17,32 -37,62 -56,90l-57 -89c-17,-27 -14,-36 27,-41l0 -24 -193 0 0 24c53,7 66,14 95,62l84 131c-28,43 -54,82 -81,116 -39,48 -49,56 -109,64l0 25 180 0 0 -25c-50,-8 -52,-16 -34,-49 18,-35 41,-70 62,-102l71 113c16,26 9,34 -33,39l0 25 207 0z"/>
    <path id="14" class="fil2" d="M15717 5325l-380 0 0 24c70,7 73,18 73,58 0,86 -18,159 -41,210 -18,43 -49,90 -82,117l0 17c9,4 23,8 41,8 13,0 28,-9 43,-31 29,-41 78,-138 83,-331 0,-32 4,-40 35,-40l51 0c31,0 34,8 34,42l0 249c0,60 -4,67 -65,72l0 25 207 0 0 -25c-63,-6 -67,-14 -67,-73l0 -232c0,-54 3,-61 67,-68l0 -24z"/>
    <path id="15" class="fil2" d="M16249 5325l-150 0 0 7c0,5 -2,12 -7,21l-178 328 -2 0c4,-75 4,-123 4,-155l0 -110c0,-56 3,-62 62,-68l0 -23 -200 0 0 23c61,6 65,12 65,69l0 233c0,58 -5,67 -65,72l0 25 150 0 0 -7c0,-10 3,-19 9,-30l175 -323 2 0c-4,72 -4,107 -4,133l0 137c0,52 -6,59 -57,65l0 25 196 0 0 -25c-62,-6 -66,-12 -66,-66l0 -249c0,-46 5,-53 67,-59l0 -23z"/>
    <path id="16" class="fil2" d="M16788 5712l-39 0c-29,0 -34,-7 -34,-48l0 -248c0,-56 5,-63 66,-69l0 -23 -201 0 0 23c56,6 60,13 60,68l0 252c0,41 -7,45 -42,45l-101 0c-36,0 -42,-4 -42,-45l0 -252c0,-55 5,-62 53,-68l0 -23 -192 0 0 23c58,6 63,12 63,68l0 238c0,54 -4,62 -68,68l0 25 368 0c34,0 41,12 48,61l14 84 28 0 20 -178z"/>
    <path id="17" class="fil2" d="M17540 5746l0 -25c-62,-6 -67,-14 -67,-74l0 -232c0,-54 3,-61 65,-67l0 -24 -471 0 0 24c64,6 68,11 68,67l0 232c0,62 -5,69 -66,74l0 25 201 0 0 -25c-55,-6 -59,-13 -59,-74l0 -246c0,-39 4,-43 41,-43l103 0c36,0 41,4 41,44l0 245c0,62 -3,69 -62,74l0 25 205 0z"/>
    <path id="18" class="fil2" d="M17811 5313c-88,0 -211,72 -211,232 0,107 79,213 211,213 96,0 209,-74 209,-230 0,-120 -90,-215 -209,-215zm-10 32c84,0 129,92 129,205 0,132 -49,177 -109,177 -79,0 -132,-91 -132,-212 0,-109 52,-169 112,-169z"/>
    <path id="19" class="fil2" d="M18489 5325l-380 0 0 24c70,7 73,18 73,58 0,86 -18,159 -41,210 -18,43 -49,90 -82,117l0 17c9,4 23,8 41,8 13,0 28,-9 43,-31 29,-41 78,-138 83,-331 0,-32 4,-40 35,-40l51 0c31,0 34,8 34,42l0 249c0,60 -4,67 -65,72l0 25 207 0 0 -25c-63,-6 -67,-14 -67,-73l0 -232c0,-54 3,-61 67,-68l0 -24z"/>
    <path id="20" class="fil2" d="M19021 5325l-150 0 0 7c0,5 -2,12 -7,21l-178 328 -2 0c4,-75 4,-123 4,-155l0 -110c0,-56 3,-62 62,-68l0 -23 -200 0 0 23c61,6 65,12 65,69l0 233c0,58 -5,67 -65,72l0 25 150 0 0 -7c0,-10 3,-19 9,-30l175 -323 2 0c-4,72 -4,107 -4,133l0 137c0,52 -6,59 -57,65l0 25 196 0 0 -25c-62,-6 -66,-12 -66,-66l0 -249c0,-46 5,-53 67,-59l0 -23z"/>
    <path id="21" class="fil2" d="M19458 5444c-1,-41 -2,-85 -1,-120l-370 0c-1,35 -3,78 -8,120l26 4c9,-33 14,-51 23,-68 11,-20 28,-25 57,-25l46 0 0 298c0,54 -5,62 -70,68l0 25 217 0 0 -25c-66,-6 -70,-14 -70,-68l0 -298 42 0c34,0 51,7 62,24 9,16 13,38 19,68l26 -3z"/>
    <path id="22" class="fil2" d="M19986 5325l-150 0 0 7c0,5 -2,12 -7,21l-178 328 -2 0c4,-75 4,-123 4,-155l0 -110c0,-56 3,-62 62,-68l0 -23 -200 0 0 23c61,6 65,12 65,69l0 233c0,58 -5,67 -65,72l0 25 150 0 0 -7c0,-10 3,-19 9,-30l175 -323 2 0c-4,72 -4,107 -4,133l0 137c0,52 -6,59 -57,65l0 25 196 0 0 -25c-62,-6 -66,-12 -66,-66l0 -249c0,-46 5,-53 67,-59l0 -23z"/>
    <path id="23" class="fil2" d="M20488 5746l0 -25c-41,-3 -58,-19 -91,-71 -29,-48 -41,-70 -56,-93 -20,-28 -48,-43 -66,-48l0 -4c19,-13 41,-39 58,-65 25,-38 46,-65 81,-65l15 0c25,0 35,-12 35,-29 0,-18 -15,-33 -43,-33 -41,0 -73,42 -91,69 -20,31 -46,74 -69,97 -23,22 -44,27 -72,28l0 -96c0,-50 5,-57 57,-63l0 -24 -192 0 0 24c56,6 60,12 60,63l0 246c0,49 -5,58 -63,64l0 25 201 0 0 -25c-58,-6 -63,-14 -63,-64l0 -121c41,0 63,9 81,44 14,27 33,68 58,110 28,49 60,55 96,55l63 0z"/>
    <path id="24" class="fil2" d="M21004 5325l-150 0 0 7c0,5 -2,12 -7,21l-178 328 -2 0c4,-75 4,-123 4,-155l0 -110c0,-56 3,-62 62,-68l0 -23 -200 0 0 23c61,6 65,12 65,69l0 233c0,58 -5,67 -65,72l0 25 150 0 0 -7c0,-10 3,-19 9,-30l175 -323 2 0c-4,72 -4,107 -4,133l0 137c0,52 -6,59 -57,65l0 25 196 0 0 -25c-62,-6 -66,-12 -66,-66l0 -249c0,-46 5,-53 67,-59l0 -23z"/>
    <path id="25" class="fil2" d="M21127 5622c-23,0 -46,15 -46,40 0,16 7,23 12,24 34,8 61,30 61,65 0,37 -28,62 -74,81l11 28c59,-17 126,-59 126,-133 0,-68 -54,-104 -89,-104z"/>
    <path id="26" class="fil2" d="M21978 5325l-150 0 0 7c0,5 -2,12 -7,21l-178 328 -2 0c4,-75 4,-123 4,-155l0 -110c0,-56 3,-62 62,-68l0 -23 -200 0 0 23c61,6 65,12 65,69l0 233c0,58 -5,67 -65,72l0 25 150 0 0 -7c0,-10 3,-19 9,-30l175 -323 2 0c-4,72 -4,107 -4,133l0 137c0,52 -6,59 -57,65l0 25 196 0 0 -25c-62,-6 -66,-12 -66,-66l0 -249c0,-46 5,-53 67,-59l0 -23z"/>
    <path id="27" class="fil2" d="M22255 5513c34,-13 53,-23 67,-34 14,-12 26,-31 26,-58 0,-66 -58,-108 -147,-108 -47,0 -97,19 -130,39l-13 91 27 7c17,-56 46,-106 101,-106 43,0 76,28 76,89 0,41 -22,68 -55,68 -18,0 -36,-5 -58,-5 -20,0 -34,12 -34,24 0,14 13,24 32,24 21,0 39,-6 58,-6 51,0 72,45 72,89 0,63 -34,100 -88,101 -41,0 -75,-27 -95,-69 -9,-17 -18,-27 -32,-27 -14,0 -27,12 -27,30 0,14 6,30 19,46 24,29 71,50 132,50 92,0 180,-47 180,-134 0,-68 -53,-99 -114,-109l0 -2z"/>
    <path id="28" class="fil2" d="M22714 5515c40,-11 94,-34 94,-96 0,-67 -58,-94 -143,-94l-228 0 0 22c59,5 64,13 64,71l0 231c0,61 -5,68 -69,72l0 25 190 0c102,0 214,-26 214,-125 0,-65 -52,-96 -123,-104l0 -2zm-138 -11l0 -121c0,-24 4,-29 54,-29 56,0 97,21 97,74 0,54 -41,75 -101,75l-49 0zm0 31l53 0c70,0 121,25 121,89 0,62 -52,92 -111,92 -43,0 -63,-9 -63,-67l0 -114z"/>
    <path id="29" class="fil2" d="M23251 5644c-35,33 -71,48 -110,48 -68,0 -143,-54 -144,-185 115,-4 235,-13 252,-16 17,-4 22,-12 22,-31 0,-75 -65,-147 -145,-147 -50,0 -102,26 -142,70 -40,43 -64,102 -64,169 0,109 69,206 188,206 30,0 97,-17 157,-94l-15 -20zm-148 -295c53,0 86,46 85,97 0,13 -6,19 -23,19 -56,2 -109,3 -163,3 14,-78 57,-119 101,-119z"/>
    <path id="30" class="fil2" d="M23682 5639c-44,41 -76,53 -118,53 -54,0 -146,-44 -146,-178 0,-101 56,-154 120,-154 34,0 68,13 96,40 9,8 14,11 18,11 11,0 32,-21 32,-41 0,-11 -3,-19 -15,-30 -15,-13 -47,-25 -86,-25 -38,0 -96,15 -146,54 -65,50 -97,115 -97,189 0,103 71,202 193,202 57,0 122,-42 164,-98l-16 -20z"/>
    <path id="31" class="fil2" d="M24135 5444c-1,-41 -2,-85 -1,-120l-370 0c-1,35 -3,78 -8,120l26 4c9,-33 14,-51 23,-68 11,-20 28,-25 57,-25l46 0 0 298c0,54 -5,62 -70,68l0 25 217 0 0 -25c-66,-6 -70,-14 -70,-68l0 -298 42 0c34,0 51,7 62,24 9,16 13,38 19,68l26 -3z"/>
    <path id="32" class="fil2" d="M24659 5746l0 -25c-57,-5 -63,-12 -63,-73l0 -234c0,-55 5,-61 60,-67l0 -23 -194 0 0 23c55,6 59,13 59,67l0 89 -187 0 0 -89c0,-54 5,-61 54,-67l0 -23 -196 0 0 23c63,6 66,12 66,67l0 234c0,62 -4,69 -64,73l0 25 195 0 0 -25c-50,-5 -55,-11 -55,-73l0 -108 187 0 0 108c0,61 -6,69 -57,73l0 25 195 0z"/>
    <path id="33" class="fil2" d="M24904 5746c137,0 205,-55 205,-144 0,-91 -70,-126 -178,-126 -22,0 -41,1 -66,4l0 -62c0,-58 5,-65 63,-70l0 -23 -200 0 0 23c58,6 63,11 63,71l0 231c0,58 -5,64 -67,70l0 26 179 0zm413 0l0 -26c-60,-5 -64,-11 -64,-70l0 -234c0,-56 5,-62 63,-68l0 -24 -203 0 0 24c59,6 64,12 64,68l0 234c0,58 -4,66 -60,70l0 26 200 0zm-452 -236c14,-2 25,-3 38,-3 72,0 119,23 119,99 0,69 -37,109 -107,109 -40,0 -49,-9 -49,-52l0 -153z"/>
    <path id="34" class="fil2" d="M25809 5746l0 -25c-59,-8 -70,-16 -106,-71l-95 -143c32,-47 56,-82 75,-106 35,-41 47,-45 106,-52l0 -24 -176 0 0 24c41,5 48,10 31,41 -17,32 -37,62 -56,90l-57 -89c-17,-27 -14,-36 27,-41l0 -24 -193 0 0 24c53,7 66,14 95,62l84 131c-28,43 -54,82 -81,116 -39,48 -49,56 -109,64l0 25 180 0 0 -25c-50,-8 -52,-16 -34,-49 18,-35 41,-70 62,-102l71 113c16,26 9,34 -33,39l0 25 207 0z"/>
    <path class="fil2" d="M4024 6957l0 -25c-62,-6 -67,-14 -67,-74l0 -232c0,-54 3,-61 65,-67l0 -24 -471 0 0 24c64,6 68,11 68,67l0 232c0,62 -5,69 -66,74l0 25 201 0 0 -25c-55,-6 -59,-13 -59,-74l0 -246c0,-39 4,-43 41,-43l103 0c36,0 41,4 41,44l0 245c0,62 -3,69 -62,74l0 25 205 0z"/>
    <path id="1" class="fil2" d="M4414 6855c-35,33 -71,48 -110,48 -68,0 -143,-54 -144,-185 115,-4 235,-13 252,-16 17,-4 22,-12 22,-31 0,-75 -65,-147 -145,-147 -50,0 -102,26 -142,70 -40,43 -64,102 -64,169 0,109 69,206 188,206 30,0 97,-17 157,-94l-15 -20zm-148 -295c53,0 86,46 85,97 0,13 -6,19 -23,19 -56,2 -109,3 -163,3 14,-78 57,-119 101,-119z"/>
    <path id="2" class="fil2" d="M4621 6590l0 -76c-45,18 -99,35 -140,41l0 23c60,8 64,10 64,72l0 436c0,64 -9,69 -70,75l0 26 229 0 0 -26c-75,-7 -82,-12 -82,-85l0 -126c13,7 39,16 67,17 125,-23 240,-117 240,-262 0,-96 -64,-182 -171,-182 -12,0 -30,5 -47,14l-89 52zm0 32c26,-19 66,-41 96,-41 70,0 129,58 129,161 0,109 -54,178 -135,178 -33,0 -69,-15 -91,-38l0 -261z"/>
    <path id="3" class="fil2" d="M5352 6850c-44,41 -76,53 -118,53 -54,0 -146,-44 -146,-178 0,-101 56,-154 120,-154 34,0 68,13 96,40 9,8 14,11 18,11 11,0 32,-21 32,-41 0,-11 -3,-19 -15,-30 -15,-13 -47,-25 -86,-25 -38,0 -96,15 -146,54 -65,50 -97,115 -97,189 0,103 71,202 193,202 57,0 122,-42 164,-98l-16 -20z"/>
    <path id="4" class="fil2" d="M5637 6524c-88,0 -211,72 -211,232 0,107 79,213 211,213 96,0 209,-74 209,-230 0,-120 -90,-215 -209,-215zm-10 32c84,0 129,92 129,205 0,132 -49,177 -109,177 -79,0 -132,-91 -132,-212 0,-109 52,-169 112,-169z"/>
    <path id="5" class="fil2" d="M6368 6957l0 -25c-57,-5 -63,-12 -63,-73l0 -234c0,-55 5,-61 60,-67l0 -23 -194 0 0 23c55,6 59,13 59,67l0 89 -187 0 0 -89c0,-54 5,-61 54,-67l0 -23 -196 0 0 23c63,6 66,12 66,67l0 234c0,62 -4,69 -64,73l0 25 195 0 0 -25c-50,-5 -55,-11 -55,-73l0 -108 187 0 0 108c0,61 -6,69 -57,73l0 25 195 0z"/>
    <path id="6" class="fil2" d="M6882 6524c-57,0 -105,32 -138,69l-2 -2c2,-55 13,-96 30,-126 15,-30 47,-58 99,-68 40,-8 87,-18 114,-33 41,-23 53,-66 53,-91 0,-9 -5,-12 -15,-3 -21,17 -44,26 -87,38 -41,13 -69,25 -95,42 -31,18 -66,48 -100,93 -53,69 -82,162 -83,260 -1,155 75,265 206,265 96,0 204,-78 204,-236 1,-120 -78,-208 -185,-208zm-21 35c69,0 118,83 117,204 -2,134 -55,175 -108,175 -69,0 -124,-89 -122,-225 1,-62 12,-86 32,-109 26,-30 51,-44 81,-44z"/>
    <path id="7" class="fil2" d="M7608 6535l-150 0 0 7c0,5 -2,12 -7,21l-178 328 -2 0c4,-75 4,-123 4,-155l0 -110c0,-56 3,-62 62,-68l0 -23 -200 0 0 23c61,6 65,12 65,69l0 233c0,58 -5,67 -65,72l0 25 150 0 0 -7c0,-10 3,-19 9,-30l175 -323 2 0c-4,72 -4,107 -4,133l0 137c0,52 -6,59 -57,65l0 25 196 0 0 -25c-62,-6 -66,-12 -66,-66l0 -249c0,-46 5,-53 67,-59l0 -23z"/>
    <path id="8" class="fil2" d="M7885 6724c34,-13 53,-23 67,-34 14,-12 26,-31 26,-58 0,-66 -58,-108 -147,-108 -47,0 -97,19 -130,39l-13 91 27 7c17,-56 46,-106 101,-106 43,0 76,28 76,89 0,41 -22,68 -55,68 -18,0 -36,-5 -58,-5 -20,0 -34,12 -34,24 0,14 13,24 32,24 21,0 39,-6 58,-6 51,0 72,45 72,89 0,63 -34,100 -88,101 -41,0 -75,-27 -95,-69 -9,-17 -18,-27 -32,-27 -14,0 -27,12 -27,30 0,14 6,30 19,46 24,29 71,50 132,50 92,0 180,-47 180,-134 0,-68 -53,-99 -114,-109l0 -2z"/>
    <path id="9" class="fil2" d="M8533 6957l0 -25c-57,-5 -63,-12 -63,-73l0 -234c0,-55 5,-61 60,-67l0 -23 -194 0 0 23c55,6 59,13 59,67l0 89 -187 0 0 -89c0,-54 5,-61 54,-67l0 -23 -196 0 0 23c63,6 66,12 66,67l0 234c0,62 -4,69 -64,73l0 25 195 0 0 -25c-50,-5 -55,-11 -55,-73l0 -108 187 0 0 108c0,61 -6,69 -57,73l0 25 195 0z"/>
    <path id="10" class="fil2" d="M8928 6855c-35,33 -71,48 -110,48 -68,0 -143,-54 -144,-185 115,-4 235,-13 252,-16 17,-4 22,-12 22,-31 0,-75 -65,-147 -145,-147 -50,0 -102,26 -142,70 -40,43 -64,102 -64,169 0,109 69,206 188,206 30,0 97,-17 157,-94l-15 -20zm-148 -295c53,0 86,46 85,97 0,13 -6,19 -23,19 -56,2 -109,3 -163,3 14,-78 57,-119 101,-119z"/>
    <path id="11" class="fil2" d="M9359 6850c-44,41 -76,53 -118,53 -54,0 -146,-44 -146,-178 0,-101 56,-154 120,-154 34,0 68,13 96,40 9,8 14,11 18,11 11,0 32,-21 32,-41 0,-11 -3,-19 -15,-30 -15,-13 -47,-25 -86,-25 -38,0 -96,15 -146,54 -65,50 -97,115 -97,189 0,103 71,202 193,202 57,0 122,-42 164,-98l-16 -20z"/>
    <path id="12" class="fil2" d="M9819 6919l-10 -25c-10,6 -23,11 -35,11 -16,0 -34,-14 -34,-58l0 -179c0,-50 -10,-90 -43,-118 -21,-17 -50,-26 -79,-26 -55,11 -118,48 -145,68 -18,14 -31,24 -31,39 0,22 25,41 42,41 13,0 24,-7 28,-22 8,-30 16,-51 29,-64 10,-12 24,-19 43,-19 48,0 81,40 81,109l0 17c-21,17 -92,43 -150,63 -53,18 -78,48 -78,96 0,61 47,118 116,118 29,0 75,-36 114,-62 5,16 11,30 23,43 11,10 31,18 45,18l82 -49zm-152 -43c-18,17 -52,34 -77,35 -30,0 -69,-24 -69,-74 0,-35 21,-53 59,-70 20,-10 67,-30 87,-41l0 151z"/>
    <path id="13" class="fil2" d="M10547 6535l-150 0 0 7c0,5 -2,12 -7,21l-178 328 -2 0c4,-75 4,-123 4,-155l0 -110c0,-56 3,-62 62,-68l0 -23 -200 0 0 23c61,6 65,12 65,69l0 233c0,58 -5,67 -65,72l0 25 150 0 0 -7c0,-10 3,-19 9,-30l175 -323 2 0c-4,72 -4,107 -4,133l0 137c0,52 -6,59 -57,65l0 25 196 0 0 -25c-62,-6 -66,-12 -66,-66l0 -249c0,-46 5,-53 67,-59l0 -23z"/>
    <path id="14" class="fil2" d="M11301 6535l-150 0 0 7c0,5 -2,12 -7,21l-178 328 -2 0c4,-75 4,-123 4,-155l0 -110c0,-56 3,-62 62,-68l0 -23 -200 0 0 23c61,6 65,12 65,69l0 233c0,58 -5,67 -65,72l0 25 150 0 0 -7c0,-10 3,-19 9,-30l175 -323 2 0c-4,72 -4,107 -4,133l0 137c0,52 -6,59 -57,65l0 25 196 0 0 -25c-62,-6 -66,-12 -66,-66l0 -249c0,-46 5,-53 67,-59l0 -23z"/>
    <path id="15" class="fil2" d="M11705 6850c-44,41 -76,53 -118,53 -54,0 -146,-44 -146,-178 0,-101 56,-154 120,-154 34,0 68,13 96,40 9,8 14,11 18,11 11,0 32,-21 32,-41 0,-11 -3,-19 -15,-30 -15,-13 -47,-25 -86,-25 -38,0 -96,15 -146,54 -65,50 -97,115 -97,189 0,103 71,202 193,202 57,0 122,-42 164,-98l-16 -20z"/>
    <path id="16" class="fil2" d="M12205 6957l0 -25c-41,-3 -58,-19 -91,-71 -29,-48 -41,-70 -56,-93 -20,-28 -48,-43 -66,-48l0 -4c19,-13 41,-39 58,-65 25,-38 46,-65 81,-65l15 0c25,0 35,-12 35,-29 0,-18 -15,-33 -43,-33 -41,0 -73,42 -91,69 -20,31 -46,74 -69,97 -23,22 -44,27 -72,28l0 -96c0,-50 5,-57 57,-63l0 -24 -192 0 0 24c56,6 60,12 60,63l0 246c0,49 -5,58 -63,64l0 25 201 0 0 -25c-58,-6 -63,-14 -63,-64l0 -121c41,0 63,9 81,44 14,27 33,68 58,110 28,49 60,55 96,55l63 0z"/>
    <path id="17" class="fil2" d="M12698 6535l-174 0 0 24 33 8c25,6 32,13 23,41 -14,49 -64,190 -89,251l-96 -250c-10,-27 -8,-37 13,-41l32 -9 0 -24 -203 0 0 24c51,7 63,20 80,62 34,85 81,201 124,319 3,10 7,21 3,34 -6,18 -15,40 -27,63 -25,53 -66,84 -110,95 -13,2 -18,10 -18,23 1,28 25,50 51,50 15,0 37,-15 62,-55 35,-53 78,-168 106,-239 56,-144 86,-223 109,-275 25,-58 35,-67 81,-76l0 -24z"/>
    <path id="18" class="fil2" d="M13053 6850c-44,41 -76,53 -118,53 -54,0 -146,-44 -146,-178 0,-101 56,-154 120,-154 34,0 68,13 96,40 9,8 14,11 18,11 11,0 32,-21 32,-41 0,-11 -3,-19 -15,-30 -15,-13 -47,-25 -86,-25 -38,0 -96,15 -146,54 -65,50 -97,115 -97,189 0,103 71,202 193,202 57,0 122,-42 164,-98l-16 -20z"/>
    <path id="19" class="fil2" d="M13469 6850c-44,41 -76,53 -118,53 -54,0 -146,-44 -146,-178 0,-101 56,-154 120,-154 34,0 68,13 96,40 9,8 14,11 18,11 11,0 32,-21 32,-41 0,-11 -3,-19 -15,-30 -15,-13 -47,-25 -86,-25 -38,0 -96,15 -146,54 -65,50 -97,115 -97,189 0,103 71,202 193,202 57,0 122,-42 164,-98l-16 -20z"/>
    <path id="20" class="fil2" d="M13922 6655c-1,-41 -2,-85 -1,-120l-370 0c-1,35 -3,78 -8,120l26 4c9,-33 14,-51 23,-68 11,-20 28,-25 57,-25l46 0 0 298c0,54 -5,62 -70,68l0 25 217 0 0 -25c-66,-6 -70,-14 -70,-68l0 -298 42 0c34,0 51,7 62,24 9,16 13,38 19,68l26 -3z"/>
    <path id="21" class="fil2" d="M14256 6726c40,-11 94,-34 94,-96 0,-67 -58,-94 -143,-94l-228 0 0 22c59,5 64,13 64,71l0 231c0,61 -5,68 -69,72l0 25 190 0c102,0 214,-26 214,-125 0,-65 -52,-96 -123,-104l0 -2zm-138 -11l0 -121c0,-24 4,-29 54,-29 56,0 97,21 97,74 0,54 -41,75 -101,75l-49 0zm0 31l53 0c70,0 121,25 121,89 0,62 -52,92 -111,92 -43,0 -63,-9 -63,-67l0 -114z"/>
    <path id="22" class="fil2" d="M14847 6919l-10 -25c-10,6 -23,11 -35,11 -16,0 -34,-14 -34,-58l0 -179c0,-50 -10,-90 -43,-118 -21,-17 -50,-26 -79,-26 -55,11 -118,48 -145,68 -18,14 -31,24 -31,39 0,22 25,41 42,41 13,0 24,-7 28,-22 8,-30 16,-51 29,-64 10,-12 24,-19 43,-19 48,0 81,40 81,109l0 17c-21,17 -92,43 -150,63 -53,18 -78,48 -78,96 0,61 47,118 116,118 29,0 75,-36 114,-62 5,16 11,30 23,43 11,10 31,18 45,18l82 -49zm-152 -43c-18,17 -52,34 -77,35 -30,0 -69,-24 -69,-74 0,-35 21,-53 59,-70 20,-10 67,-30 87,-41l0 151z"/>
    <path id="23" class="fil2" d="M15116 6330l0 27c71,5 79,9 79,94l0 386c0,80 -8,88 -85,94l0 27 261 0 0 -27c-87,-6 -96,-11 -96,-93l0 -151 71 18c11,1 29,1 43,0 94,-13 188,-73 188,-198 0,-64 -25,-108 -63,-136 -39,-29 -94,-41 -162,-41l-238 0zm160 88c0,-27 3,-39 11,-45 7,-7 27,-12 54,-12 79,0 146,44 146,149 0,123 -77,156 -140,156 -32,0 -58,-7 -70,-12l0 -236z"/>
    <path id="24" class="fil2" d="M15832 6524c-88,0 -211,72 -211,232 0,107 79,213 211,213 96,0 209,-74 209,-230 0,-120 -90,-215 -209,-215zm-10 32c84,0 129,92 129,205 0,132 -49,177 -109,177 -79,0 -132,-91 -132,-212 0,-109 52,-169 112,-169z"/>
    <path id="25" class="fil2" d="M16465 6850c-44,41 -76,53 -118,53 -54,0 -146,-44 -146,-178 0,-101 56,-154 120,-154 34,0 68,13 96,40 9,8 14,11 18,11 11,0 32,-21 32,-41 0,-11 -3,-19 -15,-30 -15,-13 -47,-25 -86,-25 -38,0 -96,15 -146,54 -65,50 -97,115 -97,189 0,103 71,202 193,202 57,0 122,-42 164,-98l-16 -20z"/>
    <path id="26" class="fil2" d="M16881 6850c-44,41 -76,53 -118,53 -54,0 -146,-44 -146,-178 0,-101 56,-154 120,-154 34,0 68,13 96,40 9,8 14,11 18,11 11,0 32,-21 32,-41 0,-11 -3,-19 -15,-30 -15,-13 -47,-25 -86,-25 -38,0 -96,15 -146,54 -65,50 -97,115 -97,189 0,103 71,202 193,202 57,0 122,-42 164,-98l-16 -20z"/>
    <path id="27" class="fil2" d="M17414 6535l-150 0 0 7c0,5 -2,12 -7,21l-178 328 -2 0c4,-75 4,-123 4,-155l0 -110c0,-56 3,-62 62,-68l0 -23 -200 0 0 23c61,6 65,12 65,69l0 233c0,58 -5,67 -65,72l0 25 150 0 0 -7c0,-10 3,-19 9,-30l175 -323 2 0c-4,72 -4,107 -4,133l0 137c0,52 -6,59 -57,65l0 25 196 0 0 -25c-62,-6 -66,-12 -66,-66l0 -249c0,-46 5,-53 67,-59l0 -23z"/>
    <path id="28" class="fil2" d="M17950 6535l-150 0 0 7c0,5 -2,12 -7,21l-178 328 -2 0c4,-75 4,-123 4,-155l0 -110c0,-56 3,-62 62,-68l0 -23 -200 0 0 23c61,6 65,12 65,69l0 233c0,58 -5,67 -65,72l0 25 150 0 0 -7c0,-10 3,-19 9,-30l175 -323 2 0c-4,72 -4,107 -4,133l0 137c0,52 -6,59 -57,65l0 25 196 0 0 -25c-62,-6 -66,-12 -66,-66l0 -249c0,-46 5,-53 67,-59l0 -23z"/>
    <path id="29" class="fil2" d="M18705 6535l-150 0 0 7c0,5 -2,12 -7,21l-178 328 -2 0c4,-75 4,-123 4,-155l0 -110c0,-56 3,-62 62,-68l0 -23 -200 0 0 23c61,6 65,12 65,69l0 233c0,58 -5,67 -65,72l0 25 150 0 0 -7c0,-10 3,-19 9,-30l175 -323 2 0c-4,72 -4,107 -4,133l0 137c0,52 -6,59 -57,65l0 25 196 0 0 -25c-62,-6 -66,-12 -66,-66l0 -249c0,-46 5,-53 67,-59l0 -23z"/>
    <path id="30" class="fil2" d="M19549 6787c-48,97 -100,150 -199,150 -147,0 -253,-124 -253,-304 0,-147 86,-283 247,-283 104,0 162,41 187,144l29 -7c-6,-52 -12,-91 -19,-146 -27,-5 -93,-26 -171,-26 -215,0 -371,134 -371,337 0,153 105,319 345,319 69,0 151,-19 178,-26 17,-32 41,-103 55,-148l-28 -11z"/>
    <path id="31" class="fil2" d="M20301 6330l-252 0 0 27c75,7 83,12 83,92l0 156 -329 0 0 -156c0,-80 8,-85 81,-92l0 -27 -250 0 0 27c79,7 87,11 87,92l0 390c0,81 -8,86 -85,92l0 27 254 0 0 -27c-79,-6 -87,-12 -87,-92l0 -193 329 0 0 193c0,81 -9,86 -91,92l0 27 259 0 0 -27c-78,-6 -86,-11 -86,-92l0 -390c0,-80 8,-85 87,-92l0 -27z"/>
    <path id="32" class="fil2" d="M20807 6467c-5,-42 -10,-120 -11,-137l-415 0 0 27c69,6 77,10 77,94l0 386c0,83 -8,89 -81,95l0 26 257 0 0 -26c-86,-6 -94,-12 -94,-95l0 -438c0,-34 3,-36 40,-36l62 0c60,0 91,6 104,25 14,20 21,41 32,83l29 -4z"/>
    <path id="33" class="fil2" d="M21141 6833c-23,0 -46,15 -46,40 0,16 7,23 12,24 34,8 61,30 61,65 0,37 -28,62 -74,81l11 28c59,-17 126,-59 126,-133 0,-68 -54,-104 -89,-104z"/>
    <path id="34" class="fil2" d="M21907 6919l-10 -25c-10,6 -23,11 -35,11 -16,0 -34,-14 -34,-58l0 -179c0,-50 -10,-90 -43,-118 -21,-17 -50,-26 -79,-26 -55,11 -118,48 -145,68 -18,14 -31,24 -31,39 0,22 25,41 42,41 13,0 24,-7 28,-22 8,-30 16,-51 29,-64 10,-12 24,-19 43,-19 48,0 81,40 81,109l0 17c-21,17 -92,43 -150,63 -53,18 -78,48 -78,96 0,61 47,118 116,118 29,0 75,-36 114,-62 5,16 11,30 23,43 11,10 31,18 45,18l82 -49zm-152 -43c-18,17 -52,34 -77,35 -30,0 -69,-24 -69,-74 0,-35 21,-53 59,-70 20,-10 67,-30 87,-41l0 151z"/>
    <path id="35" class="fil2" d="M22490 6660c-3,-35 -5,-107 -6,-124l-322 0 0 24c64,7 68,13 68,64l0 237c0,60 -6,66 -65,71l0 25 214 0 0 -25c-69,-6 -74,-14 -74,-71l0 -262c0,-27 1,-32 28,-32l44 0c27,0 49,4 61,23 9,13 16,36 25,73l27 -3z"/>
    <path id="36" class="fil2" d="M22761 6524c-88,0 -211,72 -211,232 0,107 79,213 211,213 96,0 209,-74 209,-230 0,-120 -90,-215 -209,-215zm-10 32c84,0 129,92 129,205 0,132 -49,177 -109,177 -79,0 -132,-91 -132,-212 0,-109 52,-169 112,-169z"/>
    <path id="37" class="fil2" d="M23411 6655c-1,-41 -2,-85 -1,-120l-370 0c-1,35 -3,78 -8,120l26 4c9,-33 14,-51 23,-68 11,-20 28,-25 57,-25l46 0 0 298c0,54 -5,62 -70,68l0 25 217 0 0 -25c-66,-6 -70,-14 -70,-68l0 -298 42 0c34,0 51,7 62,24 9,16 13,38 19,68l26 -3z"/>
    <path id="38" class="fil2" d="M23680 6524c-88,0 -211,72 -211,232 0,107 79,213 211,213 96,0 209,-74 209,-230 0,-120 -90,-215 -209,-215zm-10 32c84,0 129,92 129,205 0,132 -49,177 -109,177 -79,0 -132,-91 -132,-212 0,-109 52,-169 112,-169z"/>
    <path id="39" class="fil2" d="M24222 6726c40,-11 94,-34 94,-96 0,-67 -58,-94 -143,-94l-228 0 0 22c59,5 64,13 64,71l0 231c0,61 -5,68 -69,72l0 25 190 0c102,0 214,-26 214,-125 0,-65 -52,-96 -123,-104l0 -2zm-138 -11l0 -121c0,-24 4,-29 54,-29 56,0 97,21 97,74 0,54 -41,75 -101,75l-49 0zm0 31l53 0c70,0 121,25 121,89 0,62 -52,92 -111,92 -43,0 -63,-9 -63,-67l0 -114z"/>
    <path id="40" class="fil2" d="M24591 6957c137,0 205,-55 205,-144 0,-91 -70,-126 -178,-126 -22,0 -41,1 -66,4l0 -62c0,-58 5,-65 63,-70l0 -23 -200 0 0 23c58,6 63,11 63,71l0 231c0,58 -5,64 -67,70l0 26 179 0zm413 0l0 -26c-60,-5 -64,-11 -64,-70l0 -234c0,-56 5,-62 63,-68l0 -24 -203 0 0 24c59,6 64,12 64,68l0 234c0,58 -4,66 -60,70l0 26 200 0zm-452 -236c14,-2 25,-3 38,-3 72,0 119,23 119,99 0,69 -37,109 -107,109 -40,0 -49,-9 -49,-52l0 -153z"/>
    <path id="41" class="fil2" d="M25398 6855c-35,33 -71,48 -110,48 -68,0 -143,-54 -144,-185 115,-4 235,-13 252,-16 17,-4 22,-12 22,-31 0,-75 -65,-147 -145,-147 -50,0 -102,26 -142,70 -40,43 -64,102 -64,169 0,109 69,206 188,206 30,0 97,-17 157,-94l-15 -20zm-148 -295c53,0 86,46 85,97 0,13 -6,19 -23,19 -56,2 -109,3 -163,3 14,-78 57,-119 101,-119z"/>
    <path class="fil2" d="M5545 8175l0 -25c-62,-6 -67,-14 -67,-74l0 -232c0,-54 3,-61 65,-67l0 -24 -471 0 0 24c64,6 68,11 68,67l0 232c0,62 -5,69 -66,74l0 25 201 0 0 -25c-55,-6 -59,-13 -59,-74l0 -246c0,-39 4,-43 41,-43l103 0c36,0 41,4 41,44l0 245c0,62 -3,69 -62,74l0 25 205 0z"/>
    <path id="1" class="fil2" d="M5988 8137l-10 -25c-10,6 -23,11 -35,11 -16,0 -34,-14 -34,-58l0 -179c0,-50 -10,-90 -43,-118 -21,-17 -50,-26 -79,-26 -55,11 -118,48 -145,68 -18,14 -31,24 -31,39 0,22 25,41 42,41 13,0 24,-7 28,-22 8,-30 16,-51 29,-64 10,-12 24,-19 43,-19 48,0 81,40 81,109l0 17c-21,17 -92,43 -150,63 -53,18 -78,48 -78,96 0,61 47,118 116,118 29,0 75,-36 114,-62 5,16 11,30 23,43 11,10 31,18 45,18l82 -49zm-152 -43c-18,17 -52,34 -77,35 -30,0 -69,-24 -69,-74 0,-35 21,-53 59,-70 20,-10 67,-30 87,-41l0 151z"/>
    <path id="2" class="fil2" d="M6157 7808l0 -76c-45,18 -99,35 -140,41l0 23c60,8 64,10 64,72l0 436c0,64 -9,69 -70,75l0 26 229 0 0 -26c-75,-7 -82,-12 -82,-85l0 -126c13,7 39,16 67,17 125,-23 240,-117 240,-262 0,-96 -64,-182 -171,-182 -12,0 -30,5 -47,14l-89 52zm0 32c26,-19 66,-41 96,-41 70,0 129,58 129,161 0,109 -54,178 -135,178 -33,0 -69,-15 -91,-38l0 -261z"/>
    <path id="3" class="fil2" d="M6696 8175c137,0 205,-55 205,-144 0,-91 -70,-126 -178,-126 -22,0 -41,1 -66,4l0 -62c0,-58 5,-65 63,-70l0 -23 -200 0 0 23c58,6 63,11 63,71l0 231c0,58 -5,64 -67,70l0 26 179 0zm413 0l0 -26c-60,-5 -64,-11 -64,-70l0 -234c0,-56 5,-62 63,-68l0 -24 -203 0 0 24c59,6 64,12 64,68l0 234c0,58 -4,66 -60,70l0 26 200 0zm-452 -236c14,-2 25,-3 38,-3 72,0 119,23 119,99 0,69 -37,109 -107,109 -40,0 -49,-9 -49,-52l0 -153z"/>
    <path id="4" class="fil2" d="M7609 7742c-88,0 -211,72 -211,232 0,107 79,213 211,213 96,0 209,-74 209,-230 0,-120 -90,-215 -209,-215zm-10 32c84,0 129,92 129,205 0,132 -49,177 -109,177 -79,0 -132,-91 -132,-212 0,-109 52,-169 112,-169z"/>
    <path id="5" class="fil2" d="M8260 7873c-1,-41 -2,-85 -1,-120l-370 0c-1,35 -3,78 -8,120l26 4c9,-33 14,-51 23,-68 11,-20 28,-25 57,-25l46 0 0 298c0,54 -5,62 -70,68l0 25 217 0 0 -25c-66,-6 -70,-14 -70,-68l0 -298 42 0c34,0 51,7 62,24 9,16 13,38 19,68l26 -3z"/>
    <path id="6" class="fil2" d="M8787 8175l0 -25c-62,-6 -67,-14 -67,-74l0 -232c0,-54 3,-61 65,-67l0 -24 -471 0 0 24c64,6 68,11 68,67l0 232c0,62 -5,69 -66,74l0 25 201 0 0 -25c-55,-6 -59,-13 -59,-74l0 -246c0,-39 4,-43 41,-43l103 0c36,0 41,4 41,44l0 245c0,62 -3,69 -62,74l0 25 205 0z"/>
    <path id="7" class="fil2" d="M8980 7808l0 -76c-45,18 -99,35 -140,41l0 23c60,8 64,10 64,72l0 436c0,64 -9,69 -70,75l0 26 229 0 0 -26c-75,-7 -82,-12 -82,-85l0 -126c13,7 39,16 67,17 125,-23 240,-117 240,-262 0,-96 -64,-182 -171,-182 -12,0 -30,5 -47,14l-89 52zm0 32c26,-19 66,-41 96,-41 70,0 129,58 129,161 0,109 -54,178 -135,178 -33,0 -69,-15 -91,-38l0 -261z"/>
    <path id="8" class="fil2" d="M9746 8137l-10 -25c-10,6 -23,11 -35,11 -16,0 -34,-14 -34,-58l0 -179c0,-50 -10,-90 -43,-118 -21,-17 -50,-26 -79,-26 -55,11 -118,48 -145,68 -18,14 -31,24 -31,39 0,22 25,41 42,41 13,0 24,-7 28,-22 8,-30 16,-51 29,-64 10,-12 24,-19 43,-19 48,0 81,40 81,109l0 17c-21,17 -92,43 -150,63 -53,18 -78,48 -78,96 0,61 47,118 116,118 29,0 75,-36 114,-62 5,16 11,30 23,43 11,10 31,18 45,18l82 -49zm-152 -43c-18,17 -52,34 -77,35 -30,0 -69,-24 -69,-74 0,-35 21,-53 59,-70 20,-10 67,-30 87,-41l0 151z"/>
    <path id="9" class="fil2" d="M10070 7943c40,-11 94,-34 94,-96 0,-67 -58,-94 -143,-94l-228 0 0 22c59,5 64,13 64,71l0 231c0,61 -5,68 -69,72l0 25 190 0c102,0 214,-26 214,-125 0,-65 -52,-96 -123,-104l0 -2zm-138 -11l0 -121c0,-24 4,-29 54,-29 56,0 97,21 97,74 0,54 -41,75 -101,75l-49 0zm0 31l53 0c70,0 121,25 121,89 0,62 -52,92 -111,92 -43,0 -63,-9 -63,-67l0 -114z"/>
    <path id="10" class="fil2" d="M10674 7753l-380 0 0 24c70,7 73,18 73,58 0,86 -18,159 -41,210 -18,43 -49,90 -82,117l0 17c9,4 23,8 41,8 13,0 28,-9 43,-31 29,-41 78,-138 83,-331 0,-32 4,-40 35,-40l51 0c31,0 34,8 34,42l0 249c0,60 -4,67 -65,72l0 25 207 0 0 -25c-63,-6 -67,-14 -67,-73l0 -232c0,-54 3,-61 67,-68l0 -24z"/>
    <path id="11" class="fil2" d="M11151 8175l0 -25c-58,-4 -64,-11 -64,-71l0 -231c0,-62 6,-67 62,-70l0 -24 -206 0c-93,0 -159,34 -159,112 0,58 40,96 115,110l0 2c-53,13 -77,47 -96,83 -16,33 -27,56 -39,69 -13,15 -33,18 -55,21l0 25 71 0c34,0 60,-16 81,-63 18,-37 31,-70 47,-93 13,-19 35,-30 71,-30l32 0 0 88c0,62 -5,69 -59,72l0 25 197 0zm-138 -217l-29 0c-38,0 -63,-5 -84,-18 -21,-15 -36,-37 -36,-69 0,-58 39,-89 99,-89 38,0 49,7 49,31l0 145z"/>
    <path id="12" class="fil2" d="M11421 8175l0 -25c-61,-6 -66,-12 -66,-71l0 -105 87 0c2,116 74,213 199,213 100,0 191,-73 191,-224 0,-123 -79,-221 -194,-221 -90,0 -178,62 -194,193l-89 0 0 -88c0,-58 6,-65 65,-70l0 -23 -206 0 0 23c61,6 67,12 67,70l0 232c0,58 -4,66 -66,71l0 25 206 0zm209 -401c71,0 114,88 114,204 0,130 -47,177 -98,177 -69,0 -116,-88 -116,-204 0,-116 45,-177 100,-177z"/>
    <path id="13" class="fil2" d="M12272 7873c-1,-41 -2,-85 -1,-120l-370 0c-1,35 -3,78 -8,120l26 4c9,-33 14,-51 23,-68 11,-20 28,-25 57,-25l46 0 0 298c0,54 -5,62 -70,68l0 25 217 0 0 -25c-66,-6 -70,-14 -70,-68l0 -298 42 0c34,0 51,7 62,24 9,16 13,38 19,68l26 -3z"/>
    <path id="14" class="fil2" d="M12672 8068c-44,41 -76,53 -118,53 -54,0 -146,-44 -146,-178 0,-101 56,-154 120,-154 34,0 68,13 96,40 9,8 14,11 18,11 11,0 32,-21 32,-41 0,-11 -3,-19 -15,-30 -15,-13 -47,-25 -86,-25 -38,0 -96,15 -146,54 -65,50 -97,115 -97,189 0,103 71,202 193,202 57,0 122,-42 164,-98l-16 -20z"/>
    <path id="15" class="fil2" d="M13151 8175l0 -25c-58,-4 -64,-11 -64,-71l0 -231c0,-62 6,-67 62,-70l0 -24 -206 0c-93,0 -159,34 -159,112 0,58 40,96 115,110l0 2c-53,13 -77,47 -96,83 -16,33 -27,56 -39,69 -13,15 -33,18 -55,21l0 25 71 0c34,0 60,-16 81,-63 18,-37 31,-70 47,-93 13,-19 35,-30 71,-30l32 0 0 88c0,62 -5,69 -59,72l0 25 197 0zm-138 -217l-29 0c-38,0 -63,-5 -84,-18 -21,-15 -36,-37 -36,-69 0,-58 39,-89 99,-89 38,0 49,7 49,31l0 145z"/>
    <path id="16" class="fil2" d="M13849 7753l-384 0 0 24 28 5c38,6 46,13 46,42 0,51 -8,136 -21,199 -11,45 -22,83 -32,102 -6,12 -13,15 -23,15l-35 0 -1 178 28 0 18 -73c14,-58 21,-71 55,-71l215 0c34,0 41,12 48,61l13 84 28 0 19 -178 -39 0c-28,0 -33,-7 -33,-48l0 -252c0,-51 5,-58 69,-64l0 -24zm-145 339c0,46 -3,50 -50,50l-103 0c-11,0 -14,-6 -11,-17 21,-67 40,-188 42,-300 0,-33 4,-40 31,-40l54 0c33,0 37,2 37,40l0 267z"/>
    <path id="17" class="fil2" d="M14120 7742c-88,0 -211,72 -211,232 0,107 79,213 211,213 96,0 209,-74 209,-230 0,-120 -90,-215 -209,-215zm-10 32c84,0 129,92 129,205 0,132 -49,177 -109,177 -79,0 -132,-91 -132,-212 0,-109 52,-169 112,-169z"/>
    <path id="18" class="fil2" d="M14753 8068c-44,41 -76,53 -118,53 -54,0 -146,-44 -146,-178 0,-101 56,-154 120,-154 34,0 68,13 96,40 9,8 14,11 18,11 11,0 32,-21 32,-41 0,-11 -3,-19 -15,-30 -15,-13 -47,-25 -86,-25 -38,0 -96,15 -146,54 -65,50 -97,115 -97,189 0,103 71,202 193,202 57,0 122,-42 164,-98l-16 -20z"/>
    <path id="19" class="fil2" d="M15206 7873c-1,-41 -2,-85 -1,-120l-370 0c-1,35 -3,78 -8,120l26 4c9,-33 14,-51 23,-68 11,-20 28,-25 57,-25l46 0 0 298c0,54 -5,62 -70,68l0 25 217 0 0 -25c-66,-6 -70,-14 -70,-68l0 -298 42 0c34,0 51,7 62,24 9,16 13,38 19,68l26 -3z"/>
    <path id="20" class="fil2" d="M15662 8137l-10 -25c-10,6 -23,11 -35,11 -16,0 -34,-14 -34,-58l0 -179c0,-50 -10,-90 -43,-118 -21,-17 -50,-26 -79,-26 -55,11 -118,48 -145,68 -18,14 -31,24 -31,39 0,22 25,41 42,41 13,0 24,-7 28,-22 8,-30 16,-51 29,-64 10,-12 24,-19 43,-19 48,0 81,40 81,109l0 17c-21,17 -92,43 -150,63 -53,18 -78,48 -78,96 0,61 47,118 116,118 29,0 75,-36 114,-62 5,16 11,30 23,43 11,10 31,18 45,18l82 -49zm-152 -43c-18,17 -52,34 -77,35 -30,0 -69,-24 -69,-74 0,-35 21,-53 59,-70 20,-10 67,-30 87,-41l0 151z"/>
    <path id="21" class="fil2" d="M15985 7943c40,-11 94,-34 94,-96 0,-67 -58,-94 -143,-94l-228 0 0 22c59,5 64,13 64,71l0 231c0,61 -5,68 -69,72l0 25 190 0c102,0 214,-26 214,-125 0,-65 -52,-96 -123,-104l0 -2zm-138 -11l0 -121c0,-24 4,-29 54,-29 56,0 97,21 97,74 0,54 -41,75 -101,75l-49 0zm0 31l53 0c70,0 121,25 121,89 0,62 -52,92 -111,92 -43,0 -63,-9 -63,-67l0 -114z"/>
    <path id="22" class="fil2" d="M16613 8175l0 -25c-41,-3 -58,-19 -91,-71 -29,-48 -41,-70 -56,-93 -20,-28 -48,-43 -66,-48l0 -4c19,-13 41,-39 58,-65 25,-38 46,-65 81,-65l15 0c25,0 35,-12 35,-29 0,-18 -15,-33 -43,-33 -41,0 -73,42 -91,69 -20,31 -46,74 -69,97 -23,22 -44,27 -72,28l0 -96c0,-50 5,-57 57,-63l0 -24 -192 0 0 24c56,6 60,12 60,63l0 246c0,49 -5,58 -63,64l0 25 201 0 0 -25c-58,-6 -63,-14 -63,-64l0 -121c41,0 63,9 81,44 14,27 33,68 58,110 28,49 60,55 96,55l63 0z"/>
    <path id="23" class="fil2" d="M16860 7742c-88,0 -211,72 -211,232 0,107 79,213 211,213 96,0 209,-74 209,-230 0,-120 -90,-215 -209,-215zm-10 32c84,0 129,92 129,205 0,132 -49,177 -109,177 -79,0 -132,-91 -132,-212 0,-109 52,-169 112,-169z"/>
    <path id="24" class="fil2" d="M17595 7753l-150 0 0 7c0,5 -2,12 -7,21l-178 328 -2 0c4,-75 4,-123 4,-155l0 -110c0,-56 3,-62 62,-68l0 -23 -200 0 0 23c61,6 65,12 65,69l0 233c0,58 -5,67 -65,72l0 25 150 0 0 -7c0,-10 3,-19 9,-30l175 -323 2 0c-4,72 -4,107 -4,133l0 137c0,52 -6,59 -57,65l0 25 196 0 0 -25c-62,-6 -66,-12 -66,-66l0 -249c0,-46 5,-53 67,-59l0 -23zm-234 -102c-36,0 -51,-15 -49,-33 1,-6 2,-13 4,-17 5,-17 -4,-41 -30,-41 -22,0 -37,22 -37,44 0,47 39,81 112,81 68,0 112,-34 112,-81 0,-24 -14,-44 -36,-44 -24,0 -38,22 -30,41 1,5 3,12 3,17 2,15 -11,33 -49,33z"/>
    <path id="25" class="fil2" d="M18349 8175l0 -25c-62,-6 -67,-14 -67,-74l0 -232c0,-54 3,-61 65,-67l0 -24 -471 0 0 24c64,6 68,11 68,67l0 232c0,62 -5,69 -66,74l0 25 201 0 0 -25c-55,-6 -59,-13 -59,-74l0 -246c0,-39 4,-43 41,-43l103 0c36,0 41,4 41,44l0 245c0,62 -3,69 -62,74l0 25 205 0z"/>
    <path id="26" class="fil2" d="M18620 7742c-88,0 -211,72 -211,232 0,107 79,213 211,213 96,0 209,-74 209,-230 0,-120 -90,-215 -209,-215zm-10 32c84,0 129,92 129,205 0,132 -49,177 -109,177 -79,0 -132,-91 -132,-212 0,-109 52,-169 112,-169z"/>
    <path id="27" class="fil2" d="M19394 7943c40,-11 94,-34 94,-96 0,-67 -58,-94 -143,-94l-228 0 0 22c59,5 64,13 64,71l0 231c0,61 -5,68 -69,72l0 25 190 0c102,0 214,-26 214,-125 0,-65 -52,-96 -123,-104l0 -2zm-138 -11l0 -121c0,-24 4,-29 54,-29 56,0 97,21 97,74 0,54 -41,75 -101,75l-49 0zm0 31l53 0c70,0 121,25 121,89 0,62 -52,92 -111,92 -43,0 -63,-9 -63,-67l0 -114z"/>
    <path id="28" class="fil2" d="M19942 8068c-44,41 -76,53 -118,53 -54,0 -146,-44 -146,-178 0,-101 56,-154 120,-154 34,0 68,13 96,40 9,8 14,11 18,11 11,0 32,-21 32,-41 0,-11 -3,-19 -15,-30 -15,-13 -47,-25 -86,-25 -38,0 -96,15 -146,54 -65,50 -97,115 -97,189 0,103 71,202 193,202 57,0 122,-42 164,-98l-16 -20z"/>
    <path id="29" class="fil2" d="M20346 8073c-35,33 -71,48 -110,48 -68,0 -143,-54 -144,-185 115,-4 235,-13 252,-16 17,-4 22,-12 22,-31 0,-75 -65,-147 -145,-147 -50,0 -102,26 -142,70 -40,43 -64,102 -64,169 0,109 69,206 188,206 30,0 97,-17 157,-94l-15 -20zm-148 -295c53,0 86,46 85,97 0,13 -6,19 -23,19 -56,2 -109,3 -163,3 14,-78 57,-119 101,-119z"/>
    <path id="30" class="fil2" d="M20976 8175l0 -25c-61,-4 -65,-13 -66,-79l-2 -225c-1,-57 2,-66 66,-69l0 -23 -144 0 -136 292 -130 -292 -138 0 0 24c61,4 63,14 60,81l-7 138c-3,53 -7,90 -11,115 -5,25 -18,37 -58,39l0 25 170 0 0 -25c-47,-3 -62,-14 -65,-39 -1,-21 -2,-56 0,-125l4 -161 3 0 141 345 17 0 155 -357 3 0 -3 258c-1,67 -4,75 -63,79l0 25 203 0z"/>
    <path id="31" class="fil2" d="M21481 7753l-174 0 0 24 33 8c25,6 32,13 23,41 -14,49 -64,190 -89,251l-96 -250c-10,-27 -8,-37 13,-41l32 -9 0 -24 -203 0 0 24c51,7 63,20 80,62 34,85 81,201 124,319 3,10 7,21 3,34 -6,18 -15,40 -27,63 -25,53 -66,84 -110,95 -13,2 -18,10 -18,23 1,28 25,50 51,50 15,0 37,-15 62,-55 35,-53 78,-168 106,-239 56,-144 86,-223 109,-275 25,-58 35,-67 81,-76l0 -24z"/>
    <path id="32" class="fil2" d="M22274 8175l0 -25c-61,-4 -65,-13 -66,-79l-2 -225c-1,-57 2,-66 66,-69l0 -23 -144 0 -136 292 -130 -292 -138 0 0 24c61,4 63,14 60,81l-7 138c-3,53 -7,90 -11,115 -5,25 -18,37 -58,39l0 25 170 0 0 -25c-47,-3 -62,-14 -65,-39 -1,-21 -2,-56 0,-125l4 -161 3 0 141 345 17 0 155 -357 3 0 -3 258c-1,67 -4,75 -63,79l0 25 203 0z"/>
    <path id="33" class="fil2" d="M22804 7753l-150 0 0 7c0,5 -2,12 -7,21l-178 328 -2 0c4,-75 4,-123 4,-155l0 -110c0,-56 3,-62 62,-68l0 -23 -200 0 0 23c61,6 65,12 65,69l0 233c0,58 -5,67 -65,72l0 25 150 0 0 -7c0,-10 3,-19 9,-30l175 -323 2 0c-4,72 -4,107 -4,133l0 137c0,52 -6,59 -57,65l0 25 196 0 0 -25c-62,-6 -66,-12 -66,-66l0 -249c0,-46 5,-53 67,-59l0 -23z"/>
    <path id="34" class="fil2" d="M23000 7808l0 -76c-45,18 -99,35 -140,41l0 23c60,8 64,10 64,72l0 436c0,64 -9,69 -70,75l0 26 229 0 0 -26c-75,-7 -82,-12 -82,-85l0 -126c13,7 39,16 67,17 125,-23 240,-117 240,-262 0,-96 -64,-182 -171,-182 -12,0 -30,5 -47,14l-89 52zm0 32c26,-19 66,-41 96,-41 70,0 129,58 129,161 0,109 -54,178 -135,178 -33,0 -69,-15 -91,-38l0 -261z"/>
    <path id="35" class="fil2" d="M23802 7753l-174 0 0 24 33 8c25,6 32,13 23,41 -14,49 -64,190 -89,251l-96 -250c-10,-27 -8,-37 13,-41l32 -9 0 -24 -203 0 0 24c51,7 63,20 80,62 34,85 81,201 124,319 3,10 7,21 3,34 -6,18 -15,40 -27,63 -25,53 -66,84 -110,95 -13,2 -18,10 -18,23 1,28 25,50 51,50 15,0 37,-15 62,-55 35,-53 78,-168 106,-239 56,-144 86,-223 109,-275 25,-58 35,-67 81,-76l0 -24z"/>
    <path id="36" class="fil2" d="M23843 8186c31,0 54,-22 54,-56 0,-31 -23,-55 -54,-55 -31,0 -54,24 -54,55 0,34 23,56 54,56z"/>
   </g>
  </g>
 </g>
</svg>
