<?xml version="1.0" encoding="UTF-8"?>
<svg width="46px" height="50px" viewBox="0 0 46 50" version="1.1" xmlns="http://www.w3.org/2000/svg" xmlns:xlink="http://www.w3.org/1999/xlink">
    <!-- Generator: sketchtool 48.1 (47250) - http://www.bohemiancoding.com/sketch -->
    <title>E6A52F98-F30D-4F59-A98A-0CA08483A545</title>
    <desc>Created with sketchtool.</desc>
    <defs></defs>
    <g id="HarrisonWork" stroke="none" stroke-width="1" fill="none" fill-rule="evenodd" transform="translate(-130.000000, -3584.000000)">
        <g id="quality" transform="translate(130.000000, 3584.000000)" fill-rule="nonzero">
            <path d="M45.1763158,40.9445419 L34.8853801,30.6535088 L39.0477583,29.1385965 C39.4026316,29.0094542 39.6135478,28.644152 39.5478558,28.2722222 L38.432846,21.9489279 L41.6432749,16.3882066 C41.8320663,16.0612086 41.7588694,15.645809 41.4695906,15.4031189 L36.5508772,11.2759259 L35.4358674,4.95253411 C35.3702729,4.58070175 35.047271,4.30964912 34.6695906,4.30964912 L28.248538,4.30964912 L23.330117,0.182066277 C23.0407407,-0.0607212476 22.6190058,-0.0607212476 22.3296296,0.182066277 L17.4110136,4.30935673 L10.9900585,4.30935673 C10.6123782,4.30935673 10.2893762,4.58040936 10.2237817,4.95224172 L9.10877193,11.2755361 L4.18996101,15.4028265 C3.90068226,15.6455166 3.82748538,16.0609162 4.0162768,16.3879142 L7.22680312,21.9486355 L6.11179337,28.2719298 C6.04610136,28.6438596 6.25701754,29.0090643 6.61189084,29.1383041 L10.5981481,30.5890838 L0.24288499,40.9445419 C0.0287524366,41.1587719 -0.0417153996,41.4780702 0.0625730994,41.7624756 C0.166764133,42.0469786 0.426608187,42.2450292 0.728557505,42.2701754 L7.11520468,42.8025341 L7.64756335,49.1890838 C7.67270955,49.4910331 7.87076023,49.7508772 8.15526316,49.8550682 C8.24259259,49.8871345 8.33304094,49.9026316 8.42280702,49.9026316 C8.62563353,49.9026316 8.82465887,49.8232943 8.97319688,49.6747563 L22.7096491,35.9383041 L36.4461014,49.6747563 C36.5947368,49.8232943 36.7936647,49.9026316 36.9964912,49.9026316 C37.0862573,49.9026316 37.1768031,49.8871345 37.2640351,49.8550682 C37.548538,49.7508772 37.7465887,49.4910331 37.7716374,49.1890838 L38.3040936,42.8026316 L44.6906433,42.2702729 C44.9925926,42.2451267 45.2524366,42.047076 45.3566277,41.7624756 C45.4609162,41.4779727 45.3904483,41.1588694 45.1763158,40.9445419 Z M9.05906433,47.3880117 L8.61140351,42.017154 C8.57982456,41.638499 8.2794347,41.3379142 7.9005848,41.3063353 L2.5297271,40.8586745 L12.2117934,31.1766082 L12.645614,31.3345029 L15.8560429,36.8952242 C15.9983431,37.1417154 16.258577,37.2844055 16.530117,37.2844055 C16.6188109,37.2844055 16.7086745,37.2692008 16.7961014,37.2374269 L20.5901559,35.8565302 L9.05906433,47.3880117 Z M23.4643275,33.6163743 L23.095809,33.4823587 C22.9239766,33.4196881 22.7354776,33.4196881 22.5636452,33.4823587 L22.0178363,33.6809942 L16.8773879,35.5518519 L13.8517544,30.311306 C13.7602339,30.152924 13.6159844,30.0317739 13.4440546,29.9691033 L12.2783626,29.5447368 L7.75779727,27.8995127 L8.80867446,21.9403509 C8.84054581,21.760039 8.80779727,21.5744639 8.71637427,21.4159844 L5.69064327,16.1754386 L10.3263158,12.28577 C10.4664717,12.1682261 10.5607212,12.0050682 10.5923002,11.8249513 L11.6430799,5.86569201 L17.6942495,5.86569201 C17.8772904,5.86569201 18.054386,5.80126706 18.1944444,5.68362573 L22.829922,1.79395712 L27.4653996,5.68362573 C27.6055556,5.80126706 27.7826511,5.86569201 27.9655945,5.86569201 L34.0168616,5.86569201 L35.0676413,11.8249513 C35.0994152,12.0050682 35.1935673,12.1683236 35.3336257,12.28577 L39.9692008,16.1754386 L36.9435673,21.4159844 C36.8520468,21.5743665 36.8193957,21.760039 36.8511696,21.9402534 L37.9020468,27.8994152 L33.2053606,29.6088694 L32.215692,29.9691033 C32.0438596,30.0317739 31.8994152,30.1528265 31.8079922,30.311306 L28.7824561,35.5518519 L23.465692,33.6167641 C23.4652047,33.6165692 23.4647173,33.6165692 23.4643275,33.6163743 Z M37.5187135,41.3064327 C37.1400585,41.3380117 36.8394737,41.6384016 36.8078947,42.0172515 L36.3603314,47.3881092 L24.691423,35.7189084 L28.8635478,37.2375244 C28.9509747,37.2693957 29.0408382,37.2845029 29.1295322,37.2845029 C29.4010721,37.2845029 29.661306,37.1418129 29.8036062,36.8953216 L33.0139376,31.3346004 L33.2716374,31.2408382 L42.8895712,40.8587719 L37.5187135,41.3064327 Z" id="Shape" fill="#D6BB74"></path>
            <path d="M22.7097466,6.67846004 C15.8733918,6.67846004 10.3116959,12.2401559 10.3116959,19.0765107 C10.3116959,25.9128655 15.8734893,31.4744639 22.7097466,31.4744639 C29.5461014,31.4744639 35.1076998,25.912768 35.1076998,19.0765107 C35.1076998,12.2402534 29.5460039,6.67846004 22.7097466,6.67846004 Z M22.7097466,29.9182261 C16.7315789,29.9182261 11.8679337,25.0545809 11.8679337,19.0764133 C11.8679337,13.0982456 16.7315789,8.23469786 22.7097466,8.23469786 C28.6878168,8.23469786 33.5515595,13.0983431 33.5515595,19.0765107 C33.5515595,25.0546784 28.6878168,29.9182261 22.7097466,29.9182261 Z" id="Shape" fill="#FFEEC0"></path>
            <path d="M31.6649123,16.5986355 C31.5607212,16.2779727 31.2619883,16.0609162 30.9248538,16.0609162 L25.1819688,16.0609162 L23.4074074,10.5991228 C23.3032164,10.27846 23.0044834,10.0614035 22.6673489,10.0614035 C22.3303119,10.0614035 22.0314815,10.27846 21.9272904,10.5991228 L20.1526316,16.0609162 L14.4097466,16.0609162 C14.0727096,16.0609162 13.7738791,16.2779727 13.6696881,16.5986355 C13.5654971,16.9192008 13.6796296,17.2704678 13.9524366,17.468616 L18.598538,20.844152 L16.8238791,26.3060429 C16.7196881,26.6266082 16.8338207,26.9778752 17.1066277,27.1760234 C17.2429825,27.2751462 17.4034113,27.3246589 17.5639376,27.3246589 C17.7244639,27.3246589 17.8848928,27.2750487 18.0212476,27.1760234 L22.6673489,23.8005848 L27.3133528,27.1760234 C27.5860624,27.3741715 27.9553606,27.3741715 28.2279727,27.1760234 C28.5006823,26.9779727 28.6147173,26.6267057 28.5107212,26.3060429 L26.7360624,20.844152 L31.3821637,17.468616 C31.6549708,17.2704678 31.7690058,16.9192008 31.6649123,16.5986355 Z M25.3640351,19.9175439 C25.0913255,20.1155945 24.977193,20.4668616 25.0812865,20.7875244 L26.2905458,24.5093567 L23.1245614,22.2092593 C22.8518519,22.0111111 22.4825536,22.0111111 22.2099415,22.2092593 L19.0438596,24.5094542 L20.2531189,20.7875244 C20.3573099,20.4669591 20.2431774,20.115692 19.9703704,19.9176413 L16.8044834,17.6173489 L20.7180312,17.6173489 C21.0550682,17.6173489 21.3538986,17.4002924 21.4580897,17.0796296 L22.6673489,13.3577973 L23.8765107,17.0796296 C23.9807018,17.4002924 24.2794347,17.6173489 24.6165692,17.6173489 L28.530117,17.6173489 L25.3640351,19.9175439 Z" id="Shape" fill="#FFEEC0"></path>
        </g>
    </g>
</svg>