<?xml version="1.0" encoding="UTF-8"?>
<svg width="261px" height="703px" viewBox="0 0 261 703" version="1.1" xmlns="http://www.w3.org/2000/svg" xmlns:xlink="http://www.w3.org/1999/xlink">
    <!-- Generator: sketchtool 48.1 (47250) - http://www.bohemiancoding.com/sketch -->
    <title>A07C5B72-FDA2-4299-9D29-A0C0320DC6C6</title>
    <desc>Created with sketchtool.</desc>
    <defs></defs>
    <g id="HarrisonWork" stroke="none" stroke-width="1" fill="none" fill-rule="evenodd" transform="translate(-1139.000000, -3146.000000)" opacity="0.300000012">
        <g id="sect1-bg-copy" transform="translate(1139.000000, 3146.000000)" fill="#D6BB74">
            <path d="M170.845589,213.268976 L140.789029,213.268976 L140.789029,510.890993 L170.845589,510.890993 L170.845589,213.268976 Z M193.754782,519.872224 C183.550975,517.154344 174.358144,515.442737 170.845589,510.890993 C160.825169,510.890993 150.804748,510.890993 140.789029,510.890993 C136.2702,517.276601 126.536614,519.030528 118.980154,519.872224 L118.980154,531.232776 L193.754782,531.232776 L193.754782,519.872224 Z M193.754782,204.297149 C183.550975,207.01503 174.358144,208.717232 170.845589,213.268976 C160.825169,213.268976 150.804748,213.268976 140.789029,213.268976 C136.2702,206.883368 126.536614,205.134144 118.980154,204.297149 L118.980154,192.931895 L193.754782,192.931895 L193.754782,204.297149 Z M261.066995,302.982542 L170.845589,303.006053 L170.845589,317.484174 L261.066995,317.455961 L261.066995,302.97784 L261.066995,302.982542 Z M351.387147,213.245465 L381.443707,213.245465 L381.443707,510.867482 L351.387147,510.867482 L351.387147,213.245465 Z M328.477954,519.848713 C338.677059,517.130833 347.874592,515.419226 351.387147,510.867482 C361.407568,510.867482 371.423286,510.867482 381.443707,510.867482 C385.962536,517.248388 395.696122,519.007017 403.252582,519.848713 L403.252582,531.213968 L328.477954,531.213968 L328.477954,519.848713 Z M328.477954,204.273638 C338.677059,206.991519 347.874592,208.689018 351.387147,213.245465 C361.407568,213.245465 371.423286,213.245465 381.443707,213.245465 C385.962536,206.859857 395.696122,205.110632 403.252582,204.273638 L403.252582,192.913086 L328.477954,192.913086 L328.477954,204.273638 Z M261.066995,302.982542 L351.387147,302.982542 L351.387147,317.460663 L261.066995,317.460663 L261.066995,302.982542 Z" id="Shape"></path>
            <path d="M110.605509,247.816152 L17.5063477,247.816152 C17.5063477,252.095168 17.5063477,256.369482 17.5063477,260.643795 C31.8857221,261.659474 40.6694603,265.143816 49.9140157,268.355429 C59.5770682,268.350726 69.2401207,268.346024 78.9031732,268.346024 C89.2668557,262.910263 99.8562446,260.648498 110.605509,260.648498 L110.605509,247.820854 L110.605509,247.816152 Z M261.066995,247.750321 L213.922584,247.773832 C213.922584,252.052848 213.922584,256.327162 213.922584,260.601476 C228.301958,261.612452 237.085697,265.101496 246.330252,268.308406 L261.062293,268.289598 C261.062293,268.289598 261.062293,247.750321 261.062293,247.750321 L261.066995,247.750321 Z M206.685875,418.882746 L113.586713,418.882746 C113.586713,414.608432 113.586713,410.329416 113.586713,406.055102 C127.966088,405.044126 136.749826,401.559784 145.994381,398.348171 C155.657434,398.352874 165.320486,398.352874 174.983539,398.362278 C185.347221,403.798039 195.93661,406.059804 206.685875,406.059804 L206.685875,418.887448 L206.685875,418.882746 Z M261.066995,268.289598 L246.334954,268.308406 L156.903521,380.752482 L174.988241,398.362278 L261.071697,288.52323 L261.071697,268.289598 L261.066995,268.289598 Z M78.9078754,268.346024 C69.2448229,268.350726 59.5817704,268.355429 49.9187179,268.355429 C57.7526086,314.987298 66.6868177,367.8449 145.994381,398.348171 L174.983539,398.362278 L156.898819,380.752482 C96.4471385,355.379328 75.5787069,305.446503 78.9031732,268.346024 L78.9078754,268.346024 Z M411.627227,247.797343 L504.726389,247.797343 C504.726389,252.071657 504.726389,256.350673 504.726389,260.624987 C490.351716,261.635963 481.567978,265.125007 472.323423,268.331918 C462.66037,268.327215 452.997318,268.327215 443.334265,268.322513 C432.970583,262.886752 422.381194,260.624987 411.63193,260.624987 L411.63193,247.797343 L411.627227,247.797343 Z M261.071697,247.755023 L308.310152,247.755023 C308.310152,252.029337 308.310152,256.303651 308.310152,260.582667 C293.93548,261.593643 285.14704,265.077985 275.902484,268.289598 L261.066995,268.2943 C261.066995,268.2943 261.066995,247.755023 261.066995,247.755023 L261.071697,247.755023 Z M315.551564,418.863937 L408.650725,418.863937 C408.650725,414.589623 408.650725,410.310607 408.650725,406.036293 C394.276053,405.025317 385.487612,401.540975 376.243057,398.32466 C366.580005,398.329362 356.916952,398.334065 347.2539,398.338767 C336.890217,403.769826 326.300828,406.036293 315.551564,406.036293 L315.551564,418.863937 Z M261.071697,268.2943 L275.907186,268.289598 L365.333917,380.733673 L347.2539,398.343469 L261.071697,288.527932 L261.071697,268.2943 Z M443.334265,268.327215 C452.997318,268.331918 462.66037,268.331918 472.323423,268.33662 C464.489532,314.968489 455.555323,367.826092 376.243057,398.329362 L347.2539,398.343469 L365.333917,380.733673 C425.7903,355.360519 446.654029,305.432396 443.329563,268.327215 L443.334265,268.327215 Z" id="Shape"></path>
            <path d="M261.179848,510.434878 C260.201787,532.182624 242.182898,542.931888 258.245666,551.485218 C257.817764,557.536969 257.389862,563.584018 256.966663,569.631067 C255.946282,579.867789 240.076306,603.204884 217.891254,581.917955 L212.032293,585.510448 C221.855221,606.566968 200.163902,617.175166 187.905227,605.240943 C184.679507,600.613964 181.458489,595.982281 178.23277,591.355302 C181.453787,576.952416 164.516408,578.861515 157.655875,572.616973 L185.079195,624.863288 L261.179848,624.792755 L261.179848,510.434878 Z M261.179848,510.434878 C262.157909,532.182624 280.176798,542.931888 264.11403,551.485218 C264.541932,557.536969 264.969834,563.584018 265.397735,569.631067 C266.413414,579.867789 282.28339,603.204884 304.468442,581.917955 L310.327403,585.510448 C300.504475,606.566968 322.195794,617.175166 334.454469,605.240943 C337.680189,600.613964 340.901207,595.982281 344.126926,591.355302 C340.905909,576.952416 357.843288,578.861515 364.703821,572.616973 L337.285203,624.863288 L261.18455,624.792755 L261.18455,510.434878 L261.179848,510.434878 Z" id="Shape"></path>
            <path d="M209.73291,563.767404 C203.610626,563.767404 198.649789,568.728241 198.649789,574.850526 C198.649789,580.97281 203.610626,585.933647 209.73291,585.933647 C215.855195,585.933647 220.816032,580.97281 220.816032,574.850526 C220.816032,568.728241 215.855195,563.767404 209.73291,563.767404 Z" id="Shape"></path>
            <path d="M253.806774,550.431922 C247.68449,550.431922 242.723653,555.392759 242.723653,561.515043 C242.723653,567.637327 247.68449,572.598165 253.806774,572.598165 C256.552868,572.598165 259.068553,571.601295 261.001164,569.946115 C261.001164,569.946115 260.991759,553.079269 260.991759,553.079269 C259.059149,551.433493 256.548166,550.436624 253.802072,550.436624 L253.806774,550.431922 Z" id="Shape"></path>
            <path d="M184.350352,586.582553 C178.23277,586.582553 173.26723,591.54339 173.26723,597.660972 C173.26723,603.783257 178.228067,608.748796 184.350352,608.748796 C190.472636,608.748796 195.433473,603.787959 195.433473,597.660972 C195.433473,591.54339 190.472636,586.582553 184.350352,586.582553 Z" id="Shape"></path>
            <path d="M261.217466,635.800641 C242.521458,635.800641 223.830152,635.800641 205.134144,635.800641 C203.57771,639.952697 203.25796,644.476228 205.134144,649.36183 L261.217466,649.36183 L261.217466,635.800641 Z M261.217466,635.800641 C279.908772,635.800641 298.60478,635.800641 317.296086,635.800641 C318.857221,639.952697 319.176972,644.476228 317.296086,649.36183 L261.217466,649.36183 L261.217466,635.800641 Z" id="Shape"></path>
            <path d="M148.754582,672.346258 C146.615074,662.654993 141.720068,656.532708 135.183988,650.410424 C164.732709,655.662798 189.311189,672.271023 222.160865,703 C191.728128,679.58767 170.300132,675.877622 148.754582,672.346258 Z" id="Shape"></path>
            <path d="M78.1084988,595.055945 C137.854847,605.015237 189.170123,646.860251 222.160865,703 C183.992983,670.408946 164.601047,654.839911 115.627475,647.542072 L111.517739,647.015424 C99.2872766,616.686135 93.8327068,610.728429 78.113201,595.060647 L78.1084988,595.055945 Z" id="Shape"></path>
            <path d="M42.5691553,325.98578 C40.269772,358.153635 30.9029591,364.473412 39.1459426,403.229071 C25.091021,401.033136 19.4671714,391.967265 7.24611382,393.622445 C12.5878304,396.335623 14.2665213,398.865415 11.1771658,404.517478 C31.3120519,406.798052 62.6241037,425.752682 51.602111,472.017779 C49.0817236,462.110211 39.6866973,461.823376 37.8105134,446.879736 C30.1835202,483.707486 24.305751,485.057022 30.7665949,507.853362 C34.3873007,524.212369 11.4075744,508.732676 18.2539999,537.745345 C15.0800045,539.88015 11.9483291,541.511819 8.5909474,540.350372 C10.9702684,579.270608 14.3746722,580.093496 57.1084051,631.211279 C58.7917982,583.610753 74.1022113,559.859863 91.0819109,545.433467 L91.0819109,544.116846 C75.973693,550.667032 61.5284875,546.322185 48.2964536,548.193667 C150.569637,443.606994 52.5613629,433.520742 43.5472161,325.990482 L42.5644531,325.990482 L42.5691553,325.98578 Z" id="Shape"></path>
            <path d="M132.320339,82.3640036 C91.1430397,123.781116 49.2368967,100.321764 0,128.54446 C38.9954717,129.762334 16.5941179,183.757873 62.0034113,145.392498 C88.1900484,138.37209 102.832747,176.798594 63.5974623,183.155989 C65.4877528,207.104372 49.0582125,217.491565 36.2869957,226.406966 C158.586914,218.709439 73.4297945,154.56652 134.883047,94.4581015 C134.027243,90.4236007 133.17144,86.3938022 132.320339,82.3640036 Z" id="Shape"></path>
            <path d="M199.011859,52.1240569 C200.187413,48.3199647 199.919387,49.3356432 199.848854,44.0221399 L207.819109,47.5299925 C204.781477,49.4108786 202.397454,50.9626097 199.011859,52.1240569 Z M218.784675,14.0126017 C210.419434,16.6881622 219.739224,18.0424002 205.905307,27.1505913 C202.717205,29.2524815 200.540079,30.3198844 197.587088,32.2477927 C187.820587,38.6381033 196.735987,39.089516 185.483586,47.1773264 C180.753157,50.577028 182.417741,49.7776514 178.872271,54.0472629 C172.458449,61.7777049 170.450603,58.6648384 170.610479,70.622572 C170.67631,70.6789986 172.011739,71.4689707 172.759391,72.1037698 L174.96473,74.3937487 C183.014923,78.2777785 186.005532,68.0551624 187.89112,66.277725 L203.131,55.3356699 C203.248555,55.2839456 203.582413,55.1475813 203.714075,55.1052614 C203.732883,55.1005592 213.226656,55.2181146 208.073028,50.3325128 C208.538547,50.379535 209.182751,50.1679353 209.422564,50.7133923 L212.775243,51.5268755 C216.974322,51.8231151 217.134197,47.1444109 218.906932,44.9766896 C219.099723,44.7415788 219.34894,44.4265304 219.565242,44.2102285 L232.990067,34.8105001 C234.88506,34.175701 234.908571,34.7587757 238.439935,33.1741291 C238.411721,30.7948082 237.297296,30.507973 238.613917,28.5095315 C241.881956,23.5580988 241.468161,25.5377314 247.679788,27.188209 C244.943099,25.1521498 240.062199,23.9295738 244.571624,20.9483693 C247.689192,18.888799 252.443132,20.1395882 254.436871,19.9091797 C258.908678,19.391936 259.797397,14.4922276 264.269203,15.2774976 C266.76608,15.7148036 265.303691,19.6035357 265.576419,16.4107315 C269.82252,13.4389314 268.618753,11.2429968 276.302173,9.45615502 C273.847616,5.42635649 267.556052,-2.3322988 260.883608,0.681821222 L218.77527,14.0078995 L218.784675,14.0126017 Z M174.96473,74.3984509 C171.339322,77.8169614 175.952195,80.384371 177.372264,85.4533591 C181.218676,87.0850278 182.47887,90.2731298 184.298627,93.3154631 L188.248488,88.6649722 C185.309604,86.7135528 187.486729,91.1524441 186.823717,86.9815791 C186.433433,84.512916 185.610546,86.4596332 187.726542,84.5270227 C187.557263,84.423574 187.176383,84.3060186 187.134063,84.4988094 C187.129361,84.5035116 186.010234,84.8279645 185.177942,83.0975492 C185.04628,82.8248207 188.29551,77.8310681 182.963198,79.8859362 C187.322152,78.4094406 188.681092,81.498796 190.895836,83.0646337 C191.041604,82.7401809 191.370759,81.9313998 191.464804,82.1618084 L194.356666,78.1414143 C199.425654,72.545778 209.56363,73.9799537 213.348914,70.7636384 L230.328613,52.6460028 C234.668758,53.1773531 232.063731,55.0065149 235.580988,54.2259471 C238.660939,53.5394237 237.076292,52.3215499 241.162517,52.4861275 L240.029283,46.6365716 C249.805189,42.4610044 247.106118,35.3371482 243.236194,29.2054594 C252.852225,33.3716222 248.013645,34.3402785 252.05755,40.2603676 L253.62809,40.3544119 C260.620284,40.5283939 264.551336,38.4076948 270.419701,34.8857355 L272.060774,33.9688035 C272.272374,33.8277371 272.610933,33.630244 272.808427,33.4750709 C274.783357,31.9468509 272.399334,34.3308741 275.300601,30.7854037 C275.488689,30.5549952 275.714396,30.202329 275.907186,29.9719205 L281.902511,22.3731405 C286.811624,18.1834667 281.817871,24.6725238 286.788113,18.2822132 C283.482455,13.9843884 281.065517,10.8480108 276.29747,9.46085723 C268.61405,11.2476991 269.817818,13.4436336 265.571717,16.4154337 C265.298989,19.6082379 266.761378,15.7195058 264.264501,15.2821998 C259.787992,14.4969298 258.903976,19.3966382 254.432169,19.9138819 C252.43843,20.1442905 247.679788,18.8935012 244.566921,20.9530715 C240.057497,23.934276 244.938396,25.156852 247.675086,27.1929112 C241.463459,25.5424336 241.877254,23.562801 238.609214,28.5142337 C237.292594,30.5126752 238.407019,30.7995104 238.435233,33.1788313 C234.903869,34.7634779 234.880358,34.1804032 232.985365,34.8152023 L219.56054,44.2149307 C219.344238,44.4312326 219.099723,44.746281 218.90223,44.9813918 C217.129495,47.1491131 216.974322,51.8325195 212.770541,51.5315778 L209.417862,50.7180945 C209.173347,50.1726375 208.529143,50.3842372 208.068326,50.3372151 C213.221954,55.2228168 203.728181,55.1052614 203.709372,55.1099636 C203.57771,55.1522836 203.243853,55.2886478 203.126298,55.3403722 L187.886418,66.2824272 C186.000829,68.0598646 183.005518,78.2777785 174.960028,74.3984509 L174.96473,74.3984509 Z M254.747217,73.4815189 C252.725265,83.8922236 252.795798,92.3091891 247.519913,101.125843 L250.722121,77.6429795 L248.902364,80.0834292 C246.584172,83.9580546 246.518341,85.8671541 246.372572,90.1414678 C246.809878,88.2746883 248.751893,89.1116826 244.980716,88.9612117 C235.364686,88.5662257 238.265953,103.467546 224.540186,96.3672009 L222.635789,95.2621803 C229.242402,109.523999 224.5684,105.197961 219.720416,119.558527 C226.679694,125.384572 243.151554,115.124338 245.860031,131.944162 C246.927433,130.397133 248.004241,131.422216 246.419594,124.472342 C248.831831,123.47077 245.314574,123.602432 247.886685,124.495853 L249.273839,125.140056 C249.405501,125.196483 249.781678,125.455105 250.059109,125.553851 C251.060681,121.209004 252.452536,121.571075 254.474489,119.393949 L257.389862,114.837503 C260.150063,112.011471 263.747258,105.588245 266.479245,101.473807 C269.408725,97.067831 272.516889,92.4972777 275.620351,87.5599516 C282.32571,76.9000294 287.789685,67.6460697 285.495003,52.2510167 L283.346091,54.8701506 C283.106278,54.5127823 282.866465,54.0331563 282.730101,53.7228101 L281.333543,50.3184062 C280.962068,49.1381501 280.999686,48.2870492 280.830406,47.1067931 C282.194048,49.1005324 281.469907,49.5237318 281.074921,53.6945968 L277.261424,51.4986622 L278.220676,59.1115489 C272.549805,58.961078 273.565483,59.7933701 269.925969,63.7996575 C262.802112,71.6476549 267.490221,66.9078219 264.603061,65.9250589 C262.849134,65.3325797 265.93849,62.0222201 262.454148,66.7056266 C259.454135,70.7448296 261.965118,69.7996843 258.335008,71.6288461 C258.175132,71.7087837 257.756635,71.7605081 257.601462,71.8310413 C254.41336,73.1852793 256.773872,69.465827 254.75192,73.4815189 L254.747217,73.4815189 Z M211.689032,89.2151314 C210.109087,94.208884 207.598104,94.6791056 200.888043,96.5129696 C190.792387,99.2684677 196.604325,96.2637521 190.166992,95.1117094 C190.98988,100.077249 191.892705,110.657233 193.759485,114.588285 C196.265765,119.868873 204.005612,124.618111 204.118465,128.187092 L208.054219,130.966101 L218.206302,102.193246 C219.043297,95.6759752 218.004107,94.2888217 222.645193,95.2574781 L224.549591,96.3624987 C238.275357,103.462844 235.369388,88.5662257 244.990121,88.9565095 C248.761297,89.1116826 246.819282,88.2699861 246.381976,90.1367656 C246.527745,85.8671541 246.588874,83.9533524 248.911768,80.078727 L250.731526,77.6382772 L246.640598,63.8654885 L242.1876,68.1162912 C240.969727,69.4141026 240.696998,69.9407507 239.145267,71.4266508 L237.739305,72.6680356 C237.537109,72.8608265 237.212657,73.1006394 237.010461,73.2934303 L233.436778,77.939219 C234.033959,76.9235405 235.181299,79.7213586 233.516715,74.8263525 C232.336459,71.3608198 233.460289,73.8671005 231.400718,71.6570593 L224.770595,82.6179233 C218.079342,79.57559 227.018254,76.6037899 211.693734,89.2057269 L211.689032,89.2151314 Z M292.186256,44.5911079 C291.772461,54.6491465 291.607883,69.7244488 286.99501,77.3326332 C283.158002,83.6618151 275.06549,94.0960309 273.029431,100.147782 L278.493405,98.4596867 C278.582747,98.4502823 278.930711,98.4173668 279.020053,98.4126645 L281.559249,98.2857047 C287.860218,98.2292781 282.321008,97.5239458 291.118853,92.2527625 C300.349302,86.7229572 293.785009,88.7355054 298.228603,83.6100907 C300.513879,80.9768501 297.419822,83.1022514 300.212937,82.4862612 C300.41043,82.4439413 300.87595,82.481559 301.064038,82.4627502 C301.360278,82.4392391 302.507619,82.6931587 302.949627,82.7119676 C306.231773,75.122592 314.554694,50.4829837 313.529611,43.1992522 L311.31957,36.3293156 C308.695734,38.0221131 307.736482,41.9108452 306.763123,43.2932965 C305.028006,45.771364 300.283471,46.1898611 296.380632,51.4046179 C293.056166,55.8482114 297.147093,47.2666685 295.087523,53.7698322 C293.408832,59.0645267 293.846138,53.8121522 295.223887,56.2620064 C295.200376,54.616231 295.313229,51.49396 294.918243,50.0362733 C293.399427,44.4500415 294.495044,47.4500548 292.176851,44.6005124 L292.186256,44.5911079 Z M184.30333,93.3154631 C192.720295,90.8562045 193.83472,86.9157481 198.833175,84.3107208 C205.533832,80.8263792 208.689018,86.7558728 211.689032,89.2104292 C227.013551,76.6084921 218.07464,79.5802922 224.765893,82.6226255 L231.396016,71.6617616 C233.455586,73.876505 232.331757,71.3702242 233.512013,74.8310547 C235.176597,79.7260608 234.029257,76.9282427 233.432075,77.9439212 L237.005759,73.2981325 C237.207954,73.1053417 237.532407,72.8608265 237.734602,72.6727379 L239.140565,71.431353 C240.687594,69.945453 240.965024,69.4188048 242.182898,68.1209934 L246.635896,63.8701908 L241.171922,52.4861275 C237.085697,52.3215499 238.665641,53.5394237 235.590392,54.2259471 C232.073135,55.0112171 234.678162,53.1773531 230.338018,52.6460028 L213.358318,70.7636384 C209.573035,73.9799537 199.430356,72.5410758 194.36607,78.1414143 L191.474208,82.1618084 C191.380164,81.936102 191.051009,82.7401809 190.90524,83.0646337 C188.695199,81.498796 187.331556,78.4094406 182.972603,79.8859362 C188.304915,77.8310681 185.050982,82.8248207 185.187346,83.0975492 C186.019638,84.8279645 187.143468,84.5035116 187.143468,84.4988094 C187.185788,84.3060186 187.566667,84.423574 187.735947,84.5270227 C185.61995,86.4596332 186.442838,84.512916 186.833122,86.9815791 C187.496134,91.1524441 185.319008,86.7135528 188.257893,88.6649722 L184.308032,93.3154631 L184.30333,93.3154631 Z M252.071657,40.2603676 C250.073215,44.5770013 248.02305,48.4469245 245.234636,51.2071249 C246.424296,55.9610646 248.817724,63.221285 252.240937,66.103743 L250.092024,62.5582727 C262.190824,59.9532454 255.123395,56.7322279 261.264488,51.8842439 C266.958871,47.3936283 267.532541,56.450095 287.427614,34.9421621 L286.802219,18.277511 C281.827276,24.6678216 286.82573,18.1787644 281.916618,22.3684383 L275.921293,29.9672183 C275.733204,30.202329 275.502796,30.550293 275.314707,30.7807015 C272.41344,34.3261719 274.797464,31.9421487 272.822533,33.4703687 C272.62504,33.6208396 272.281778,33.8183326 272.074881,33.9641013 L270.433808,34.8810333 C264.560741,38.4029926 260.629689,40.5236917 253.642197,40.3497097 L252.071657,40.2556654 L252.071657,40.2603676 Z M245.864733,131.93946 C246.11395,146.238897 240.461887,150.579041 228.494749,151.364311 L230.681279,164.464683 C235.209513,165.108887 235.745565,164.549323 237.979118,165.640237 C236.657795,160.101027 236.436791,158.859643 240.353736,155.253043 L241.886659,154.072787 C246.993264,150.588446 251.540307,151.500676 255.090479,145.900337 C255.255057,146.314132 255.739385,146.39407 255.918069,146.930122 C258.095195,153.395668 252.824011,144.752997 258.471372,148.147996 L259.045042,145.021023 C259.590499,141.917561 259.308366,144.903467 262.134398,145.129174 C261.786434,141.268655 264.010582,138.936356 265.59993,136.467693 C267.772354,133.0868 268.284895,131.271745 270.579576,128.201199 L261.118719,129.969232 C257.38516,133.444169 257.347543,117.987987 257.399267,114.8328 L254.483893,119.389247 C252.457239,121.566373 251.070085,121.204302 250.068513,125.549149 C249.791083,125.450403 249.410203,125.196483 249.283243,125.135354 L247.89609,124.491151 C245.323978,123.59773 248.841235,123.466068 246.428999,124.46764 C248.013645,131.412812 246.932136,130.392431 245.869435,131.93946 L245.864733,131.93946 Z M289.270882,109.453466 C286.736388,110.328078 288.974643,108.771645 286.769304,111.517739 C285.852372,112.660377 286.026354,112.707399 285.245786,114.005211 C283.797504,116.408043 283.167407,117.343783 281.488716,119.835958 C283.045149,129.522521 286.614131,122.041297 289.148625,134.027243 C290.187814,138.92225 288.504421,137.078981 290.907253,139.28432 L292.233278,138.701245 C296.681574,135.174584 295.37906,137.35171 296.20665,132.494321 L296.136117,120.832827 L302.991947,120.908063 L303.89007,118.97075 C307.365007,114.654116 303.194142,117.183908 308.267832,113.262261 C317.521792,106.114893 339.645715,92.0223539 316.769438,96.5552895 C313.647167,97.1759819 307.811717,102.028668 304.007625,104.981659 L297.457439,108.80456 C291.245813,111.348459 292.397856,110.577296 289.270882,109.453466 Z M252.245639,66.103743 C252.287959,68.1962289 251.944697,67.9987358 252.555985,69.8749197 C254.808346,76.7448563 252.391408,70.5708476 254.75192,73.4815189 C256.773872,69.465827 254.41336,73.1852793 257.601462,71.8310413 C257.761337,71.7605081 258.175132,71.7134859 258.335008,71.6288461 C261.965118,69.7996843 259.454135,70.7401274 262.454148,66.7056266 C265.943192,62.0175179 262.853837,65.3325797 264.603061,65.9250589 C267.494923,66.9078219 262.802112,71.6429527 269.925969,63.7996575 C273.565483,59.7886679 272.549805,58.961078 278.220676,59.1115489 L277.261424,51.4986622 L281.074921,53.6945968 C281.469907,49.5237318 282.194048,49.1005324 280.830406,47.1067931 C280.999686,48.2870492 280.962068,49.1428524 281.333543,50.3184062 L282.730101,53.7228101 C282.866465,54.0331563 283.106278,54.5127823 283.346091,54.8701506 L285.495003,52.2510167 L287.422912,34.9515665 C267.527839,56.4594994 266.949466,47.4030327 261.259786,51.8936483 C255.118692,56.7416323 262.18142,59.9579476 250.087322,62.5676771 L252.236234,66.1131475 L252.245639,66.103743 Z M305.12205,92.8828593 C311.686343,94.143053 309.429279,92.1916337 317.719285,85.6743632 L322.684824,81.4188584 C322.868211,81.2213653 323.103322,80.8781036 323.296112,80.6806106 L327.70679,77.6382772 L328.496763,68.8451346 C328.623722,69.2824406 328.938771,70.9000027 329.051624,71.1868378 C330.31652,74.3185132 328.435634,70.1241371 329.82749,72.8890398 L330.899595,74.6147528 C334.247572,67.6084519 328.614318,76.6837275 332.042233,67.6460697 C332.286748,69.0661387 332.423112,71.1868378 332.832205,72.5175647 C334.256976,77.1586513 343.595576,77.2668022 346.684932,80.5724596 C348.69748,72.3294761 333.645688,66.3952804 329.639401,61.058266 C324.702075,54.4751645 325.73186,52.6177895 318.419915,49.5425407 C320.507699,62.1256689 320.554721,61.0018394 315.184791,72.3247739 C311.648725,79.7824874 308.785076,85.843643 305.12205,92.8734549 L305.12205,92.8828593 Z M273.034133,100.147782 C269.070165,103.340586 262.708068,112.768528 262.092078,118.810875 C264.311523,123.277979 260.798969,120.672952 267.400879,121.166685 C268.407153,121.24192 273.184604,120.912765 274.642291,120.936276 C277.007505,110.088265 282.711292,106.227746 289.125114,101.54434 C294.034227,97.9612519 292.957419,97.2512174 297.194115,93.5270628 C303.095395,88.3311149 299.738014,90.1602766 302.954329,82.7072654 C302.512321,82.6884565 301.360278,82.4345369 301.068741,82.4580479 C300.880652,82.4721546 300.41043,82.4345369 300.21764,82.481559 C297.424524,83.1022514 300.518581,80.9721479 298.233305,83.6053885 C293.789711,88.7308032 300.349302,86.718255 291.123555,92.2480603 C282.32571,97.5192436 287.86492,98.2198737 281.563951,98.2810025 L279.024755,98.4079623 C278.935413,98.4173668 278.587449,98.4455801 278.498107,98.4549845 L273.034133,100.14308 L273.034133,100.147782 Z M305.12205,92.8828593 C303.843048,94.6367856 300.814821,98.4361756 297.669039,100.834305 C293.394725,104.088238 293.032655,104.158772 289.270882,109.458168 C292.397856,110.581998 291.245813,111.348459 297.457439,108.809263 L304.007625,104.986362 C307.81642,102.03337 313.647167,97.1806841 316.769438,96.5599917 C330.499906,93.8421112 338.766401,100.425213 346.684932,80.5912685 C343.595576,77.2856111 334.256976,77.1727579 332.832205,72.5363736 C332.423112,71.2009445 332.286748,69.0849476 332.042233,67.6648785 C328.61902,76.6978342 334.247572,67.6272608 330.899595,74.6335616 L329.82749,72.9078486 C328.435634,70.142946 330.31652,74.3373221 329.051624,71.2056467 C328.934069,70.9188115 328.623722,69.3012495 328.496763,68.8639434 L327.70679,77.6570861 L323.296112,80.6994194 C323.108024,80.8922102 322.872913,81.2401742 322.684824,81.4376672 L317.719285,85.6931721 C309.429279,92.2104425 311.686343,94.1618619 305.12205,92.9016682 L305.12205,92.8828593 Z M216.287798,127.914363 C220.256468,127.999003 228.419514,127.787404 231.960282,128.370478 C238.679748,129.475499 237.828647,131.915949 237.287892,138.621308 L226.515117,144.16522 L228.490047,151.364311 C240.457185,150.579041 246.109248,146.243599 245.860031,131.93946 C243.156257,115.119636 226.684396,125.379869 219.720416,119.553825 L216.283096,127.914363 L216.287798,127.914363 Z M226.515117,144.16522 L237.287892,138.621308 C237.828647,131.915949 238.675045,129.475499 231.960282,128.370478 C228.419514,127.787404 220.256468,128.003706 216.287798,127.914363 C210.847335,142.745151 216.499398,145.105663 224.196924,160.138645 C225.217305,153.367455 222.612278,145.021023 225.245519,134.685554 L226.519819,144.16522 L226.515117,144.16522 Z M293.037357,22.6505712 C292.872779,29.3982502 293.19253,37.3026742 292.186256,44.5911079 C294.499746,47.4406504 293.408832,44.440637 294.927647,50.0268688 C295.322634,51.4845556 295.20978,54.6068266 295.233291,56.2526019 C293.855542,53.80745 293.422939,59.0551223 295.096927,53.7604278 C297.156497,47.2619662 293.06557,55.838807 296.390036,51.3952135 C300.288173,46.1804567 305.032708,45.7619595 306.772528,43.2838921 C307.741184,41.9014408 308.700436,38.0127087 311.328974,36.3199112 C309.763137,34.9703754 298.228603,18.9640344 297.132986,17.0173173 C295.261505,20.3041658 295.275611,16.8010154 293.042059,22.645869 L293.037357,22.6505712 Z M274.698717,129.513117 C277.270829,130.373622 279.208142,129.442583 279.786514,134.107181 C279.9699,135.593081 279.010649,138.32977 278.056099,139.463004 C275.027872,143.04139 270.593683,141.800005 265.806828,141.094673 C262.261358,147.969312 265.534099,143.370545 262.129696,145.129174 L261.414959,150.630766 C264.725318,148.627622 265.303691,148.354894 270.22691,148.613515 C271.045096,148.655835 273.132879,148.909755 273.875829,149.220101 C277.863308,150.889388 274.93853,147.682477 277.059229,152.21071 C281.973044,147.503793 278.846071,147.489686 285.998141,145.133876 C286.059269,142.557062 285.010675,144.673059 287.051437,142.044521 C288.805363,139.787457 288.518528,140.441065 290.911956,139.274916 C288.509124,137.069577 290.187814,138.912845 289.153327,134.017839 C286.618833,122.036594 283.049852,129.513117 281.493418,119.826553 C278.935413,123.183935 277.552962,126.630659 274.703419,129.503712 L274.698717,129.513117 Z M237.974415,165.640237 C239.309845,168.325202 244.087295,174.038394 244.444664,176.102666 L246.358465,173.96786 C246.504234,173.709239 246.861602,173.220208 247.002669,172.919266 L247.708001,170.050915 C249.814594,173.177888 250.929019,173.243719 249.048132,178.129321 L253.482322,173.074439 C250.933721,160.38316 254.615555,169.359689 255.15631,161.9537 C256.016816,153.748334 256.124967,154.613542 258.46667,148.147996 C252.819309,144.752997 258.090493,153.395668 255.913367,146.930122 C255.734683,146.39407 255.245652,146.314132 255.085777,145.900337 C251.535604,151.505378 246.988562,150.593148 241.881956,154.072787 L240.349034,155.253043 C236.432089,158.859643 236.657795,160.101027 237.974415,165.640237 Z M244.444664,176.102666 L244.994823,191.051009 C251.733097,193.237539 246.711131,190.275143 251.709586,190.345676 L253.289531,190.580787 C254.018374,188.347235 254.041885,188.610559 254.719004,186.922464 C254.869475,186.546286 255.334994,185.337817 255.504274,184.947533 L256.435313,182.925581 C256.543464,182.681065 256.731552,182.220248 256.933748,181.895795 C257.714315,185.540012 258.494883,186.44754 260.168872,189.20774 L264.678296,172.679453 L264.682998,173.403595 L253.472917,173.069737 L249.038728,178.124619 C250.914912,173.243719 249.800487,173.173186 247.698597,170.046213 L246.993264,172.914564 C246.847496,173.215506 246.490127,173.699834 246.349061,173.963158 L244.435259,176.097964 L244.444664,176.102666 Z M244.994823,191.051009 L247.872579,202.420965 C251.098298,205.181166 253.482322,212.953928 258.034066,214.886538 L260.173574,189.212442 C258.494883,186.452242 257.719018,185.544715 256.93845,181.900498 C256.736255,182.224951 256.548166,182.685768 256.440015,182.930283 L255.508976,184.952235 C255.339697,185.337817 254.874177,186.550989 254.723706,186.927166 C254.046587,188.615261 254.023076,188.351937 253.294233,190.585489 L251.714289,190.350379 C246.711131,190.279845 251.7378,193.237539 244.999525,191.055711 L244.994823,191.051009 Z M258.927487,164.996034 L265.444757,164.422363 C270.833496,159.68253 267.894612,154.660564 277.054527,152.215412 C274.93853,147.687179 277.863308,150.89409 273.871127,149.224803 C273.128177,148.914457 271.040394,148.66524 270.222208,148.618218 C265.298989,148.359596 264.720616,148.632324 261.410257,150.635468 L258.922785,164.996034 L258.927487,164.996034 Z M293.037357,22.6505712 C295.270909,16.8057176 295.2521,20.3041658 297.128284,17.0220195 C289.369629,5.82134257 286.78341,7.20379388 279.052968,6.40441727 C281.643889,10.5517712 283.651735,10.5000468 286.449553,13.7774909 C289.261478,17.0737438 289.402544,19.6787711 293.037357,22.6505712 Z M253.482322,173.074439 L264.692403,173.408297 L265.444757,164.417661 L258.927487,164.991331 C258.55131,164.704496 258.081088,164.384746 257.789551,164.159039 C257.516822,163.94744 257.027792,163.575965 256.759766,163.364365 C256.482335,163.148063 255.476061,162.268749 255.15631,161.948998 C254.615555,169.359689 250.933721,160.378458 253.482322,173.069737 L253.482322,173.074439 Z M265.802126,141.094673 C270.588981,141.800005 275.02317,143.04139 278.051397,139.463004 C279.010649,138.334473 279.965198,135.593081 279.781812,134.107181 C279.203439,129.442583 277.261424,130.373622 274.694015,129.513117 C273.53727,131.647922 272.084285,133.740408 270.466723,135.658912 C267.814674,138.790588 268.016869,137.836038 265.802126,141.094673 Z M230.671875,164.464683 C231.645234,174.640277 231.61702,176.182604 238.091971,183.522762 L237.969713,165.640237 C235.736161,164.544621 235.200108,165.108887 230.671875,164.464683 Z M261.109315,129.973934 L270.570172,128.205901 L274.632886,120.940978 C273.175199,120.917467 268.397749,121.246622 267.391474,121.171387 C260.789564,120.677654 264.302119,123.282681 262.082673,118.815577 C260.582667,122.06951 261.14223,126.419059 261.109315,129.973934 Z M258.46667,148.147996 C256.124967,154.613542 256.016816,153.748334 255.15631,161.9537 C255.476061,162.268749 256.482335,163.152765 256.759766,163.369067 C257.02309,163.580667 257.516822,163.952142 257.789551,164.163741 C258.08579,164.39415 258.556012,164.713901 258.927487,164.996034 L261.414959,150.635468 L262.129696,145.133876 C259.303664,144.90817 259.585797,141.922263 259.04034,145.025725 L258.46667,148.152698 L258.46667,148.147996 Z M296.20665,132.494321 C298.388478,129.588352 301.515451,126.155735 302.991947,120.908063 L296.136117,120.832827 L296.20665,132.494321 Z" id="Shape"></path>
            <path d="M346.680229,80.5865662 C328.858833,86.1351803 244.656263,127.665146 258.029364,214.89124 C272.803724,180.715539 297.899448,164.892585 313.37914,153.682503 C316.496709,151.420738 298.802273,149.737345 301.722349,147.738903 C321.758488,134.050754 349.421621,123.461366 346.680229,80.5865662 Z" id="Shape"></path>
        </g>
    </g>
</svg>