<?xml version="1.0" encoding="UTF-8"?>
<!DOCTYPE svg PUBLIC "-//W3C//DTD SVG 1.1//EN" "http://www.w3.org/Graphics/SVG/1.1/DTD/svg11.dtd">
<!-- Creator: CorelDRAW 2017 -->
<svg xmlns="http://www.w3.org/2000/svg" xml:space="preserve" width="77.4607mm" height="104.272mm" version="1.1" style="shape-rendering:geometricPrecision; text-rendering:geometricPrecision; image-rendering:optimizeQuality; fill-rule:evenodd; clip-rule:evenodd"
viewBox="0 0 111061 149502"
 xmlns:xlink="http://www.w3.org/1999/xlink">
 <defs>
  <style type="text/css">
   <![CDATA[
    .fil0 {fill:#e1e1e1}
   ]]>
  </style>
 </defs>
 <g id="Слой_x0020_1">
  <metadata id="CorelCorpID_0Corel-Layer"/>
  <path class="fil0" d="M36333 45353l-6392 0 0 63294 6392 0 0 -63294zm4872 65204c-2170,-578 -4125,-942 -4872,-1910 -2131,0 -4262,0 -6392,0 -961,1358 -3031,1731 -4638,1910l0 2416 15902 0 0 -2416zm0 -67112c-2170,578 -4125,940 -4872,1908 -2131,0 -4262,0 -6392,0 -961,-1358 -3031,-1730 -4638,-1908l0 -2417 15902 0 0 2417zm14315 20987l-19187 5 0 3079 19187 -6 0 -3079zm19208 -19084l6392 0 0 63294 -6392 0 0 -63294zm-4872 65204c2169,-578 4125,-942 4872,-1910 2131,0 4261,0 6392,0 961,1357 3031,1731 4638,1910l0 2417 -15902 0 0 -2417zm0 -67112c2169,578 4125,939 4872,1908 2131,0 4261,0 6392,0 961,-1358 3031,-1730 4638,-1908l0 -2416 -15902 0 0 2416zm-14336 20992l19208 0 0 3079 -19208 0 0 -3079z"/>
  <path class="fil0" d="M23522 52700l-19799 0c0,910 0,1819 0,2728 3058,216 4926,957 6892,1640 2055,-1 4110,-2 6165,-2 2204,-1156 4456,-1637 6742,-1637l0 -2728zm31998 -14l-10026 5c0,910 0,1819 0,2728 3058,215 4926,957 6892,1639l3133 -4c0,0 0,-4368 0,-4368zm-11565 36394l-19799 0c0,-909 0,-1819 0,-2728 3058,-215 4926,-956 6892,-1639 2055,1 4110,1 6165,3 2204,1156 4456,1637 6742,1637l0 2728zm11565 -32026l-3133 4 -19019 23913 3846 3745 18307 -23359 0 -4303zm-38739 12c-2055,1 -4110,2 -6165,2 1666,9917 3566,21158 20432,27645l6165 3 -3846 -3745c-12856,-5396 -17294,-16015 -16587,-23905zm70758 -4370l19799 0c0,909 0,1819 0,2728 -3057,215 -4925,957 -6891,1639 -2055,-1 -4110,-1 -6165,-2 -2204,-1156 -4456,-1637 -6742,-1637l0 -2728zm-32018 -9l10046 0c0,909 0,1818 0,2728 -3057,215 -4926,956 -6892,1639l-3155 1c0,0 0,-4368 0,-4368zm11586 36389l19799 0c0,-909 0,-1819 0,-2728 -3057,-215 -4926,-956 -6892,-1640 -2055,1 -4110,2 -6165,3 -2204,1155 -4456,1637 -6742,1637l0 2728zm-11586 -32021l3155 -1 19018 23913 -3845 3745 -18328 -23354 0 -4303zm38761 7c2055,1 4110,1 6165,2 -1666,9917 -3566,21158 -20433,27645l-6165 3 3845 -3745c12857,-5396 17294,-16014 16587,-23905z"/>
  <path class="fil0" d="M66458 119886c1302,0 2357,1055 2357,2357 0,1302 -1055,2357 -2357,2357 -1302,0 -2356,-1055 -2356,-2357 0,-1302 1055,-2357 2356,-2357z"/>
  <path class="fil0" d="M57084 117051c1302,0 2357,1055 2357,2357 0,1302 -1055,2357 -2357,2357 -584,0 -1119,-212 -1530,-564 0,0 2,-3587 2,-3587 412,-351 945,-563 1529,-563z"/>
  <path class="fil0" d="M71856 124739c1302,0 2357,1055 2357,2357 0,1301 -1055,2357 -2357,2357 -1302,0 -2357,-1056 -2357,-2357 0,-1302 1055,-2357 2357,-2357z"/>
  <path class="fil0" d="M55544 108550c-208,4625 -4040,6911 -624,8730 -91,1287 -182,2573 -272,3859 -217,2177 -3592,7140 -8310,2613l-1246 764c2089,4478 -2524,6734 -5131,4196 -686,-984 -1371,-1969 -2057,-2953 685,-3063 -2917,-2657 -4376,-3985l5832 11111 16184 -15 0 -24320zm0 0c208,4625 4040,6911 624,8730 91,1287 182,2573 273,3859 216,2177 3591,7140 8309,2613l1246 764c-2089,4478 2524,6734 5131,4196 686,-984 1371,-1969 2057,-2953 -685,-3063 2917,-2657 4376,-3985l-5831 11111 -16184 -15 0 -24320z"/>
  <path class="fil0" d="M44603 119892c-1302,0 -2357,1055 -2357,2357 0,1302 1055,2357 2357,2357 1302,0 2357,-1055 2357,-2357 0,-1302 -1055,-2357 -2357,-2357z"/>
  <path class="fil0" d="M53976 117056c-1302,0 -2357,1055 -2357,2357 0,1302 1055,2357 2357,2357 584,0 1119,-212 1530,-564 0,0 -2,-3587 -2,-3587 -411,-350 -945,-562 -1529,-562z"/>
  <path class="fil0" d="M39205 124744c-1301,0 -2357,1055 -2357,2356 0,1302 1055,2358 2357,2358 1302,0 2357,-1055 2357,-2358 0,-1301 -1055,-2356 -2357,-2356z"/>
  <path class="fil0" d="M55552 135211c-3976,0 -7951,0 -11927,0 -331,883 -399,1845 0,2884l11927 0 0 -2884zm0 0c3975,0 7951,0 11926,0 332,883 400,1845 0,2884l-11926 0 0 -2884z"/>
  <path class="fil0" d="M31635 142983c-455,-2061 -1496,-3363 -2886,-4665 6284,1117 11511,4649 18497,11184 -6472,-4979 -11029,-5768 -15611,-6519z"/>
  <path class="fil0" d="M80015 142978c456,-2062 1496,-3363 2886,-4665 -5450,712 -13004,3868 -19263,11183 6472,-4979 11794,-5768 16376,-6518z"/>
  <path class="fil0" d="M94273 126541c-12705,2118 -23618,11017 -30634,22956 8116,-6931 12240,-10242 22656,-11795l874 -112c2602,-6450 3761,-7717 7103,-11049z"/>
  <path class="fil0" d="M101832 69377c489,6842 2481,8185 727,16428 2989,-467 4186,-2395 6785,-2043 -1136,577 -1493,1115 -836,2317 -4282,485 -10941,4516 -8597,14355 536,-2107 2533,-2167 2933,-5346 1622,7832 2873,8119 1498,12966 -770,3480 4117,187 2661,6358 675,454 1341,801 2055,554 -506,8277 -1230,8452 -10318,19323 -358,-10122 -3614,-15174 -7225,-18242l0 -280c3213,1393 6284,469 9098,867 -21750,-22242 -907,-24387 1010,-47256l209 0z"/>
  <path class="fil0" d="M82921 17450c8756,8808 17669,3820 28140,9822 -8293,259 -3529,11742 -13186,3583 -5569,-1493 -8683,6679 -339,8032 -402,5093 3092,7301 5808,9198 -26010,-1637 -7899,-15278 -20968,-28062 182,-857 364,-1715 546,-2572z"/>
  <path class="fil0" d="M16611 126546c12706,2118 23619,11017 30635,22956 -8117,-6931 -12241,-10242 -22656,-11794l-874 -112c-2601,-6450 -3761,-7717 -7104,-11049z"/>
  <path class="fil0" d="M9053 69324c-489,6841 -2481,8185 -728,16427 -2989,-467 -4185,-2395 -6784,-2043 1136,577 1493,1115 836,2317 4282,485 10941,4516 8597,14355 -536,-2107 -2534,-2168 -2933,-5346 -1622,7832 -2872,8119 -1498,12967 770,3479 -4117,187 -2661,6357 -675,454 -1341,801 -2055,554 506,8277 1230,8452 10318,19323 358,-10123 3614,-15174 7225,-18242l0 -280c-3213,1393 -6285,469 -9099,867 21750,-22242 907,-24387 -1010,-47255l-209 0z"/>
  <path class="fil0" d="M28140 17514c-8757,8808 -17669,3819 -28140,9821 8293,259 3529,11742 13186,3583 5569,-1493 8683,6679 339,8031 402,5093 -3092,7302 -5808,9198 26009,-1637 7899,-15278 20968,-28061 -182,-858 -364,-1715 -545,-2572z"/>
  <path class="fil0" d="M42323 11083c250,-809 193,-593 178,-1723l1695 746c-646,400 -1153,730 -1873,977zm4205 -8105c-1779,569 203,857 -2739,2794 -678,447 -1141,674 -1769,1084 -2077,1359 -181,1455 -2574,3175 -1006,723 -652,553 -1406,1461 -1364,1644 -1791,982 -1757,3525 14,12 298,180 457,315l469 487c1712,826 2348,-1348 2749,-1726l3241 -2327c25,-11 96,-40 124,-49 4,-1 2023,24 927,-1015 99,10 236,-35 287,81l713 173c893,63 927,-932 1304,-1393 41,-50 94,-117 140,-163l2855 -1999c403,-135 408,-11 1159,-348 -6,-506 -243,-567 37,-992 695,-1053 607,-632 1928,-281 -582,-433 -1620,-693 -661,-1327 663,-438 1674,-172 2098,-221 951,-110 1140,-1152 2091,-985 531,93 220,920 278,241 903,-632 647,-1099 2281,-1479 -522,-857 -1860,-2507 -3279,-1866l-8955 2834zm-9319 12842c-771,727 210,1273 512,2351 818,347 1086,1025 1473,1672l840 -989c-625,-415 -162,529 -303,-358 -83,-525 -258,-111 192,-522 -36,-22 -117,-47 -126,-6 -1,1 -239,70 -416,-298 -28,-58 663,-1120 -471,-683 927,-314 1216,343 1687,676 31,-69 101,-241 121,-192l615 -855c1078,-1190 3234,-885 4039,-1569l3611 -3853c923,113 369,502 1117,336 655,-146 318,-405 1187,-370l-241 -1244c2079,-888 1505,-2403 682,-3707 2045,886 1016,1092 1876,2351l334 20c1487,37 2323,-414 3571,-1163l349 -195c45,-30 117,-72 159,-105 420,-325 -87,182 530,-572 40,-49 88,-124 129,-173l1275 -1616c1044,-891 -18,489 1039,-870 -703,-914 -1217,-1581 -2231,-1876 -1634,380 -1378,847 -2281,1479 -58,679 253,-148 -278,-241 -952,-167 -1140,875 -2091,985 -424,49 -1436,-217 -2098,221 -959,634 79,894 661,1327 -1321,-351 -1233,-772 -1928,281 -280,425 -43,486 -37,992 -751,337 -756,213 -1159,348l-2855 1999c-46,46 -98,113 -140,163 -377,461 -410,1457 -1304,1393l-713 -173c-52,-116 -189,-71 -287,-81 1096,1039 -923,1014 -927,1015 -28,9 -99,38 -124,49l-3241 2327c-401,378 -1038,2551 -2749,1726zm16967 -195c-430,2214 -415,4004 -1537,5879l681 -4994 -387 519c-493,824 -507,1230 -538,2139 93,-397 506,-219 -296,-251 -2045,-84 -1428,3085 -4347,1575l-405 -235c1405,3033 411,2113 -620,5167 1480,1239 4983,-943 5559,2634 227,-329 456,-111 119,-1589 513,-213 -235,-185 312,5l295 137c28,12 108,67 167,88 213,-924 509,-847 939,-1310l620 -969c587,-601 1352,-1967 1933,-2842 623,-937 1284,-1909 1944,-2959 1426,-2267 2588,-4235 2100,-7509l-457 557c-51,-76 -102,-178 -131,-244l-297 -724c-79,-251 -71,-432 -107,-683 290,424 136,514 52,1401l-811 -467 204 1619c-1206,-32 -990,145 -1764,997 -1515,1669 -518,661 -1132,452 -373,-126 284,-830 -457,166 -638,859 -104,658 -876,1047 -34,17 -123,28 -156,43 -678,288 -176,-503 -606,351zm-9157 3346c-336,1062 -870,1162 -2297,1552 -2147,586 -911,-53 -2280,-298 175,1056 367,3306 764,4142 533,1123 2179,2133 2203,2892l837 591 2159 -6119c178,-1386 -43,-1681 944,-1475l405 235c2919,1510 2301,-1658 4347,-1575 802,33 389,-146 296,251 31,-908 44,-1315 538,-2139l387 -519 -870 -2929 -947 904c-259,276 -317,388 -647,704l-299 264c-43,41 -112,92 -155,133l-760 988c127,-216 371,379 17,-662 -251,-737 -12,-204 -450,-674l-1410 2331c-1423,-647 478,-1279 -2781,1401zm17119 -9490c-88,2139 -123,5345 -1104,6963 -816,1346 -2537,3565 -2970,4852l1162 -359c19,-2 93,-9 112,-10l540 -27c1340,-12 162,-162 2033,-1283 1963,-1176 567,-748 1512,-1838 486,-560 -172,-108 422,-239 42,-9 141,-1 181,-5 63,-5 307,49 401,53 698,-1614 2468,-6854 2250,-8403l-470 -1461c-558,360 -762,1187 -969,1481 -369,527 -1378,616 -2208,1725 -707,945 163,-880 -275,503 -357,1126 -264,9 29,530 -5,-350 19,-1014 -65,-1324 -323,-1188 -90,-550 -583,-1156zm-22943 10362c1790,-523 2027,-1361 3090,-1915 1425,-741 2096,520 2734,1042 3259,-2680 1358,-2048 2781,-1401l1410 -2331c438,471 199,-62 450,674 354,1041 110,446 -17,662l760 -988c43,-41 112,-93 155,-133l299 -264c329,-316 388,-428 647,-704l947 -904 -1162 -2421c-869,-35 -533,224 -1187,370 -748,167 -194,-223 -1117,-336l-3611 3853c-805,684 -2962,378 -4039,1569l-615 855c-20,-48 -90,123 -121,192 -470,-333 -760,-990 -1687,-676 1134,-437 442,625 471,683 177,368 416,299 416,298 9,-41 90,-16 126,6 -450,411 -275,-3 -192,522 141,887 -322,-57 303,358l-840 989zm14412 -11283c-425,918 -861,1741 -1454,2328 253,1011 762,2555 1490,3168l-457 -754c2573,-554 1070,-1239 2376,-2270 1211,-955 1333,971 5564,-3603l-133 -3544c-1058,1359 5,-21 -1039,870l-1275 1616c-40,50 -89,124 -129,173 -617,754 -110,247 -530,572 -42,32 -115,74 -159,105l-349 195c-1249,749 -2085,1200 -3571,1163l-334 -20zm-1320 19497c53,3041 -1149,3964 -3694,4131l465 2786c963,137 1077,18 1552,250 -281,-1178 -328,-1442 505,-2209l326 -251c1086,-741 2053,-547 2808,-1738 35,88 138,105 176,219 463,1375 -658,-463 543,259l122 -665c116,-660 56,-25 657,23 -74,-821 399,-1317 737,-1842 462,-719 571,-1105 1059,-1758l-2012 376c-794,739 -802,-2548 -791,-3219l-620 969c-431,463 -726,386 -939,1310 -59,-21 -140,-75 -167,-88l-295 -137c-547,-190 201,-218 -312,-5 337,1477 107,1260 -119,1589zm9231 -4782c-539,186 -63,-145 -532,439 -195,243 -158,253 -324,529 -308,511 -442,710 -799,1240 331,2060 1090,469 1629,3018 221,1041 -137,649 374,1118l282 -124c946,-750 669,-287 845,-1320l-15 -2480 1458 16 191 -412c739,-918 -148,-380 931,-1214 1968,-1520 6673,-4517 1808,-3553 -664,132 -1905,1164 -2714,1792l-1393 813c-1321,541 -1076,377 -1741,138zm-7874 -9219c9,445 -64,403 66,802 479,1461 -35,148 467,767 430,-854 -72,-63 606,-351 34,-15 122,-25 156,-43 772,-389 238,-189 876,-1047 742,-997 85,-292 457,-166 615,209 -383,1216 1132,-452 774,-853 558,-1029 1764,-997l-204 -1619 811 467c84,-887 238,-977 -52,-1401 36,251 28,433 107,683l297 724c29,66 80,168 131,244l457 -557 410 -3679c-4231,4574 -4354,2648 -5564,3603 -1306,1031 196,1715 -2376,2270l457 754zm11245 5695c1396,268 916,-147 2679,-1533l1056 -905c39,-42 89,-115 130,-157l938 -647 168 -1870c27,93 94,437 118,498 269,666 -131,-226 165,362l228 367c712,-1490 -486,440 243,-1482 52,302 81,753 168,1036 303,987 2289,1010 2946,1713 428,-1753 -2773,-3015 -3625,-4150 -1050,-1400 -831,-1795 -2386,-2449 444,2676 454,2437 -688,4845 -752,1586 -1361,2875 -2140,4370zm-6824 1545c-843,679 -2196,2684 -2327,3969 472,950 -275,396 1129,501 214,16 1230,-54 1540,-49 503,-2307 1716,-3128 3080,-4124 1044,-762 815,-913 1716,-1705 1255,-1105 541,-716 1225,-2301 -94,-4 -339,-58 -401,-53 -40,3 -140,-5 -181,5 -594,132 64,-321 -422,239 -945,1090 450,662 -1512,1838 -1871,1121 -693,1270 -2033,1283l-540 27c-19,2 -93,8 -112,10l-1162 359zm6824 -1545c-272,373 -916,1181 -1585,1691 -909,692 -986,707 -1786,1834 665,239 420,402 1741,-138l1393 -813c810,-628 2050,-1660 2714,-1792 2920,-578 4678,822 6362,-3396 -657,-703 -2643,-727 -2946,-1713 -87,-284 -116,-734 -168,-1036 -728,1921 469,-8 -243,1482l-228 -367c-296,-588 104,304 -165,-362 -25,-61 -91,-405 -118,-498l-168 1870 -938 647c-40,41 -90,115 -130,157l-1056 905c-1763,1386 -1283,1801 -2679,1533zm-18892 7450c844,18 2580,-27 3333,97 1429,235 1248,754 1133,2180l-2291 1179 420 1531c2545,-167 3747,-1089 3694,-4131 -575,-3577 -4078,-1395 -5559,-2634l-731 1778zm2175 3456l2291 -1179c115,-1426 295,-1945 -1133,-2180 -753,-124 -2489,-78 -3333,-97 -1157,3154 45,3656 1682,6853 217,-1440 -337,-3215 223,-5413l271 2016zm14147 -25842c-35,1435 33,3116 -181,4666 492,606 260,-32 583,1156 84,310 60,974 65,1324 -293,-520 -385,596 -29,-530 438,-1382 -432,442 275,-503 829,-1109 1838,-1198 2208,-1725 206,-294 410,-1121 969,-1481 -333,-287 -2786,-3691 -3019,-4105 -398,699 -395,-46 -870,1197zm-3900 22726c547,183 959,-15 1082,977 39,316 -165,898 -368,1139 -644,761 -1587,497 -2605,347 -754,1462 -58,484 -782,858l-152 1170c704,-426 827,-484 1874,-429 174,9 618,63 776,129 848,355 226,-327 677,636 1045,-1001 380,-1004 1901,-1505 13,-548 -210,-98 224,-657 373,-480 312,-341 821,-589 -511,-469 -154,-77 -374,-1118 -539,-2548 -1298,-958 -1629,-3018 -544,714 -838,1447 -1444,2058zm-7810 7683c284,571 1300,1786 1376,2225l407 -454c31,-55 107,-159 137,-223l150 -610c448,665 685,679 285,1718l943 -1075c-542,-2699 241,-790 356,-2365 183,-1745 206,-1561 704,-2936 -1201,-722 -80,1116 -543,-259 -38,-114 -142,-131 -176,-219 -755,1192 -1722,998 -2808,1738l-326 251c-833,767 -785,1031 -505,2209zm1376 2225l117 3179c1433,465 365,-165 1428,-150l336 50c155,-475 160,-419 304,-778 32,-80 131,-337 167,-420l198 -430c23,-52 63,-150 106,-219 166,775 332,968 688,1555l959 -3515 1 154 -2384 -71 -943 1075c399,-1038 162,-1053 -285,-1718l-150 610c-31,64 -107,167 -137,223l-407 454zm117 3179l612 2418c686,587 1193,2240 2161,2651l455 -5460c-357,-587 -522,-780 -688,-1555 -43,69 -83,167 -106,219l-198 430c-36,82 -135,340 -167,420 -144,359 -149,303 -304,778l-336 -50c-1064,-15 5,614 -1428,150zm2963 -5541l1386 -122c1146,-1008 521,-2076 2469,-2596 -450,-963 172,-281 -677,-636 -158,-66 -602,-119 -776,-129 -1047,-55 -1170,3 -1874,429l-529 3054zm7254 -30272c475,-1243 471,-499 870,-1197 -1650,-2382 -2200,-2088 -3844,-2258 551,882 978,871 1573,1568 598,701 628,1255 1401,1887zm-8412 31990l2384 71 160 -1912 -1386 122c-80,-61 -180,-129 -242,-177 -58,-45 -162,-124 -219,-169 -59,-46 -273,-233 -341,-301 -115,1576 -898,-334 -356,2365zm2620 -6801c1018,150 1961,414 2605,-347 204,-240 407,-823 368,-1139 -123,-992 -536,-794 -1082,-977 -246,454 -555,899 -899,1307 -564,666 -521,463 -992,1156zm-7471 4970c207,2164 201,2492 1578,4053l-26 -3803c-475,-233 -589,-113 -1552,-250zm6473 -7335l2012 -376 864 -1545c-310,-5 -1326,65 -1540,49 -1404,-105 -657,449 -1129,-501 -319,692 -200,1617 -207,2373zm-562 3865c-498,1375 -521,1191 -704,2936 68,67 282,255 341,301 56,45 161,124 219,169 63,49 163,117 242,177l529 -3054 152 -1170c-601,-48 -541,-683 -657,-23l-122 665zm8026 -3329c464,-618 1129,-1348 1443,-2464l-1458 -16 15 2480z"/>
  <path class="fil0" d="M73727 17136c-3790,1180 -21697,10012 -18853,28562 3142,-7268 8479,-10633 11771,-13017 663,-481 -3100,-839 -2479,-1264 4261,-2911 10144,-5163 9561,-14281z"/>
 </g>
</svg>
