<?xml version="1.0" encoding="iso-8859-1"?>
<!-- Generator: Adobe Illustrator 19.0.0, SVG Export Plug-In . SVG Version: 6.00 Build 0)  -->
<svg version="1.1" id="Layer_1" xmlns="http://www.w3.org/2000/svg" xmlns:xlink="http://www.w3.org/1999/xlink" x="0px" y="0px"
	 viewBox="0 0 511.999 511.999" style="enable-background:new 0 0 511.999 511.999;" xml:space="preserve">
<g>
	<g>
		<path d="M123.455,0.895C55.381,0.895,0,56.277,0,124.351v142.272c0,2.487,1.216,4.816,3.255,6.238
			c2.04,1.42,4.643,1.757,6.98,0.895l14.008-5.167v143.979c0,54.333,44.203,98.535,98.535,98.535
			c54.333,0,98.535-44.202,98.535-98.535V268.157l15.385,5.61c0.847,0.309,1.728,0.46,2.604,0.46c1.54,0,3.065-0.467,4.361-1.374
			c2.034-1.422,3.244-3.748,3.244-6.23V124.351C246.909,56.277,191.528,0.895,123.455,0.895z M206.107,412.569
			c0,45.947-37.38,83.327-83.327,83.327c-45.946,0-83.327-37.38-83.327-83.327V263.302c54.149-17.167,112.43-17.29,166.654-0.359
			V412.569z M231.701,255.756l-8.086-2.947c-32.343-11.792-66.302-17.686-100.263-17.686c-34.325,0-68.654,6.023-101.3,18.066
			l-6.845,2.523v-33.906l12.107-4.466c61.569-22.712,129.432-22.839,191.09-0.36l13.296,4.847V255.756z M231.702,205.642
			L231.702,205.642l-8.088-2.948c-65.036-23.712-136.619-23.576-201.563,0.38l-6.844,2.525V124.35
			c0-59.687,48.56-108.247,108.247-108.247c59.687,0,108.247,48.56,108.247,108.248V205.642z"/>
	</g>
</g>
<g>
	<g>
		<path d="M388.544,0.895c-68.074,0-123.455,55.382-123.455,123.456v142.272c0,2.487,1.216,4.816,3.255,6.237
			c2.04,1.421,4.643,1.757,6.98,0.897l14.009-5.168v143.979c0,54.333,44.203,98.535,98.535,98.535
			c54.332,0,98.535-44.202,98.535-98.535V268.157l15.386,5.61c0.847,0.309,1.728,0.46,2.604,0.46c1.54,0,3.065-0.467,4.361-1.374
			c2.034-1.422,3.244-3.748,3.244-6.23V124.351C512,56.277,456.618,0.895,388.544,0.895z M471.197,412.57
			c0,45.946-37.38,83.326-83.327,83.326c-45.947,0-83.327-37.38-83.327-83.327V263.303c54.149-17.167,112.431-17.29,166.654-0.359
			V412.57z M496.792,255.758l-8.088-2.949c-32.342-11.792-66.302-17.686-100.262-17.686c-34.326,0-68.654,6.023-101.3,18.065
			l-6.846,2.526v-33.906l12.109-4.467c61.569-22.71,129.433-22.838,191.089-0.36l13.298,4.848V255.758z M496.792,205.643
			l-8.088-2.948c-65.035-23.712-136.618-23.575-201.562,0.379l-6.846,2.525v-81.248c0.001-59.688,48.56-108.248,108.248-108.248
			c59.687,0,108.247,48.56,108.247,108.248V205.643z"/>
	</g>
</g>
<g>
</g>
<g>
</g>
<g>
</g>
<g>
</g>
<g>
</g>
<g>
</g>
<g>
</g>
<g>
</g>
<g>
</g>
<g>
</g>
<g>
</g>
<g>
</g>
<g>
</g>
<g>
</g>
<g>
</g>
</svg>
