<?xml version="1.0" encoding="UTF-8"?>
<!DOCTYPE svg PUBLIC "-//W3C//DTD SVG 1.1//EN" "http://www.w3.org/Graphics/SVG/1.1/DTD/svg11.dtd">
<!-- Creator: CorelDRAW 2017 -->
<svg xmlns="http://www.w3.org/2000/svg" xml:space="preserve" width="3.4244mm" height="3.388mm" version="1.1" style="shape-rendering:geometricPrecision; text-rendering:geometricPrecision; image-rendering:optimizeQuality; fill-rule:evenodd; clip-rule:evenodd"
viewBox="0 0 36 36"
 xmlns:xlink="http://www.w3.org/1999/xlink">
 <defs>
  <style type="text/css">
   <![CDATA[
    .str0 {stroke:#FEFEFE;stroke-width:2.65269}
    .fil2 {fill:none}
    .fil1 {fill:#2B2A29}
    .fil0 {fill:#FDFDFD}
   ]]>
  </style>
 </defs>
 <g id="Слой_x0020_1">
  <metadata id="CorelCorpID_0Corel-Layer"/>
  <path class="fil0" d="M16 22l-1 -3c0,0 7,-5 8,-5l-4 4c-1,1 -1,1 -2,2 -1,1 0,2 -1,3zm-6 -5c1,1 4,1 4,2 1,1 1,4 2,5 1,0 2,-1 3,-2 1,0 4,3 5,3 0,0 0,0 0,0 0,1 2,-6 2,-7 0,-2 1,-6 1,-8 -1,0 -10,4 -13,5 -1,0 -4,1 -4,2z"/>
  <path class="fil1" d="M16 22c1,-1 0,-2 1,-3 1,-1 1,-1 2,-2l4 -4c-1,0 -8,5 -8,5l1 3z"/>
  <circle class="fil2 str0" cx="18" cy="18" r="17"/>
 </g>
</svg>
