<?xml version="1.0" encoding="UTF-8"?>
<svg width="18px" height="15px" viewBox="0 0 18 15" version="1.1" xmlns="http://www.w3.org/2000/svg" xmlns:xlink="http://www.w3.org/1999/xlink">
    <!-- Generator: sketchtool 48.1 (47250) - http://www.bohemiancoding.com/sketch -->
    <title>E99BA1C6-A2F9-4355-ACA7-705A74672F7D</title>
    <desc>Created with sketchtool.</desc>
    <defs></defs>
    <g id="HarrisonWork" stroke="none" stroke-width="1" fill="none" fill-rule="evenodd" transform="translate(-870.000000, -129.000000)" opacity="0.600000024">
        <g id="Group-20" transform="translate(847.000000, 123.000000)" fill-rule="nonzero">
            <g id="telegram" transform="translate(23.000000, 6.000000)">
                <path d="M5.56019058,7.88515695 L13.3146861,3.1091704 C13.4540583,3.02357623 13.5974327,3.21201794 13.4777691,3.32303812 L7.07804933,9.27188341 C6.85311659,9.48127803 6.70799327,9.76150224 6.66689462,10.0656726 L6.44889013,11.6812332 C6.42003363,11.8969507 6.11700673,11.9183408 6.05747758,11.7095852 L5.2190583,8.76356502 C5.12303812,8.42751121 5.26298206,8.06862108 5.56019058,7.88515695 Z" id="Shape" fill="#C3C3C7"></path>
                <path d="M0.304136771,7.1926009 L4.27190583,8.67349776 L5.80769058,13.6125336 C5.90596413,13.9288453 6.29276906,14.0457848 6.54951794,13.8358857 L8.76121076,12.0328587 C8.99303812,11.8439462 9.32327354,11.8345291 9.56556054,12.010426 L13.5546861,14.9066031 C13.8293274,15.1062444 14.2184529,14.9557399 14.2873318,14.6238565 L17.209574,0.567343049 C17.2847758,0.204820628 16.9285426,-0.0976345291 16.5833408,0.0358856502 L0.299495516,6.31765695 C-0.102343049,6.47263453 -0.0988452915,7.0415583 0.304136771,7.1926009 Z M5.56019058,7.88515695 L13.3146861,3.1091704 C13.4540583,3.02357623 13.5974327,3.21201794 13.4777691,3.32303812 L7.07804933,9.27188341 C6.85311659,9.48127803 6.70799327,9.76150224 6.66689462,10.0656726 L6.44889013,11.6812332 C6.42003363,11.8969507 6.11700673,11.9183408 6.05747758,11.7095852 L5.2190583,8.76356502 C5.12303812,8.42751121 5.26298206,8.06862108 5.56019058,7.88515695 Z" id="Shape" fill="#DEDEE0"></path>
            </g>
        </g>
    </g>
</svg>