<?xml version="1.0" encoding="UTF-8"?>
<svg width="21px" height="18px" viewBox="0 0 21 18" version="1.1" xmlns="http://www.w3.org/2000/svg" xmlns:xlink="http://www.w3.org/1999/xlink">
    <!-- Generator: sketchtool 48.1 (47250) - http://www.bohemiancoding.com/sketch -->
    <title>0D2AC487-5711-4BD8-9071-D35D998D156C</title>
    <desc>Created with sketchtool.</desc>
    <defs></defs>
    <g id="HarrisonWork" stroke="none" stroke-width="1" fill="none" fill-rule="evenodd" transform="translate(-1214.000000, -9607.000000)">
        <g id="footer" transform="translate(0.000000, 8691.000000)" fill="#D6BB74" fill-rule="nonzero">
            <g id="Group-11" transform="translate(1021.000000, 879.000000)">
                <g id="telegram-2" transform="translate(193.000000, 37.000000)">
                    <path d="M0.36516048,8.63093461 L5.12882005,10.4088824 L6.97264835,16.3386138 C7.0906269,16.7183917 7.55502961,16.8587669 7.86327614,16.6067531 L10.5186204,14.4420673 C10.7969589,14.2152756 11.1934136,14.2039739 11.4842942,14.4151224 L16.2735893,17.8922507 C16.6033365,18.1319291 17.0704958,17.95124 17.153191,17.5527867 L20.6616057,0.676685767 C20.7518813,0.241433129 20.3242091,-0.121667907 19.9097681,0.038623042 L0.359578551,7.58049826 C-0.122879289,7.76656257 -0.118675614,8.44962529 0.36516048,8.63093461 Z M6.67549677,9.46243529 L15.9854652,3.72841594 C16.1527853,3.6256671 16.3249292,3.85190751 16.1812462,3.98518468 L8.49782431,11.1272973 C8.22775543,11.3786909 8.05354411,11.7151227 8.00420262,12.0802911 L7.74247217,14.0199081 C7.70780908,14.278882 7.34401891,14.3045864 7.27255644,14.0539509 L6.26594857,10.5170064 C6.15065762,10.1135914 6.31866679,9.6826803 6.67549677,9.46243529 Z" id="XMLID_497_"></path>
                </g>
            </g>
        </g>
    </g>
</svg>