<?xml version="1.0" encoding="UTF-8"?>
<!DOCTYPE svg PUBLIC "-//W3C//DTD SVG 1.1//EN" "http://www.w3.org/Graphics/SVG/1.1/DTD/svg11.dtd">
<!-- Creator: CorelDRAW 2017 -->
<svg xmlns="http://www.w3.org/2000/svg" xml:space="preserve" width="4.2063mm" height="4.2314mm" version="1.1" style="shape-rendering:geometricPrecision; text-rendering:geometricPrecision; image-rendering:optimizeQuality; fill-rule:evenodd; clip-rule:evenodd"
viewBox="0 0 55 56"
 xmlns:xlink="http://www.w3.org/1999/xlink">
 <defs>
  <style type="text/css">
   <![CDATA[
    .str0 {stroke:#EBECEC;stroke-width:2.63672}
    .fil0 {fill:none}
    .fil1 {fill:#EBECEC}
   ]]>
  </style>
 </defs>
 <g id="Слой_x0020_1">
  <metadata id="CorelCorpID_0Corel-Layer"/>
  <ellipse class="fil0 str0" cx="28" cy="28" rx="26" ry="27"/>
  <path class="fil1" d="M22 36l-2 -6c0,-1 13,-9 14,-9l-7 7c-1,1 -3,2 -4,3 -2,2 -1,3 -2,5zm-11 -9c1,2 6,2 8,4 1,2 2,7 3,9 2,0 3,-3 5,-3 2,1 7,6 9,5 0,0 0,0 0,0 0,1 3,-11 3,-12 1,-4 3,-10 3,-14 -2,0 -19,7 -23,8 -2,1 -6,2 -7,3z"/>
 </g>
</svg>
