<?xml version="1.0" encoding="UTF-8"?>
<!DOCTYPE svg PUBLIC "-//W3C//DTD SVG 1.1//EN" "http://www.w3.org/Graphics/SVG/1.1/DTD/svg11.dtd">
<!-- Creator: CorelDRAW 2017 -->
<svg xmlns="http://www.w3.org/2000/svg" xml:space="preserve" width="3.9327mm" height="3.8887mm" version="1.1" style="shape-rendering:geometricPrecision; text-rendering:geometricPrecision; image-rendering:optimizeQuality; fill-rule:evenodd; clip-rule:evenodd"
viewBox="0 0 903 892"
 xmlns:xlink="http://www.w3.org/1999/xlink">
 <defs>
  <style type="text/css">
   <![CDATA[
    .str0 {stroke:#FEFEFE;stroke-width:22.9489}
    .fil2 {fill:none}
    .fil1 {fill:#2B2A29}
    .fil0 {fill:#FDFDFD}
   ]]>
  </style>
 </defs>
 <g id="Слой_x0020_1">
  <metadata id="CorelCorpID_0Corel-Layer"/>
  <path class="fil0" d="M392 557l-26 -91c4,-11 191,-128 211,-129l-102 99c-19,17 -37,30 -55,48 -28,27 -11,43 -28,74zm-162 -130c18,35 94,26 112,61 14,27 24,103 44,124 30,-4 48,-39 79,-50 34,9 104,82 124,76 1,-1 3,-4 3,-3 6,13 40,-167 42,-180 10,-53 38,-150 37,-199 -32,1 -273,98 -335,122 -28,11 -92,27 -106,50z"/>
  <path class="fil1" d="M392 557c17,-31 -1,-47 28,-74 18,-17 36,-31 55,-48l102 -99c-20,1 -207,119 -211,129l26 91z"/>
  <ellipse class="fil2 str0" cx="451" cy="446" rx="440" ry="435"/>
 </g>
</svg>
