<?xml version="1.0" encoding="UTF-8"?>
<svg width="25px" height="14px" viewBox="0 0 25 14" version="1.1" xmlns="http://www.w3.org/2000/svg" xmlns:xlink="http://www.w3.org/1999/xlink">
    <!-- Generator: sketchtool 48.1 (47250) - http://www.bohemiancoding.com/sketch -->
    <title>D63CB5C3-E03F-4A56-83DC-0FB731A42403</title>
    <desc>Created with sketchtool.</desc>
    <defs></defs>
    <g id="HarrisonWork" stroke="none" stroke-width="1" fill="none" fill-rule="evenodd" transform="translate(-1123.000000, -9609.000000)">
        <g id="footer" transform="translate(0.000000, 8691.000000)" fill="#D6BB74" fill-rule="nonzero">
            <g id="Group-11" transform="translate(1021.000000, 879.000000)">
                <g id="vk" transform="translate(102.000000, 39.000000)">
                    <path d="M21.5160623,8.90183785 C22.3453435,9.70303414 23.2206229,10.456843 23.9643968,11.3388336 C24.2929551,11.7307752 24.6040177,12.1352343 24.841976,12.5900881 C25.179159,13.2366861 24.8737641,13.9482284 24.2878624,13.9868374 L20.6457934,13.9852117 C19.7064452,14.0623483 18.9570858,13.6881261 18.3269931,13.0525825 C17.8227382,12.5443264 17.3557747,12.0033949 16.8709048,11.4779883 C16.672127,11.2632414 16.4640674,11.0611744 16.215513,10.9014554 C15.7183222,10.5820986 15.2867608,10.6798808 15.00264,11.1930138 C14.7132623,11.7149252 14.6476327,12.29284 14.6192124,12.8744937 C14.5801961,13.7231587 14.3209636,13.9462777 13.4594837,13.9851304 C11.6184072,14.0710455 9.871134,13.7954183 8.24797375,12.8763632 C6.81693798,12.0661446 5.70723225,10.9223448 4.74135293,9.62744192 C2.86076724,7.10599419 1.42061398,4.33533597 0.12625847,1.48705348 C-0.165090622,0.845332398 0.0479794496,0.500859446 0.763497334,0.488667152 C1.95164636,0.465826921 3.13963111,0.46745256 4.32917652,0.487041513 C4.81207511,0.494031761 5.13176235,0.768114535 5.3182192,1.21955455 C5.96104356,2.78366333 6.74761218,4.27177348 7.73492993,5.65112836 C7.99785873,6.01836027 8.26596232,6.38559217 8.64774709,6.64406881 C9.07010881,6.93026259 9.39168527,6.83540654 9.59038091,6.36982347 C9.71646517,6.07460738 9.77166297,5.75663235 9.80008326,5.44044552 C9.89421522,4.35264903 9.9066183,3.26672203 9.74151774,2.18274579 C9.6401575,1.50623603 9.25508715,1.06828882 8.57291793,0.940269729 C8.22481039,0.875000314 8.27664047,0.746818661 8.44519088,0.550197597 C8.73793635,0.211089254 9.01326822,0 9.5621249,0 L13.6782214,0 C14.3262206,0.126556014 14.4701291,0.414619285 14.5588398,1.05983549 L14.5623718,5.58423331 C14.5553078,5.83401278 14.6884561,6.57522298 15.1430987,6.74055049 C15.506977,6.85824677 15.7468246,6.5701835 15.9651516,6.34186247 C16.9506623,5.30681798 17.6540235,4.08360574 18.2823913,2.81698894 C18.5612552,2.26004494 18.8010206,1.6816425 19.0333935,1.10372775 C19.205558,0.674884125 19.4757151,0.463876154 19.9638707,0.473223579 L23.9253805,0.476718703 C24.0428401,0.476718703 24.161696,0.478425625 24.2754594,0.49768945 C24.9430077,0.610264966 25.1259326,0.894426703 24.9197622,1.53948035 C24.5949002,2.55152205 23.9628361,3.39490368 23.3448179,4.24218685 C22.6841693,5.14677379 21.9776046,6.02039232 21.3224593,6.93034387 C20.7205405,7.76128936 20.7683457,8.18013531 21.5160623,8.90183785 Z" id="XMLID_807_"></path>
                </g>
            </g>
        </g>
    </g>
</svg>