<?xml version="1.0" encoding="UTF-8"?>
<!DOCTYPE svg PUBLIC "-//W3C//DTD SVG 1.1//EN" "http://www.w3.org/Graphics/SVG/1.1/DTD/svg11.dtd">
<!-- Creator: CorelDRAW 2017 -->
<svg xmlns="http://www.w3.org/2000/svg" xml:space="preserve" width="4.2063mm" height="4.2314mm" version="1.1" style="shape-rendering:geometricPrecision; text-rendering:geometricPrecision; image-rendering:optimizeQuality; fill-rule:evenodd; clip-rule:evenodd"
viewBox="0 0 55 55"
 xmlns:xlink="http://www.w3.org/1999/xlink">
 <defs>
  <style type="text/css">
   <![CDATA[
    .str0 {stroke:#EBECEC;stroke-width:2.60391}
    .fil1 {fill:none}
    .fil0 {fill:#EBECEC}
   ]]>
  </style>
 </defs>
 <g id="Слой_x0020_1">
  <metadata id="CorelCorpID_0Corel-Layer"/>
  <path class="fil0" d="M25 30c3,0 8,-1 8,3 0,4 -5,3 -8,3l0 0 0 -6zm0 -11c3,0 7,-1 7,3 0,3 -4,3 -7,3l0 -5zm7 22c5,0 8,-2 9,-6 1,-2 0,-5 -1,-6 -2,-2 -3,-2 -5,-3 1,-1 2,-1 3,-3 3,-4 0,-10 -6,-10 -6,0 -12,0 -18,0l0 28 16 0z"/>
  <circle class="fil1 str0" cx="27" cy="28" r="26"/>
 </g>
</svg>
