<?xml version="1.0" encoding="UTF-8"?>
<!DOCTYPE svg PUBLIC "-//W3C//DTD SVG 1.1//EN" "http://www.w3.org/Graphics/SVG/1.1/DTD/svg11.dtd">
<!-- Creator: CorelDRAW 2017 -->
<svg xmlns="http://www.w3.org/2000/svg" xml:space="preserve" width="4.0332mm" height="4.0689mm" version="1.1" style="shape-rendering:geometricPrecision; text-rendering:geometricPrecision; image-rendering:optimizeQuality; fill-rule:evenodd; clip-rule:evenodd"
viewBox="0 0 1159 1169"
 xmlns:xlink="http://www.w3.org/1999/xlink">
 <defs>
  <style type="text/css">
   <![CDATA[
    .fil0 {fill:#48587F}
    .fil1 {fill:#48587F}
   ]]>
  </style>
 </defs>
 <g id="Слой_x0020_1">
  <metadata id="CorelCorpID_0Corel-Layer"/>
  <path class="fil0" d="M135 1037c13,-54 59,-149 45,-200 -18,-65 -56,-93 -69,-190 -66,-485 509,-726 814,-423 203,201 184,551 -18,713 -291,232 -514,59 -581,53 -49,-5 -135,38 -191,48zm-114 -525c0,105 -6,159 33,264 19,51 45,73 31,128 -14,57 -82,223 -85,265 105,0 186,-58 283,-77 69,-13 290,136 556,2 452,-228 429,-912 -95,-1070 -268,-80 -509,40 -654,269 -32,50 -70,165 -70,218z"/>
  <path class="fil1" d="M456 524c38,-63 63,-38 23,-132 -22,-53 -44,-118 -116,-62 -103,80 -21,224 30,292 173,232 496,287 480,74 -42,-17 -96,-52 -142,-59 -21,26 -35,46 -63,69 -90,-17 -189,-110 -211,-183z"/>
 </g>
</svg>
